%TF.GenerationSoftware,KiCad,Pcbnew,8.0.3-8.0.3-0~ubuntu24.04.1*%
%TF.CreationDate,2024-07-13T12:59:12+02:00*%
%TF.ProjectId,erace-rx-v2,65726163-652d-4727-982d-76322e6b6963,rev?*%
%TF.SameCoordinates,Original*%
%TF.FileFunction,Drillmap*%
%TF.FilePolarity,Positive*%
%FSLAX45Y45*%
G04 Gerber Fmt 4.5, Leading zero omitted, Abs format (unit mm)*
G04 Created by KiCad (PCBNEW 8.0.3-8.0.3-0~ubuntu24.04.1) date 2024-07-13 12:59:12*
%MOMM*%
%LPD*%
G01*
G04 APERTURE LIST*
%ADD10C,0.050000*%
%ADD11C,0.200000*%
%ADD12C,0.100000*%
G04 APERTURE END LIST*
D10*
X7465000Y-7300000D02*
G75*
G02*
X7135000Y-7300000I-165000J0D01*
G01*
X7135000Y-7300000D02*
G75*
G02*
X7465000Y-7300000I165000J0D01*
G01*
X7700000Y-7100000D02*
X7700000Y-5500000D01*
X5500000Y-7700000D02*
G75*
G02*
X4900000Y-7100000I0J600000D01*
G01*
X5465000Y-5300000D02*
G75*
G02*
X5135000Y-5300000I-165000J0D01*
G01*
X5135000Y-5300000D02*
G75*
G02*
X5465000Y-5300000I165000J0D01*
G01*
X7100000Y-4900000D02*
G75*
G02*
X7700000Y-5500000I0J-600000D01*
G01*
X7465000Y-5300000D02*
G75*
G02*
X7135000Y-5300000I-165000J0D01*
G01*
X7135000Y-5300000D02*
G75*
G02*
X7465000Y-5300000I165000J0D01*
G01*
X5465000Y-7300000D02*
G75*
G02*
X5135000Y-7300000I-165000J0D01*
G01*
X5135000Y-7300000D02*
G75*
G02*
X5465000Y-7300000I165000J0D01*
G01*
X7700000Y-7100000D02*
G75*
G02*
X7100000Y-7700000I-600000J0D01*
G01*
X4900000Y-5500000D02*
G75*
G02*
X5500000Y-4900000I600000J0D01*
G01*
X7100000Y-4900000D02*
X5500000Y-4900000D01*
X5500000Y-7700000D02*
X7100000Y-7700000D01*
X4900000Y-5500000D02*
X4900000Y-7100000D01*
D11*
D12*
X6155500Y-7018500D02*
X6220500Y-7083500D01*
X6220500Y-7018500D02*
X6155500Y-7083500D01*
X6733500Y-7018500D02*
X6798500Y-7083500D01*
X6798500Y-7018500D02*
X6733500Y-7083500D01*
D11*
X5158277Y-8013984D02*
X5158277Y-7813984D01*
X5158277Y-7813984D02*
X5205896Y-7813984D01*
X5205896Y-7813984D02*
X5234467Y-7823508D01*
X5234467Y-7823508D02*
X5253515Y-7842555D01*
X5253515Y-7842555D02*
X5263039Y-7861603D01*
X5263039Y-7861603D02*
X5272563Y-7899698D01*
X5272563Y-7899698D02*
X5272563Y-7928269D01*
X5272563Y-7928269D02*
X5263039Y-7966365D01*
X5263039Y-7966365D02*
X5253515Y-7985412D01*
X5253515Y-7985412D02*
X5234467Y-8004460D01*
X5234467Y-8004460D02*
X5205896Y-8013984D01*
X5205896Y-8013984D02*
X5158277Y-8013984D01*
X5358277Y-8013984D02*
X5358277Y-7880650D01*
X5358277Y-7918746D02*
X5367801Y-7899698D01*
X5367801Y-7899698D02*
X5377324Y-7890174D01*
X5377324Y-7890174D02*
X5396372Y-7880650D01*
X5396372Y-7880650D02*
X5415420Y-7880650D01*
X5482086Y-8013984D02*
X5482086Y-7880650D01*
X5482086Y-7813984D02*
X5472563Y-7823508D01*
X5472563Y-7823508D02*
X5482086Y-7833031D01*
X5482086Y-7833031D02*
X5491610Y-7823508D01*
X5491610Y-7823508D02*
X5482086Y-7813984D01*
X5482086Y-7813984D02*
X5482086Y-7833031D01*
X5605896Y-8013984D02*
X5586848Y-8004460D01*
X5586848Y-8004460D02*
X5577324Y-7985412D01*
X5577324Y-7985412D02*
X5577324Y-7813984D01*
X5710658Y-8013984D02*
X5691610Y-8004460D01*
X5691610Y-8004460D02*
X5682086Y-7985412D01*
X5682086Y-7985412D02*
X5682086Y-7813984D01*
X5939229Y-8013984D02*
X5939229Y-7813984D01*
X5939229Y-7813984D02*
X6005896Y-7956841D01*
X6005896Y-7956841D02*
X6072562Y-7813984D01*
X6072562Y-7813984D02*
X6072562Y-8013984D01*
X6253515Y-8013984D02*
X6253515Y-7909222D01*
X6253515Y-7909222D02*
X6243991Y-7890174D01*
X6243991Y-7890174D02*
X6224943Y-7880650D01*
X6224943Y-7880650D02*
X6186848Y-7880650D01*
X6186848Y-7880650D02*
X6167801Y-7890174D01*
X6253515Y-8004460D02*
X6234467Y-8013984D01*
X6234467Y-8013984D02*
X6186848Y-8013984D01*
X6186848Y-8013984D02*
X6167801Y-8004460D01*
X6167801Y-8004460D02*
X6158277Y-7985412D01*
X6158277Y-7985412D02*
X6158277Y-7966365D01*
X6158277Y-7966365D02*
X6167801Y-7947317D01*
X6167801Y-7947317D02*
X6186848Y-7937793D01*
X6186848Y-7937793D02*
X6234467Y-7937793D01*
X6234467Y-7937793D02*
X6253515Y-7928269D01*
X6348753Y-7880650D02*
X6348753Y-8080650D01*
X6348753Y-7890174D02*
X6367801Y-7880650D01*
X6367801Y-7880650D02*
X6405896Y-7880650D01*
X6405896Y-7880650D02*
X6424943Y-7890174D01*
X6424943Y-7890174D02*
X6434467Y-7899698D01*
X6434467Y-7899698D02*
X6443991Y-7918746D01*
X6443991Y-7918746D02*
X6443991Y-7975888D01*
X6443991Y-7975888D02*
X6434467Y-7994936D01*
X6434467Y-7994936D02*
X6424943Y-8004460D01*
X6424943Y-8004460D02*
X6405896Y-8013984D01*
X6405896Y-8013984D02*
X6367801Y-8013984D01*
X6367801Y-8013984D02*
X6348753Y-8004460D01*
X6529705Y-7994936D02*
X6539229Y-8004460D01*
X6539229Y-8004460D02*
X6529705Y-8013984D01*
X6529705Y-8013984D02*
X6520182Y-8004460D01*
X6520182Y-8004460D02*
X6529705Y-7994936D01*
X6529705Y-7994936D02*
X6529705Y-8013984D01*
X6529705Y-7890174D02*
X6539229Y-7899698D01*
X6539229Y-7899698D02*
X6529705Y-7909222D01*
X6529705Y-7909222D02*
X6520182Y-7899698D01*
X6520182Y-7899698D02*
X6529705Y-7890174D01*
X6529705Y-7890174D02*
X6529705Y-7909222D01*
D12*
X4832500Y-8310000D02*
X4897500Y-8375000D01*
X4897500Y-8310000D02*
X4832500Y-8375000D01*
D11*
X5196372Y-8233984D02*
X5215420Y-8233984D01*
X5215420Y-8233984D02*
X5234467Y-8243508D01*
X5234467Y-8243508D02*
X5243991Y-8253031D01*
X5243991Y-8253031D02*
X5253515Y-8272079D01*
X5253515Y-8272079D02*
X5263039Y-8310174D01*
X5263039Y-8310174D02*
X5263039Y-8357793D01*
X5263039Y-8357793D02*
X5253515Y-8395889D01*
X5253515Y-8395889D02*
X5243991Y-8414936D01*
X5243991Y-8414936D02*
X5234467Y-8424460D01*
X5234467Y-8424460D02*
X5215420Y-8433984D01*
X5215420Y-8433984D02*
X5196372Y-8433984D01*
X5196372Y-8433984D02*
X5177324Y-8424460D01*
X5177324Y-8424460D02*
X5167801Y-8414936D01*
X5167801Y-8414936D02*
X5158277Y-8395889D01*
X5158277Y-8395889D02*
X5148753Y-8357793D01*
X5148753Y-8357793D02*
X5148753Y-8310174D01*
X5148753Y-8310174D02*
X5158277Y-8272079D01*
X5158277Y-8272079D02*
X5167801Y-8253031D01*
X5167801Y-8253031D02*
X5177324Y-8243508D01*
X5177324Y-8243508D02*
X5196372Y-8233984D01*
X5348753Y-8414936D02*
X5358277Y-8424460D01*
X5358277Y-8424460D02*
X5348753Y-8433984D01*
X5348753Y-8433984D02*
X5339229Y-8424460D01*
X5339229Y-8424460D02*
X5348753Y-8414936D01*
X5348753Y-8414936D02*
X5348753Y-8433984D01*
X5529705Y-8233984D02*
X5491610Y-8233984D01*
X5491610Y-8233984D02*
X5472563Y-8243508D01*
X5472563Y-8243508D02*
X5463039Y-8253031D01*
X5463039Y-8253031D02*
X5443991Y-8281603D01*
X5443991Y-8281603D02*
X5434467Y-8319698D01*
X5434467Y-8319698D02*
X5434467Y-8395889D01*
X5434467Y-8395889D02*
X5443991Y-8414936D01*
X5443991Y-8414936D02*
X5453515Y-8424460D01*
X5453515Y-8424460D02*
X5472563Y-8433984D01*
X5472563Y-8433984D02*
X5510658Y-8433984D01*
X5510658Y-8433984D02*
X5529705Y-8424460D01*
X5529705Y-8424460D02*
X5539229Y-8414936D01*
X5539229Y-8414936D02*
X5548753Y-8395889D01*
X5548753Y-8395889D02*
X5548753Y-8348269D01*
X5548753Y-8348269D02*
X5539229Y-8329222D01*
X5539229Y-8329222D02*
X5529705Y-8319698D01*
X5529705Y-8319698D02*
X5510658Y-8310174D01*
X5510658Y-8310174D02*
X5472563Y-8310174D01*
X5472563Y-8310174D02*
X5453515Y-8319698D01*
X5453515Y-8319698D02*
X5443991Y-8329222D01*
X5443991Y-8329222D02*
X5434467Y-8348269D01*
X5729705Y-8233984D02*
X5634467Y-8233984D01*
X5634467Y-8233984D02*
X5624943Y-8329222D01*
X5624943Y-8329222D02*
X5634467Y-8319698D01*
X5634467Y-8319698D02*
X5653515Y-8310174D01*
X5653515Y-8310174D02*
X5701134Y-8310174D01*
X5701134Y-8310174D02*
X5720182Y-8319698D01*
X5720182Y-8319698D02*
X5729705Y-8329222D01*
X5729705Y-8329222D02*
X5739229Y-8348269D01*
X5739229Y-8348269D02*
X5739229Y-8395889D01*
X5739229Y-8395889D02*
X5729705Y-8414936D01*
X5729705Y-8414936D02*
X5720182Y-8424460D01*
X5720182Y-8424460D02*
X5701134Y-8433984D01*
X5701134Y-8433984D02*
X5653515Y-8433984D01*
X5653515Y-8433984D02*
X5634467Y-8424460D01*
X5634467Y-8424460D02*
X5624943Y-8414936D01*
X5863039Y-8233984D02*
X5882086Y-8233984D01*
X5882086Y-8233984D02*
X5901134Y-8243508D01*
X5901134Y-8243508D02*
X5910658Y-8253031D01*
X5910658Y-8253031D02*
X5920182Y-8272079D01*
X5920182Y-8272079D02*
X5929705Y-8310174D01*
X5929705Y-8310174D02*
X5929705Y-8357793D01*
X5929705Y-8357793D02*
X5920182Y-8395889D01*
X5920182Y-8395889D02*
X5910658Y-8414936D01*
X5910658Y-8414936D02*
X5901134Y-8424460D01*
X5901134Y-8424460D02*
X5882086Y-8433984D01*
X5882086Y-8433984D02*
X5863039Y-8433984D01*
X5863039Y-8433984D02*
X5843991Y-8424460D01*
X5843991Y-8424460D02*
X5834467Y-8414936D01*
X5834467Y-8414936D02*
X5824943Y-8395889D01*
X5824943Y-8395889D02*
X5815420Y-8357793D01*
X5815420Y-8357793D02*
X5815420Y-8310174D01*
X5815420Y-8310174D02*
X5824943Y-8272079D01*
X5824943Y-8272079D02*
X5834467Y-8253031D01*
X5834467Y-8253031D02*
X5843991Y-8243508D01*
X5843991Y-8243508D02*
X5863039Y-8233984D01*
X6015420Y-8433984D02*
X6015420Y-8300650D01*
X6015420Y-8319698D02*
X6024943Y-8310174D01*
X6024943Y-8310174D02*
X6043991Y-8300650D01*
X6043991Y-8300650D02*
X6072563Y-8300650D01*
X6072563Y-8300650D02*
X6091610Y-8310174D01*
X6091610Y-8310174D02*
X6101134Y-8329222D01*
X6101134Y-8329222D02*
X6101134Y-8433984D01*
X6101134Y-8329222D02*
X6110658Y-8310174D01*
X6110658Y-8310174D02*
X6129705Y-8300650D01*
X6129705Y-8300650D02*
X6158277Y-8300650D01*
X6158277Y-8300650D02*
X6177324Y-8310174D01*
X6177324Y-8310174D02*
X6186848Y-8329222D01*
X6186848Y-8329222D02*
X6186848Y-8433984D01*
X6282086Y-8433984D02*
X6282086Y-8300650D01*
X6282086Y-8319698D02*
X6291610Y-8310174D01*
X6291610Y-8310174D02*
X6310658Y-8300650D01*
X6310658Y-8300650D02*
X6339229Y-8300650D01*
X6339229Y-8300650D02*
X6358277Y-8310174D01*
X6358277Y-8310174D02*
X6367801Y-8329222D01*
X6367801Y-8329222D02*
X6367801Y-8433984D01*
X6367801Y-8329222D02*
X6377324Y-8310174D01*
X6377324Y-8310174D02*
X6396372Y-8300650D01*
X6396372Y-8300650D02*
X6424943Y-8300650D01*
X6424943Y-8300650D02*
X6443991Y-8310174D01*
X6443991Y-8310174D02*
X6453515Y-8329222D01*
X6453515Y-8329222D02*
X6453515Y-8433984D01*
X6843991Y-8224460D02*
X6672563Y-8481603D01*
X7101134Y-8233984D02*
X7120182Y-8233984D01*
X7120182Y-8233984D02*
X7139229Y-8243508D01*
X7139229Y-8243508D02*
X7148753Y-8253031D01*
X7148753Y-8253031D02*
X7158277Y-8272079D01*
X7158277Y-8272079D02*
X7167801Y-8310174D01*
X7167801Y-8310174D02*
X7167801Y-8357793D01*
X7167801Y-8357793D02*
X7158277Y-8395889D01*
X7158277Y-8395889D02*
X7148753Y-8414936D01*
X7148753Y-8414936D02*
X7139229Y-8424460D01*
X7139229Y-8424460D02*
X7120182Y-8433984D01*
X7120182Y-8433984D02*
X7101134Y-8433984D01*
X7101134Y-8433984D02*
X7082086Y-8424460D01*
X7082086Y-8424460D02*
X7072563Y-8414936D01*
X7072563Y-8414936D02*
X7063039Y-8395889D01*
X7063039Y-8395889D02*
X7053515Y-8357793D01*
X7053515Y-8357793D02*
X7053515Y-8310174D01*
X7053515Y-8310174D02*
X7063039Y-8272079D01*
X7063039Y-8272079D02*
X7072563Y-8253031D01*
X7072563Y-8253031D02*
X7082086Y-8243508D01*
X7082086Y-8243508D02*
X7101134Y-8233984D01*
X7253515Y-8414936D02*
X7263039Y-8424460D01*
X7263039Y-8424460D02*
X7253515Y-8433984D01*
X7253515Y-8433984D02*
X7243991Y-8424460D01*
X7243991Y-8424460D02*
X7253515Y-8414936D01*
X7253515Y-8414936D02*
X7253515Y-8433984D01*
X7386848Y-8233984D02*
X7405896Y-8233984D01*
X7405896Y-8233984D02*
X7424944Y-8243508D01*
X7424944Y-8243508D02*
X7434467Y-8253031D01*
X7434467Y-8253031D02*
X7443991Y-8272079D01*
X7443991Y-8272079D02*
X7453515Y-8310174D01*
X7453515Y-8310174D02*
X7453515Y-8357793D01*
X7453515Y-8357793D02*
X7443991Y-8395889D01*
X7443991Y-8395889D02*
X7434467Y-8414936D01*
X7434467Y-8414936D02*
X7424944Y-8424460D01*
X7424944Y-8424460D02*
X7405896Y-8433984D01*
X7405896Y-8433984D02*
X7386848Y-8433984D01*
X7386848Y-8433984D02*
X7367801Y-8424460D01*
X7367801Y-8424460D02*
X7358277Y-8414936D01*
X7358277Y-8414936D02*
X7348753Y-8395889D01*
X7348753Y-8395889D02*
X7339229Y-8357793D01*
X7339229Y-8357793D02*
X7339229Y-8310174D01*
X7339229Y-8310174D02*
X7348753Y-8272079D01*
X7348753Y-8272079D02*
X7358277Y-8253031D01*
X7358277Y-8253031D02*
X7367801Y-8243508D01*
X7367801Y-8243508D02*
X7386848Y-8233984D01*
X7529706Y-8253031D02*
X7539229Y-8243508D01*
X7539229Y-8243508D02*
X7558277Y-8233984D01*
X7558277Y-8233984D02*
X7605896Y-8233984D01*
X7605896Y-8233984D02*
X7624944Y-8243508D01*
X7624944Y-8243508D02*
X7634467Y-8253031D01*
X7634467Y-8253031D02*
X7643991Y-8272079D01*
X7643991Y-8272079D02*
X7643991Y-8291127D01*
X7643991Y-8291127D02*
X7634467Y-8319698D01*
X7634467Y-8319698D02*
X7520182Y-8433984D01*
X7520182Y-8433984D02*
X7643991Y-8433984D01*
X7824944Y-8233984D02*
X7729706Y-8233984D01*
X7729706Y-8233984D02*
X7720182Y-8329222D01*
X7720182Y-8329222D02*
X7729706Y-8319698D01*
X7729706Y-8319698D02*
X7748753Y-8310174D01*
X7748753Y-8310174D02*
X7796372Y-8310174D01*
X7796372Y-8310174D02*
X7815420Y-8319698D01*
X7815420Y-8319698D02*
X7824944Y-8329222D01*
X7824944Y-8329222D02*
X7834467Y-8348269D01*
X7834467Y-8348269D02*
X7834467Y-8395889D01*
X7834467Y-8395889D02*
X7824944Y-8414936D01*
X7824944Y-8414936D02*
X7815420Y-8424460D01*
X7815420Y-8424460D02*
X7796372Y-8433984D01*
X7796372Y-8433984D02*
X7748753Y-8433984D01*
X7748753Y-8433984D02*
X7729706Y-8424460D01*
X7729706Y-8424460D02*
X7720182Y-8414936D01*
X8005896Y-8233984D02*
X7967801Y-8233984D01*
X7967801Y-8233984D02*
X7948753Y-8243508D01*
X7948753Y-8243508D02*
X7939229Y-8253031D01*
X7939229Y-8253031D02*
X7920182Y-8281603D01*
X7920182Y-8281603D02*
X7910658Y-8319698D01*
X7910658Y-8319698D02*
X7910658Y-8395889D01*
X7910658Y-8395889D02*
X7920182Y-8414936D01*
X7920182Y-8414936D02*
X7929706Y-8424460D01*
X7929706Y-8424460D02*
X7948753Y-8433984D01*
X7948753Y-8433984D02*
X7986848Y-8433984D01*
X7986848Y-8433984D02*
X8005896Y-8424460D01*
X8005896Y-8424460D02*
X8015420Y-8414936D01*
X8015420Y-8414936D02*
X8024944Y-8395889D01*
X8024944Y-8395889D02*
X8024944Y-8348269D01*
X8024944Y-8348269D02*
X8015420Y-8329222D01*
X8015420Y-8329222D02*
X8005896Y-8319698D01*
X8005896Y-8319698D02*
X7986848Y-8310174D01*
X7986848Y-8310174D02*
X7948753Y-8310174D01*
X7948753Y-8310174D02*
X7929706Y-8319698D01*
X7929706Y-8319698D02*
X7920182Y-8329222D01*
X7920182Y-8329222D02*
X7910658Y-8348269D01*
X8101134Y-8233984D02*
X8101134Y-8272079D01*
X8177325Y-8233984D02*
X8177325Y-8272079D01*
X8472563Y-8510174D02*
X8463039Y-8500650D01*
X8463039Y-8500650D02*
X8443991Y-8472079D01*
X8443991Y-8472079D02*
X8434468Y-8453031D01*
X8434468Y-8453031D02*
X8424944Y-8424460D01*
X8424944Y-8424460D02*
X8415420Y-8376841D01*
X8415420Y-8376841D02*
X8415420Y-8338746D01*
X8415420Y-8338746D02*
X8424944Y-8291127D01*
X8424944Y-8291127D02*
X8434468Y-8262555D01*
X8434468Y-8262555D02*
X8443991Y-8243508D01*
X8443991Y-8243508D02*
X8463039Y-8214936D01*
X8463039Y-8214936D02*
X8472563Y-8205412D01*
X8539230Y-8253031D02*
X8548753Y-8243508D01*
X8548753Y-8243508D02*
X8567801Y-8233984D01*
X8567801Y-8233984D02*
X8615420Y-8233984D01*
X8615420Y-8233984D02*
X8634468Y-8243508D01*
X8634468Y-8243508D02*
X8643991Y-8253031D01*
X8643991Y-8253031D02*
X8653515Y-8272079D01*
X8653515Y-8272079D02*
X8653515Y-8291127D01*
X8653515Y-8291127D02*
X8643991Y-8319698D01*
X8643991Y-8319698D02*
X8529706Y-8433984D01*
X8529706Y-8433984D02*
X8653515Y-8433984D01*
X8891611Y-8433984D02*
X8891611Y-8233984D01*
X8977325Y-8433984D02*
X8977325Y-8329222D01*
X8977325Y-8329222D02*
X8967801Y-8310174D01*
X8967801Y-8310174D02*
X8948753Y-8300650D01*
X8948753Y-8300650D02*
X8920182Y-8300650D01*
X8920182Y-8300650D02*
X8901134Y-8310174D01*
X8901134Y-8310174D02*
X8891611Y-8319698D01*
X9101134Y-8433984D02*
X9082087Y-8424460D01*
X9082087Y-8424460D02*
X9072563Y-8414936D01*
X9072563Y-8414936D02*
X9063039Y-8395889D01*
X9063039Y-8395889D02*
X9063039Y-8338746D01*
X9063039Y-8338746D02*
X9072563Y-8319698D01*
X9072563Y-8319698D02*
X9082087Y-8310174D01*
X9082087Y-8310174D02*
X9101134Y-8300650D01*
X9101134Y-8300650D02*
X9129706Y-8300650D01*
X9129706Y-8300650D02*
X9148753Y-8310174D01*
X9148753Y-8310174D02*
X9158277Y-8319698D01*
X9158277Y-8319698D02*
X9167801Y-8338746D01*
X9167801Y-8338746D02*
X9167801Y-8395889D01*
X9167801Y-8395889D02*
X9158277Y-8414936D01*
X9158277Y-8414936D02*
X9148753Y-8424460D01*
X9148753Y-8424460D02*
X9129706Y-8433984D01*
X9129706Y-8433984D02*
X9101134Y-8433984D01*
X9282087Y-8433984D02*
X9263039Y-8424460D01*
X9263039Y-8424460D02*
X9253515Y-8405412D01*
X9253515Y-8405412D02*
X9253515Y-8233984D01*
X9434468Y-8424460D02*
X9415420Y-8433984D01*
X9415420Y-8433984D02*
X9377325Y-8433984D01*
X9377325Y-8433984D02*
X9358277Y-8424460D01*
X9358277Y-8424460D02*
X9348753Y-8405412D01*
X9348753Y-8405412D02*
X9348753Y-8329222D01*
X9348753Y-8329222D02*
X9358277Y-8310174D01*
X9358277Y-8310174D02*
X9377325Y-8300650D01*
X9377325Y-8300650D02*
X9415420Y-8300650D01*
X9415420Y-8300650D02*
X9434468Y-8310174D01*
X9434468Y-8310174D02*
X9443992Y-8329222D01*
X9443992Y-8329222D02*
X9443992Y-8348269D01*
X9443992Y-8348269D02*
X9348753Y-8367317D01*
X9520182Y-8424460D02*
X9539230Y-8433984D01*
X9539230Y-8433984D02*
X9577325Y-8433984D01*
X9577325Y-8433984D02*
X9596373Y-8424460D01*
X9596373Y-8424460D02*
X9605896Y-8405412D01*
X9605896Y-8405412D02*
X9605896Y-8395889D01*
X9605896Y-8395889D02*
X9596373Y-8376841D01*
X9596373Y-8376841D02*
X9577325Y-8367317D01*
X9577325Y-8367317D02*
X9548753Y-8367317D01*
X9548753Y-8367317D02*
X9529706Y-8357793D01*
X9529706Y-8357793D02*
X9520182Y-8338746D01*
X9520182Y-8338746D02*
X9520182Y-8329222D01*
X9520182Y-8329222D02*
X9529706Y-8310174D01*
X9529706Y-8310174D02*
X9548753Y-8300650D01*
X9548753Y-8300650D02*
X9577325Y-8300650D01*
X9577325Y-8300650D02*
X9596373Y-8310174D01*
X9672563Y-8510174D02*
X9682087Y-8500650D01*
X9682087Y-8500650D02*
X9701134Y-8472079D01*
X9701134Y-8472079D02*
X9710658Y-8453031D01*
X9710658Y-8453031D02*
X9720182Y-8424460D01*
X9720182Y-8424460D02*
X9729706Y-8376841D01*
X9729706Y-8376841D02*
X9729706Y-8338746D01*
X9729706Y-8338746D02*
X9720182Y-8291127D01*
X9720182Y-8291127D02*
X9710658Y-8262555D01*
X9710658Y-8262555D02*
X9701134Y-8243508D01*
X9701134Y-8243508D02*
X9682087Y-8214936D01*
X9682087Y-8214936D02*
X9672563Y-8205412D01*
X10034468Y-8510174D02*
X10024944Y-8500650D01*
X10024944Y-8500650D02*
X10005896Y-8472079D01*
X10005896Y-8472079D02*
X9996373Y-8453031D01*
X9996373Y-8453031D02*
X9986849Y-8424460D01*
X9986849Y-8424460D02*
X9977325Y-8376841D01*
X9977325Y-8376841D02*
X9977325Y-8338746D01*
X9977325Y-8338746D02*
X9986849Y-8291127D01*
X9986849Y-8291127D02*
X9996373Y-8262555D01*
X9996373Y-8262555D02*
X10005896Y-8243508D01*
X10005896Y-8243508D02*
X10024944Y-8214936D01*
X10024944Y-8214936D02*
X10034468Y-8205412D01*
X10110658Y-8300650D02*
X10110658Y-8433984D01*
X10110658Y-8319698D02*
X10120182Y-8310174D01*
X10120182Y-8310174D02*
X10139230Y-8300650D01*
X10139230Y-8300650D02*
X10167801Y-8300650D01*
X10167801Y-8300650D02*
X10186849Y-8310174D01*
X10186849Y-8310174D02*
X10196373Y-8329222D01*
X10196373Y-8329222D02*
X10196373Y-8433984D01*
X10320182Y-8433984D02*
X10301134Y-8424460D01*
X10301134Y-8424460D02*
X10291611Y-8414936D01*
X10291611Y-8414936D02*
X10282087Y-8395889D01*
X10282087Y-8395889D02*
X10282087Y-8338746D01*
X10282087Y-8338746D02*
X10291611Y-8319698D01*
X10291611Y-8319698D02*
X10301134Y-8310174D01*
X10301134Y-8310174D02*
X10320182Y-8300650D01*
X10320182Y-8300650D02*
X10348754Y-8300650D01*
X10348754Y-8300650D02*
X10367801Y-8310174D01*
X10367801Y-8310174D02*
X10377325Y-8319698D01*
X10377325Y-8319698D02*
X10386849Y-8338746D01*
X10386849Y-8338746D02*
X10386849Y-8395889D01*
X10386849Y-8395889D02*
X10377325Y-8414936D01*
X10377325Y-8414936D02*
X10367801Y-8424460D01*
X10367801Y-8424460D02*
X10348754Y-8433984D01*
X10348754Y-8433984D02*
X10320182Y-8433984D01*
X10443992Y-8300650D02*
X10520182Y-8300650D01*
X10472563Y-8233984D02*
X10472563Y-8405412D01*
X10472563Y-8405412D02*
X10482087Y-8424460D01*
X10482087Y-8424460D02*
X10501134Y-8433984D01*
X10501134Y-8433984D02*
X10520182Y-8433984D01*
X10739230Y-8300650D02*
X10739230Y-8500650D01*
X10739230Y-8310174D02*
X10758277Y-8300650D01*
X10758277Y-8300650D02*
X10796373Y-8300650D01*
X10796373Y-8300650D02*
X10815420Y-8310174D01*
X10815420Y-8310174D02*
X10824944Y-8319698D01*
X10824944Y-8319698D02*
X10834468Y-8338746D01*
X10834468Y-8338746D02*
X10834468Y-8395889D01*
X10834468Y-8395889D02*
X10824944Y-8414936D01*
X10824944Y-8414936D02*
X10815420Y-8424460D01*
X10815420Y-8424460D02*
X10796373Y-8433984D01*
X10796373Y-8433984D02*
X10758277Y-8433984D01*
X10758277Y-8433984D02*
X10739230Y-8424460D01*
X10948754Y-8433984D02*
X10929706Y-8424460D01*
X10929706Y-8424460D02*
X10920182Y-8405412D01*
X10920182Y-8405412D02*
X10920182Y-8233984D01*
X11110658Y-8433984D02*
X11110658Y-8329222D01*
X11110658Y-8329222D02*
X11101135Y-8310174D01*
X11101135Y-8310174D02*
X11082087Y-8300650D01*
X11082087Y-8300650D02*
X11043992Y-8300650D01*
X11043992Y-8300650D02*
X11024944Y-8310174D01*
X11110658Y-8424460D02*
X11091611Y-8433984D01*
X11091611Y-8433984D02*
X11043992Y-8433984D01*
X11043992Y-8433984D02*
X11024944Y-8424460D01*
X11024944Y-8424460D02*
X11015420Y-8405412D01*
X11015420Y-8405412D02*
X11015420Y-8386365D01*
X11015420Y-8386365D02*
X11024944Y-8367317D01*
X11024944Y-8367317D02*
X11043992Y-8357793D01*
X11043992Y-8357793D02*
X11091611Y-8357793D01*
X11091611Y-8357793D02*
X11110658Y-8348269D01*
X11177325Y-8300650D02*
X11253515Y-8300650D01*
X11205896Y-8233984D02*
X11205896Y-8405412D01*
X11205896Y-8405412D02*
X11215420Y-8424460D01*
X11215420Y-8424460D02*
X11234468Y-8433984D01*
X11234468Y-8433984D02*
X11253515Y-8433984D01*
X11396373Y-8424460D02*
X11377325Y-8433984D01*
X11377325Y-8433984D02*
X11339230Y-8433984D01*
X11339230Y-8433984D02*
X11320182Y-8424460D01*
X11320182Y-8424460D02*
X11310658Y-8405412D01*
X11310658Y-8405412D02*
X11310658Y-8329222D01*
X11310658Y-8329222D02*
X11320182Y-8310174D01*
X11320182Y-8310174D02*
X11339230Y-8300650D01*
X11339230Y-8300650D02*
X11377325Y-8300650D01*
X11377325Y-8300650D02*
X11396373Y-8310174D01*
X11396373Y-8310174D02*
X11405896Y-8329222D01*
X11405896Y-8329222D02*
X11405896Y-8348269D01*
X11405896Y-8348269D02*
X11310658Y-8367317D01*
X11577325Y-8433984D02*
X11577325Y-8233984D01*
X11577325Y-8424460D02*
X11558277Y-8433984D01*
X11558277Y-8433984D02*
X11520182Y-8433984D01*
X11520182Y-8433984D02*
X11501134Y-8424460D01*
X11501134Y-8424460D02*
X11491611Y-8414936D01*
X11491611Y-8414936D02*
X11482087Y-8395889D01*
X11482087Y-8395889D02*
X11482087Y-8338746D01*
X11482087Y-8338746D02*
X11491611Y-8319698D01*
X11491611Y-8319698D02*
X11501134Y-8310174D01*
X11501134Y-8310174D02*
X11520182Y-8300650D01*
X11520182Y-8300650D02*
X11558277Y-8300650D01*
X11558277Y-8300650D02*
X11577325Y-8310174D01*
X11653515Y-8510174D02*
X11663039Y-8500650D01*
X11663039Y-8500650D02*
X11682087Y-8472079D01*
X11682087Y-8472079D02*
X11691611Y-8453031D01*
X11691611Y-8453031D02*
X11701134Y-8424460D01*
X11701134Y-8424460D02*
X11710658Y-8376841D01*
X11710658Y-8376841D02*
X11710658Y-8338746D01*
X11710658Y-8338746D02*
X11701134Y-8291127D01*
X11701134Y-8291127D02*
X11691611Y-8262555D01*
X11691611Y-8262555D02*
X11682087Y-8243508D01*
X11682087Y-8243508D02*
X11663039Y-8214936D01*
X11663039Y-8214936D02*
X11653515Y-8205412D01*
M02*
