M48
; DRILL file {KiCad 8.0.3-8.0.3-0~ubuntu24.04.1} date 2024-07-12T17:05:28+0200
; FORMAT={-:-/ absolute / inch / decimal}
; #@! TF.CreationDate,2024-07-12T17:05:28+02:00
; #@! TF.GenerationSoftware,Kicad,Pcbnew,8.0.3-8.0.3-0~ubuntu24.04.1
; #@! TF.FileFunction,Plated,1,4,PTH
FMAT,2
INCH
; #@! TA.AperFunction,Plated,PTH,ViaDrill
T1C0.0118
; #@! TA.AperFunction,Plated,PTH,ComponentDrill
T2C0.0236
%
G90
G05
T1
X1.9528Y-2.2978
X1.9764Y-2.3543
X1.979Y-2.2884
X1.9985Y-2.2689
X2.035Y-2.2402
X2.0965Y-2.4783
X2.1057Y-2.563
X2.1181Y-2.498
X2.1358Y-2.4783
X2.1417Y-2.5591
X2.19Y-2.5354
X2.2028Y-2.3917
X2.2028Y-2.4508
X2.2264Y-2.4291
X2.2323Y-2.3858
X2.2664Y-2.9724
X2.2776Y-2.3366
X2.2815Y-2.9921
X2.3642Y-2.2697
X2.4882Y-2.0217
X2.5153Y-1.9686
X2.5177Y-1.9911
X2.5177Y-2.0138
X2.5197Y-2.7677
X2.5423Y-2.7677
X2.5571Y-2.1654
X2.6575Y-2.1535
X2.6732Y-2.1161
X2.7047Y-2.0126
T2
G00X2.3799Y-2.7358
M15
G01X2.3799Y-2.7791
M16
G05
G00X2.3799Y-2.9051
M15
G01X2.3799Y-2.9366
M16
G05
G00X2.7201Y-2.7358
M15
G01X2.7201Y-2.7791
M16
G05
G00X2.7201Y-2.9051
M15
G01X2.7201Y-2.9366
M16
G05
M30
