%TF.GenerationSoftware,KiCad,Pcbnew,8.0.3-8.0.3-0~ubuntu24.04.1*%
%TF.CreationDate,2024-07-12T17:05:17+02:00*%
%TF.ProjectId,erace-rx-v2,65726163-652d-4727-982d-76322e6b6963,rev?*%
%TF.SameCoordinates,Original*%
%TF.FileFunction,Copper,L4,Bot*%
%TF.FilePolarity,Positive*%
%FSLAX46Y46*%
G04 Gerber Fmt 4.6, Leading zero omitted, Abs format (unit mm)*
G04 Created by KiCad (PCBNEW 8.0.3-8.0.3-0~ubuntu24.04.1) date 2024-07-12 17:05:17*
%MOMM*%
%LPD*%
G01*
G04 APERTURE LIST*
G04 Aperture macros list*
%AMRoundRect*
0 Rectangle with rounded corners*
0 $1 Rounding radius*
0 $2 $3 $4 $5 $6 $7 $8 $9 X,Y pos of 4 corners*
0 Add a 4 corners polygon primitive as box body*
4,1,4,$2,$3,$4,$5,$6,$7,$8,$9,$2,$3,0*
0 Add four circle primitives for the rounded corners*
1,1,$1+$1,$2,$3*
1,1,$1+$1,$4,$5*
1,1,$1+$1,$6,$7*
1,1,$1+$1,$8,$9*
0 Add four rect primitives between the rounded corners*
20,1,$1+$1,$2,$3,$4,$5,0*
20,1,$1+$1,$4,$5,$6,$7,0*
20,1,$1+$1,$6,$7,$8,$9,0*
20,1,$1+$1,$8,$9,$2,$3,0*%
G04 Aperture macros list end*
%TA.AperFunction,ComponentPad*%
%ADD10O,1.000000X2.100000*%
%TD*%
%TA.AperFunction,ComponentPad*%
%ADD11O,1.000000X1.800000*%
%TD*%
%TA.AperFunction,SMDPad,CuDef*%
%ADD12RoundRect,0.300000X0.700000X0.700000X-0.700000X0.700000X-0.700000X-0.700000X0.700000X-0.700000X0*%
%TD*%
%TA.AperFunction,ViaPad*%
%ADD13C,0.450000*%
%TD*%
%TA.AperFunction,Conductor*%
%ADD14C,0.200000*%
%TD*%
%TA.AperFunction,Conductor*%
%ADD15C,0.090000*%
%TD*%
G04 APERTURE END LIST*
D10*
%TO.P,J2,S1,SHIELD*%
%TO.N,GND*%
X60450000Y-70040000D03*
D11*
X60450000Y-74190000D03*
D10*
X69090000Y-70040000D03*
D11*
X69090000Y-74190000D03*
%TD*%
D12*
%TO.P,P4,1*%
%TO.N,Net-(P4-Pad1)*%
X75500000Y-65500000D03*
%TD*%
%TO.P,P2,1*%
%TO.N,Net-(Q2-D)*%
X75500000Y-68400000D03*
%TD*%
%TO.P,P1,1*%
%TO.N,Net-(Q1-D)*%
X75500000Y-57500000D03*
%TD*%
%TO.P,P3,1*%
%TO.N,Net-(P3-Pad1)*%
X75500000Y-60170000D03*
%TD*%
D13*
%TO.N,/SS*%
X63200000Y-51350000D03*
X55950000Y-62250000D03*
%TO.N,/MISO*%
X56550000Y-61700000D03*
X63889806Y-50003154D03*
%TO.N,/SCK*%
X63950000Y-51150000D03*
X55950000Y-60750000D03*
%TO.N,/MOSI*%
X63950000Y-50574997D03*
X56700000Y-60600000D03*
%TO.N,/IO1*%
X53800000Y-63450000D03*
%TO.N,Net-(C7-Pad1)*%
X60050000Y-57650000D03*
X49600000Y-58365000D03*
%TO.N,Net-(U1-XTAL_N)*%
X57850000Y-59350000D03*
X50200000Y-59800000D03*
%TO.N,+3V3*%
X53485000Y-65100000D03*
X54400000Y-65000000D03*
X55625000Y-64400000D03*
%TO.N,Net-(RF1-DCC_FB)*%
X68700000Y-51120000D03*
X64950000Y-55000000D03*
%TO.N,/IO2*%
X54250000Y-62950000D03*
X51690000Y-56900000D03*
%TO.N,/IO0*%
X67500000Y-54700000D03*
X53250000Y-62950000D03*
%TO.N,/IO1*%
X67900000Y-53750000D03*
%TO.N,/USBD-*%
X57950000Y-76000000D03*
X50760830Y-57629719D03*
X64000000Y-70300000D03*
%TO.N,/USBD+*%
X50265854Y-58124695D03*
X64575003Y-70300000D03*
X57567763Y-75499031D03*
%TD*%
D14*
%TO.N,Net-(RF1-DCC_FB)*%
X68700000Y-51120000D02*
X64950000Y-54870000D01*
X64950000Y-54870000D02*
X64950000Y-55000000D01*
D15*
%TO.N,/IO0*%
X53636385Y-63845000D02*
X53250000Y-63458615D01*
X67500000Y-54700000D02*
X66300000Y-54700000D01*
X66300000Y-54700000D02*
X57155000Y-63845000D01*
X57155000Y-63845000D02*
X53636385Y-63845000D01*
X53250000Y-63458615D02*
X53250000Y-62950000D01*
%TO.N,/SS*%
X58508615Y-59750000D02*
X56391385Y-59750000D01*
X63200000Y-51350000D02*
X63200000Y-55058615D01*
X63200000Y-55058615D02*
X58508615Y-59750000D01*
X56391385Y-59750000D02*
X55555000Y-60586385D01*
X55555000Y-61855000D02*
X55950000Y-62250000D01*
X55555000Y-60586385D02*
X55555000Y-61855000D01*
%TO.N,/MISO*%
X56550000Y-61700000D02*
X57400000Y-61700000D01*
X57400000Y-61700000D02*
X65450000Y-53650000D01*
X65450000Y-53650000D02*
X65450000Y-51516382D01*
X65450000Y-51516382D02*
X63936772Y-50003154D01*
X63936772Y-50003154D02*
X63889806Y-50003154D01*
%TO.N,/MOSI*%
X63950000Y-50574997D02*
X64950000Y-51574997D01*
X64950000Y-51574997D02*
X64950000Y-53895442D01*
X64950000Y-53895442D02*
X58245442Y-60600000D01*
X58245442Y-60600000D02*
X56700000Y-60600000D01*
%TO.N,/SCK*%
X63950000Y-51150000D02*
X64450000Y-51650000D01*
X64450000Y-51650000D02*
X64450000Y-54140884D01*
X64450000Y-54140884D02*
X58540884Y-60050000D01*
X58540884Y-60050000D02*
X56650000Y-60050000D01*
X56650000Y-60050000D02*
X55950000Y-60750000D01*
%TO.N,/IO1*%
X53950000Y-63600000D02*
X56908615Y-63600000D01*
X53800000Y-63450000D02*
X53950000Y-63600000D01*
X56908615Y-63600000D02*
X66758615Y-53750000D01*
X66758615Y-53750000D02*
X67900000Y-53750000D01*
%TO.N,Net-(C7-Pad1)*%
X58991385Y-57650000D02*
X60050000Y-57650000D01*
X49665000Y-58365000D02*
X50470000Y-59170000D01*
X57471385Y-59170000D02*
X58991385Y-57650000D01*
X49600000Y-58365000D02*
X49665000Y-58365000D01*
X50470000Y-59170000D02*
X57471385Y-59170000D01*
%TO.N,Net-(U1-XTAL_N)*%
X50200000Y-59800000D02*
X50650000Y-59350000D01*
X50650000Y-59350000D02*
X57850000Y-59350000D01*
%TO.N,/USBD-*%
X57950000Y-76000000D02*
X59938026Y-76000000D01*
X59938026Y-76000000D02*
X64000000Y-71938026D01*
X64000000Y-71938026D02*
X64000000Y-70300000D01*
%TO.N,/USBD+*%
X64180000Y-72012584D02*
X64180000Y-70695003D01*
X57567763Y-75499031D02*
X57550000Y-75516794D01*
X64180000Y-70695003D02*
X64575003Y-70300000D01*
X57550000Y-75516794D02*
X57550000Y-76258615D01*
X57550000Y-76258615D02*
X57686385Y-76395000D01*
X57686385Y-76395000D02*
X59797584Y-76395000D01*
X59797584Y-76395000D02*
X64180000Y-72012584D01*
%TD*%
M02*
