%TF.GenerationSoftware,KiCad,Pcbnew,8.0.4-8.0.4-0~ubuntu24.04.1*%
%TF.CreationDate,2024-08-29T15:44:26+02:00*%
%TF.ProjectId,erace-rx-v2,65726163-652d-4727-982d-76322e6b6963,rev?*%
%TF.SameCoordinates,Original*%
%TF.FileFunction,Copper,L1,Top*%
%TF.FilePolarity,Positive*%
%FSLAX46Y46*%
G04 Gerber Fmt 4.6, Leading zero omitted, Abs format (unit mm)*
G04 Created by KiCad (PCBNEW 8.0.4-8.0.4-0~ubuntu24.04.1) date 2024-08-29 15:44:26*
%MOMM*%
%LPD*%
G01*
G04 APERTURE LIST*
G04 Aperture macros list*
%AMRoundRect*
0 Rectangle with rounded corners*
0 $1 Rounding radius*
0 $2 $3 $4 $5 $6 $7 $8 $9 X,Y pos of 4 corners*
0 Add a 4 corners polygon primitive as box body*
4,1,4,$2,$3,$4,$5,$6,$7,$8,$9,$2,$3,0*
0 Add four circle primitives for the rounded corners*
1,1,$1+$1,$2,$3*
1,1,$1+$1,$4,$5*
1,1,$1+$1,$6,$7*
1,1,$1+$1,$8,$9*
0 Add four rect primitives between the rounded corners*
20,1,$1+$1,$2,$3,$4,$5,0*
20,1,$1+$1,$4,$5,$6,$7,0*
20,1,$1+$1,$6,$7,$8,$9,0*
20,1,$1+$1,$8,$9,$2,$3,0*%
%AMFreePoly0*
4,1,6,0.480000,0.000000,0.300000,-0.350000,-0.300000,-0.350000,-0.300000,0.350000,0.300000,0.350000,0.480000,0.000000,0.480000,0.000000,$1*%
%AMFreePoly1*
4,1,7,0.225000,-0.350000,-0.225000,-0.350000,-0.475000,-0.350000,-0.275000,0.000000,-0.475000,0.350000,0.225000,0.350000,0.225000,-0.350000,0.225000,-0.350000,$1*%
G04 Aperture macros list end*
%TA.AperFunction,SMDPad,CuDef*%
%ADD10RoundRect,0.140000X0.170000X-0.140000X0.170000X0.140000X-0.170000X0.140000X-0.170000X-0.140000X0*%
%TD*%
%TA.AperFunction,SMDPad,CuDef*%
%ADD11RoundRect,0.135000X0.135000X0.185000X-0.135000X0.185000X-0.135000X-0.185000X0.135000X-0.185000X0*%
%TD*%
%TA.AperFunction,SMDPad,CuDef*%
%ADD12RoundRect,0.140000X0.140000X0.170000X-0.140000X0.170000X-0.140000X-0.170000X0.140000X-0.170000X0*%
%TD*%
%TA.AperFunction,SMDPad,CuDef*%
%ADD13RoundRect,0.140000X-0.140000X-0.170000X0.140000X-0.170000X0.140000X0.170000X-0.140000X0.170000X0*%
%TD*%
%TA.AperFunction,SMDPad,CuDef*%
%ADD14R,0.600000X1.050000*%
%TD*%
%TA.AperFunction,SMDPad,CuDef*%
%ADD15R,0.300000X1.150000*%
%TD*%
%TA.AperFunction,ComponentPad*%
%ADD16O,1.000000X2.100000*%
%TD*%
%TA.AperFunction,ComponentPad*%
%ADD17O,1.000000X1.800000*%
%TD*%
%TA.AperFunction,SMDPad,CuDef*%
%ADD18R,0.300000X0.450000*%
%TD*%
%TA.AperFunction,SMDPad,CuDef*%
%ADD19R,0.450000X0.300000*%
%TD*%
%TA.AperFunction,SMDPad,CuDef*%
%ADD20RoundRect,0.135000X-0.135000X-0.185000X0.135000X-0.185000X0.135000X0.185000X-0.135000X0.185000X0*%
%TD*%
%TA.AperFunction,SMDPad,CuDef*%
%ADD21RoundRect,0.135000X0.185000X-0.135000X0.185000X0.135000X-0.185000X0.135000X-0.185000X-0.135000X0*%
%TD*%
%TA.AperFunction,SMDPad,CuDef*%
%ADD22RoundRect,0.135000X-0.185000X0.135000X-0.185000X-0.135000X0.185000X-0.135000X0.185000X0.135000X0*%
%TD*%
%TA.AperFunction,SMDPad,CuDef*%
%ADD23RoundRect,0.150000X0.625000X-0.150000X0.625000X0.150000X-0.625000X0.150000X-0.625000X-0.150000X0*%
%TD*%
%TA.AperFunction,SMDPad,CuDef*%
%ADD24RoundRect,0.250000X0.650000X-0.350000X0.650000X0.350000X-0.650000X0.350000X-0.650000X-0.350000X0*%
%TD*%
%TA.AperFunction,SMDPad,CuDef*%
%ADD25RoundRect,0.147500X-0.147500X-0.172500X0.147500X-0.172500X0.147500X0.172500X-0.147500X0.172500X0*%
%TD*%
%TA.AperFunction,SMDPad,CuDef*%
%ADD26RoundRect,0.150000X-0.587500X-0.150000X0.587500X-0.150000X0.587500X0.150000X-0.587500X0.150000X0*%
%TD*%
%TA.AperFunction,SMDPad,CuDef*%
%ADD27RoundRect,0.218750X0.218750X0.256250X-0.218750X0.256250X-0.218750X-0.256250X0.218750X-0.256250X0*%
%TD*%
%TA.AperFunction,SMDPad,CuDef*%
%ADD28R,1.400000X1.200000*%
%TD*%
%TA.AperFunction,SMDPad,CuDef*%
%ADD29RoundRect,0.062500X0.062500X-0.337500X0.062500X0.337500X-0.062500X0.337500X-0.062500X-0.337500X0*%
%TD*%
%TA.AperFunction,SMDPad,CuDef*%
%ADD30RoundRect,0.062500X0.337500X-0.062500X0.337500X0.062500X-0.337500X0.062500X-0.337500X-0.062500X0*%
%TD*%
%TA.AperFunction,HeatsinkPad*%
%ADD31R,3.700000X3.700000*%
%TD*%
%TA.AperFunction,SMDPad,CuDef*%
%ADD32RoundRect,0.250000X0.475000X-0.250000X0.475000X0.250000X-0.475000X0.250000X-0.475000X-0.250000X0*%
%TD*%
%TA.AperFunction,SMDPad,CuDef*%
%ADD33RoundRect,0.250000X-0.475000X0.250000X-0.475000X-0.250000X0.475000X-0.250000X0.475000X0.250000X0*%
%TD*%
%TA.AperFunction,SMDPad,CuDef*%
%ADD34RoundRect,0.375000X0.375000X-0.625000X0.375000X0.625000X-0.375000X0.625000X-0.375000X-0.625000X0*%
%TD*%
%TA.AperFunction,SMDPad,CuDef*%
%ADD35RoundRect,0.500000X1.400000X-0.500000X1.400000X0.500000X-1.400000X0.500000X-1.400000X-0.500000X0*%
%TD*%
%TA.AperFunction,SMDPad,CuDef*%
%ADD36RoundRect,0.147500X0.147500X0.172500X-0.147500X0.172500X-0.147500X-0.172500X0.147500X-0.172500X0*%
%TD*%
%TA.AperFunction,SMDPad,CuDef*%
%ADD37RoundRect,0.140000X-0.170000X0.140000X-0.170000X-0.140000X0.170000X-0.140000X0.170000X0.140000X0*%
%TD*%
%TA.AperFunction,SMDPad,CuDef*%
%ADD38RoundRect,0.250000X-0.250000X-0.600000X0.250000X-0.600000X0.250000X0.600000X-0.250000X0.600000X0*%
%TD*%
%TA.AperFunction,SMDPad,CuDef*%
%ADD39RoundRect,0.187500X0.187500X-0.312500X0.187500X0.312500X-0.187500X0.312500X-0.187500X-0.312500X0*%
%TD*%
%TA.AperFunction,SMDPad,CuDef*%
%ADD40R,0.863600X0.863600*%
%TD*%
%TA.AperFunction,SMDPad,CuDef*%
%ADD41RoundRect,0.112500X-0.112500X0.187500X-0.112500X-0.187500X0.112500X-0.187500X0.112500X0.187500X0*%
%TD*%
%TA.AperFunction,SMDPad,CuDef*%
%ADD42RoundRect,0.225000X-0.225000X-0.250000X0.225000X-0.250000X0.225000X0.250000X-0.225000X0.250000X0*%
%TD*%
%TA.AperFunction,SMDPad,CuDef*%
%ADD43FreePoly0,180.000000*%
%TD*%
%TA.AperFunction,SMDPad,CuDef*%
%ADD44FreePoly1,180.000000*%
%TD*%
%TA.AperFunction,SMDPad,CuDef*%
%ADD45RoundRect,0.150000X-0.150000X0.587500X-0.150000X-0.587500X0.150000X-0.587500X0.150000X0.587500X0*%
%TD*%
%TA.AperFunction,SMDPad,CuDef*%
%ADD46RoundRect,0.135000X-1.215000X-1.215000X1.215000X-1.215000X1.215000X1.215000X-1.215000X1.215000X0*%
%TD*%
%TA.AperFunction,SMDPad,CuDef*%
%ADD47RoundRect,0.060000X-0.090000X-0.340000X0.090000X-0.340000X0.090000X0.340000X-0.090000X0.340000X0*%
%TD*%
%TA.AperFunction,SMDPad,CuDef*%
%ADD48RoundRect,0.060000X0.340000X-0.090000X0.340000X0.090000X-0.340000X0.090000X-0.340000X-0.090000X0*%
%TD*%
%TA.AperFunction,SMDPad,CuDef*%
%ADD49RoundRect,0.060000X0.090000X0.340000X-0.090000X0.340000X-0.090000X-0.340000X0.090000X-0.340000X0*%
%TD*%
%TA.AperFunction,SMDPad,CuDef*%
%ADD50RoundRect,0.060000X-0.340000X0.090000X-0.340000X-0.090000X0.340000X-0.090000X0.340000X0.090000X0*%
%TD*%
%TA.AperFunction,SMDPad,CuDef*%
%ADD51RoundRect,0.147500X-0.172500X0.147500X-0.172500X-0.147500X0.172500X-0.147500X0.172500X0.147500X0*%
%TD*%
%TA.AperFunction,SMDPad,CuDef*%
%ADD52RoundRect,0.112500X0.112500X-0.187500X0.112500X0.187500X-0.112500X0.187500X-0.112500X-0.187500X0*%
%TD*%
%TA.AperFunction,SMDPad,CuDef*%
%ADD53RoundRect,0.250000X-0.250000X-0.475000X0.250000X-0.475000X0.250000X0.475000X-0.250000X0.475000X0*%
%TD*%
%TA.AperFunction,ViaPad*%
%ADD54C,0.500000*%
%TD*%
%TA.AperFunction,ViaPad*%
%ADD55C,0.450000*%
%TD*%
%TA.AperFunction,Conductor*%
%ADD56C,0.349000*%
%TD*%
%TA.AperFunction,Conductor*%
%ADD57C,0.200000*%
%TD*%
%TA.AperFunction,Conductor*%
%ADD58C,0.090000*%
%TD*%
%TA.AperFunction,Conductor*%
%ADD59C,0.350000*%
%TD*%
%TA.AperFunction,Conductor*%
%ADD60C,0.229000*%
%TD*%
%TA.AperFunction,Conductor*%
%ADD61C,0.400000*%
%TD*%
G04 APERTURE END LIST*
D10*
%TO.P,C11,1*%
%TO.N,+3V3*%
X54400000Y-65000000D03*
%TO.P,C11,2*%
%TO.N,GND*%
X54400000Y-64040000D03*
%TD*%
D11*
%TO.P,R2,1*%
%TO.N,+3V3*%
X59160000Y-62150000D03*
%TO.P,R2,2*%
%TO.N,/IO8*%
X58140000Y-62150000D03*
%TD*%
D12*
%TO.P,C13,1*%
%TO.N,+3V3*%
X65410000Y-49610000D03*
%TO.P,C13,2*%
%TO.N,GND*%
X64450000Y-49610000D03*
%TD*%
D13*
%TO.P,C1,1*%
%TO.N,/EN*%
X57170000Y-63150000D03*
%TO.P,C1,2*%
%TO.N,GND*%
X58130000Y-63150000D03*
%TD*%
D14*
%TO.P,J2,A1,GND*%
%TO.N,GND*%
X61570000Y-69415000D03*
%TO.P,J2,A4,VBUS*%
%TO.N,+5V0_USB*%
X62370000Y-69415000D03*
D15*
%TO.P,J2,A5,CC1*%
%TO.N,Net-(J2-CC1)*%
X63520000Y-69465000D03*
%TO.P,J2,A6,D+*%
%TO.N,/USBD+*%
X64520000Y-69465000D03*
%TO.P,J2,A7,D-*%
%TO.N,/USBD-*%
X65020000Y-69465000D03*
%TO.P,J2,A8,SBU1*%
%TO.N,unconnected-(J2-SBU1-PadA8)*%
X66020000Y-69465000D03*
D14*
%TO.P,J2,A9,VBUS*%
%TO.N,+5V0_USB*%
X67170000Y-69415000D03*
%TO.P,J2,A12,GND*%
%TO.N,GND*%
X67970000Y-69415000D03*
%TO.P,J2,B1,GND*%
X67970000Y-69415000D03*
%TO.P,J2,B4,VBUS*%
%TO.N,+5V0_USB*%
X67170000Y-69415000D03*
D15*
%TO.P,J2,B5,CC2*%
%TO.N,Net-(J2-CC2)*%
X66520000Y-69465000D03*
%TO.P,J2,B6,D+*%
%TO.N,/USBD+*%
X65520000Y-69465000D03*
%TO.P,J2,B7,D-*%
%TO.N,/USBD-*%
X64020000Y-69465000D03*
%TO.P,J2,B8,SBU2*%
%TO.N,unconnected-(J2-SBU2-PadB8)*%
X63020000Y-69465000D03*
D14*
%TO.P,J2,B9,VBUS*%
%TO.N,+5V0_USB*%
X62370000Y-69415000D03*
%TO.P,J2,B12,GND*%
%TO.N,GND*%
X61570000Y-69415000D03*
D16*
%TO.P,J2,S1,SHIELD*%
X60450000Y-70040000D03*
D17*
X60450000Y-74190000D03*
D16*
X69090000Y-70040000D03*
D17*
X69090000Y-74190000D03*
%TD*%
D10*
%TO.P,C2,1*%
%TO.N,GND*%
X57250000Y-62170000D03*
%TO.P,C2,2*%
%TO.N,+3V3*%
X57250000Y-61210000D03*
%TD*%
D18*
%TO.P,FL1,1,GND*%
%TO.N,GND*%
X62350000Y-53575000D03*
D19*
%TO.P,FL1,2,OUT*%
%TO.N,Net-(FL1-OUT)*%
X61775000Y-53250000D03*
D18*
%TO.P,FL1,3,GND*%
%TO.N,GND*%
X62350000Y-52925000D03*
D19*
%TO.P,FL1,4,IN*%
%TO.N,Net-(FL1-IN)*%
X62925000Y-53250000D03*
%TD*%
D20*
%TO.P,R6,1*%
%TO.N,/IO2*%
X51690000Y-56900000D03*
%TO.P,R6,2*%
%TO.N,GND*%
X52710000Y-56900000D03*
%TD*%
%TO.P,R9,1*%
%TO.N,GND*%
X54500000Y-69350000D03*
%TO.P,R9,2*%
%TO.N,Net-(J2-CC1)*%
X55520000Y-69350000D03*
%TD*%
D21*
%TO.P,R3,1*%
%TO.N,+3V3*%
X60100000Y-62110000D03*
%TO.P,R3,2*%
%TO.N,/IO9*%
X60100000Y-61090000D03*
%TD*%
D22*
%TO.P,R10,1*%
%TO.N,GND*%
X57000000Y-73990000D03*
%TO.P,R10,2*%
%TO.N,Net-(J2-CC2)*%
X57000000Y-75010000D03*
%TD*%
D13*
%TO.P,C8,1*%
%TO.N,Net-(U1-XTAL_N)*%
X58170000Y-61150000D03*
%TO.P,C8,2*%
%TO.N,GND*%
X59130000Y-61150000D03*
%TD*%
D23*
%TO.P,J1,1,Pin_1*%
%TO.N,VCC*%
X71900000Y-67900000D03*
%TO.P,J1,2,Pin_2*%
%TO.N,GND*%
X71900000Y-66900000D03*
%TO.P,J1,3,Pin_3*%
%TO.N,/ESC_Current*%
X71900000Y-65900000D03*
%TO.P,J1,4,Pin_4*%
%TO.N,/ESC_Telemetry*%
X71900000Y-64900000D03*
%TO.P,J1,5,Pin_5*%
%TO.N,/IO20*%
X71900000Y-63900000D03*
%TO.P,J1,6,Pin_6*%
%TO.N,/IO21*%
X71900000Y-62900000D03*
%TO.P,J1,7,Pin_7*%
%TO.N,/IO3*%
X71900000Y-61900000D03*
%TO.P,J1,8,Pin_8*%
%TO.N,/CH_4*%
X71900000Y-60900000D03*
D24*
%TO.P,J1,MP,MountPin*%
%TO.N,GND*%
X75775000Y-69200000D03*
X75775000Y-59600000D03*
%TD*%
D13*
%TO.P,C10,1*%
%TO.N,VDD3P3*%
X52420000Y-64150000D03*
%TO.P,C10,2*%
%TO.N,GND*%
X53380000Y-64150000D03*
%TD*%
%TO.P,C4,1*%
%TO.N,GND*%
X53570000Y-56900000D03*
%TO.P,C4,2*%
%TO.N,+3V3*%
X54530000Y-56900000D03*
%TD*%
D20*
%TO.P,R11,1*%
%TO.N,/IO10*%
X61690000Y-50950000D03*
%TO.P,R11,2*%
%TO.N,Net-(D1-A)*%
X62710000Y-50950000D03*
%TD*%
D25*
%TO.P,D3,1,K*%
%TO.N,GND*%
X69115000Y-60500000D03*
%TO.P,D3,2,A*%
%TO.N,Net-(D3-A)*%
X70085000Y-60500000D03*
%TD*%
D20*
%TO.P,R4,1*%
%TO.N,+3V3*%
X69090000Y-59500000D03*
%TO.P,R4,2*%
%TO.N,Net-(D3-A)*%
X70110000Y-59500000D03*
%TD*%
D26*
%TO.P,Q2,1,G*%
%TO.N,/CH_4*%
X55062500Y-66187500D03*
%TO.P,Q2,2,S*%
%TO.N,GND*%
X55062500Y-68087500D03*
%TO.P,Q2,3,D*%
%TO.N,Net-(Q2-D)*%
X56937500Y-67137500D03*
%TD*%
D27*
%TO.P,L5,1,1*%
%TO.N,Net-(RF1-DCC_FB)*%
X68107500Y-49780000D03*
%TO.P,L5,2,2*%
%TO.N,Net-(RF1-DCC_SW)*%
X66532500Y-49780000D03*
%TD*%
D22*
%TO.P,R8,1*%
%TO.N,+3V3*%
X71600000Y-56990000D03*
%TO.P,R8,2*%
%TO.N,Net-(P4-Pad1)*%
X71600000Y-58010000D03*
%TD*%
D28*
%TO.P,Y2,1,1*%
%TO.N,Net-(RF1-XTA)*%
X67400000Y-58150000D03*
%TO.P,Y2,2,2*%
%TO.N,GND*%
X69600000Y-58150000D03*
%TO.P,Y2,3,3*%
%TO.N,Net-(RF1-XTB)*%
X69600000Y-56450000D03*
%TO.P,Y2,4,4*%
%TO.N,GND*%
X67400000Y-56450000D03*
%TD*%
D29*
%TO.P,U1,1,LNA_IN*%
%TO.N,Net-(U1-LNA_IN)*%
X51750000Y-62950000D03*
%TO.P,U1,2,VDD3P3*%
%TO.N,VDD3P3*%
X52250000Y-62950000D03*
%TO.P,U1,3,VDD3P3*%
X52750000Y-62950000D03*
%TO.P,U1,4,XTAL_32K_P*%
%TO.N,/IO0*%
X53250000Y-62950000D03*
%TO.P,U1,5,XTAL_32K_N*%
%TO.N,/IO1*%
X53750000Y-62950000D03*
%TO.P,U1,6,GPIO2*%
%TO.N,/IO2*%
X54250000Y-62950000D03*
%TO.P,U1,7,CHIP_EN*%
%TO.N,/EN*%
X54750000Y-62950000D03*
%TO.P,U1,8,GPIO3*%
%TO.N,/IO3*%
X55250000Y-62950000D03*
D30*
%TO.P,U1,9,MTMS*%
%TO.N,/SS*%
X55950000Y-62250000D03*
%TO.P,U1,10,MTDI*%
%TO.N,/MISO*%
X55950000Y-61750000D03*
%TO.P,U1,11,VDD3P3_RTC*%
%TO.N,+3V3*%
X55950000Y-61250000D03*
%TO.P,U1,12,MTCK*%
%TO.N,/SCK*%
X55950000Y-60750000D03*
%TO.P,U1,13,MTDO*%
%TO.N,/MOSI*%
X55950000Y-60250000D03*
%TO.P,U1,14,GPIO8*%
%TO.N,/IO8*%
X55950000Y-59750000D03*
%TO.P,U1,15,GPIO9*%
%TO.N,/IO9*%
X55950000Y-59250000D03*
%TO.P,U1,16,GPIO10*%
%TO.N,/IO10*%
X55950000Y-58750000D03*
D29*
%TO.P,U1,17,VDD3P3_CPU*%
%TO.N,+3V3*%
X55250000Y-58050000D03*
%TO.P,U1,18,VDD_SPI*%
X54750000Y-58050000D03*
%TO.P,U1,19,SPIHD*%
%TO.N,unconnected-(U1-SPIHD-Pad19)*%
X54250000Y-58050000D03*
%TO.P,U1,20,SPIWP*%
%TO.N,unconnected-(U1-SPIWP-Pad20)*%
X53750000Y-58050000D03*
%TO.P,U1,21,SPICS0*%
%TO.N,unconnected-(U1-SPICS0-Pad21)*%
X53250000Y-58050000D03*
%TO.P,U1,22,SPICLK*%
%TO.N,unconnected-(U1-SPICLK-Pad22)*%
X52750000Y-58050000D03*
%TO.P,U1,23,SPID*%
%TO.N,unconnected-(U1-SPID-Pad23)*%
X52250000Y-58050000D03*
%TO.P,U1,24,SPIQ*%
%TO.N,unconnected-(U1-SPIQ-Pad24)*%
X51750000Y-58050000D03*
D30*
%TO.P,U1,25,GPIO18*%
%TO.N,/USBD-*%
X51050000Y-58750000D03*
%TO.P,U1,26,GPIO19*%
%TO.N,/USBD+*%
X51050000Y-59250000D03*
%TO.P,U1,27,U0RXD*%
%TO.N,/IO20*%
X51050000Y-59750000D03*
%TO.P,U1,28,U0TXD*%
%TO.N,/IO21*%
X51050000Y-60250000D03*
%TO.P,U1,29,XTAL_N*%
%TO.N,Net-(U1-XTAL_N)*%
X51050000Y-60750000D03*
%TO.P,U1,30,XTAL_P*%
%TO.N,Net-(U1-XTAL_P)*%
X51050000Y-61250000D03*
%TO.P,U1,31,VDDA*%
%TO.N,+3V3*%
X51050000Y-61750000D03*
%TO.P,U1,32,VDDA*%
X51050000Y-62250000D03*
D31*
%TO.P,U1,33,GND*%
%TO.N,GND*%
X53500000Y-60500000D03*
%TD*%
D32*
%TO.P,C20,1*%
%TO.N,Net-(D2-K)*%
X69600000Y-64150000D03*
%TO.P,C20,2*%
%TO.N,GND*%
X69600000Y-62250000D03*
%TD*%
D33*
%TO.P,C26,1*%
%TO.N,+3V3*%
X60400000Y-63450000D03*
%TO.P,C26,2*%
%TO.N,GND*%
X60400000Y-65350000D03*
%TD*%
D13*
%TO.P,C19,1*%
%TO.N,GND*%
X50560000Y-64150000D03*
%TO.P,C19,2*%
%TO.N,Net-(U1-LNA_IN)*%
X51520000Y-64150000D03*
%TD*%
D34*
%TO.P,U2,1,GND*%
%TO.N,GND*%
X62700000Y-66950000D03*
%TO.P,U2,2,VO*%
%TO.N,+3V3*%
X65000000Y-66950000D03*
D35*
X65000000Y-60650000D03*
D34*
%TO.P,U2,3,VI*%
%TO.N,Net-(D2-K)*%
X67300000Y-66950000D03*
%TD*%
D36*
%TO.P,L1,1,1*%
%TO.N,+3V3*%
X53385000Y-65100000D03*
%TO.P,L1,2,2*%
%TO.N,VDD3P3*%
X52415000Y-65100000D03*
%TD*%
D37*
%TO.P,C7,1*%
%TO.N,Net-(U1-XTAL_P)*%
X61800000Y-57920000D03*
%TO.P,C7,2*%
%TO.N,GND*%
X61800000Y-58880000D03*
%TD*%
D38*
%TO.P,AE1,1,A*%
%TO.N,Net-(AE1-A)*%
X49950000Y-68800000D03*
%TO.P,AE1,2,Shield*%
%TO.N,unconnected-(AE1-Shield-Pad2)*%
X53150000Y-68800000D03*
%TD*%
D39*
%TO.P,BN1,1*%
%TO.N,/IO9*%
X56725000Y-55913197D03*
%TO.P,BN1,2*%
%TO.N,unconnected-(BN1-Pad2)*%
X56725000Y-49913197D03*
%TO.P,BN1,3*%
%TO.N,GND*%
X60475000Y-55913197D03*
%TO.P,BN1,4*%
X60475000Y-49913197D03*
%TD*%
D40*
%TO.P,AE2,1*%
%TO.N,Net-(FL1-OUT)*%
X63434800Y-56435001D03*
%TO.P,AE2,2,NC*%
%TO.N,unconnected-(AE2-NC-Pad2)*%
X63434800Y-58364999D03*
%TO.P,AE2,3,NC*%
%TO.N,unconnected-(AE2-NC-Pad3)*%
X65365200Y-58364999D03*
%TO.P,AE2,4,NC*%
%TO.N,unconnected-(AE2-NC-Pad4)*%
X65365200Y-56435001D03*
%TD*%
D22*
%TO.P,R12,1*%
%TO.N,+3V3*%
X72600000Y-56990000D03*
%TO.P,R12,2*%
%TO.N,Net-(P3-Pad1)*%
X72600000Y-58010000D03*
%TD*%
%TO.P,R5,1*%
%TO.N,Net-(R5-Pad1)*%
X50700000Y-55890000D03*
%TO.P,R5,2*%
%TO.N,/IO2*%
X50700000Y-56910000D03*
%TD*%
D37*
%TO.P,C5,1*%
%TO.N,GND*%
X49650000Y-61170000D03*
%TO.P,C5,2*%
%TO.N,+3V3*%
X49650000Y-62130000D03*
%TD*%
%TO.P,C12,1*%
%TO.N,+3V3*%
X68700000Y-53020000D03*
%TO.P,C12,2*%
%TO.N,GND*%
X68700000Y-53980000D03*
%TD*%
%TO.P,C3,1*%
%TO.N,GND*%
X55600000Y-55970000D03*
%TO.P,C3,2*%
%TO.N,+3V3*%
X55600000Y-56930000D03*
%TD*%
D41*
%TO.P,D2,1,K*%
%TO.N,Net-(D2-K)*%
X69600000Y-65550000D03*
%TO.P,D2,2,A*%
%TO.N,VCC*%
X69600000Y-67650000D03*
%TD*%
D10*
%TO.P,C16,1*%
%TO.N,GND*%
X68770000Y-52080000D03*
%TO.P,C16,2*%
%TO.N,Net-(RF1-DCC_FB)*%
X68770000Y-51120000D03*
%TD*%
D42*
%TO.P,C15,1*%
%TO.N,Net-(RF1-DCC_FB)*%
X69505000Y-49800000D03*
%TO.P,C15,2*%
%TO.N,GND*%
X71055000Y-49800000D03*
%TD*%
D43*
%TO.P,JP1,1,A*%
%TO.N,/USBD-*%
X56850000Y-76020000D03*
D44*
%TO.P,JP1,2,B*%
%TO.N,/CH_4*%
X55875000Y-76020000D03*
%TD*%
D10*
%TO.P,C6,1*%
%TO.N,GND*%
X49650000Y-63980000D03*
%TO.P,C6,2*%
%TO.N,+3V3*%
X49650000Y-63020000D03*
%TD*%
D25*
%TO.P,D1,1,K*%
%TO.N,GND*%
X61715000Y-49950000D03*
%TO.P,D1,2,A*%
%TO.N,Net-(D1-A)*%
X62685000Y-49950000D03*
%TD*%
D45*
%TO.P,Q1,1,G*%
%TO.N,/IO3*%
X58650000Y-70062500D03*
%TO.P,Q1,2,S*%
%TO.N,GND*%
X56750000Y-70062500D03*
%TO.P,Q1,3,D*%
%TO.N,Net-(Q1-D)*%
X57700000Y-71937500D03*
%TD*%
D21*
%TO.P,R7,1*%
%TO.N,VCC*%
X49700000Y-56910000D03*
%TO.P,R7,2*%
%TO.N,Net-(R5-Pad1)*%
X49700000Y-55890000D03*
%TD*%
D42*
%TO.P,C9,1*%
%TO.N,+3V3*%
X55625000Y-64400000D03*
%TO.P,C9,2*%
%TO.N,GND*%
X57175000Y-64400000D03*
%TD*%
D46*
%TO.P,RF1,0,GND*%
%TO.N,GND*%
X65700000Y-53000000D03*
D47*
%TO.P,RF1,1,VR_PA*%
%TO.N,Net-(RF1-VR_PA)*%
X64450000Y-55000000D03*
%TO.P,RF1,2,VDD_IN*%
%TO.N,Net-(RF1-DCC_FB)*%
X64950000Y-55000000D03*
%TO.P,RF1,3,NRESET*%
%TO.N,/IO8*%
X65450000Y-55000000D03*
%TO.P,RF1,4,XTA*%
%TO.N,Net-(RF1-XTA)*%
X65950000Y-55000000D03*
%TO.P,RF1,5,GND*%
%TO.N,GND*%
X66450000Y-55000000D03*
%TO.P,RF1,6,XTB*%
%TO.N,Net-(RF1-XTB)*%
X66950000Y-55000000D03*
D48*
%TO.P,RF1,7,BUSY*%
%TO.N,/IO0*%
X67700000Y-54250000D03*
%TO.P,RF1,8,DIO1*%
%TO.N,/IO1*%
X67700000Y-53750000D03*
%TO.P,RF1,9,DIO2*%
%TO.N,unconnected-(RF1-DIO2-Pad9)*%
X67700000Y-53250000D03*
%TO.P,RF1,10,DIO3*%
%TO.N,unconnected-(RF1-DIO3-Pad10)*%
X67700000Y-52750000D03*
%TO.P,RF1,11,VBAT_IO*%
%TO.N,+3V3*%
X67700000Y-52250000D03*
%TO.P,RF1,12,DCC_FB*%
%TO.N,Net-(RF1-DCC_FB)*%
X67700000Y-51750000D03*
D49*
%TO.P,RF1,13,GND*%
%TO.N,GND*%
X66950000Y-51000000D03*
%TO.P,RF1,14,DCC_SW*%
%TO.N,Net-(RF1-DCC_SW)*%
X66450000Y-51000000D03*
%TO.P,RF1,15,VBAT*%
%TO.N,+3V3*%
X65950000Y-51000000D03*
%TO.P,RF1,16,MISO_TX*%
%TO.N,/MISO*%
X65450000Y-51000000D03*
%TO.P,RF1,17,MISO_RX*%
%TO.N,/MOSI*%
X64950000Y-51000000D03*
%TO.P,RF1,18,SCK_RTSN*%
%TO.N,/SCK*%
X64450000Y-51000000D03*
D50*
%TO.P,RF1,19,NSS_CTS*%
%TO.N,/SS*%
X63700000Y-51750000D03*
%TO.P,RF1,20,GND*%
%TO.N,GND*%
X63700000Y-52250000D03*
%TO.P,RF1,21,GND*%
X63700000Y-52750000D03*
%TO.P,RF1,22,RFIO*%
%TO.N,Net-(FL1-IN)*%
X63700000Y-53250000D03*
%TO.P,RF1,23,GND*%
%TO.N,GND*%
X63700000Y-53750000D03*
%TO.P,RF1,24,GND*%
X63700000Y-54250000D03*
%TD*%
D28*
%TO.P,Y1,1,1*%
%TO.N,Net-(U1-XTAL_N)*%
X57850000Y-59350000D03*
%TO.P,Y1,2,2*%
%TO.N,GND*%
X60050000Y-59350000D03*
%TO.P,Y1,3,3*%
%TO.N,Net-(U1-XTAL_P)*%
X60050000Y-57650000D03*
%TO.P,Y1,4,4*%
%TO.N,GND*%
X57850000Y-57650000D03*
%TD*%
D37*
%TO.P,C14,1*%
%TO.N,GND*%
X61800000Y-55970000D03*
%TO.P,C14,2*%
%TO.N,Net-(RF1-VR_PA)*%
X61800000Y-56930000D03*
%TD*%
D51*
%TO.P,L2,1,1*%
%TO.N,Net-(U1-LNA_IN)*%
X51050000Y-65165000D03*
%TO.P,L2,2,2*%
%TO.N,Net-(AE1-A)*%
X51050000Y-66135000D03*
%TD*%
D52*
%TO.P,D4,1,K*%
%TO.N,Net-(D2-K)*%
X58500000Y-75650000D03*
%TO.P,D4,2,A*%
%TO.N,+5V0_USB*%
X58500000Y-73550000D03*
%TD*%
D53*
%TO.P,C27,1*%
%TO.N,+3V3*%
X58750000Y-67200000D03*
%TO.P,C27,2*%
%TO.N,GND*%
X60650000Y-67200000D03*
%TD*%
D12*
%TO.P,C21,1*%
%TO.N,Net-(AE1-A)*%
X50730000Y-67100000D03*
%TO.P,C21,2*%
%TO.N,GND*%
X49770000Y-67100000D03*
%TD*%
D22*
%TO.P,R1,1*%
%TO.N,/EN*%
X58400000Y-64080000D03*
%TO.P,R1,2*%
%TO.N,+3V3*%
X58400000Y-65100000D03*
%TD*%
D54*
%TO.N,GND*%
X64700000Y-53500000D03*
D55*
X61500000Y-52650000D03*
D54*
X66700000Y-52700000D03*
D55*
X68500000Y-60500000D03*
X61900000Y-55600000D03*
X50200000Y-64700000D03*
X59650000Y-50000000D03*
D54*
X69300000Y-54600000D03*
X53900000Y-64350000D03*
D55*
X49650000Y-66400000D03*
D54*
X54650000Y-55950000D03*
X53200000Y-62000000D03*
X66000000Y-52000000D03*
X62000000Y-65800000D03*
X63730002Y-49870000D03*
X63200000Y-67100000D03*
X66000000Y-53399994D03*
X49650010Y-61170000D03*
D55*
X75350000Y-63200000D03*
D54*
X57844990Y-56495023D03*
D55*
X69900000Y-50950000D03*
D54*
X60800000Y-65800000D03*
X53900000Y-59600000D03*
X58750000Y-62750000D03*
X64600000Y-52099984D03*
X52000000Y-61400000D03*
X56500000Y-65100000D03*
X59650000Y-60300000D03*
X69600000Y-61485000D03*
X54600000Y-60199998D03*
X62400000Y-67100000D03*
X73100000Y-66900000D03*
D55*
X62950000Y-57350000D03*
D54*
X59800000Y-67100000D03*
D55*
X64450000Y-56850000D03*
X61050000Y-53350000D03*
X56900000Y-73250000D03*
D54*
X54960018Y-61560018D03*
D55*
X61350000Y-54250000D03*
D54*
X54900000Y-67100000D03*
D55*
X49600000Y-64650000D03*
D54*
X56250000Y-69350000D03*
X53000000Y-59600000D03*
X61600000Y-67100000D03*
X61400000Y-65200000D03*
X52850000Y-56200000D03*
D55*
X62500000Y-54200000D03*
%TO.N,/IO9*%
X56750000Y-56800000D03*
X60900000Y-60600000D03*
D54*
%TO.N,Net-(Q1-D)*%
X58000000Y-70650000D03*
D55*
%TO.N,Net-(U1-XTAL_N)*%
X57682540Y-59190000D03*
X49800000Y-60350000D03*
D54*
%TO.N,+3V3*%
X62000000Y-63200000D03*
X63400000Y-60000000D03*
X63400000Y-61200000D03*
X63800000Y-65000000D03*
X64600000Y-61200000D03*
X68250000Y-71160000D03*
X66400000Y-61800000D03*
X64600000Y-60000000D03*
X51200000Y-62600000D03*
X64400000Y-65600000D03*
X62200000Y-61200000D03*
X62600000Y-63800000D03*
X65200000Y-61800000D03*
X69300000Y-53000000D03*
X70450000Y-75450000D03*
X64400000Y-63200000D03*
X63200000Y-64400000D03*
X71250000Y-69430000D03*
D55*
X58350000Y-65750000D03*
D54*
X63200000Y-63200000D03*
D55*
X53911112Y-65072230D03*
X56699980Y-61250000D03*
D54*
X67000000Y-62400000D03*
X64000000Y-61800000D03*
X56050000Y-57850000D03*
X66400000Y-60600000D03*
X65000000Y-65000000D03*
X62800000Y-60600000D03*
X65609727Y-50228174D03*
D55*
X54900002Y-64600000D03*
D54*
X66600000Y-63100000D03*
X67000000Y-61200000D03*
X65000000Y-63800000D03*
X64400000Y-64400000D03*
X63800000Y-63800000D03*
X65900000Y-62400000D03*
X49650000Y-62550000D03*
X72100000Y-56550000D03*
X65800000Y-61200000D03*
X62800000Y-61800000D03*
X65800000Y-66200000D03*
X65200000Y-60600000D03*
X65800000Y-60000000D03*
X65600000Y-64400000D03*
X64000000Y-60600000D03*
X61600000Y-61800000D03*
X66400000Y-65600000D03*
X65000002Y-66950000D03*
%TO.N,Net-(Q2-D)*%
X56850000Y-68050000D03*
D55*
%TO.N,Net-(RF1-VR_PA)*%
X63400000Y-54850000D03*
X61200000Y-55450000D03*
%TO.N,Net-(RF1-DCC_FB)*%
X68720000Y-50390000D03*
X64300000Y-55800000D03*
%TO.N,VCC*%
X49850000Y-57600000D03*
X69350000Y-66700000D03*
%TO.N,/IO3*%
X56050000Y-62850000D03*
X57900000Y-69300000D03*
X70700000Y-62350000D03*
%TO.N,/IO2*%
X56350000Y-63850000D03*
X51586243Y-56374019D03*
%TO.N,Net-(U1-XTAL_P)*%
X60050000Y-57650000D03*
X50360000Y-61380000D03*
%TO.N,/IO0*%
X68450000Y-54680002D03*
X53870000Y-65903824D03*
%TO.N,/SS*%
X56580000Y-62490000D03*
X62899994Y-52200000D03*
%TO.N,/IO1*%
X69400000Y-53899994D03*
X53850000Y-63550000D03*
%TO.N,/MISO*%
X56600000Y-61900000D03*
X65010000Y-50210000D03*
%TO.N,/MOSI*%
X63950000Y-50574997D03*
X57340002Y-60490000D03*
%TO.N,/SCK*%
X56637970Y-60624749D03*
X63950000Y-51150000D03*
D54*
%TO.N,Net-(P3-Pad1)*%
X73650000Y-59600000D03*
%TO.N,Net-(P4-Pad1)*%
X73450000Y-63400000D03*
D55*
%TO.N,/IO20*%
X50300000Y-59480000D03*
X68000000Y-64700000D03*
X53700000Y-67300000D03*
%TO.N,/IO21*%
X68500000Y-63200000D03*
X50307928Y-60080487D03*
X51880000Y-65590000D03*
%TO.N,/CH_4*%
X56050000Y-75150000D03*
X54100000Y-68650000D03*
X68200000Y-61950000D03*
X56851368Y-66373796D03*
%TO.N,/USBD-*%
X57950000Y-76000000D03*
X50852615Y-57537934D03*
X64000000Y-70300000D03*
%TO.N,/USBD+*%
X50330580Y-58189420D03*
X64575003Y-70300000D03*
X57567763Y-75499031D03*
%TD*%
D56*
%TO.N,Net-(AE1-A)*%
X50730000Y-67100000D02*
X49950000Y-68800000D01*
X51050000Y-66135000D02*
X50730000Y-67100000D01*
D57*
%TO.N,GND*%
X66000000Y-53300000D02*
X66000000Y-53399994D01*
X69900000Y-50950000D02*
X68770000Y-52080000D01*
X54900000Y-67925000D02*
X54900000Y-67100000D01*
X61025000Y-69465000D02*
X60450000Y-70040000D01*
X66450000Y-55375092D02*
X67514908Y-56440000D01*
X49650000Y-64600000D02*
X49600000Y-64650000D01*
X66950000Y-51000000D02*
X66950000Y-51750020D01*
X67970000Y-69465000D02*
X68515000Y-69465000D01*
X65450000Y-52750000D02*
X65700000Y-53000000D01*
D58*
X60475000Y-49913197D02*
X61678197Y-49913197D01*
D57*
X53570000Y-56900000D02*
X53100000Y-56900000D01*
X69905000Y-50950000D02*
X69900000Y-50950000D01*
X65999997Y-52700000D02*
X65999997Y-52700003D01*
D58*
X61800000Y-58880000D02*
X60520000Y-58880000D01*
D57*
X66450000Y-53849994D02*
X66000000Y-53399994D01*
X55062500Y-68087500D02*
X54900000Y-67925000D01*
D58*
X59600000Y-60350000D02*
X59650000Y-60300000D01*
D57*
X67514908Y-56440000D02*
X67810000Y-56440000D01*
X65500016Y-53000000D02*
X64600000Y-52099984D01*
X68700000Y-53980000D02*
X69300000Y-54580000D01*
X63700000Y-53750000D02*
X64450000Y-53750000D01*
D58*
X57000000Y-73990000D02*
X57000000Y-73350000D01*
D57*
X57850000Y-56500033D02*
X57844990Y-56495023D01*
X69600000Y-58150000D02*
X67900000Y-56450000D01*
X57175000Y-64400000D02*
X57175000Y-64425000D01*
X66699997Y-52000000D02*
X66700020Y-52000000D01*
X71055000Y-49780000D02*
X71055000Y-49800000D01*
X50560000Y-64340000D02*
X50200000Y-64700000D01*
X65999997Y-52700000D02*
X66699997Y-52000000D01*
X66450000Y-55000000D02*
X66450000Y-53849994D01*
X71055000Y-49800000D02*
X69905000Y-50950000D01*
D59*
X69600000Y-62250000D02*
X69600000Y-61485000D01*
X53480000Y-64100000D02*
X53650000Y-64100000D01*
D57*
X58350000Y-63150000D02*
X58750000Y-62750000D01*
D59*
X54400000Y-64040000D02*
X54210000Y-64040000D01*
D57*
X49650000Y-63980000D02*
X49650000Y-64600000D01*
D58*
X60475000Y-49913197D02*
X59736803Y-49913197D01*
D57*
X55600000Y-56020000D02*
X54720000Y-56020000D01*
X58130000Y-63150000D02*
X58350000Y-63150000D01*
X64600000Y-52800000D02*
X64650000Y-52750000D01*
D58*
X69115000Y-60500000D02*
X68500000Y-60500000D01*
X59130000Y-60350000D02*
X59600000Y-60350000D01*
D57*
X65200000Y-53500000D02*
X64700000Y-53500000D01*
X49770000Y-67100000D02*
X49770000Y-66520000D01*
D58*
X59736803Y-49913197D02*
X59650000Y-50000000D01*
D59*
X53650000Y-64100000D02*
X53900000Y-64350000D01*
D57*
X49600000Y-61170000D02*
X49650010Y-61170000D01*
D59*
X54210000Y-64040000D02*
X53900000Y-64350000D01*
D57*
X57175000Y-64425000D02*
X56500000Y-65100000D01*
X57250000Y-62270000D02*
X58130000Y-63150000D01*
X56750000Y-69850000D02*
X56250000Y-69350000D01*
X57250000Y-62170000D02*
X57250000Y-62270000D01*
X54500000Y-69350000D02*
X55062500Y-68787500D01*
X64450000Y-53750000D02*
X64700000Y-53500000D01*
X64450000Y-49610000D02*
X63990002Y-49610000D01*
X69300000Y-54580000D02*
X69300000Y-54600000D01*
X65700000Y-53000000D02*
X65200000Y-53500000D01*
X65700000Y-53000000D02*
X66000000Y-53300000D01*
D59*
X71900000Y-66900000D02*
X73100000Y-66900000D01*
D57*
X63700000Y-54250000D02*
X64450000Y-54250000D01*
X53100000Y-56900000D02*
X52710000Y-56900000D01*
X64449984Y-52250000D02*
X64600000Y-52099984D01*
D58*
X57000000Y-73350000D02*
X56900000Y-73250000D01*
D57*
X63700000Y-52750000D02*
X64550000Y-52750000D01*
X64550000Y-52750000D02*
X64600000Y-52800000D01*
X63990002Y-49610000D02*
X63730002Y-49870000D01*
D58*
X59130000Y-60270000D02*
X60050000Y-59350000D01*
D57*
X54720000Y-56020000D02*
X54650000Y-55950000D01*
X61570000Y-69465000D02*
X61025000Y-69465000D01*
X66450000Y-55000000D02*
X66450000Y-55375092D01*
D58*
X59130000Y-61150000D02*
X59130000Y-60350000D01*
D57*
X66950000Y-51750020D02*
X66700020Y-52000000D01*
X65999997Y-52700003D02*
X65700000Y-53000000D01*
X55062500Y-68787500D02*
X55062500Y-68087500D01*
D58*
X59130000Y-60350000D02*
X59130000Y-60270000D01*
X61678197Y-49913197D02*
X61715000Y-49950000D01*
D57*
X65700000Y-53000000D02*
X65500016Y-53000000D01*
X50560000Y-64150000D02*
X50560000Y-64340000D01*
X56750000Y-70062500D02*
X56750000Y-69850000D01*
X49770000Y-66520000D02*
X49650000Y-66400000D01*
X68515000Y-69465000D02*
X69090000Y-70040000D01*
X53100000Y-56900000D02*
X53100000Y-56450000D01*
X53100000Y-56450000D02*
X52850000Y-56200000D01*
X64450000Y-54250000D02*
X65700000Y-53000000D01*
X57850000Y-57650000D02*
X57850000Y-56500033D01*
X63700000Y-52250000D02*
X64449984Y-52250000D01*
D58*
X60520000Y-58880000D02*
X60050000Y-59350000D01*
X60511803Y-49950000D02*
X60475000Y-49913197D01*
D57*
X64650000Y-52750000D02*
X65450000Y-52750000D01*
X67900000Y-56450000D02*
X67400000Y-56450000D01*
D60*
%TO.N,Net-(FL1-OUT)*%
X61775000Y-53250000D02*
X61814500Y-53289500D01*
X62892980Y-55893181D02*
X63434800Y-56435001D01*
X61814500Y-53289500D02*
G75*
G03*
X62892972Y-55893189I3682200J0D01*
G01*
D58*
%TO.N,/IO9*%
X55950000Y-59250000D02*
X56145442Y-59250000D01*
X60100000Y-61090000D02*
X60410000Y-61090000D01*
X56750000Y-58645442D02*
X56750000Y-55938197D01*
X56750000Y-55938197D02*
X56725000Y-55913197D01*
X60410000Y-61090000D02*
X60900000Y-60600000D01*
X56145442Y-59250000D02*
X56750000Y-58645442D01*
%TO.N,/EN*%
X54750000Y-63349999D02*
X54885001Y-63485000D01*
X58100000Y-64080000D02*
X58400000Y-64080000D01*
X56385319Y-63150000D02*
X57170000Y-63150000D01*
X56050319Y-63485000D02*
X56385319Y-63150000D01*
X54750000Y-62950000D02*
X54750000Y-63349999D01*
X54885001Y-63485000D02*
X56050319Y-63485000D01*
X57170000Y-63150000D02*
X58100000Y-64080000D01*
D57*
%TO.N,Net-(Q1-D)*%
X57700000Y-70950000D02*
X57700000Y-71937500D01*
X58000000Y-70650000D02*
X57700000Y-70950000D01*
D58*
%TO.N,Net-(U1-XTAL_N)*%
X50818399Y-60518399D02*
X49968399Y-60518399D01*
X58170000Y-61150000D02*
X58170000Y-59677460D01*
X49800000Y-60250000D02*
X49800000Y-60350000D01*
X49968399Y-60518399D02*
X49800000Y-60350000D01*
X58170000Y-59677460D02*
X57682540Y-59190000D01*
X51050000Y-60750000D02*
X50818399Y-60518399D01*
D59*
%TO.N,+3V3*%
X53883342Y-65100000D02*
X53911112Y-65072230D01*
D57*
X55950000Y-61250000D02*
X56699980Y-61250000D01*
X65460000Y-50023603D02*
X65410000Y-49973603D01*
X72100000Y-56990000D02*
X71600000Y-56990000D01*
X56739980Y-61210000D02*
X56699980Y-61250000D01*
X65460000Y-50078447D02*
X65460000Y-50023603D01*
X72600000Y-56990000D02*
X72100000Y-56990000D01*
D59*
X55425000Y-64600000D02*
X55625000Y-64400000D01*
D58*
X68700000Y-59500000D02*
X67000000Y-61200000D01*
D57*
X68700000Y-52964784D02*
X67985216Y-52250000D01*
D58*
X69090000Y-59500000D02*
X68700000Y-59500000D01*
D59*
X55625000Y-64400000D02*
X55625000Y-64400000D01*
X54427772Y-65072230D02*
X53911112Y-65072230D01*
D57*
X67985216Y-52250000D02*
X67700000Y-52250000D01*
X69280000Y-53020000D02*
X69300000Y-53000000D01*
X58400000Y-65700000D02*
X58350000Y-65750000D01*
D59*
X54900002Y-64600000D02*
X54900002Y-64650002D01*
D57*
X58400000Y-65100000D02*
X58400000Y-65700000D01*
D59*
X54900002Y-64650002D02*
X56000000Y-65750000D01*
D57*
X65609727Y-50228174D02*
X65950000Y-50568447D01*
X55250000Y-58050000D02*
X55850000Y-58050000D01*
X68700000Y-53020000D02*
X68700000Y-52964784D01*
X55850000Y-58050000D02*
X56050000Y-57850000D01*
D59*
X53385000Y-65100000D02*
X53883342Y-65100000D01*
D57*
X65410000Y-49973603D02*
X65410000Y-49610000D01*
D59*
X54900002Y-64600000D02*
X55425000Y-64600000D01*
D57*
X65950000Y-50568447D02*
X65950000Y-51000000D01*
X65609727Y-50228174D02*
X65460000Y-50078447D01*
X72100000Y-56990000D02*
X72100000Y-56550000D01*
D59*
X54900002Y-64600000D02*
X54427772Y-65072230D01*
X56000000Y-65750000D02*
X58350000Y-65750000D01*
D57*
X68700000Y-53020000D02*
X69280000Y-53020000D01*
X57250000Y-61210000D02*
X56739980Y-61210000D01*
%TO.N,Net-(Q2-D)*%
X56850000Y-68050000D02*
X56850000Y-67225000D01*
X56850000Y-67225000D02*
X56937500Y-67137500D01*
%TO.N,Net-(RF1-VR_PA)*%
X64300000Y-54850000D02*
X63400000Y-54850000D01*
X61800000Y-56930000D02*
X61200000Y-56330000D01*
X61200000Y-56330000D02*
X61200000Y-55450000D01*
X64450000Y-55000000D02*
X64300000Y-54850000D01*
%TO.N,Net-(RF1-DCC_FB)*%
X68770000Y-51120000D02*
X68770000Y-51299428D01*
X68319428Y-51750000D02*
X67700000Y-51750000D01*
X68770000Y-51299428D02*
X68319428Y-51750000D01*
X64950000Y-55350000D02*
X64950000Y-55000000D01*
X68915000Y-50390000D02*
X69505000Y-49800000D01*
X68717500Y-50390000D02*
X68107500Y-49780000D01*
X64300000Y-55800000D02*
X64500000Y-55800000D01*
X68720000Y-50390000D02*
X68717500Y-50390000D01*
X68720000Y-50390000D02*
X68915000Y-50390000D01*
X68720000Y-50390000D02*
X68720000Y-51070000D01*
X68720000Y-51070000D02*
X68770000Y-51120000D01*
X64500000Y-55800000D02*
X64950000Y-55350000D01*
D58*
%TO.N,Net-(RF1-XTA)*%
X65950000Y-55207432D02*
X66400000Y-55657432D01*
X65950000Y-55000000D02*
X65950000Y-55207432D01*
X66400000Y-57150000D02*
X67400000Y-58150000D01*
X66400000Y-55657432D02*
X66400000Y-57150000D01*
%TO.N,Net-(RF1-XTB)*%
X68730000Y-55160000D02*
X70010000Y-56440000D01*
X66950000Y-55000000D02*
X67110000Y-55160000D01*
X67110000Y-55160000D02*
X68730000Y-55160000D01*
%TO.N,VCC*%
X69600000Y-66950000D02*
X69600000Y-67650000D01*
D59*
X71900000Y-67900000D02*
X69850000Y-67900000D01*
D58*
X49850000Y-57060000D02*
X49700000Y-56910000D01*
X49850000Y-57600000D02*
X49850000Y-57060000D01*
X69350000Y-66700000D02*
X69600000Y-66950000D01*
D59*
X69850000Y-67900000D02*
X69600000Y-67650000D01*
D58*
%TO.N,Net-(D1-A)*%
X62685000Y-50925000D02*
X62710000Y-50950000D01*
X62685000Y-49950000D02*
X62685000Y-50925000D01*
D61*
%TO.N,Net-(D2-K)*%
X68200000Y-66950000D02*
X69600000Y-65550000D01*
X70300000Y-69222340D02*
X70300000Y-71000000D01*
X65650000Y-75650000D02*
X58500000Y-75650000D01*
X68200000Y-66950000D02*
X68200000Y-67122340D01*
X70300000Y-71000000D02*
X65650000Y-75650000D01*
X69600000Y-64150000D02*
X69600000Y-65550000D01*
X68200000Y-67122340D02*
X70300000Y-69222340D01*
X67300000Y-66950000D02*
X68200000Y-66950000D01*
D58*
%TO.N,/IO10*%
X56215000Y-55461917D02*
X56215000Y-57315000D01*
X60726917Y-50950000D02*
X56215000Y-55461917D01*
X56250000Y-58750000D02*
X55950000Y-58750000D01*
X60726917Y-50950000D02*
X61690000Y-50950000D01*
X56450000Y-57550000D02*
X56450000Y-58550000D01*
X56450000Y-58550000D02*
X56250000Y-58750000D01*
X56215000Y-57315000D02*
X56450000Y-57550000D01*
%TO.N,Net-(D3-A)*%
X70110000Y-60475000D02*
X70085000Y-60500000D01*
X70110000Y-59500000D02*
X70110000Y-60475000D01*
D60*
%TO.N,Net-(FL1-IN)*%
X63700000Y-53250000D02*
X62925000Y-53250000D01*
D58*
%TO.N,/IO3*%
X55825000Y-63075000D02*
X56050000Y-62850000D01*
X57900000Y-69312500D02*
X58650000Y-70062500D01*
X55250000Y-62950000D02*
X55375000Y-63075000D01*
X71150000Y-61900000D02*
X70700000Y-62350000D01*
X57900000Y-69300000D02*
X57900000Y-69312500D01*
X71900000Y-61900000D02*
X71150000Y-61900000D01*
X55375000Y-63075000D02*
X55825000Y-63075000D01*
%TO.N,/IO2*%
X54250000Y-63187212D02*
X54852788Y-63790000D01*
X56290000Y-63790000D02*
X56350000Y-63850000D01*
X51690000Y-56900000D02*
X51690000Y-56477776D01*
X54852788Y-63790000D02*
X56290000Y-63790000D01*
X54250000Y-62950000D02*
X54250000Y-63187212D01*
X51050262Y-56910000D02*
X51586243Y-56374019D01*
X50700000Y-56910000D02*
X51050262Y-56910000D01*
X51690000Y-56477776D02*
X51586243Y-56374019D01*
D56*
%TO.N,Net-(U1-LNA_IN)*%
X51520000Y-64150000D02*
X51050000Y-65165000D01*
X51750000Y-62950000D02*
X51520000Y-64150000D01*
D58*
%TO.N,Net-(U1-XTAL_P)*%
X50490000Y-61250000D02*
X50360000Y-61380000D01*
X61800000Y-57920000D02*
X60320000Y-57920000D01*
X51050000Y-61250000D02*
X50490000Y-61250000D01*
X60320000Y-57920000D02*
X60050000Y-57650000D01*
D57*
%TO.N,Net-(RF1-DCC_SW)*%
X66450000Y-49962500D02*
X66450000Y-51000000D01*
X66612500Y-49800000D02*
X66450000Y-49962500D01*
D58*
%TO.N,/IO8*%
X65450000Y-55208615D02*
X66200000Y-55958615D01*
X56000000Y-59800000D02*
X55950000Y-59750000D01*
X57094239Y-60085000D02*
X56809239Y-59800000D01*
X57755000Y-60346383D02*
X57493617Y-60085000D01*
X57185000Y-58465000D02*
X56809239Y-58840761D01*
X62145000Y-58465000D02*
X57185000Y-58465000D01*
X66200000Y-55958615D02*
X66200000Y-59060000D01*
X57755000Y-61765000D02*
X57755000Y-60346383D01*
X66200000Y-59060000D02*
X66040000Y-59220000D01*
X56809239Y-59800000D02*
X56000000Y-59800000D01*
X56809239Y-58840761D02*
X56809239Y-59800000D01*
X66040000Y-59220000D02*
X62900000Y-59220000D01*
X65450000Y-55000000D02*
X65450000Y-55208615D01*
X57493617Y-60085000D02*
X57094239Y-60085000D01*
X62900000Y-59220000D02*
X62145000Y-58465000D01*
X58140000Y-62150000D02*
X57755000Y-61765000D01*
%TO.N,Net-(J2-CC2)*%
X66910000Y-68650000D02*
X66520000Y-69040000D01*
X57000000Y-75010000D02*
X57890000Y-75010000D01*
X69148026Y-68650000D02*
X66910000Y-68650000D01*
X60400000Y-72500000D02*
X68078026Y-72500000D01*
X57890000Y-75010000D02*
X60400000Y-72500000D01*
X66520000Y-69040000D02*
X66520000Y-69465000D01*
X68078026Y-72500000D02*
X69750000Y-70828026D01*
X69750000Y-70828026D02*
X69750000Y-69251974D01*
X69750000Y-69251974D02*
X69148026Y-68650000D01*
%TO.N,Net-(J2-CC1)*%
X63520000Y-69040000D02*
X63520000Y-69465000D01*
X63235000Y-68755000D02*
X63520000Y-69040000D01*
X55520000Y-69350000D02*
X56115000Y-68755000D01*
X56115000Y-68755000D02*
X63235000Y-68755000D01*
%TO.N,/IO0*%
X52950000Y-63877212D02*
X52950000Y-65388602D01*
X53250000Y-63577212D02*
X52950000Y-63877212D01*
X53250000Y-62950000D02*
X53250000Y-63577212D01*
X53465222Y-65903824D02*
X53870000Y-65903824D01*
X67700000Y-54250000D02*
X68130002Y-54680002D01*
X52950000Y-65388602D02*
X53465222Y-65903824D01*
X68130002Y-54680002D02*
X68450000Y-54680002D01*
%TO.N,/SS*%
X63349994Y-51750000D02*
X62899994Y-52200000D01*
X55950000Y-62250000D02*
X56340000Y-62250000D01*
X56340000Y-62250000D02*
X56580000Y-62490000D01*
X63700000Y-51750000D02*
X63349994Y-51750000D01*
%TO.N,/IO1*%
X67885000Y-53565000D02*
X69065006Y-53565000D01*
X53750000Y-62950000D02*
X53750000Y-63450000D01*
X67700000Y-53750000D02*
X67885000Y-53565000D01*
X53750000Y-63450000D02*
X53850000Y-63550000D01*
X69065006Y-53565000D02*
X69400000Y-53899994D01*
%TO.N,/MISO*%
X65450000Y-50650000D02*
X65450000Y-51000000D01*
X65010000Y-50210000D02*
X65450000Y-50650000D01*
X55950000Y-61750000D02*
X56450000Y-61750000D01*
X56450000Y-61750000D02*
X56600000Y-61900000D01*
%TO.N,/MOSI*%
X55950000Y-60250000D02*
X56075000Y-60125000D01*
X56075000Y-60125000D02*
X56800442Y-60125000D01*
X63950000Y-50574997D02*
X64059997Y-50465000D01*
X64622432Y-50465000D02*
X64950000Y-50792568D01*
X56800442Y-60125000D02*
X57165442Y-60490000D01*
X64059997Y-50465000D02*
X64622432Y-50465000D01*
X64950000Y-50792568D02*
X64950000Y-51000000D01*
X57165442Y-60490000D02*
X57340002Y-60490000D01*
%TO.N,/SCK*%
X55950000Y-60750000D02*
X56512719Y-60750000D01*
X64100000Y-51000000D02*
X63950000Y-51150000D01*
X64450000Y-51000000D02*
X64100000Y-51000000D01*
X56512719Y-60750000D02*
X56637970Y-60624749D01*
D57*
%TO.N,Net-(P3-Pad1)*%
X72600000Y-58010000D02*
X72600000Y-58550000D01*
X72600000Y-58550000D02*
X73300000Y-59250000D01*
X73300000Y-59250000D02*
X73650000Y-59600000D01*
%TO.N,Net-(P4-Pad1)*%
X71600000Y-58279999D02*
X73450000Y-60129999D01*
X73450000Y-60129999D02*
X73450000Y-63400000D01*
X71600000Y-58010000D02*
X71600000Y-58279999D01*
D59*
%TO.N,+5V0_USB*%
X62024949Y-71355000D02*
X60695000Y-71355000D01*
X67170000Y-69465000D02*
X67170000Y-70010051D01*
X62600330Y-69695330D02*
X62370000Y-69465000D01*
X62529949Y-70850000D02*
X62024949Y-71355000D01*
X66330051Y-70850000D02*
X62529949Y-70850000D01*
X62600330Y-70850330D02*
X62600330Y-69695330D01*
X60695000Y-71355000D02*
X58500000Y-73550000D01*
X67170000Y-70010051D02*
X66330051Y-70850000D01*
D58*
%TO.N,/IO20*%
X71900000Y-63900000D02*
X71515000Y-63515000D01*
X50570000Y-59750000D02*
X50300000Y-59480000D01*
X51050000Y-59750000D02*
X50570000Y-59750000D01*
X68000000Y-64473600D02*
X68000000Y-64700000D01*
X71515000Y-63515000D02*
X68958600Y-63515000D01*
X68958600Y-63515000D02*
X68000000Y-64473600D01*
%TO.N,/IO21*%
X50477441Y-60250000D02*
X50307928Y-60080487D01*
X71900000Y-62900000D02*
X68800000Y-62900000D01*
X68800000Y-62900000D02*
X68500000Y-63200000D01*
X51050000Y-60250000D02*
X50477441Y-60250000D01*
%TO.N,Net-(R5-Pad1)*%
X49700000Y-55890000D02*
X50700000Y-55890000D01*
%TO.N,/CH_4*%
X56050000Y-76015000D02*
X56055000Y-76020000D01*
X55062500Y-66187500D02*
X54100000Y-67150000D01*
X55062500Y-66187500D02*
X56665072Y-66187500D01*
X71900000Y-60900000D02*
X71750000Y-61050000D01*
X54100000Y-67150000D02*
X54100000Y-68650000D01*
X56665072Y-66187500D02*
X56851368Y-66373796D01*
X69100000Y-61050000D02*
X68200000Y-61950000D01*
X56050000Y-75150000D02*
X56050000Y-76015000D01*
X71750000Y-61050000D02*
X69100000Y-61050000D01*
%TO.N,/USBD-*%
X65020000Y-69020000D02*
X65020000Y-69465000D01*
X64020000Y-69040000D02*
X64305000Y-68755000D01*
X64020000Y-69465000D02*
X64020000Y-69040000D01*
X64020000Y-69465000D02*
X64020000Y-70280000D01*
X57950000Y-76000000D02*
X57010000Y-76000000D01*
X64020000Y-70280000D02*
X64000000Y-70300000D01*
X64305000Y-68755000D02*
X64755000Y-68755000D01*
X50852615Y-58552615D02*
X50852615Y-57537934D01*
X64755000Y-68755000D02*
X65020000Y-69020000D01*
X51050000Y-58750000D02*
X50852615Y-58552615D01*
%TO.N,/USBD+*%
X50700000Y-59250000D02*
X51050000Y-59250000D01*
X50515000Y-59065000D02*
X50700000Y-59250000D01*
X65280000Y-70175000D02*
X65520000Y-69935000D01*
X64520000Y-70244997D02*
X64575003Y-70300000D01*
X64520000Y-69465000D02*
X64520000Y-70244997D01*
X50330580Y-58189420D02*
X50515000Y-58373840D01*
X50515000Y-58373840D02*
X50515000Y-59065000D01*
X64520000Y-70175000D02*
X65280000Y-70175000D01*
X64520000Y-69465000D02*
X64520000Y-70175000D01*
X65520000Y-69935000D02*
X65520000Y-69465000D01*
%TD*%
%TA.AperFunction,Conductor*%
%TO.N,Net-(FL1-OUT)*%
G36*
X62861638Y-55693845D02*
G01*
X63603282Y-55998744D01*
X63609630Y-56005059D01*
X63609654Y-56014014D01*
X63609647Y-56014032D01*
X63437294Y-56431269D01*
X63430968Y-56437607D01*
X63430925Y-56437625D01*
X63013753Y-56608977D01*
X63004799Y-56608950D01*
X62998514Y-56602667D01*
X62929508Y-56437625D01*
X62681511Y-55844493D01*
X62681482Y-55835541D01*
X62684882Y-55830940D01*
X62849770Y-55695622D01*
X62858338Y-55693023D01*
X62861638Y-55693845D01*
G37*
%TD.AperFunction*%
%TD*%
%TA.AperFunction,Conductor*%
%TO.N,+3V3*%
G36*
X66014352Y-59464352D02*
G01*
X67335648Y-60785648D01*
X67350000Y-60820296D01*
X67350000Y-65750500D01*
X67335648Y-65785148D01*
X67301000Y-65799500D01*
X66883853Y-65799500D01*
X66799414Y-65809639D01*
X66665022Y-65862637D01*
X66549922Y-65949922D01*
X66462637Y-66065022D01*
X66409639Y-66199414D01*
X66399500Y-66283852D01*
X66399500Y-67616147D01*
X66409639Y-67700585D01*
X66409641Y-67700590D01*
X66462636Y-67834975D01*
X66480977Y-67859161D01*
X66490478Y-67895440D01*
X66476582Y-67923416D01*
X66164352Y-68235648D01*
X66129704Y-68250000D01*
X63638206Y-68250000D01*
X63603558Y-68235648D01*
X63589206Y-68201000D01*
X63603558Y-68166352D01*
X63679551Y-68090359D01*
X63795603Y-67974307D01*
X63829311Y-67923860D01*
X63843663Y-67889212D01*
X63855500Y-67829704D01*
X63855500Y-65970296D01*
X63855499Y-65970290D01*
X63843665Y-65910796D01*
X63843662Y-65910785D01*
X63829312Y-65876142D01*
X63795605Y-65825695D01*
X62524304Y-64554394D01*
X62473857Y-64520687D01*
X62439214Y-64506337D01*
X62439203Y-64506334D01*
X62379709Y-64494500D01*
X62379704Y-64494500D01*
X59970296Y-64494500D01*
X59970290Y-64494500D01*
X59910796Y-64506334D01*
X59910785Y-64506337D01*
X59876142Y-64520687D01*
X59825695Y-64554394D01*
X59354394Y-65025695D01*
X59320687Y-65076142D01*
X59306337Y-65110785D01*
X59306334Y-65110796D01*
X59294500Y-65170290D01*
X59294500Y-67279709D01*
X59306334Y-67339203D01*
X59306337Y-67339214D01*
X59320687Y-67373857D01*
X59354394Y-67424304D01*
X60096442Y-68166352D01*
X60110794Y-68201000D01*
X60096442Y-68235648D01*
X60061794Y-68250000D01*
X58170296Y-68250000D01*
X58135648Y-68235648D01*
X57664352Y-67764352D01*
X57650000Y-67729704D01*
X57650000Y-67592724D01*
X57664352Y-67558076D01*
X57679203Y-67547901D01*
X57697765Y-67539706D01*
X57777206Y-67460265D01*
X57822585Y-67357491D01*
X57825500Y-67332365D01*
X57825499Y-66942636D01*
X57822585Y-66917509D01*
X57777206Y-66814735D01*
X57777205Y-66814734D01*
X57777205Y-66814733D01*
X57697765Y-66735293D01*
X57679206Y-66727098D01*
X57653308Y-66699973D01*
X57650000Y-66682274D01*
X57650000Y-64951333D01*
X57664352Y-64916685D01*
X57709826Y-64871211D01*
X57764866Y-64758625D01*
X57775500Y-64685636D01*
X57775500Y-64544795D01*
X57789851Y-64510148D01*
X57913475Y-64386524D01*
X57948120Y-64372174D01*
X57982768Y-64386526D01*
X58050857Y-64454615D01*
X58148499Y-64497729D01*
X58148505Y-64497731D01*
X58172359Y-64500498D01*
X58172360Y-64500498D01*
X58172377Y-64500500D01*
X58627622Y-64500499D01*
X58651498Y-64497730D01*
X58749141Y-64454616D01*
X58824616Y-64379141D01*
X58867730Y-64281498D01*
X58867730Y-64281496D01*
X58867731Y-64281494D01*
X58870498Y-64257640D01*
X58870497Y-64257640D01*
X58870500Y-64257623D01*
X58870499Y-63902378D01*
X58867730Y-63878502D01*
X58824616Y-63780859D01*
X58824615Y-63780858D01*
X58824615Y-63780857D01*
X58749142Y-63705384D01*
X58749143Y-63705384D01*
X58707383Y-63686946D01*
X58681484Y-63659822D01*
X58682350Y-63622329D01*
X58692528Y-63607472D01*
X58700000Y-63600000D01*
X58700000Y-63204492D01*
X58714352Y-63169844D01*
X58746274Y-63156621D01*
X58746191Y-63156095D01*
X58748382Y-63155747D01*
X58749000Y-63155492D01*
X58749998Y-63155492D01*
X58749998Y-63155491D01*
X58750000Y-63155492D01*
X58875304Y-63135646D01*
X58875308Y-63135644D01*
X58875309Y-63135644D01*
X58988335Y-63078054D01*
X58988337Y-63078052D01*
X58988342Y-63078050D01*
X59078050Y-62988342D01*
X59084971Y-62974759D01*
X59135644Y-62875309D01*
X59135644Y-62875307D01*
X59135646Y-62875304D01*
X59155492Y-62750000D01*
X59135646Y-62624696D01*
X59135644Y-62624692D01*
X59135644Y-62624690D01*
X59078054Y-62511664D01*
X59078049Y-62511657D01*
X58988342Y-62421950D01*
X58988335Y-62421945D01*
X58875308Y-62364355D01*
X58875305Y-62364354D01*
X58875304Y-62364354D01*
X58763396Y-62346629D01*
X58731420Y-62327034D01*
X58722665Y-62290568D01*
X58736412Y-62263587D01*
X59431180Y-61568819D01*
X59436059Y-61564769D01*
X59437014Y-61563813D01*
X59437016Y-61563813D01*
X59513813Y-61487016D01*
X59513813Y-61487014D01*
X59514769Y-61486059D01*
X59518819Y-61481180D01*
X59608475Y-61391524D01*
X59643120Y-61377174D01*
X59677768Y-61391526D01*
X59750857Y-61464615D01*
X59848499Y-61507729D01*
X59848505Y-61507731D01*
X59872359Y-61510498D01*
X59872360Y-61510498D01*
X59872377Y-61510500D01*
X60327622Y-61510499D01*
X60351498Y-61507730D01*
X60449141Y-61464616D01*
X60524616Y-61389141D01*
X60567730Y-61291498D01*
X60567730Y-61291496D01*
X60567731Y-61291494D01*
X60570498Y-61267640D01*
X60570497Y-61267640D01*
X60570500Y-61267623D01*
X60570499Y-61226274D01*
X60584849Y-61191628D01*
X60792822Y-60983655D01*
X60827469Y-60969304D01*
X60835129Y-60969906D01*
X60900000Y-60980181D01*
X61017482Y-60961574D01*
X61114037Y-60912377D01*
X61123458Y-60907577D01*
X61123460Y-60907575D01*
X61123465Y-60907573D01*
X61207573Y-60823465D01*
X61212914Y-60812984D01*
X61226842Y-60785648D01*
X61261574Y-60717482D01*
X61280181Y-60600000D01*
X61261574Y-60482518D01*
X61232422Y-60425304D01*
X61207577Y-60376541D01*
X61207572Y-60376534D01*
X61123465Y-60292427D01*
X61123458Y-60292422D01*
X61017484Y-60238427D01*
X61017483Y-60238426D01*
X61017482Y-60238426D01*
X60900000Y-60219819D01*
X60899998Y-60219819D01*
X60898476Y-60219819D01*
X60897533Y-60219428D01*
X60896191Y-60219216D01*
X60896242Y-60218893D01*
X60863828Y-60205467D01*
X60849476Y-60170819D01*
X60863827Y-60136172D01*
X61535648Y-59464352D01*
X61570296Y-59450000D01*
X65979704Y-59450000D01*
X66014352Y-59464352D01*
G37*
%TD.AperFunction*%
%TD*%
%TA.AperFunction,Conductor*%
%TO.N,GND*%
G36*
X76642539Y-57019685D02*
G01*
X76688294Y-57072489D01*
X76699500Y-57124000D01*
X76699500Y-70997575D01*
X76699403Y-71002443D01*
X76695020Y-71114039D01*
X76692394Y-71180868D01*
X76670093Y-71247083D01*
X76615534Y-71290730D01*
X76568490Y-71300000D01*
X75401362Y-71300000D01*
X75334323Y-71280315D01*
X75313681Y-71263681D01*
X73836319Y-69786319D01*
X73802834Y-69724996D01*
X73800000Y-69698638D01*
X73800000Y-63625031D01*
X73813515Y-63568737D01*
X73835646Y-63525304D01*
X73855492Y-63400000D01*
X73855492Y-63399996D01*
X73835647Y-63274699D01*
X73835646Y-63274695D01*
X73813515Y-63231260D01*
X73800000Y-63174966D01*
X73800000Y-60049049D01*
X73819685Y-59982010D01*
X73867706Y-59938564D01*
X73888342Y-59928050D01*
X73978050Y-59838342D01*
X74035646Y-59725304D01*
X74035646Y-59725302D01*
X74035647Y-59725301D01*
X74035647Y-59725300D01*
X74055492Y-59600003D01*
X74055492Y-59599996D01*
X74035647Y-59474699D01*
X74035647Y-59474698D01*
X74035646Y-59474696D01*
X73978050Y-59361658D01*
X73978046Y-59361654D01*
X73978045Y-59361652D01*
X73888342Y-59271949D01*
X73867702Y-59261432D01*
X73816907Y-59213456D01*
X73800000Y-59150949D01*
X73800000Y-58201362D01*
X73819685Y-58134323D01*
X73836319Y-58113681D01*
X74913681Y-57036319D01*
X74975004Y-57002834D01*
X75001362Y-57000000D01*
X76575500Y-57000000D01*
X76642539Y-57019685D01*
G37*
%TD.AperFunction*%
%TD*%
%TA.AperFunction,Conductor*%
%TO.N,VDD3P3*%
G36*
X52967546Y-62514852D02*
G01*
X52981898Y-62549500D01*
X52980957Y-62559056D01*
X52974500Y-62591520D01*
X52974500Y-63308480D01*
X52986858Y-63370609D01*
X52991741Y-63377917D01*
X53000000Y-63405140D01*
X53000000Y-63530437D01*
X52985648Y-63565085D01*
X52839258Y-63711475D01*
X52814546Y-63736187D01*
X52784263Y-63766469D01*
X52754500Y-63838323D01*
X52754500Y-65427486D01*
X52754501Y-65427493D01*
X52776534Y-65480686D01*
X52776534Y-65518189D01*
X52765934Y-65534063D01*
X52764373Y-65535626D01*
X52729734Y-65550000D01*
X52295696Y-65550000D01*
X52261048Y-65535648D01*
X52247299Y-65508666D01*
X52241574Y-65472518D01*
X52218629Y-65427486D01*
X52187577Y-65366541D01*
X52187572Y-65366534D01*
X52103468Y-65282430D01*
X52103465Y-65282427D01*
X52103463Y-65282426D01*
X52103462Y-65282425D01*
X52076754Y-65268817D01*
X52052398Y-65240299D01*
X52050000Y-65225158D01*
X52050000Y-63115951D01*
X52050876Y-63106727D01*
X52077243Y-62969159D01*
X52077244Y-62969156D01*
X52071051Y-62883806D01*
X52052712Y-62830995D01*
X52050000Y-62814921D01*
X52050000Y-62549500D01*
X52064352Y-62514852D01*
X52099000Y-62500500D01*
X52932898Y-62500500D01*
X52967546Y-62514852D01*
G37*
%TD.AperFunction*%
%TD*%
%TA.AperFunction,Conductor*%
%TO.N,Net-(FL1-OUT)*%
G36*
X61783800Y-53256599D02*
G01*
X61783861Y-53256651D01*
X61947182Y-53396041D01*
X61951251Y-53404018D01*
X61951232Y-53406069D01*
X61939337Y-53528816D01*
X61935129Y-53536720D01*
X61928839Y-53539331D01*
X61719337Y-53559964D01*
X61710768Y-53557364D01*
X61707290Y-53552572D01*
X61650296Y-53406472D01*
X61650482Y-53397519D01*
X61652243Y-53394687D01*
X61767317Y-53258013D01*
X61775266Y-53253893D01*
X61783800Y-53256599D01*
G37*
%TD.AperFunction*%
%TD*%
%TA.AperFunction,Conductor*%
%TO.N,GND*%
G36*
X62743259Y-52513514D02*
G01*
X62790331Y-52537499D01*
X62790333Y-52537500D01*
X62825882Y-52543129D01*
X62828341Y-52543766D01*
X62828369Y-52543610D01*
X62845491Y-52546634D01*
X62850481Y-52547026D01*
X62876987Y-52551225D01*
X62899993Y-52554869D01*
X62899994Y-52554869D01*
X62899995Y-52554869D01*
X62923000Y-52551225D01*
X62949506Y-52547026D01*
X62954499Y-52546633D01*
X62960912Y-52545500D01*
X62960915Y-52545500D01*
X62960918Y-52545498D01*
X62971626Y-52543607D01*
X62971654Y-52543769D01*
X62974115Y-52543128D01*
X63009655Y-52537500D01*
X63056728Y-52513514D01*
X63113023Y-52500000D01*
X64148638Y-52500000D01*
X64215677Y-52519685D01*
X64236319Y-52536319D01*
X64613681Y-52913681D01*
X64647166Y-52975004D01*
X64650000Y-53001362D01*
X64650000Y-54355500D01*
X64630315Y-54422539D01*
X64577511Y-54468294D01*
X64526001Y-54479500D01*
X64342225Y-54479500D01*
X64289571Y-54489973D01*
X64289568Y-54489974D01*
X64229867Y-54529866D01*
X64214335Y-54553111D01*
X64200116Y-54574391D01*
X64146505Y-54619196D01*
X64097015Y-54629500D01*
X63726544Y-54629500D01*
X63659505Y-54609815D01*
X63638862Y-54593180D01*
X63608591Y-54562908D01*
X63608585Y-54562904D01*
X63509661Y-54512500D01*
X63509659Y-54512499D01*
X63509658Y-54512499D01*
X63474088Y-54506865D01*
X63471638Y-54506233D01*
X63471612Y-54506386D01*
X63454482Y-54503364D01*
X63449512Y-54502973D01*
X63423006Y-54498774D01*
X63400001Y-54495131D01*
X63399999Y-54495131D01*
X63376993Y-54498774D01*
X63350487Y-54502973D01*
X63345520Y-54503364D01*
X63328395Y-54506383D01*
X63328368Y-54506233D01*
X63325924Y-54506863D01*
X63290341Y-54512499D01*
X63191414Y-54562904D01*
X63191407Y-54562909D01*
X63112909Y-54641407D01*
X63112904Y-54641414D01*
X63062498Y-54740341D01*
X63045131Y-54849997D01*
X63045131Y-54850002D01*
X63062498Y-54959658D01*
X63112904Y-55058585D01*
X63112909Y-55058592D01*
X63191407Y-55137090D01*
X63191409Y-55137091D01*
X63191413Y-55137095D01*
X63290337Y-55187499D01*
X63290339Y-55187500D01*
X63325888Y-55193129D01*
X63328347Y-55193766D01*
X63328375Y-55193610D01*
X63345497Y-55196634D01*
X63350487Y-55197026D01*
X63376993Y-55201225D01*
X63399999Y-55204869D01*
X63400000Y-55204869D01*
X63400001Y-55204869D01*
X63423006Y-55201225D01*
X63449512Y-55197026D01*
X63454505Y-55196633D01*
X63460918Y-55195500D01*
X63460921Y-55195500D01*
X63460924Y-55195498D01*
X63471632Y-55193607D01*
X63471660Y-55193769D01*
X63474121Y-55193128D01*
X63509661Y-55187500D01*
X63608587Y-55137095D01*
X63638862Y-55106820D01*
X63700184Y-55073334D01*
X63726544Y-55070500D01*
X64055501Y-55070500D01*
X64122540Y-55090185D01*
X64168295Y-55142989D01*
X64179501Y-55194500D01*
X64179501Y-55357775D01*
X64181101Y-55365821D01*
X64174869Y-55435412D01*
X64132004Y-55490587D01*
X64115778Y-55500490D01*
X64091414Y-55512904D01*
X64091407Y-55512909D01*
X64012909Y-55591407D01*
X64012904Y-55591414D01*
X63962499Y-55690341D01*
X63948599Y-55778100D01*
X63918669Y-55841234D01*
X63859358Y-55878165D01*
X63826126Y-55882701D01*
X63675570Y-55882701D01*
X63628421Y-55873387D01*
X62958434Y-55597946D01*
X62913705Y-55566533D01*
X62836063Y-55480868D01*
X62828343Y-55471461D01*
X62827358Y-55470133D01*
X62634087Y-55209533D01*
X62627327Y-55199417D01*
X62623846Y-55193610D01*
X62459674Y-54919701D01*
X62453938Y-54908969D01*
X62314515Y-54614180D01*
X62309859Y-54602938D01*
X62199995Y-54295888D01*
X62196465Y-54284254D01*
X62117226Y-53967913D01*
X62114853Y-53955981D01*
X62091906Y-53801281D01*
X62067004Y-53633403D01*
X62065812Y-53621300D01*
X62064803Y-53600763D01*
X62063113Y-53566360D01*
X62079485Y-53498437D01*
X62083862Y-53491386D01*
X62086874Y-53486876D01*
X62086876Y-53486876D01*
X62113509Y-53447017D01*
X62120500Y-53411870D01*
X62120500Y-53088130D01*
X62120499Y-53088125D01*
X62579500Y-53088125D01*
X62579500Y-53411874D01*
X62586489Y-53447014D01*
X62586490Y-53447015D01*
X62586490Y-53447016D01*
X62586491Y-53447017D01*
X62613124Y-53486876D01*
X62652983Y-53513509D01*
X62652984Y-53513509D01*
X62652985Y-53513510D01*
X62688125Y-53520499D01*
X62688129Y-53520500D01*
X62688130Y-53520500D01*
X63161871Y-53520500D01*
X63161872Y-53520499D01*
X63197017Y-53513509D01*
X63197027Y-53513502D01*
X63200032Y-53512258D01*
X63207170Y-53511489D01*
X63208995Y-53511127D01*
X63209027Y-53511290D01*
X63269501Y-53504783D01*
X63282726Y-53508666D01*
X63329645Y-53517998D01*
X63342223Y-53520500D01*
X64057776Y-53520499D01*
X64110428Y-53510027D01*
X64170133Y-53470133D01*
X64210027Y-53410428D01*
X64220500Y-53357777D01*
X64220499Y-53142224D01*
X64210027Y-53089572D01*
X64210025Y-53089570D01*
X64210025Y-53089568D01*
X64170132Y-53029865D01*
X64110430Y-52989974D01*
X64110423Y-52989971D01*
X64057780Y-52979500D01*
X63342225Y-52979500D01*
X63307089Y-52986489D01*
X63289572Y-52989973D01*
X63289571Y-52989973D01*
X63277593Y-52992356D01*
X63277058Y-52989670D01*
X63225467Y-52995211D01*
X63200043Y-52987745D01*
X63197012Y-52986489D01*
X63161874Y-52979500D01*
X63161870Y-52979500D01*
X62688130Y-52979500D01*
X62688125Y-52979500D01*
X62652985Y-52986489D01*
X62652984Y-52986490D01*
X62613124Y-53013124D01*
X62586490Y-53052984D01*
X62586489Y-53052985D01*
X62579500Y-53088125D01*
X62120499Y-53088125D01*
X62120436Y-53087809D01*
X62113510Y-53052985D01*
X62113509Y-53052984D01*
X62113509Y-53052983D01*
X62086876Y-53013124D01*
X62047017Y-52986491D01*
X62047016Y-52986490D01*
X62047015Y-52986490D01*
X62047014Y-52986489D01*
X62011874Y-52979500D01*
X62011870Y-52979500D01*
X61538130Y-52979500D01*
X61538125Y-52979500D01*
X61502985Y-52986489D01*
X61502984Y-52986490D01*
X61463124Y-53013124D01*
X61436490Y-53052984D01*
X61436489Y-53052985D01*
X61429500Y-53088125D01*
X61429500Y-53411874D01*
X61436489Y-53447014D01*
X61436490Y-53447015D01*
X61436490Y-53447016D01*
X61436491Y-53447017D01*
X61463124Y-53486876D01*
X61502983Y-53513509D01*
X61502984Y-53513509D01*
X61514269Y-53518184D01*
X61512898Y-53521493D01*
X61556265Y-53544179D01*
X61590839Y-53604895D01*
X61593690Y-53622602D01*
X61609323Y-53801281D01*
X61668719Y-54138128D01*
X61668722Y-54138141D01*
X61757246Y-54468525D01*
X61874235Y-54789954D01*
X61874238Y-54789962D01*
X62005054Y-55070500D01*
X62018793Y-55099963D01*
X62072951Y-55193769D01*
X62189818Y-55396191D01*
X62386009Y-55676384D01*
X62551638Y-55873776D01*
X62571051Y-55905647D01*
X62671811Y-56146633D01*
X62813721Y-56486037D01*
X62831893Y-56529500D01*
X62872903Y-56627582D01*
X62882500Y-56675415D01*
X62882500Y-56878675D01*
X62889489Y-56913815D01*
X62889490Y-56913816D01*
X62889490Y-56913817D01*
X62889491Y-56913818D01*
X62916124Y-56953677D01*
X62955983Y-56980310D01*
X62955984Y-56980310D01*
X62955985Y-56980311D01*
X62991125Y-56987300D01*
X62991129Y-56987301D01*
X62991130Y-56987301D01*
X63878471Y-56987301D01*
X63878472Y-56987300D01*
X63896043Y-56983805D01*
X63913613Y-56980311D01*
X63913613Y-56980310D01*
X63913617Y-56980310D01*
X63939893Y-56962752D01*
X63954978Y-56958028D01*
X63956822Y-56949556D01*
X63962537Y-56940114D01*
X63980109Y-56913818D01*
X63987100Y-56878671D01*
X63987100Y-56236294D01*
X64006785Y-56169255D01*
X64059589Y-56123500D01*
X64128747Y-56113556D01*
X64167394Y-56125809D01*
X64190337Y-56137499D01*
X64190339Y-56137500D01*
X64225888Y-56143129D01*
X64228347Y-56143766D01*
X64228375Y-56143610D01*
X64245497Y-56146634D01*
X64250487Y-56147026D01*
X64276993Y-56151225D01*
X64299999Y-56154869D01*
X64300000Y-56154869D01*
X64300001Y-56154869D01*
X64323006Y-56151225D01*
X64349512Y-56147026D01*
X64354505Y-56146633D01*
X64360918Y-56145500D01*
X64360921Y-56145500D01*
X64360924Y-56145498D01*
X64371632Y-56143607D01*
X64371660Y-56143769D01*
X64374121Y-56143128D01*
X64409661Y-56137500D01*
X64469706Y-56106905D01*
X64538373Y-56094009D01*
X64603113Y-56120284D01*
X64643371Y-56177390D01*
X64650000Y-56217390D01*
X64650000Y-56548638D01*
X64630315Y-56615677D01*
X64613681Y-56636319D01*
X64153335Y-57096664D01*
X64116337Y-57116866D01*
X64103931Y-57145370D01*
X64096463Y-57153536D01*
X63586319Y-57663681D01*
X63524996Y-57697166D01*
X63498638Y-57700000D01*
X62701362Y-57700000D01*
X62634323Y-57680315D01*
X62613681Y-57663681D01*
X62246515Y-57296515D01*
X62213030Y-57235192D01*
X62216666Y-57184348D01*
X62213003Y-57183620D01*
X62230499Y-57095658D01*
X62230500Y-57095656D01*
X62230500Y-56764343D01*
X62230499Y-56764341D01*
X62215385Y-56688358D01*
X62215385Y-56688357D01*
X62174776Y-56627582D01*
X62157810Y-56602190D01*
X62123295Y-56579128D01*
X62071642Y-56544614D01*
X61995657Y-56529500D01*
X61995654Y-56529500D01*
X61762696Y-56529500D01*
X61695657Y-56509815D01*
X61675015Y-56493181D01*
X61456819Y-56274985D01*
X61423334Y-56213662D01*
X61420500Y-56187304D01*
X61420500Y-55776544D01*
X61440185Y-55709505D01*
X61456820Y-55688862D01*
X61487091Y-55658591D01*
X61487095Y-55658587D01*
X61537500Y-55559661D01*
X61537500Y-55559659D01*
X61537501Y-55559658D01*
X61554869Y-55450002D01*
X61554869Y-55449997D01*
X61537501Y-55340341D01*
X61516252Y-55298638D01*
X61487095Y-55241413D01*
X61487092Y-55241410D01*
X61487090Y-55241407D01*
X61408592Y-55162909D01*
X61408588Y-55162906D01*
X61408587Y-55162905D01*
X61309661Y-55112500D01*
X61309659Y-55112499D01*
X61309658Y-55112499D01*
X61274088Y-55106865D01*
X61271638Y-55106233D01*
X61271612Y-55106386D01*
X61254482Y-55103364D01*
X61249512Y-55102973D01*
X61223006Y-55098774D01*
X61200001Y-55095131D01*
X61199999Y-55095131D01*
X61176993Y-55098774D01*
X61150487Y-55102973D01*
X61145520Y-55103364D01*
X61128395Y-55106383D01*
X61128368Y-55106233D01*
X61125924Y-55106863D01*
X61090341Y-55112499D01*
X60991414Y-55162904D01*
X60991407Y-55162909D01*
X60912909Y-55241407D01*
X60912904Y-55241414D01*
X60862498Y-55340341D01*
X60845131Y-55449997D01*
X60845131Y-55450002D01*
X60862498Y-55559657D01*
X60862499Y-55559660D01*
X60862500Y-55559661D01*
X60866001Y-55566533D01*
X60873614Y-55581473D01*
X60886509Y-55650142D01*
X60860231Y-55714882D01*
X60803124Y-55755138D01*
X60733319Y-55758130D01*
X60675447Y-55725447D01*
X60336319Y-55386319D01*
X60302834Y-55324996D01*
X60300000Y-55298638D01*
X60300000Y-53201362D01*
X60319685Y-53134323D01*
X60336319Y-53113681D01*
X60913681Y-52536319D01*
X60975004Y-52502834D01*
X61001362Y-52500000D01*
X62686965Y-52500000D01*
X62743259Y-52513514D01*
G37*
%TD.AperFunction*%
%TD*%
%TA.AperFunction,Conductor*%
%TO.N,+3V3*%
G36*
X51442539Y-61579685D02*
G01*
X51488294Y-61632489D01*
X51499500Y-61684000D01*
X51499500Y-62364820D01*
X51499500Y-62364822D01*
X51499499Y-62364822D01*
X51510615Y-62420700D01*
X51507594Y-62421300D01*
X51513010Y-62471710D01*
X51494087Y-62518570D01*
X51486857Y-62529389D01*
X51486857Y-62529390D01*
X51474500Y-62591515D01*
X51474500Y-62744791D01*
X51462092Y-62798858D01*
X51438864Y-62846798D01*
X51416551Y-62963211D01*
X51384598Y-63025346D01*
X51382449Y-63027549D01*
X50976319Y-63433681D01*
X50914996Y-63467166D01*
X50888638Y-63470000D01*
X49551362Y-63470000D01*
X49484323Y-63450315D01*
X49463681Y-63433681D01*
X49336819Y-63306819D01*
X49303334Y-63245496D01*
X49300500Y-63219138D01*
X49300500Y-61760862D01*
X49320185Y-61693823D01*
X49336818Y-61673182D01*
X49373182Y-61636817D01*
X49434502Y-61603333D01*
X49460853Y-61600499D01*
X49863372Y-61600499D01*
X49887662Y-61597682D01*
X49920243Y-61583295D01*
X49989520Y-61574224D01*
X50052705Y-61604047D01*
X50058010Y-61609049D01*
X50136529Y-61687568D01*
X50136533Y-61687571D01*
X50136535Y-61687573D01*
X50242518Y-61741574D01*
X50242520Y-61741574D01*
X50242522Y-61741575D01*
X50359997Y-61760181D01*
X50360000Y-61760181D01*
X50360003Y-61760181D01*
X50477477Y-61741575D01*
X50477478Y-61741575D01*
X50477479Y-61741574D01*
X50477482Y-61741574D01*
X50583465Y-61687573D01*
X50667573Y-61603465D01*
X50667574Y-61603462D01*
X50674473Y-61596564D01*
X50677264Y-61599355D01*
X50717344Y-61568449D01*
X50762333Y-61560000D01*
X51375500Y-61560000D01*
X51442539Y-61579685D01*
G37*
%TD.AperFunction*%
%TD*%
%TA.AperFunction,Conductor*%
%TO.N,+3V3*%
G36*
X54465218Y-56305341D02*
G01*
X54500607Y-56323372D01*
X54524696Y-56335646D01*
X54650000Y-56355492D01*
X54775304Y-56335646D01*
X54810166Y-56317882D01*
X54834782Y-56305341D01*
X54857027Y-56300000D01*
X55188875Y-56300000D01*
X55223523Y-56314352D01*
X55244815Y-56335644D01*
X55262984Y-56353813D01*
X55362335Y-56397681D01*
X55362341Y-56397683D01*
X55386609Y-56400498D01*
X55386610Y-56400498D01*
X55386627Y-56400500D01*
X55813372Y-56400499D01*
X55837662Y-56397682D01*
X55931209Y-56356376D01*
X55968701Y-56355511D01*
X55995825Y-56381410D01*
X56000000Y-56401202D01*
X56000000Y-58425500D01*
X55985648Y-58460148D01*
X55951000Y-58474500D01*
X55591520Y-58474500D01*
X55544923Y-58483768D01*
X55529390Y-58486858D01*
X55522082Y-58491742D01*
X55494859Y-58500000D01*
X55372159Y-58500000D01*
X55367235Y-58499516D01*
X55367214Y-58499736D01*
X55364821Y-58499500D01*
X55364820Y-58499500D01*
X55364818Y-58499500D01*
X54567102Y-58499500D01*
X54532454Y-58485148D01*
X54518102Y-58450500D01*
X54519043Y-58440941D01*
X54525500Y-58408480D01*
X54525500Y-57691520D01*
X54513142Y-57629391D01*
X54497520Y-57606011D01*
X54466065Y-57558934D01*
X54395609Y-57511858D01*
X54333480Y-57499500D01*
X54166520Y-57499500D01*
X54129242Y-57506914D01*
X54104389Y-57511858D01*
X54076222Y-57530679D01*
X54039440Y-57537995D01*
X54008258Y-57517159D01*
X54000000Y-57489937D01*
X54000000Y-57120515D01*
X54000328Y-57114859D01*
X54000499Y-57113385D01*
X54000499Y-57113381D01*
X54000500Y-57113373D01*
X54000499Y-56686628D01*
X54000326Y-56685134D01*
X54000000Y-56679491D01*
X54000000Y-56570296D01*
X54014352Y-56535648D01*
X54235648Y-56314352D01*
X54270296Y-56300000D01*
X54442973Y-56300000D01*
X54465218Y-56305341D01*
G37*
%TD.AperFunction*%
%TD*%
%TA.AperFunction,Conductor*%
%TO.N,GND*%
G36*
X62414352Y-64664352D02*
G01*
X63685648Y-65935648D01*
X63700000Y-65970296D01*
X63700000Y-67829704D01*
X63685648Y-67864352D01*
X63314352Y-68235648D01*
X63279704Y-68250000D01*
X60420296Y-68250000D01*
X60385648Y-68235648D01*
X59464352Y-67314352D01*
X59450000Y-67279704D01*
X59450000Y-65170296D01*
X59464352Y-65135648D01*
X59935648Y-64664352D01*
X59970296Y-64650000D01*
X62379704Y-64650000D01*
X62414352Y-64664352D01*
G37*
%TD.AperFunction*%
%TD*%
M02*
