%TF.GenerationSoftware,KiCad,Pcbnew,8.0.4-8.0.4-0~ubuntu24.04.1*%
%TF.CreationDate,2024-08-29T15:44:26+02:00*%
%TF.ProjectId,erace-rx-v2,65726163-652d-4727-982d-76322e6b6963,rev?*%
%TF.SameCoordinates,Original*%
%TF.FileFunction,Copper,L4,Bot*%
%TF.FilePolarity,Positive*%
%FSLAX46Y46*%
G04 Gerber Fmt 4.6, Leading zero omitted, Abs format (unit mm)*
G04 Created by KiCad (PCBNEW 8.0.4-8.0.4-0~ubuntu24.04.1) date 2024-08-29 15:44:26*
%MOMM*%
%LPD*%
G01*
G04 APERTURE LIST*
G04 Aperture macros list*
%AMRoundRect*
0 Rectangle with rounded corners*
0 $1 Rounding radius*
0 $2 $3 $4 $5 $6 $7 $8 $9 X,Y pos of 4 corners*
0 Add a 4 corners polygon primitive as box body*
4,1,4,$2,$3,$4,$5,$6,$7,$8,$9,$2,$3,0*
0 Add four circle primitives for the rounded corners*
1,1,$1+$1,$2,$3*
1,1,$1+$1,$4,$5*
1,1,$1+$1,$6,$7*
1,1,$1+$1,$8,$9*
0 Add four rect primitives between the rounded corners*
20,1,$1+$1,$2,$3,$4,$5,0*
20,1,$1+$1,$4,$5,$6,$7,0*
20,1,$1+$1,$6,$7,$8,$9,0*
20,1,$1+$1,$8,$9,$2,$3,0*%
G04 Aperture macros list end*
%TA.AperFunction,ComponentPad*%
%ADD10O,1.000000X2.100000*%
%TD*%
%TA.AperFunction,ComponentPad*%
%ADD11O,1.000000X1.800000*%
%TD*%
%TA.AperFunction,SMDPad,CuDef*%
%ADD12RoundRect,0.300000X0.700000X0.700000X-0.700000X0.700000X-0.700000X-0.700000X0.700000X-0.700000X0*%
%TD*%
%TA.AperFunction,ViaPad*%
%ADD13C,0.500000*%
%TD*%
%TA.AperFunction,ViaPad*%
%ADD14C,0.450000*%
%TD*%
%TA.AperFunction,Conductor*%
%ADD15C,0.200000*%
%TD*%
%TA.AperFunction,Conductor*%
%ADD16C,0.090000*%
%TD*%
G04 APERTURE END LIST*
D10*
%TO.P,J2,S1,SHIELD*%
%TO.N,GND*%
X60450000Y-70040000D03*
D11*
X60450000Y-74190000D03*
D10*
X69090000Y-70040000D03*
D11*
X69090000Y-74190000D03*
%TD*%
D12*
%TO.P,P4,1*%
%TO.N,Net-(P4-Pad1)*%
X75500000Y-65500000D03*
%TD*%
%TO.P,P2,1*%
%TO.N,Net-(Q2-D)*%
X75500000Y-68400000D03*
%TD*%
%TO.P,P1,1*%
%TO.N,Net-(Q1-D)*%
X75500000Y-57500000D03*
%TD*%
%TO.P,P3,1*%
%TO.N,Net-(P3-Pad1)*%
X75500000Y-60500000D03*
%TD*%
D13*
%TO.N,GND*%
X64700000Y-53500000D03*
D14*
X61500000Y-52650000D03*
D13*
X66700000Y-52700000D03*
D14*
X68500000Y-60500000D03*
X61900000Y-55600000D03*
X50200000Y-64700000D03*
X59650000Y-50000000D03*
D13*
X69300000Y-54600000D03*
X53900000Y-64350000D03*
D14*
X49650000Y-66400000D03*
D13*
X54650000Y-55950000D03*
X53200000Y-62000000D03*
X66000000Y-52000000D03*
X62000000Y-65800000D03*
X63730002Y-49870000D03*
X63200000Y-67100000D03*
X66000000Y-53399994D03*
X49650010Y-61170000D03*
D14*
X75350000Y-63200000D03*
D13*
X57844990Y-56495023D03*
D14*
X69900000Y-50950000D03*
D13*
X60800000Y-65800000D03*
X53900000Y-59600000D03*
X58750000Y-62750000D03*
X64600000Y-52099984D03*
X52000000Y-61400000D03*
X56500000Y-65100000D03*
X59650000Y-60300000D03*
X69600000Y-61485000D03*
X54600000Y-60199998D03*
X62400000Y-67100000D03*
X73100000Y-66900000D03*
D14*
X62950000Y-57350000D03*
D13*
X59800000Y-67100000D03*
D14*
X64450000Y-56850000D03*
X61050000Y-53350000D03*
X56900000Y-73250000D03*
D13*
X54960018Y-61560018D03*
D14*
X61350000Y-54250000D03*
D13*
X54900000Y-67100000D03*
D14*
X49600000Y-64650000D03*
D13*
X56250000Y-69350000D03*
X53000000Y-59600000D03*
X61600000Y-67100000D03*
X61400000Y-65200000D03*
X52850000Y-56200000D03*
D14*
X62500000Y-54200000D03*
%TO.N,/IO9*%
X56750000Y-56800000D03*
X60900000Y-60600000D03*
D13*
%TO.N,Net-(Q1-D)*%
X58000000Y-70650000D03*
D14*
%TO.N,Net-(U1-XTAL_N)*%
X57682540Y-59190000D03*
X49800000Y-60350000D03*
D13*
%TO.N,+3V3*%
X62000000Y-63200000D03*
X63400000Y-60000000D03*
X63400000Y-61200000D03*
X63800000Y-65000000D03*
X64600000Y-61200000D03*
X68250000Y-71160000D03*
X66400000Y-61800000D03*
X64600000Y-60000000D03*
X51200000Y-62600000D03*
X64400000Y-65600000D03*
X62200000Y-61200000D03*
X62600000Y-63800000D03*
X65200000Y-61800000D03*
X69300000Y-53000000D03*
X70450000Y-75450000D03*
X64400000Y-63200000D03*
X63200000Y-64400000D03*
X71250000Y-69430000D03*
D14*
X58350000Y-65750000D03*
D13*
X63200000Y-63200000D03*
D14*
X53911112Y-65072230D03*
X56699980Y-61250000D03*
D13*
X67000000Y-62400000D03*
X64000000Y-61800000D03*
X56050000Y-57850000D03*
X66400000Y-60600000D03*
X65000000Y-65000000D03*
X62800000Y-60600000D03*
X65609727Y-50228174D03*
D14*
X54900002Y-64600000D03*
D13*
X66600000Y-63100000D03*
X67000000Y-61200000D03*
X65000000Y-63800000D03*
X64400000Y-64400000D03*
X63800000Y-63800000D03*
X65900000Y-62400000D03*
X49650000Y-62550000D03*
X72100000Y-56550000D03*
X65800000Y-61200000D03*
X62800000Y-61800000D03*
X65800000Y-66200000D03*
X65200000Y-60600000D03*
X65800000Y-60000000D03*
X65600000Y-64400000D03*
X64000000Y-60600000D03*
X61600000Y-61800000D03*
X66400000Y-65600000D03*
X65000002Y-66950000D03*
%TO.N,Net-(Q2-D)*%
X56850000Y-68050000D03*
D14*
%TO.N,Net-(RF1-VR_PA)*%
X63400000Y-54850000D03*
X61200000Y-55450000D03*
%TO.N,Net-(RF1-DCC_FB)*%
X68720000Y-50390000D03*
X64300000Y-55800000D03*
%TO.N,VCC*%
X49850000Y-57600000D03*
X69350000Y-66700000D03*
%TO.N,/IO3*%
X56050000Y-62850000D03*
X57900000Y-69300000D03*
X70700000Y-62350000D03*
%TO.N,/IO2*%
X56350000Y-63850000D03*
X51586243Y-56374019D03*
%TO.N,Net-(U1-XTAL_P)*%
X60050000Y-57650000D03*
X50360000Y-61380000D03*
%TO.N,/IO0*%
X68450000Y-54680002D03*
X53870000Y-65903824D03*
%TO.N,/SS*%
X56580000Y-62490000D03*
X62899994Y-52200000D03*
%TO.N,/IO1*%
X69400000Y-53899994D03*
X53850000Y-63550000D03*
%TO.N,/MISO*%
X56600000Y-61900000D03*
X65010000Y-50210000D03*
%TO.N,/MOSI*%
X63950000Y-50574997D03*
X57340002Y-60490000D03*
%TO.N,/SCK*%
X56637970Y-60624749D03*
X63950000Y-51150000D03*
D13*
%TO.N,Net-(P3-Pad1)*%
X73650000Y-59600000D03*
%TO.N,Net-(P4-Pad1)*%
X73450000Y-63400000D03*
D14*
%TO.N,/IO20*%
X50300000Y-59480000D03*
X68000000Y-64700000D03*
X53700000Y-67300000D03*
%TO.N,/IO21*%
X68500000Y-63200000D03*
X50307928Y-60080487D03*
X51880000Y-65590000D03*
%TO.N,/CH_4*%
X56050000Y-75150000D03*
X54100000Y-68650000D03*
X68200000Y-61950000D03*
X56851368Y-66373796D03*
%TO.N,/USBD-*%
X57950000Y-76000000D03*
X50852615Y-57537934D03*
X64000000Y-70300000D03*
%TO.N,/USBD+*%
X50330580Y-58189420D03*
X64575003Y-70300000D03*
X57567763Y-75499031D03*
%TD*%
D15*
%TO.N,Net-(Q1-D)*%
X72250000Y-59750001D02*
X72250000Y-65800000D01*
X75500000Y-57500000D02*
X74500001Y-57500000D01*
X59850000Y-68800000D02*
X58000000Y-70650000D01*
X74500001Y-57500000D02*
X72250000Y-59750001D01*
X72250000Y-65800000D02*
X69250000Y-68800000D01*
X69250000Y-68800000D02*
X59850000Y-68800000D01*
D16*
%TO.N,Net-(U1-XTAL_N)*%
X56365442Y-59190000D02*
X57682540Y-59190000D01*
X49800000Y-60350000D02*
X50345000Y-60895000D01*
X54660442Y-60895000D02*
X56365442Y-59190000D01*
X50345000Y-60895000D02*
X54660442Y-60895000D01*
D15*
%TO.N,Net-(Q2-D)*%
X65730000Y-69850000D02*
X63500000Y-69850000D01*
X67560000Y-71680000D02*
X65730000Y-69850000D01*
X56850000Y-70200000D02*
X56850000Y-68050000D01*
X74160000Y-68400000D02*
X70880000Y-71680000D01*
X62070000Y-71280000D02*
X57930000Y-71280000D01*
X70880000Y-71680000D02*
X67560000Y-71680000D01*
X75500000Y-68400000D02*
X74160000Y-68400000D01*
X57930000Y-71280000D02*
X56850000Y-70200000D01*
X63500000Y-69850000D02*
X62070000Y-71280000D01*
%TO.N,Net-(RF1-DCC_FB)*%
X64477818Y-55800000D02*
X68720000Y-51557818D01*
X64300000Y-55800000D02*
X64477818Y-55800000D01*
X68720000Y-51557818D02*
X68720000Y-50390000D01*
D16*
%TO.N,/IO3*%
X70700000Y-62764681D02*
X70700000Y-62350000D01*
X57900000Y-69300000D02*
X58635000Y-68565000D01*
X64899681Y-68565000D02*
X70700000Y-62764681D01*
X58635000Y-68565000D02*
X64899681Y-68565000D01*
%TO.N,Net-(U1-XTAL_P)*%
X60050000Y-57650000D02*
X57965000Y-59735000D01*
X57965000Y-59735000D02*
X56085000Y-59735000D01*
X52428615Y-61530000D02*
X52163615Y-61795000D01*
X52163615Y-61795000D02*
X50775000Y-61795000D01*
X54290000Y-61530000D02*
X52428615Y-61530000D01*
X56085000Y-59735000D02*
X54290000Y-61530000D01*
X50775000Y-61795000D02*
X50360000Y-61380000D01*
%TO.N,/IO0*%
X53870000Y-65903824D02*
X56846176Y-65903824D01*
X56846176Y-65903824D02*
X68069998Y-54680002D01*
X68069998Y-54680002D02*
X68450000Y-54680002D01*
%TO.N,/SS*%
X56379558Y-59915000D02*
X58519683Y-59915000D01*
X55555000Y-61465000D02*
X55555000Y-60739558D01*
X62899994Y-55534689D02*
X62899994Y-52200000D01*
X58519683Y-59915000D02*
X62899994Y-55534689D01*
X55555000Y-60739558D02*
X56379558Y-59915000D01*
X56580000Y-62490000D02*
X55555000Y-61465000D01*
%TO.N,/IO1*%
X59000000Y-63450000D02*
X68550006Y-53899994D01*
X53850000Y-63550000D02*
X53950000Y-63450000D01*
X68550006Y-53899994D02*
X69400000Y-53899994D01*
X53950000Y-63450000D02*
X59000000Y-63450000D01*
%TO.N,/MISO*%
X65450000Y-50650000D02*
X65450000Y-53900000D01*
X65450000Y-53900000D02*
X65443554Y-53915562D01*
X57450000Y-61900000D02*
X56600000Y-61900000D01*
X65443554Y-53915562D02*
X57465562Y-61893554D01*
X65010000Y-50210000D02*
X65450000Y-50650000D01*
X57465562Y-61893554D02*
X57450000Y-61900000D01*
%TO.N,/MOSI*%
X65196777Y-53907781D02*
X58617782Y-60486776D01*
X58617782Y-60486776D02*
X58610000Y-60490000D01*
X63950000Y-50574997D02*
X65175003Y-51800000D01*
X65200000Y-53900000D02*
X65196777Y-53907781D01*
X65200000Y-51800000D02*
X65200000Y-53900000D01*
X65175003Y-51800000D02*
X65200000Y-51800000D01*
X58610000Y-60490000D02*
X57340002Y-60490000D01*
%TO.N,/SCK*%
X58755000Y-60095000D02*
X57167719Y-60095000D01*
X57167719Y-60095000D02*
X56637970Y-60624749D01*
X63950000Y-54900000D02*
X58755000Y-60095000D01*
X63950000Y-51150000D02*
X63950000Y-54900000D01*
D15*
%TO.N,Net-(P3-Pad1)*%
X73650000Y-59600000D02*
X74550000Y-60500000D01*
X74550000Y-60500000D02*
X75500000Y-60500000D01*
%TO.N,Net-(P4-Pad1)*%
X75500000Y-65500000D02*
X75500000Y-65450000D01*
X75500000Y-65450000D02*
X73450000Y-63400000D01*
D16*
%TO.N,/IO20*%
X53950000Y-67550000D02*
X53700000Y-67300000D01*
X65150000Y-67550000D02*
X53950000Y-67550000D01*
X68000000Y-64700000D02*
X65150000Y-67550000D01*
%TO.N,/IO21*%
X56656687Y-66843796D02*
X56462891Y-66650000D01*
X57046049Y-66843796D02*
X56656687Y-66843796D01*
X56462891Y-66650000D02*
X53930000Y-66650000D01*
X57239845Y-66650000D02*
X57046049Y-66843796D01*
X68500000Y-63200000D02*
X68000000Y-63200000D01*
X52870000Y-65590000D02*
X51880000Y-65590000D01*
X64550000Y-66650000D02*
X57239845Y-66650000D01*
X68000000Y-63200000D02*
X64550000Y-66650000D01*
X53930000Y-66650000D02*
X52870000Y-65590000D01*
%TO.N,/CH_4*%
X64695442Y-66250000D02*
X56975164Y-66250000D01*
X54100000Y-68650000D02*
X56050000Y-70600000D01*
X56050000Y-70600000D02*
X56050000Y-75150000D01*
X68200000Y-62745442D02*
X64695442Y-66250000D01*
X68200000Y-61950000D02*
X68200000Y-62745442D01*
X56975164Y-66250000D02*
X56851368Y-66373796D01*
%TO.N,/USBD-*%
X57950000Y-76000000D02*
X59938026Y-76000000D01*
X59938026Y-76000000D02*
X64000000Y-71938026D01*
X64000000Y-71938026D02*
X64000000Y-70300000D01*
%TO.N,/USBD+*%
X64180000Y-72012584D02*
X64180000Y-70695003D01*
X57567763Y-75499031D02*
X57550000Y-75516794D01*
X64180000Y-70695003D02*
X64575003Y-70300000D01*
X57550000Y-75516794D02*
X57550000Y-76258615D01*
X57550000Y-76258615D02*
X57686385Y-76395000D01*
X57686385Y-76395000D02*
X59797584Y-76395000D01*
X59797584Y-76395000D02*
X64180000Y-72012584D01*
%TD*%
%TA.AperFunction,Conductor*%
%TO.N,+3V3*%
G36*
X74268834Y-68747941D02*
G01*
X74324767Y-68789813D01*
X74349184Y-68855277D01*
X74349500Y-68864123D01*
X74349500Y-69154269D01*
X74352353Y-69184699D01*
X74352353Y-69184701D01*
X74397206Y-69312880D01*
X74397207Y-69312882D01*
X74477850Y-69422150D01*
X74587118Y-69502793D01*
X74629845Y-69517744D01*
X74715299Y-69547646D01*
X74745730Y-69550500D01*
X74745734Y-69550500D01*
X76254270Y-69550500D01*
X76284699Y-69547646D01*
X76284701Y-69547646D01*
X76353802Y-69523466D01*
X76412882Y-69502793D01*
X76501869Y-69437117D01*
X76567495Y-69413148D01*
X76635665Y-69428463D01*
X76684734Y-69478203D01*
X76699500Y-69536889D01*
X76699500Y-70997575D01*
X76699404Y-71002444D01*
X76682121Y-71442299D01*
X76681358Y-71452004D01*
X76629901Y-71886769D01*
X76628377Y-71896386D01*
X76542972Y-72325745D01*
X76540699Y-72335212D01*
X76421873Y-72756539D01*
X76418865Y-72765800D01*
X76267336Y-73176534D01*
X76263610Y-73185528D01*
X76080332Y-73583092D01*
X76075911Y-73591768D01*
X75861999Y-73973734D01*
X75856912Y-73982036D01*
X75613698Y-74346031D01*
X75607975Y-74353908D01*
X75336948Y-74697705D01*
X75330625Y-74705108D01*
X75033462Y-75026577D01*
X75026577Y-75033462D01*
X74705108Y-75330625D01*
X74697705Y-75336948D01*
X74353908Y-75607975D01*
X74346031Y-75613698D01*
X73982036Y-75856912D01*
X73973734Y-75861999D01*
X73591768Y-76075911D01*
X73583092Y-76080332D01*
X73185528Y-76263610D01*
X73176534Y-76267336D01*
X72765800Y-76418865D01*
X72756539Y-76421873D01*
X72335212Y-76540699D01*
X72325745Y-76542972D01*
X71896386Y-76628377D01*
X71886769Y-76629901D01*
X71452004Y-76681358D01*
X71442299Y-76682121D01*
X71018672Y-76698766D01*
X71002442Y-76699404D01*
X70997575Y-76699500D01*
X60068925Y-76699500D01*
X60001886Y-76679815D01*
X59956131Y-76627011D01*
X59946187Y-76557853D01*
X59975212Y-76494297D01*
X59981244Y-76487819D01*
X61814992Y-74654071D01*
X68439499Y-74654071D01*
X68464497Y-74779738D01*
X68464499Y-74779744D01*
X68513533Y-74898124D01*
X68513538Y-74898133D01*
X68584723Y-75004668D01*
X68584726Y-75004672D01*
X68675327Y-75095273D01*
X68675331Y-75095276D01*
X68781866Y-75166461D01*
X68781872Y-75166464D01*
X68781873Y-75166465D01*
X68900256Y-75215501D01*
X68900260Y-75215501D01*
X68900261Y-75215502D01*
X69025928Y-75240500D01*
X69025931Y-75240500D01*
X69154071Y-75240500D01*
X69238615Y-75223682D01*
X69279744Y-75215501D01*
X69398127Y-75166465D01*
X69504669Y-75095276D01*
X69595276Y-75004669D01*
X69666465Y-74898127D01*
X69715501Y-74779744D01*
X69724766Y-74733169D01*
X69740500Y-74654071D01*
X69740500Y-73725928D01*
X69715502Y-73600261D01*
X69715501Y-73600260D01*
X69715501Y-73600256D01*
X69666465Y-73481873D01*
X69666464Y-73481872D01*
X69666461Y-73481866D01*
X69595276Y-73375331D01*
X69595273Y-73375327D01*
X69504672Y-73284726D01*
X69504668Y-73284723D01*
X69398133Y-73213538D01*
X69398124Y-73213533D01*
X69279744Y-73164499D01*
X69279738Y-73164497D01*
X69154071Y-73139500D01*
X69154069Y-73139500D01*
X69025931Y-73139500D01*
X69025929Y-73139500D01*
X68900261Y-73164497D01*
X68900255Y-73164499D01*
X68781875Y-73213533D01*
X68781866Y-73213538D01*
X68675331Y-73284723D01*
X68675327Y-73284726D01*
X68584726Y-73375327D01*
X68584723Y-73375331D01*
X68513538Y-73481866D01*
X68513533Y-73481875D01*
X68464499Y-73600255D01*
X68464497Y-73600261D01*
X68439500Y-73725928D01*
X68439500Y-73725931D01*
X68439500Y-74654069D01*
X68439500Y-74654071D01*
X68439499Y-74654071D01*
X61814992Y-74654071D01*
X62133068Y-74335995D01*
X63469065Y-72999998D01*
X71094645Y-72999998D01*
X71094645Y-73000001D01*
X71114039Y-73271160D01*
X71114040Y-73271167D01*
X71168449Y-73521283D01*
X71171825Y-73536801D01*
X71213953Y-73649750D01*
X71266830Y-73791519D01*
X71397109Y-74030107D01*
X71397110Y-74030108D01*
X71397113Y-74030113D01*
X71560029Y-74247742D01*
X71560033Y-74247746D01*
X71560038Y-74247752D01*
X71752247Y-74439961D01*
X71752253Y-74439966D01*
X71752258Y-74439971D01*
X71969887Y-74602887D01*
X71969891Y-74602889D01*
X71969892Y-74602890D01*
X72208481Y-74733169D01*
X72208480Y-74733169D01*
X72208484Y-74733170D01*
X72208487Y-74733172D01*
X72463199Y-74828175D01*
X72728840Y-74885961D01*
X72980605Y-74903967D01*
X72999999Y-74905355D01*
X73000000Y-74905355D01*
X73000001Y-74905355D01*
X73018100Y-74904060D01*
X73271160Y-74885961D01*
X73536801Y-74828175D01*
X73791513Y-74733172D01*
X73791517Y-74733169D01*
X73791519Y-74733169D01*
X73936380Y-74654069D01*
X74030113Y-74602887D01*
X74247742Y-74439971D01*
X74439971Y-74247742D01*
X74602887Y-74030113D01*
X74700000Y-73852263D01*
X74733169Y-73791519D01*
X74733169Y-73791517D01*
X74733172Y-73791513D01*
X74828175Y-73536801D01*
X74885961Y-73271160D01*
X74905355Y-73000000D01*
X74885961Y-72728840D01*
X74828175Y-72463199D01*
X74733172Y-72208487D01*
X74733170Y-72208484D01*
X74733169Y-72208480D01*
X74602890Y-71969892D01*
X74602889Y-71969891D01*
X74602887Y-71969887D01*
X74439971Y-71752258D01*
X74439966Y-71752253D01*
X74439961Y-71752247D01*
X74247752Y-71560038D01*
X74247746Y-71560033D01*
X74247742Y-71560029D01*
X74030113Y-71397113D01*
X74030108Y-71397110D01*
X74030107Y-71397109D01*
X73791518Y-71266830D01*
X73791519Y-71266830D01*
X73720925Y-71240500D01*
X73536801Y-71171825D01*
X73536794Y-71171823D01*
X73536793Y-71171823D01*
X73271167Y-71114040D01*
X73271160Y-71114039D01*
X73000001Y-71094645D01*
X72999999Y-71094645D01*
X72728839Y-71114039D01*
X72728832Y-71114040D01*
X72463206Y-71171823D01*
X72463202Y-71171824D01*
X72463199Y-71171825D01*
X72346100Y-71215501D01*
X72208480Y-71266830D01*
X71969892Y-71397109D01*
X71969891Y-71397110D01*
X71752259Y-71560028D01*
X71752247Y-71560038D01*
X71560038Y-71752247D01*
X71560028Y-71752259D01*
X71397110Y-71969891D01*
X71397109Y-71969892D01*
X71266830Y-72208480D01*
X71223093Y-72325745D01*
X71171825Y-72463199D01*
X71171824Y-72463202D01*
X71171823Y-72463206D01*
X71114040Y-72728832D01*
X71114039Y-72728839D01*
X71094645Y-72999998D01*
X63469065Y-72999998D01*
X64345737Y-72123326D01*
X64345737Y-72123324D01*
X64345739Y-72123323D01*
X64360618Y-72087398D01*
X64375500Y-72051471D01*
X64375500Y-71973697D01*
X64375500Y-70827344D01*
X64395185Y-70760305D01*
X64411814Y-70739667D01*
X64440805Y-70710676D01*
X64502125Y-70677192D01*
X64547879Y-70675885D01*
X64575003Y-70680181D01*
X64575004Y-70680180D01*
X64575005Y-70680181D01*
X64575006Y-70680181D01*
X64692480Y-70661575D01*
X64692481Y-70661575D01*
X64692482Y-70661574D01*
X64692485Y-70661574D01*
X64798468Y-70607573D01*
X64882576Y-70523465D01*
X64936577Y-70417482D01*
X64936578Y-70417477D01*
X64955184Y-70300003D01*
X64955184Y-70299996D01*
X64946299Y-70243897D01*
X64955254Y-70174604D01*
X65000250Y-70121152D01*
X65067002Y-70100513D01*
X65068772Y-70100500D01*
X65574877Y-70100500D01*
X65641916Y-70120185D01*
X65662558Y-70136819D01*
X67340565Y-71814825D01*
X67340568Y-71814829D01*
X67347636Y-71821897D01*
X67418103Y-71892364D01*
X67510172Y-71930500D01*
X67510174Y-71930500D01*
X70929826Y-71930500D01*
X70929828Y-71930500D01*
X71021897Y-71892364D01*
X74137819Y-68776442D01*
X74199142Y-68742957D01*
X74268834Y-68747941D01*
G37*
%TD.AperFunction*%
%TA.AperFunction,Conductor*%
G36*
X68449411Y-69070185D02*
G01*
X68495166Y-69122989D01*
X68505110Y-69192147D01*
X68496933Y-69221952D01*
X68464500Y-69300251D01*
X68464497Y-69300261D01*
X68439500Y-69425928D01*
X68439500Y-69425931D01*
X68439500Y-70654069D01*
X68439500Y-70654071D01*
X68439499Y-70654071D01*
X68464497Y-70779738D01*
X68464499Y-70779744D01*
X68513533Y-70898124D01*
X68513538Y-70898133D01*
X68584723Y-71004668D01*
X68584726Y-71004672D01*
X68675327Y-71095273D01*
X68675331Y-71095276D01*
X68781866Y-71166461D01*
X68781875Y-71166466D01*
X68840958Y-71190939D01*
X68895361Y-71234780D01*
X68917426Y-71301074D01*
X68900147Y-71368773D01*
X68849010Y-71416384D01*
X68793505Y-71429500D01*
X67715122Y-71429500D01*
X67648083Y-71409815D01*
X67627441Y-71393181D01*
X67479383Y-71245123D01*
X67445898Y-71183800D01*
X67450882Y-71114108D01*
X67492754Y-71058175D01*
X67558218Y-71033758D01*
X67583255Y-71034504D01*
X67590817Y-71035500D01*
X67729181Y-71035500D01*
X67729183Y-71035500D01*
X67862836Y-70999688D01*
X67982665Y-70930505D01*
X68080505Y-70832665D01*
X68149688Y-70712836D01*
X68185500Y-70579183D01*
X68185500Y-70440817D01*
X68149688Y-70307164D01*
X68113161Y-70243897D01*
X68080507Y-70187338D01*
X68080503Y-70187333D01*
X67982666Y-70089496D01*
X67982661Y-70089492D01*
X67862838Y-70020313D01*
X67862837Y-70020312D01*
X67862836Y-70020312D01*
X67729183Y-69984500D01*
X67590817Y-69984500D01*
X67457164Y-70020312D01*
X67457161Y-70020313D01*
X67337338Y-70089492D01*
X67337333Y-70089496D01*
X67239496Y-70187333D01*
X67239492Y-70187338D01*
X67170313Y-70307161D01*
X67170312Y-70307164D01*
X67134500Y-70440817D01*
X67134500Y-70579182D01*
X67135496Y-70586748D01*
X67124731Y-70655784D01*
X67078351Y-70708040D01*
X67011082Y-70726925D01*
X66944281Y-70706445D01*
X66924876Y-70690615D01*
X65871897Y-69637636D01*
X65779829Y-69599500D01*
X65779828Y-69599500D01*
X63549827Y-69599500D01*
X63450172Y-69599500D01*
X63450170Y-69599500D01*
X63358102Y-69637636D01*
X63358101Y-69637637D01*
X62588944Y-70406793D01*
X62527621Y-70440278D01*
X62457929Y-70435294D01*
X62401996Y-70393422D01*
X62381489Y-70351208D01*
X62369688Y-70307164D01*
X62333161Y-70243897D01*
X62300507Y-70187338D01*
X62300503Y-70187333D01*
X62202666Y-70089496D01*
X62202661Y-70089492D01*
X62082838Y-70020313D01*
X62082837Y-70020312D01*
X62082836Y-70020312D01*
X61949183Y-69984500D01*
X61810817Y-69984500D01*
X61677164Y-70020312D01*
X61677161Y-70020313D01*
X61557338Y-70089492D01*
X61557333Y-70089496D01*
X61459496Y-70187333D01*
X61459492Y-70187338D01*
X61390313Y-70307161D01*
X61390312Y-70307164D01*
X61354500Y-70440817D01*
X61354500Y-70579183D01*
X61388476Y-70705982D01*
X61390312Y-70712835D01*
X61390313Y-70712838D01*
X61463558Y-70839703D01*
X61461634Y-70840813D01*
X61482654Y-70895173D01*
X61468621Y-70963619D01*
X61419811Y-71013613D01*
X61359085Y-71029500D01*
X61157628Y-71029500D01*
X61090589Y-71009815D01*
X61044834Y-70957011D01*
X61034890Y-70887853D01*
X61043067Y-70858048D01*
X61075499Y-70779748D01*
X61075501Y-70779744D01*
X61088810Y-70712836D01*
X61100500Y-70654071D01*
X61100500Y-69425928D01*
X61075502Y-69300261D01*
X61075501Y-69300260D01*
X61075501Y-69300256D01*
X61064162Y-69272881D01*
X61043067Y-69221952D01*
X61035598Y-69152483D01*
X61066873Y-69090004D01*
X61126962Y-69054352D01*
X61157628Y-69050500D01*
X68382372Y-69050500D01*
X68449411Y-69070185D01*
G37*
%TD.AperFunction*%
%TA.AperFunction,Conductor*%
G36*
X73241507Y-59215266D02*
G01*
X73297441Y-59257137D01*
X73321858Y-59322602D01*
X73308659Y-59387743D01*
X73264352Y-59474698D01*
X73264352Y-59474699D01*
X73244508Y-59599996D01*
X73244508Y-59600003D01*
X73264352Y-59725300D01*
X73264352Y-59725301D01*
X73281144Y-59758256D01*
X73321950Y-59838342D01*
X73321952Y-59838344D01*
X73321954Y-59838347D01*
X73411652Y-59928045D01*
X73411654Y-59928046D01*
X73411658Y-59928050D01*
X73524696Y-59985646D01*
X73524697Y-59985646D01*
X73524699Y-59985647D01*
X73659638Y-60007019D01*
X73659434Y-60008300D01*
X73716908Y-60025177D01*
X73737550Y-60041811D01*
X74313181Y-60617442D01*
X74346666Y-60678765D01*
X74349500Y-60705123D01*
X74349500Y-61254269D01*
X74352353Y-61284699D01*
X74352353Y-61284701D01*
X74392698Y-61399996D01*
X74397207Y-61412882D01*
X74477850Y-61522150D01*
X74587118Y-61602793D01*
X74629845Y-61617744D01*
X74715299Y-61647646D01*
X74745730Y-61650500D01*
X74745734Y-61650500D01*
X76254270Y-61650500D01*
X76284699Y-61647646D01*
X76284701Y-61647646D01*
X76348790Y-61625219D01*
X76412882Y-61602793D01*
X76501869Y-61537117D01*
X76567495Y-61513148D01*
X76635665Y-61528463D01*
X76684734Y-61578203D01*
X76699500Y-61636889D01*
X76699500Y-64363110D01*
X76679815Y-64430149D01*
X76627011Y-64475904D01*
X76557853Y-64485848D01*
X76501867Y-64462880D01*
X76412886Y-64397209D01*
X76412880Y-64397206D01*
X76284700Y-64352353D01*
X76254270Y-64349500D01*
X76254266Y-64349500D01*
X74805122Y-64349500D01*
X74738083Y-64329815D01*
X74717441Y-64313181D01*
X73891811Y-63487550D01*
X73858326Y-63426227D01*
X73855534Y-63400266D01*
X73835647Y-63274699D01*
X73835647Y-63274698D01*
X73835646Y-63274696D01*
X73797584Y-63199996D01*
X74969819Y-63199996D01*
X74969819Y-63200003D01*
X74988424Y-63317477D01*
X74988424Y-63317478D01*
X74988425Y-63317481D01*
X74988426Y-63317482D01*
X75034524Y-63407955D01*
X75042428Y-63423466D01*
X75042431Y-63423470D01*
X75126529Y-63507568D01*
X75126533Y-63507571D01*
X75126535Y-63507573D01*
X75232518Y-63561574D01*
X75232520Y-63561574D01*
X75232522Y-63561575D01*
X75349997Y-63580181D01*
X75350000Y-63580181D01*
X75350003Y-63580181D01*
X75467477Y-63561575D01*
X75467478Y-63561575D01*
X75467479Y-63561574D01*
X75467482Y-63561574D01*
X75573465Y-63507573D01*
X75657573Y-63423465D01*
X75711574Y-63317482D01*
X75718350Y-63274699D01*
X75730181Y-63200003D01*
X75730181Y-63199996D01*
X75711575Y-63082522D01*
X75711575Y-63082521D01*
X75711574Y-63082519D01*
X75711574Y-63082518D01*
X75657573Y-62976535D01*
X75657571Y-62976533D01*
X75657568Y-62976529D01*
X75573470Y-62892431D01*
X75573466Y-62892428D01*
X75573465Y-62892427D01*
X75467482Y-62838426D01*
X75467480Y-62838425D01*
X75467477Y-62838424D01*
X75350003Y-62819819D01*
X75349997Y-62819819D01*
X75232522Y-62838424D01*
X75232521Y-62838424D01*
X75126533Y-62892428D01*
X75126529Y-62892431D01*
X75042431Y-62976529D01*
X75042428Y-62976533D01*
X74988424Y-63082521D01*
X74988424Y-63082522D01*
X74969819Y-63199996D01*
X73797584Y-63199996D01*
X73778050Y-63161658D01*
X73778046Y-63161654D01*
X73778045Y-63161652D01*
X73688347Y-63071954D01*
X73688344Y-63071952D01*
X73688342Y-63071950D01*
X73575304Y-63014354D01*
X73575303Y-63014353D01*
X73575300Y-63014352D01*
X73450003Y-62994508D01*
X73449997Y-62994508D01*
X73324699Y-63014352D01*
X73324698Y-63014352D01*
X73249337Y-63052751D01*
X73211658Y-63071950D01*
X73211657Y-63071951D01*
X73211652Y-63071954D01*
X73121954Y-63161652D01*
X73121951Y-63161657D01*
X73064352Y-63274698D01*
X73064352Y-63274699D01*
X73044508Y-63399996D01*
X73044508Y-63400003D01*
X73064352Y-63525300D01*
X73064352Y-63525301D01*
X73064354Y-63525304D01*
X73121950Y-63638342D01*
X73121952Y-63638344D01*
X73121954Y-63638347D01*
X73211652Y-63728045D01*
X73211654Y-63728046D01*
X73211658Y-63728050D01*
X73324696Y-63785646D01*
X73324697Y-63785646D01*
X73324699Y-63785647D01*
X73459638Y-63807019D01*
X73459434Y-63808300D01*
X73516908Y-63825177D01*
X73537550Y-63841811D01*
X74316165Y-64620425D01*
X74349650Y-64681748D01*
X74351943Y-64719681D01*
X74349500Y-64745738D01*
X74349500Y-66254269D01*
X74352353Y-66284699D01*
X74352353Y-66284701D01*
X74392698Y-66399996D01*
X74397207Y-66412882D01*
X74477850Y-66522150D01*
X74587118Y-66602793D01*
X74629845Y-66617744D01*
X74715299Y-66647646D01*
X74745730Y-66650500D01*
X74745734Y-66650500D01*
X76254270Y-66650500D01*
X76284699Y-66647646D01*
X76284701Y-66647646D01*
X76353802Y-66623466D01*
X76412882Y-66602793D01*
X76501869Y-66537117D01*
X76567495Y-66513148D01*
X76635665Y-66528463D01*
X76684734Y-66578203D01*
X76699500Y-66636889D01*
X76699500Y-67263110D01*
X76679815Y-67330149D01*
X76627011Y-67375904D01*
X76557853Y-67385848D01*
X76501867Y-67362880D01*
X76412886Y-67297209D01*
X76412880Y-67297206D01*
X76284700Y-67252353D01*
X76254270Y-67249500D01*
X76254266Y-67249500D01*
X74745734Y-67249500D01*
X74745730Y-67249500D01*
X74715300Y-67252353D01*
X74715298Y-67252353D01*
X74587119Y-67297206D01*
X74587117Y-67297207D01*
X74477850Y-67377850D01*
X74397207Y-67487117D01*
X74397206Y-67487119D01*
X74352353Y-67615298D01*
X74352353Y-67615300D01*
X74349500Y-67645730D01*
X74349500Y-68025500D01*
X74329815Y-68092539D01*
X74277011Y-68138294D01*
X74225500Y-68149500D01*
X74110170Y-68149500D01*
X74018102Y-68187636D01*
X74018101Y-68187637D01*
X70812558Y-71393181D01*
X70751235Y-71426666D01*
X70724877Y-71429500D01*
X69386495Y-71429500D01*
X69319456Y-71409815D01*
X69273701Y-71357011D01*
X69263757Y-71287853D01*
X69292782Y-71224297D01*
X69339042Y-71190939D01*
X69357914Y-71183121D01*
X69398127Y-71166465D01*
X69504669Y-71095276D01*
X69595276Y-71004669D01*
X69666465Y-70898127D01*
X69715501Y-70779744D01*
X69728810Y-70712836D01*
X69740500Y-70654071D01*
X69740500Y-69425928D01*
X69715502Y-69300261D01*
X69715501Y-69300260D01*
X69715501Y-69300256D01*
X69670721Y-69192147D01*
X69666466Y-69181875D01*
X69666461Y-69181866D01*
X69595276Y-69075331D01*
X69595273Y-69075327D01*
X69549784Y-69029839D01*
X69516298Y-68968516D01*
X69521282Y-68898825D01*
X69549781Y-68854478D01*
X71504263Y-66899996D01*
X72694508Y-66899996D01*
X72694508Y-66900003D01*
X72714352Y-67025300D01*
X72714352Y-67025301D01*
X72714354Y-67025304D01*
X72771950Y-67138342D01*
X72771952Y-67138344D01*
X72771954Y-67138347D01*
X72861652Y-67228045D01*
X72861654Y-67228046D01*
X72861658Y-67228050D01*
X72974696Y-67285646D01*
X72974697Y-67285646D01*
X72974699Y-67285647D01*
X73099997Y-67305492D01*
X73100000Y-67305492D01*
X73100003Y-67305492D01*
X73225300Y-67285647D01*
X73225301Y-67285647D01*
X73225302Y-67285646D01*
X73225304Y-67285646D01*
X73338342Y-67228050D01*
X73428050Y-67138342D01*
X73485646Y-67025304D01*
X73485646Y-67025302D01*
X73485647Y-67025301D01*
X73485647Y-67025300D01*
X73505492Y-66900003D01*
X73505492Y-66899996D01*
X73485647Y-66774699D01*
X73485647Y-66774698D01*
X73465531Y-66735219D01*
X73428050Y-66661658D01*
X73428046Y-66661654D01*
X73428045Y-66661652D01*
X73338347Y-66571954D01*
X73338344Y-66571952D01*
X73338342Y-66571950D01*
X73225304Y-66514354D01*
X73225303Y-66514353D01*
X73225300Y-66514352D01*
X73100003Y-66494508D01*
X73099997Y-66494508D01*
X72974699Y-66514352D01*
X72974698Y-66514352D01*
X72930017Y-66537119D01*
X72861658Y-66571950D01*
X72861657Y-66571951D01*
X72861652Y-66571954D01*
X72771954Y-66661652D01*
X72771951Y-66661657D01*
X72714352Y-66774698D01*
X72714352Y-66774699D01*
X72694508Y-66899996D01*
X71504263Y-66899996D01*
X72391895Y-66012364D01*
X72391897Y-66012364D01*
X72462364Y-65941897D01*
X72478160Y-65903760D01*
X72500501Y-65849827D01*
X72500501Y-65750172D01*
X72500501Y-65740183D01*
X72500500Y-65740169D01*
X72500500Y-59905123D01*
X72520185Y-59838084D01*
X72536819Y-59817442D01*
X72816625Y-59537636D01*
X73110495Y-59243765D01*
X73171816Y-59210282D01*
X73241507Y-59215266D01*
G37*
%TD.AperFunction*%
%TA.AperFunction,Conductor*%
G36*
X71002443Y-49300596D02*
G01*
X71442304Y-49317878D01*
X71451999Y-49318640D01*
X71886780Y-49370099D01*
X71896376Y-49371620D01*
X72325764Y-49457031D01*
X72335195Y-49459295D01*
X72756553Y-49578130D01*
X72765787Y-49581130D01*
X72983588Y-49661481D01*
X73176534Y-49732663D01*
X73185528Y-49736389D01*
X73583092Y-49919667D01*
X73591768Y-49924088D01*
X73973734Y-50138000D01*
X73982036Y-50143087D01*
X74175749Y-50272522D01*
X74293995Y-50351532D01*
X74346031Y-50386301D01*
X74353905Y-50392022D01*
X74697711Y-50663056D01*
X74705102Y-50669369D01*
X75026583Y-50966543D01*
X75033456Y-50973416D01*
X75305288Y-51267482D01*
X75330625Y-51294891D01*
X75336945Y-51302291D01*
X75393055Y-51373466D01*
X75607975Y-51646091D01*
X75613698Y-51653968D01*
X75856912Y-52017963D01*
X75861999Y-52026265D01*
X76075911Y-52408231D01*
X76080332Y-52416907D01*
X76263610Y-52814471D01*
X76267336Y-52823465D01*
X76418865Y-53234199D01*
X76421873Y-53243460D01*
X76540699Y-53664787D01*
X76542972Y-53674254D01*
X76628377Y-54103613D01*
X76629901Y-54113230D01*
X76681358Y-54547995D01*
X76682121Y-54557700D01*
X76699404Y-54997555D01*
X76699500Y-55002424D01*
X76699500Y-56363110D01*
X76679815Y-56430149D01*
X76627011Y-56475904D01*
X76557853Y-56485848D01*
X76501867Y-56462880D01*
X76412886Y-56397209D01*
X76412880Y-56397206D01*
X76284700Y-56352353D01*
X76254270Y-56349500D01*
X76254266Y-56349500D01*
X74745734Y-56349500D01*
X74745730Y-56349500D01*
X74715300Y-56352353D01*
X74715298Y-56352353D01*
X74587119Y-56397206D01*
X74587117Y-56397207D01*
X74477850Y-56477850D01*
X74397207Y-56587117D01*
X74397206Y-56587119D01*
X74352353Y-56715298D01*
X74352353Y-56715300D01*
X74349500Y-56745730D01*
X74349500Y-57244878D01*
X74329815Y-57311917D01*
X74313181Y-57332559D01*
X74287636Y-57358104D01*
X72090662Y-59555077D01*
X72090661Y-59555077D01*
X72090662Y-59555078D01*
X72037636Y-59608104D01*
X71999500Y-59700171D01*
X71999500Y-65644877D01*
X71979815Y-65711916D01*
X71963181Y-65732558D01*
X69182558Y-68513181D01*
X69121235Y-68546666D01*
X69094877Y-68549500D01*
X65491022Y-68549500D01*
X65423983Y-68529815D01*
X65378228Y-68477011D01*
X65368284Y-68407853D01*
X65397309Y-68344297D01*
X65403341Y-68337819D01*
X67041164Y-66699996D01*
X68969819Y-66699996D01*
X68969819Y-66700003D01*
X68988424Y-66817477D01*
X68988424Y-66817478D01*
X68988425Y-66817481D01*
X68988426Y-66817482D01*
X69040569Y-66919819D01*
X69042428Y-66923466D01*
X69042431Y-66923470D01*
X69126529Y-67007568D01*
X69126533Y-67007571D01*
X69126535Y-67007573D01*
X69232518Y-67061574D01*
X69232520Y-67061574D01*
X69232522Y-67061575D01*
X69349997Y-67080181D01*
X69350000Y-67080181D01*
X69350003Y-67080181D01*
X69467477Y-67061575D01*
X69467478Y-67061575D01*
X69467479Y-67061574D01*
X69467482Y-67061574D01*
X69573465Y-67007573D01*
X69657573Y-66923465D01*
X69711574Y-66817482D01*
X69711850Y-66815739D01*
X69730181Y-66700003D01*
X69730181Y-66699996D01*
X69711575Y-66582522D01*
X69711575Y-66582521D01*
X69711574Y-66582519D01*
X69711574Y-66582518D01*
X69657573Y-66476535D01*
X69657571Y-66476533D01*
X69657568Y-66476529D01*
X69573470Y-66392431D01*
X69573466Y-66392428D01*
X69573465Y-66392427D01*
X69467482Y-66338426D01*
X69467480Y-66338425D01*
X69467477Y-66338424D01*
X69350003Y-66319819D01*
X69349997Y-66319819D01*
X69232522Y-66338424D01*
X69232521Y-66338424D01*
X69126533Y-66392428D01*
X69126529Y-66392431D01*
X69042431Y-66476529D01*
X69042428Y-66476533D01*
X68988424Y-66582521D01*
X68988424Y-66582522D01*
X68969819Y-66699996D01*
X67041164Y-66699996D01*
X68096283Y-65644877D01*
X70865737Y-62875423D01*
X70865737Y-62875421D01*
X70865739Y-62875420D01*
X70888762Y-62819834D01*
X70895500Y-62803568D01*
X70895500Y-62736900D01*
X70915185Y-62669861D01*
X70931814Y-62649223D01*
X71007573Y-62573465D01*
X71061574Y-62467482D01*
X71068785Y-62421954D01*
X71080181Y-62350003D01*
X71080181Y-62349996D01*
X71061575Y-62232522D01*
X71061575Y-62232521D01*
X71061574Y-62232519D01*
X71061574Y-62232518D01*
X71007573Y-62126535D01*
X71007571Y-62126533D01*
X71007568Y-62126529D01*
X70923470Y-62042431D01*
X70923466Y-62042428D01*
X70923465Y-62042427D01*
X70817482Y-61988426D01*
X70817480Y-61988425D01*
X70817477Y-61988424D01*
X70700003Y-61969819D01*
X70699997Y-61969819D01*
X70582522Y-61988424D01*
X70582521Y-61988424D01*
X70476533Y-62042428D01*
X70476529Y-62042431D01*
X70392431Y-62126529D01*
X70392428Y-62126533D01*
X70338424Y-62232521D01*
X70338424Y-62232522D01*
X70319819Y-62349996D01*
X70319819Y-62350003D01*
X70338424Y-62467477D01*
X70338424Y-62467478D01*
X70338425Y-62467481D01*
X70338426Y-62467482D01*
X70376614Y-62542431D01*
X70392428Y-62573466D01*
X70392431Y-62573470D01*
X70415900Y-62596939D01*
X70449385Y-62658262D01*
X70444401Y-62727954D01*
X70415900Y-62772301D01*
X68564520Y-64623680D01*
X68503197Y-64657165D01*
X68433505Y-64652181D01*
X68377572Y-64610309D01*
X68367329Y-64590538D01*
X68366004Y-64591214D01*
X68361574Y-64582520D01*
X68361574Y-64582518D01*
X68307573Y-64476535D01*
X68307571Y-64476533D01*
X68307568Y-64476529D01*
X68223470Y-64392431D01*
X68223466Y-64392428D01*
X68223465Y-64392427D01*
X68117482Y-64338426D01*
X68117480Y-64338425D01*
X68117477Y-64338424D01*
X68000003Y-64319819D01*
X67999997Y-64319819D01*
X67882522Y-64338424D01*
X67882521Y-64338424D01*
X67776533Y-64392428D01*
X67776529Y-64392431D01*
X67692431Y-64476529D01*
X67692428Y-64476533D01*
X67638424Y-64582521D01*
X67638424Y-64582522D01*
X67619819Y-64699996D01*
X67619819Y-64700000D01*
X67624114Y-64727123D01*
X67615157Y-64796416D01*
X67589321Y-64834198D01*
X65105340Y-67318181D01*
X65044017Y-67351666D01*
X65017659Y-67354500D01*
X63710369Y-67354500D01*
X63643330Y-67334815D01*
X63597575Y-67282011D01*
X63587631Y-67212853D01*
X63587896Y-67211103D01*
X63605492Y-67100003D01*
X63605492Y-67099996D01*
X63587896Y-66988897D01*
X63596851Y-66919604D01*
X63641847Y-66866152D01*
X63708599Y-66845513D01*
X63710369Y-66845500D01*
X64588885Y-66845500D01*
X64588887Y-66845500D01*
X64624814Y-66830618D01*
X64660739Y-66815739D01*
X64660740Y-66815737D01*
X64660742Y-66815737D01*
X68035039Y-63441440D01*
X68096362Y-63407955D01*
X68166054Y-63412939D01*
X68210401Y-63441440D01*
X68276529Y-63507568D01*
X68276533Y-63507571D01*
X68276535Y-63507573D01*
X68382518Y-63561574D01*
X68382520Y-63561574D01*
X68382522Y-63561575D01*
X68499997Y-63580181D01*
X68500000Y-63580181D01*
X68500003Y-63580181D01*
X68617477Y-63561575D01*
X68617478Y-63561575D01*
X68617479Y-63561574D01*
X68617482Y-63561574D01*
X68723465Y-63507573D01*
X68807573Y-63423465D01*
X68861574Y-63317482D01*
X68868350Y-63274699D01*
X68880181Y-63200003D01*
X68880181Y-63199996D01*
X68861575Y-63082522D01*
X68861575Y-63082521D01*
X68861574Y-63082519D01*
X68861574Y-63082518D01*
X68807573Y-62976535D01*
X68807571Y-62976533D01*
X68807568Y-62976529D01*
X68723470Y-62892431D01*
X68723466Y-62892428D01*
X68723465Y-62892427D01*
X68617482Y-62838426D01*
X68617481Y-62838425D01*
X68617478Y-62838424D01*
X68500102Y-62819834D01*
X68436967Y-62789905D01*
X68400036Y-62730593D01*
X68395500Y-62697361D01*
X68395500Y-62336900D01*
X68415185Y-62269861D01*
X68431814Y-62249223D01*
X68507573Y-62173465D01*
X68561574Y-62067482D01*
X68561575Y-62067477D01*
X68580181Y-61950003D01*
X68580181Y-61949996D01*
X68561575Y-61832522D01*
X68561575Y-61832521D01*
X68561574Y-61832519D01*
X68561574Y-61832518D01*
X68507573Y-61726535D01*
X68507571Y-61726533D01*
X68507568Y-61726529D01*
X68423470Y-61642431D01*
X68423466Y-61642428D01*
X68423465Y-61642427D01*
X68317482Y-61588426D01*
X68317480Y-61588425D01*
X68317477Y-61588424D01*
X68200003Y-61569819D01*
X68199997Y-61569819D01*
X68082522Y-61588424D01*
X68082521Y-61588424D01*
X67976533Y-61642428D01*
X67976529Y-61642431D01*
X67892431Y-61726529D01*
X67892428Y-61726533D01*
X67838424Y-61832521D01*
X67838424Y-61832522D01*
X67819819Y-61949996D01*
X67819819Y-61950003D01*
X67838424Y-62067477D01*
X67838424Y-62067478D01*
X67838425Y-62067481D01*
X67838426Y-62067482D01*
X67892427Y-62173465D01*
X67968182Y-62249220D01*
X68001666Y-62310541D01*
X68004500Y-62336900D01*
X68004500Y-62613101D01*
X67984815Y-62680140D01*
X67968181Y-62700782D01*
X64650782Y-66018181D01*
X64589459Y-66051666D01*
X64563101Y-66054500D01*
X62510369Y-66054500D01*
X62443330Y-66034815D01*
X62397575Y-65982011D01*
X62387631Y-65912853D01*
X62387896Y-65911103D01*
X62405492Y-65800003D01*
X62405492Y-65799996D01*
X62385647Y-65674699D01*
X62385647Y-65674698D01*
X62384275Y-65672005D01*
X62328050Y-65561658D01*
X62328046Y-65561654D01*
X62328045Y-65561652D01*
X62238347Y-65471954D01*
X62238344Y-65471952D01*
X62238342Y-65471950D01*
X62125304Y-65414354D01*
X62125303Y-65414353D01*
X62125300Y-65414352D01*
X62000003Y-65394508D01*
X61999996Y-65394508D01*
X61937456Y-65404413D01*
X61868163Y-65395458D01*
X61814711Y-65350461D01*
X61794072Y-65283710D01*
X61795586Y-65262543D01*
X61805492Y-65200000D01*
X61805492Y-65199996D01*
X61785647Y-65074699D01*
X61785647Y-65074698D01*
X61778960Y-65061574D01*
X61728050Y-64961658D01*
X61728046Y-64961654D01*
X61728045Y-64961652D01*
X61638347Y-64871954D01*
X61638344Y-64871952D01*
X61638342Y-64871950D01*
X61525304Y-64814354D01*
X61525303Y-64814353D01*
X61525300Y-64814352D01*
X61400003Y-64794508D01*
X61399997Y-64794508D01*
X61274699Y-64814352D01*
X61274698Y-64814352D01*
X61231960Y-64836129D01*
X61161658Y-64871950D01*
X61161657Y-64871951D01*
X61161652Y-64871954D01*
X61071954Y-64961652D01*
X61071951Y-64961657D01*
X61071950Y-64961658D01*
X61064101Y-64977063D01*
X61014352Y-65074698D01*
X61014352Y-65074699D01*
X60994508Y-65199996D01*
X60994508Y-65200003D01*
X61004413Y-65262543D01*
X60995458Y-65331836D01*
X60950462Y-65385288D01*
X60883710Y-65405927D01*
X60862543Y-65404413D01*
X60800003Y-65394508D01*
X60799997Y-65394508D01*
X60674699Y-65414352D01*
X60674698Y-65414352D01*
X60615694Y-65444417D01*
X60561658Y-65471950D01*
X60561657Y-65471951D01*
X60561652Y-65471954D01*
X60471954Y-65561652D01*
X60471951Y-65561657D01*
X60471950Y-65561658D01*
X60454324Y-65596251D01*
X60414352Y-65674698D01*
X60414352Y-65674699D01*
X60394508Y-65799996D01*
X60394508Y-65800003D01*
X60412104Y-65911103D01*
X60403149Y-65980396D01*
X60358153Y-66033848D01*
X60291401Y-66054487D01*
X60289631Y-66054500D01*
X57271340Y-66054500D01*
X57204301Y-66034815D01*
X57158546Y-65982011D01*
X57148602Y-65912853D01*
X57177627Y-65849297D01*
X57183659Y-65842819D01*
X61541482Y-61484996D01*
X69194508Y-61484996D01*
X69194508Y-61485003D01*
X69214352Y-61610300D01*
X69214352Y-61610301D01*
X69214354Y-61610304D01*
X69271950Y-61723342D01*
X69271952Y-61723344D01*
X69271954Y-61723347D01*
X69361652Y-61813045D01*
X69361654Y-61813046D01*
X69361658Y-61813050D01*
X69474696Y-61870646D01*
X69474697Y-61870646D01*
X69474699Y-61870647D01*
X69599997Y-61890492D01*
X69600000Y-61890492D01*
X69600003Y-61890492D01*
X69725300Y-61870647D01*
X69725301Y-61870647D01*
X69725302Y-61870646D01*
X69725304Y-61870646D01*
X69838342Y-61813050D01*
X69928050Y-61723342D01*
X69985646Y-61610304D01*
X69985646Y-61610302D01*
X69985647Y-61610301D01*
X69985647Y-61610300D01*
X70005492Y-61485003D01*
X70005492Y-61484996D01*
X69985647Y-61359699D01*
X69985647Y-61359698D01*
X69971870Y-61332659D01*
X69928050Y-61246658D01*
X69928046Y-61246654D01*
X69928045Y-61246652D01*
X69838347Y-61156954D01*
X69838344Y-61156952D01*
X69838342Y-61156950D01*
X69725304Y-61099354D01*
X69725303Y-61099353D01*
X69725300Y-61099352D01*
X69600003Y-61079508D01*
X69599997Y-61079508D01*
X69474699Y-61099352D01*
X69474698Y-61099352D01*
X69430588Y-61121828D01*
X69361658Y-61156950D01*
X69361657Y-61156951D01*
X69361652Y-61156954D01*
X69271954Y-61246652D01*
X69271951Y-61246657D01*
X69271950Y-61246658D01*
X69268074Y-61254266D01*
X69214352Y-61359698D01*
X69214352Y-61359699D01*
X69194508Y-61484996D01*
X61541482Y-61484996D01*
X62526482Y-60499996D01*
X68119819Y-60499996D01*
X68119819Y-60500003D01*
X68138424Y-60617477D01*
X68138424Y-60617478D01*
X68138425Y-60617481D01*
X68138426Y-60617482D01*
X68191588Y-60721819D01*
X68192428Y-60723466D01*
X68192431Y-60723470D01*
X68276529Y-60807568D01*
X68276533Y-60807571D01*
X68276535Y-60807573D01*
X68382518Y-60861574D01*
X68382520Y-60861574D01*
X68382522Y-60861575D01*
X68499997Y-60880181D01*
X68500000Y-60880181D01*
X68500003Y-60880181D01*
X68617477Y-60861575D01*
X68617478Y-60861575D01*
X68617479Y-60861574D01*
X68617482Y-60861574D01*
X68723465Y-60807573D01*
X68807573Y-60723465D01*
X68861574Y-60617482D01*
X68861575Y-60617477D01*
X68880181Y-60500003D01*
X68880181Y-60499996D01*
X68861575Y-60382522D01*
X68861575Y-60382521D01*
X68861574Y-60382519D01*
X68861574Y-60382518D01*
X68807573Y-60276535D01*
X68807571Y-60276533D01*
X68807568Y-60276529D01*
X68723470Y-60192431D01*
X68723466Y-60192428D01*
X68723465Y-60192427D01*
X68617482Y-60138426D01*
X68617480Y-60138425D01*
X68617477Y-60138424D01*
X68500003Y-60119819D01*
X68499997Y-60119819D01*
X68382522Y-60138424D01*
X68382521Y-60138424D01*
X68276533Y-60192428D01*
X68276529Y-60192431D01*
X68192431Y-60276529D01*
X68192428Y-60276533D01*
X68138424Y-60382521D01*
X68138424Y-60382522D01*
X68119819Y-60499996D01*
X62526482Y-60499996D01*
X68045037Y-54981440D01*
X68106360Y-54947955D01*
X68176052Y-54952939D01*
X68220399Y-54981440D01*
X68226529Y-54987570D01*
X68226533Y-54987573D01*
X68226535Y-54987575D01*
X68332518Y-55041576D01*
X68332520Y-55041576D01*
X68332522Y-55041577D01*
X68449997Y-55060183D01*
X68450000Y-55060183D01*
X68450003Y-55060183D01*
X68567477Y-55041577D01*
X68567478Y-55041577D01*
X68567479Y-55041576D01*
X68567482Y-55041576D01*
X68673465Y-54987575D01*
X68757573Y-54903467D01*
X68774433Y-54870376D01*
X68822405Y-54819582D01*
X68890226Y-54802786D01*
X68956361Y-54825323D01*
X68972598Y-54838991D01*
X69061652Y-54928045D01*
X69061654Y-54928046D01*
X69061658Y-54928050D01*
X69174696Y-54985646D01*
X69174697Y-54985646D01*
X69174699Y-54985647D01*
X69299997Y-55005492D01*
X69300000Y-55005492D01*
X69300003Y-55005492D01*
X69425300Y-54985647D01*
X69425301Y-54985647D01*
X69425302Y-54985646D01*
X69425304Y-54985646D01*
X69538342Y-54928050D01*
X69628050Y-54838342D01*
X69685646Y-54725304D01*
X69685646Y-54725302D01*
X69685647Y-54725301D01*
X69685647Y-54725300D01*
X69705492Y-54600003D01*
X69705492Y-54599996D01*
X69685647Y-54474699D01*
X69685647Y-54474698D01*
X69670945Y-54445844D01*
X69628050Y-54361658D01*
X69628044Y-54361652D01*
X69623525Y-54355430D01*
X69600048Y-54289623D01*
X69615876Y-54221569D01*
X69636161Y-54194870D01*
X69707573Y-54123459D01*
X69761574Y-54017476D01*
X69766386Y-53987096D01*
X69780181Y-53899997D01*
X69780181Y-53899990D01*
X69761575Y-53782516D01*
X69761575Y-53782515D01*
X69761574Y-53782513D01*
X69761574Y-53782512D01*
X69707573Y-53676529D01*
X69707571Y-53676527D01*
X69707568Y-53676523D01*
X69623470Y-53592425D01*
X69623466Y-53592422D01*
X69623465Y-53592421D01*
X69517482Y-53538420D01*
X69517480Y-53538419D01*
X69517477Y-53538418D01*
X69400003Y-53519813D01*
X69399997Y-53519813D01*
X69282522Y-53538418D01*
X69282521Y-53538418D01*
X69176533Y-53592422D01*
X69176529Y-53592425D01*
X69100780Y-53668175D01*
X69039457Y-53701660D01*
X69013099Y-53704494D01*
X68588893Y-53704494D01*
X68511119Y-53704494D01*
X68511117Y-53704494D01*
X68511115Y-53704495D01*
X68439266Y-53734254D01*
X64955383Y-57218137D01*
X64894060Y-57251622D01*
X64848714Y-57248379D01*
X64850820Y-57297509D01*
X64818137Y-57355383D01*
X61491862Y-60681659D01*
X61430539Y-60715144D01*
X61360847Y-60710160D01*
X61304914Y-60668288D01*
X61282964Y-60609439D01*
X61281708Y-60609638D01*
X61280726Y-60603438D01*
X61280497Y-60602824D01*
X61280458Y-60601749D01*
X61261575Y-60482522D01*
X61261575Y-60482521D01*
X61261574Y-60482519D01*
X61261574Y-60482518D01*
X61207573Y-60376535D01*
X61207571Y-60376533D01*
X61207568Y-60376529D01*
X61123470Y-60292431D01*
X61123466Y-60292428D01*
X61123465Y-60292427D01*
X61017482Y-60238426D01*
X61017480Y-60238425D01*
X61017477Y-60238424D01*
X60900003Y-60219819D01*
X60899997Y-60219819D01*
X60782522Y-60238424D01*
X60782521Y-60238424D01*
X60676533Y-60292428D01*
X60676529Y-60292431D01*
X60592431Y-60376529D01*
X60592428Y-60376533D01*
X60538424Y-60482521D01*
X60538424Y-60482522D01*
X60519819Y-60599996D01*
X60519819Y-60600003D01*
X60538424Y-60717477D01*
X60538424Y-60717478D01*
X60538425Y-60717481D01*
X60538426Y-60717482D01*
X60590935Y-60820537D01*
X60592428Y-60823466D01*
X60592431Y-60823470D01*
X60676529Y-60907568D01*
X60676533Y-60907571D01*
X60676535Y-60907573D01*
X60782518Y-60961574D01*
X60782520Y-60961574D01*
X60782522Y-60961575D01*
X60909638Y-60981708D01*
X60909173Y-60984642D01*
X60961017Y-60999866D01*
X61006772Y-61052670D01*
X61016716Y-61121828D01*
X60987691Y-61185384D01*
X60981659Y-61191862D01*
X59364223Y-62809297D01*
X59302900Y-62842782D01*
X59233208Y-62837798D01*
X59177275Y-62795926D01*
X59154069Y-62741013D01*
X59135647Y-62624699D01*
X59135647Y-62624698D01*
X59121503Y-62596939D01*
X59078050Y-62511658D01*
X59078046Y-62511654D01*
X59078045Y-62511652D01*
X58988347Y-62421954D01*
X58988344Y-62421952D01*
X58988342Y-62421950D01*
X58875304Y-62364354D01*
X58875303Y-62364353D01*
X58875300Y-62364352D01*
X58750003Y-62344508D01*
X58749997Y-62344508D01*
X58624699Y-62364352D01*
X58624698Y-62364352D01*
X58560929Y-62396845D01*
X58511658Y-62421950D01*
X58511657Y-62421951D01*
X58511652Y-62421954D01*
X58421954Y-62511652D01*
X58421951Y-62511657D01*
X58364352Y-62624698D01*
X58364352Y-62624699D01*
X58344508Y-62749996D01*
X58344508Y-62750003D01*
X58364352Y-62875300D01*
X58364352Y-62875301D01*
X58379933Y-62905879D01*
X58421950Y-62988342D01*
X58421952Y-62988344D01*
X58421954Y-62988347D01*
X58476426Y-63042819D01*
X58509911Y-63104142D01*
X58504927Y-63173834D01*
X58463055Y-63229767D01*
X58397591Y-63254184D01*
X58388745Y-63254500D01*
X56467680Y-63254500D01*
X56400641Y-63234815D01*
X56354886Y-63182011D01*
X56344942Y-63112853D01*
X56357195Y-63074205D01*
X56357571Y-63073466D01*
X56357573Y-63073465D01*
X56411574Y-62967482D01*
X56411575Y-62967477D01*
X56414591Y-62958197D01*
X56416209Y-62958722D01*
X56441259Y-62905879D01*
X56500570Y-62868947D01*
X56553203Y-62865937D01*
X56579998Y-62870181D01*
X56580000Y-62870181D01*
X56580003Y-62870181D01*
X56697477Y-62851575D01*
X56697478Y-62851575D01*
X56697479Y-62851574D01*
X56697482Y-62851574D01*
X56803465Y-62797573D01*
X56887573Y-62713465D01*
X56941574Y-62607482D01*
X56951877Y-62542431D01*
X56960181Y-62490003D01*
X56960181Y-62489996D01*
X56941575Y-62372522D01*
X56941574Y-62372518D01*
X56892291Y-62275794D01*
X56879395Y-62207125D01*
X56905672Y-62142385D01*
X56962778Y-62102128D01*
X57002776Y-62095500D01*
X57488887Y-62095500D01*
X57488888Y-62095500D01*
X57528883Y-62078932D01*
X57560742Y-62065737D01*
X57560742Y-62065736D01*
X57576304Y-62059291D01*
X59125424Y-60510169D01*
X59186745Y-60476686D01*
X59256436Y-60481670D01*
X59312370Y-60523542D01*
X59319404Y-60534837D01*
X59321954Y-60538347D01*
X59411652Y-60628045D01*
X59411654Y-60628046D01*
X59411658Y-60628050D01*
X59524696Y-60685646D01*
X59524697Y-60685646D01*
X59524699Y-60685647D01*
X59649997Y-60705492D01*
X59650000Y-60705492D01*
X59650003Y-60705492D01*
X59775300Y-60685647D01*
X59775301Y-60685647D01*
X59775302Y-60685646D01*
X59775304Y-60685646D01*
X59888342Y-60628050D01*
X59978050Y-60538342D01*
X60035646Y-60425304D01*
X60035646Y-60425302D01*
X60035647Y-60425301D01*
X60035647Y-60425300D01*
X60055492Y-60300003D01*
X60055492Y-60299996D01*
X60035647Y-60174699D01*
X60035647Y-60174698D01*
X60017164Y-60138424D01*
X59978050Y-60061658D01*
X59978046Y-60061654D01*
X59978045Y-60061652D01*
X59888347Y-59971954D01*
X59888343Y-59971951D01*
X59888342Y-59971950D01*
X59888340Y-59971949D01*
X59880450Y-59966217D01*
X59881792Y-59964369D01*
X59840754Y-59925601D01*
X59823966Y-59857778D01*
X59846512Y-59791646D01*
X59860165Y-59775428D01*
X62358875Y-57276718D01*
X62420196Y-57243235D01*
X62489888Y-57248219D01*
X62545821Y-57290091D01*
X62569027Y-57345003D01*
X62588424Y-57467478D01*
X62588425Y-57467481D01*
X62588426Y-57467482D01*
X62632343Y-57553675D01*
X62642428Y-57573466D01*
X62642431Y-57573470D01*
X62726529Y-57657568D01*
X62726533Y-57657571D01*
X62726535Y-57657573D01*
X62832518Y-57711574D01*
X62832520Y-57711574D01*
X62832522Y-57711575D01*
X62949997Y-57730181D01*
X62950000Y-57730181D01*
X62950003Y-57730181D01*
X63067477Y-57711575D01*
X63067478Y-57711575D01*
X63067479Y-57711574D01*
X63067482Y-57711574D01*
X63173465Y-57657573D01*
X63257573Y-57573465D01*
X63311574Y-57467482D01*
X63318059Y-57426536D01*
X63330181Y-57350003D01*
X63330181Y-57349996D01*
X63311575Y-57232522D01*
X63311575Y-57232521D01*
X63311574Y-57232519D01*
X63311574Y-57232518D01*
X63257573Y-57126535D01*
X63257571Y-57126533D01*
X63257568Y-57126529D01*
X63173470Y-57042431D01*
X63173466Y-57042428D01*
X63173465Y-57042427D01*
X63067482Y-56988426D01*
X63067481Y-56988425D01*
X63067478Y-56988424D01*
X62945003Y-56969027D01*
X62881869Y-56939098D01*
X62844937Y-56879787D01*
X62845363Y-56849996D01*
X64069819Y-56849996D01*
X64069819Y-56850003D01*
X64088424Y-56967477D01*
X64088424Y-56967478D01*
X64088425Y-56967481D01*
X64088426Y-56967482D01*
X64126614Y-57042431D01*
X64142428Y-57073466D01*
X64142431Y-57073470D01*
X64226529Y-57157568D01*
X64226533Y-57157571D01*
X64226535Y-57157573D01*
X64332518Y-57211574D01*
X64332520Y-57211574D01*
X64332522Y-57211575D01*
X64449997Y-57230181D01*
X64450000Y-57230181D01*
X64450003Y-57230181D01*
X64567477Y-57211575D01*
X64567478Y-57211575D01*
X64567479Y-57211574D01*
X64567482Y-57211574D01*
X64673465Y-57157573D01*
X64673467Y-57157570D01*
X64674161Y-57157217D01*
X64742830Y-57144321D01*
X64746435Y-57145784D01*
X64744018Y-57139302D01*
X64757217Y-57074161D01*
X64757570Y-57073467D01*
X64757573Y-57073465D01*
X64811574Y-56967482D01*
X64819494Y-56917477D01*
X64830181Y-56850003D01*
X64830181Y-56849996D01*
X64811575Y-56732522D01*
X64811575Y-56732521D01*
X64811574Y-56732519D01*
X64811574Y-56732518D01*
X64757573Y-56626535D01*
X64757571Y-56626533D01*
X64757568Y-56626529D01*
X64673470Y-56542431D01*
X64673466Y-56542428D01*
X64673465Y-56542427D01*
X64567482Y-56488426D01*
X64567480Y-56488425D01*
X64567477Y-56488424D01*
X64450003Y-56469819D01*
X64449997Y-56469819D01*
X64332522Y-56488424D01*
X64332521Y-56488424D01*
X64226533Y-56542428D01*
X64226529Y-56542431D01*
X64142431Y-56626529D01*
X64142428Y-56626533D01*
X64088424Y-56732521D01*
X64088424Y-56732522D01*
X64069819Y-56849996D01*
X62845363Y-56849996D01*
X62845935Y-56809924D01*
X62876718Y-56758875D01*
X63743380Y-55892213D01*
X63804701Y-55858730D01*
X63874393Y-55863714D01*
X63930326Y-55905586D01*
X63941542Y-55923599D01*
X63992427Y-56023465D01*
X63992429Y-56023467D01*
X63992431Y-56023470D01*
X64076529Y-56107568D01*
X64076533Y-56107571D01*
X64076535Y-56107573D01*
X64182518Y-56161574D01*
X64182520Y-56161574D01*
X64182522Y-56161575D01*
X64299997Y-56180181D01*
X64300000Y-56180181D01*
X64300003Y-56180181D01*
X64417477Y-56161575D01*
X64417478Y-56161575D01*
X64417479Y-56161574D01*
X64417482Y-56161574D01*
X64523465Y-56107573D01*
X64607573Y-56023465D01*
X64607574Y-56023462D01*
X64607940Y-56023097D01*
X64613752Y-56018327D01*
X66770966Y-53861113D01*
X67632081Y-52999998D01*
X71094645Y-52999998D01*
X71094645Y-53000001D01*
X71114039Y-53271160D01*
X71114040Y-53271167D01*
X71171823Y-53536793D01*
X71171825Y-53536801D01*
X71237012Y-53711574D01*
X71266830Y-53791519D01*
X71397109Y-54030107D01*
X71397110Y-54030108D01*
X71397113Y-54030113D01*
X71560029Y-54247742D01*
X71560033Y-54247746D01*
X71560038Y-54247752D01*
X71752247Y-54439961D01*
X71752253Y-54439966D01*
X71752258Y-54439971D01*
X71969887Y-54602887D01*
X71969891Y-54602889D01*
X71969892Y-54602890D01*
X72208481Y-54733169D01*
X72208480Y-54733169D01*
X72208484Y-54733170D01*
X72208487Y-54733172D01*
X72463199Y-54828175D01*
X72728840Y-54885961D01*
X72973589Y-54903466D01*
X72999999Y-54905355D01*
X73000000Y-54905355D01*
X73000001Y-54905355D01*
X73026411Y-54903466D01*
X73271160Y-54885961D01*
X73536801Y-54828175D01*
X73791513Y-54733172D01*
X73791517Y-54733169D01*
X73791519Y-54733169D01*
X73910813Y-54668029D01*
X74030113Y-54602887D01*
X74247742Y-54439971D01*
X74439971Y-54247742D01*
X74602887Y-54030113D01*
X74690414Y-53869819D01*
X74733169Y-53791519D01*
X74733169Y-53791517D01*
X74733172Y-53791513D01*
X74828175Y-53536801D01*
X74885961Y-53271160D01*
X74905355Y-53000000D01*
X74885961Y-52728840D01*
X74828175Y-52463199D01*
X74733172Y-52208487D01*
X74733170Y-52208484D01*
X74733169Y-52208480D01*
X74602890Y-51969892D01*
X74602889Y-51969891D01*
X74602887Y-51969887D01*
X74439971Y-51752258D01*
X74439966Y-51752253D01*
X74439961Y-51752247D01*
X74247752Y-51560038D01*
X74247746Y-51560033D01*
X74247742Y-51560029D01*
X74030113Y-51397113D01*
X74030108Y-51397110D01*
X74030107Y-51397109D01*
X73791518Y-51266830D01*
X73791519Y-51266830D01*
X73741920Y-51248330D01*
X73536801Y-51171825D01*
X73536794Y-51171823D01*
X73536793Y-51171823D01*
X73271167Y-51114040D01*
X73271160Y-51114039D01*
X73000001Y-51094645D01*
X72999999Y-51094645D01*
X72728839Y-51114039D01*
X72728832Y-51114040D01*
X72463206Y-51171823D01*
X72463202Y-51171824D01*
X72463199Y-51171825D01*
X72335843Y-51219326D01*
X72208480Y-51266830D01*
X71969892Y-51397109D01*
X71969891Y-51397110D01*
X71752259Y-51560028D01*
X71752247Y-51560038D01*
X71560038Y-51752247D01*
X71560028Y-51752259D01*
X71397110Y-51969891D01*
X71397109Y-51969892D01*
X71266830Y-52208480D01*
X71226177Y-52317477D01*
X71171825Y-52463199D01*
X71171824Y-52463202D01*
X71171823Y-52463206D01*
X71114040Y-52728832D01*
X71114039Y-52728839D01*
X71094645Y-52999998D01*
X67632081Y-52999998D01*
X68932364Y-51699715D01*
X68970500Y-51607646D01*
X68970500Y-51507991D01*
X68970500Y-50949996D01*
X69519819Y-50949996D01*
X69519819Y-50950003D01*
X69538424Y-51067477D01*
X69538424Y-51067478D01*
X69538425Y-51067481D01*
X69538426Y-51067482D01*
X69591591Y-51171825D01*
X69592428Y-51173466D01*
X69592431Y-51173470D01*
X69676529Y-51257568D01*
X69676533Y-51257571D01*
X69676535Y-51257573D01*
X69782518Y-51311574D01*
X69782520Y-51311574D01*
X69782522Y-51311575D01*
X69899997Y-51330181D01*
X69900000Y-51330181D01*
X69900003Y-51330181D01*
X70017477Y-51311575D01*
X70017478Y-51311575D01*
X70017479Y-51311574D01*
X70017482Y-51311574D01*
X70123465Y-51257573D01*
X70207573Y-51173465D01*
X70261574Y-51067482D01*
X70267112Y-51032518D01*
X70280181Y-50950003D01*
X70280181Y-50949996D01*
X70261575Y-50832522D01*
X70261575Y-50832521D01*
X70261574Y-50832519D01*
X70261574Y-50832518D01*
X70207573Y-50726535D01*
X70207571Y-50726533D01*
X70207568Y-50726529D01*
X70123470Y-50642431D01*
X70123466Y-50642428D01*
X70123465Y-50642427D01*
X70017482Y-50588426D01*
X70017480Y-50588425D01*
X70017477Y-50588424D01*
X69900003Y-50569819D01*
X69899997Y-50569819D01*
X69782522Y-50588424D01*
X69782521Y-50588424D01*
X69676533Y-50642428D01*
X69676529Y-50642431D01*
X69592431Y-50726529D01*
X69592428Y-50726533D01*
X69538424Y-50832521D01*
X69538424Y-50832522D01*
X69519819Y-50949996D01*
X68970500Y-50949996D01*
X68970500Y-50721900D01*
X68990185Y-50654861D01*
X69006815Y-50634222D01*
X69027573Y-50613465D01*
X69081574Y-50507482D01*
X69081575Y-50507477D01*
X69100181Y-50390003D01*
X69100181Y-50389996D01*
X69081575Y-50272522D01*
X69081575Y-50272521D01*
X69081574Y-50272519D01*
X69081574Y-50272518D01*
X69027573Y-50166535D01*
X69027571Y-50166533D01*
X69027568Y-50166529D01*
X68943470Y-50082431D01*
X68943466Y-50082428D01*
X68943465Y-50082427D01*
X68837482Y-50028426D01*
X68837480Y-50028425D01*
X68837477Y-50028424D01*
X68720003Y-50009819D01*
X68719997Y-50009819D01*
X68602522Y-50028424D01*
X68602521Y-50028424D01*
X68496533Y-50082428D01*
X68496529Y-50082431D01*
X68412431Y-50166529D01*
X68412428Y-50166533D01*
X68358424Y-50272521D01*
X68358424Y-50272522D01*
X68339819Y-50389996D01*
X68339819Y-50390003D01*
X68358424Y-50507477D01*
X68358424Y-50507478D01*
X68358425Y-50507481D01*
X68358426Y-50507482D01*
X68412427Y-50613465D01*
X68433181Y-50634219D01*
X68466666Y-50695540D01*
X68469500Y-50721900D01*
X68469500Y-51402694D01*
X68449815Y-51469733D01*
X68433181Y-51490375D01*
X67293278Y-52630277D01*
X67231955Y-52663762D01*
X67162263Y-52658778D01*
X67106330Y-52616906D01*
X67087665Y-52580912D01*
X67085646Y-52574699D01*
X67085646Y-52574696D01*
X67028050Y-52461658D01*
X67028046Y-52461654D01*
X67028045Y-52461652D01*
X66938347Y-52371954D01*
X66938344Y-52371952D01*
X66938342Y-52371950D01*
X66825304Y-52314354D01*
X66825303Y-52314353D01*
X66825300Y-52314352D01*
X66700003Y-52294508D01*
X66699997Y-52294508D01*
X66574699Y-52314352D01*
X66574695Y-52314353D01*
X66529288Y-52337490D01*
X66460619Y-52350386D01*
X66395879Y-52324109D01*
X66355622Y-52267003D01*
X66352630Y-52197197D01*
X66362506Y-52170718D01*
X66385646Y-52125304D01*
X66385647Y-52125300D01*
X66405492Y-52000003D01*
X66405492Y-51999996D01*
X66385647Y-51874699D01*
X66385647Y-51874698D01*
X66385597Y-51874600D01*
X66328050Y-51761658D01*
X66328046Y-51761654D01*
X66328045Y-51761652D01*
X66238347Y-51671954D01*
X66238344Y-51671952D01*
X66238342Y-51671950D01*
X66125304Y-51614354D01*
X66125303Y-51614353D01*
X66125300Y-51614352D01*
X66000003Y-51594508D01*
X65999997Y-51594508D01*
X65874699Y-51614352D01*
X65874695Y-51614353D01*
X65825794Y-51639270D01*
X65757125Y-51652166D01*
X65692384Y-51625889D01*
X65652128Y-51568782D01*
X65645500Y-51528785D01*
X65645500Y-50611114D01*
X65645498Y-50611109D01*
X65615739Y-50539260D01*
X65420677Y-50344198D01*
X65387192Y-50282875D01*
X65385885Y-50237122D01*
X65390181Y-50210000D01*
X65390181Y-50209997D01*
X65390181Y-50209996D01*
X65371575Y-50092522D01*
X65371575Y-50092521D01*
X65371574Y-50092519D01*
X65371574Y-50092518D01*
X65317573Y-49986535D01*
X65317571Y-49986533D01*
X65317568Y-49986529D01*
X65233470Y-49902431D01*
X65233466Y-49902428D01*
X65233465Y-49902427D01*
X65127482Y-49848426D01*
X65127480Y-49848425D01*
X65127477Y-49848424D01*
X65010003Y-49829819D01*
X65009997Y-49829819D01*
X64892522Y-49848424D01*
X64892521Y-49848424D01*
X64786533Y-49902428D01*
X64786529Y-49902431D01*
X64702431Y-49986529D01*
X64702428Y-49986533D01*
X64648424Y-50092521D01*
X64648424Y-50092522D01*
X64629819Y-50209996D01*
X64629819Y-50210003D01*
X64648424Y-50327477D01*
X64648424Y-50327478D01*
X64648425Y-50327481D01*
X64648426Y-50327482D01*
X64680280Y-50390000D01*
X64702428Y-50433466D01*
X64702431Y-50433470D01*
X64786529Y-50517568D01*
X64786533Y-50517571D01*
X64786535Y-50517573D01*
X64892518Y-50571574D01*
X64892520Y-50571574D01*
X64892522Y-50571575D01*
X65009996Y-50590181D01*
X65009997Y-50590180D01*
X65010000Y-50590181D01*
X65037120Y-50585885D01*
X65106409Y-50594838D01*
X65144198Y-50620677D01*
X65218181Y-50694660D01*
X65251666Y-50755983D01*
X65254500Y-50782341D01*
X65254500Y-51303656D01*
X65234815Y-51370695D01*
X65182011Y-51416450D01*
X65112853Y-51426394D01*
X65049297Y-51397369D01*
X65042819Y-51391337D01*
X64360677Y-50709195D01*
X64327192Y-50647872D01*
X64325885Y-50602119D01*
X64330181Y-50574997D01*
X64330181Y-50574994D01*
X64330181Y-50574993D01*
X64311575Y-50457519D01*
X64311575Y-50457518D01*
X64311574Y-50457516D01*
X64311574Y-50457515D01*
X64257573Y-50351532D01*
X64257571Y-50351530D01*
X64257568Y-50351526D01*
X64173470Y-50267428D01*
X64173467Y-50267426D01*
X64173465Y-50267424D01*
X64127972Y-50244244D01*
X64077177Y-50196270D01*
X64060382Y-50128449D01*
X64073782Y-50077468D01*
X64115648Y-49995304D01*
X64115648Y-49995302D01*
X64115649Y-49995300D01*
X64135494Y-49870003D01*
X64135494Y-49869996D01*
X64115649Y-49744699D01*
X64115649Y-49744698D01*
X64109517Y-49732663D01*
X64058052Y-49631658D01*
X64058048Y-49631654D01*
X64058047Y-49631652D01*
X63968349Y-49541954D01*
X63968345Y-49541951D01*
X63968344Y-49541950D01*
X63954671Y-49534983D01*
X63903877Y-49487011D01*
X63887082Y-49419190D01*
X63909619Y-49353055D01*
X63964334Y-49309603D01*
X64010968Y-49300500D01*
X70952405Y-49300500D01*
X70997575Y-49300500D01*
X71002443Y-49300596D01*
G37*
%TD.AperFunction*%
%TA.AperFunction,Conductor*%
G36*
X49998892Y-61523081D02*
G01*
X50032262Y-61563890D01*
X50052426Y-61603463D01*
X50052431Y-61603470D01*
X50136529Y-61687568D01*
X50136533Y-61687571D01*
X50136535Y-61687573D01*
X50242518Y-61741574D01*
X50242520Y-61741574D01*
X50242522Y-61741575D01*
X50359996Y-61760181D01*
X50359997Y-61760180D01*
X50360000Y-61760181D01*
X50387120Y-61755885D01*
X50456409Y-61764838D01*
X50494198Y-61790677D01*
X50664260Y-61960739D01*
X50719831Y-61983756D01*
X50736113Y-61990500D01*
X50736115Y-61990500D01*
X52202500Y-61990500D01*
X52202502Y-61990500D01*
X52238429Y-61975618D01*
X52274354Y-61960739D01*
X52274355Y-61960737D01*
X52274357Y-61960737D01*
X52473275Y-61761819D01*
X52534598Y-61728334D01*
X52560956Y-61725500D01*
X52692799Y-61725500D01*
X52759838Y-61745185D01*
X52805593Y-61797989D01*
X52815537Y-61867147D01*
X52815272Y-61868898D01*
X52794508Y-61999997D01*
X52794508Y-62000003D01*
X52814352Y-62125300D01*
X52814352Y-62125301D01*
X52814354Y-62125304D01*
X52871950Y-62238342D01*
X52871952Y-62238344D01*
X52871954Y-62238347D01*
X52961652Y-62328045D01*
X52961654Y-62328046D01*
X52961658Y-62328050D01*
X53074696Y-62385646D01*
X53074697Y-62385646D01*
X53074699Y-62385647D01*
X53199997Y-62405492D01*
X53200000Y-62405492D01*
X53200003Y-62405492D01*
X53325300Y-62385647D01*
X53325301Y-62385647D01*
X53325302Y-62385646D01*
X53325304Y-62385646D01*
X53438342Y-62328050D01*
X53528050Y-62238342D01*
X53585646Y-62125304D01*
X53585646Y-62125302D01*
X53585647Y-62125301D01*
X53585647Y-62125300D01*
X53605492Y-62000003D01*
X53605492Y-61999997D01*
X53584728Y-61868898D01*
X53593683Y-61799604D01*
X53638679Y-61746152D01*
X53705431Y-61725513D01*
X53707201Y-61725500D01*
X54328885Y-61725500D01*
X54328887Y-61725500D01*
X54400742Y-61695737D01*
X54400746Y-61695732D01*
X54410896Y-61688952D01*
X54411980Y-61690575D01*
X54459912Y-61664398D01*
X54529604Y-61669377D01*
X54585540Y-61711244D01*
X54596759Y-61729259D01*
X54631968Y-61798360D01*
X54631970Y-61798362D01*
X54631972Y-61798365D01*
X54721670Y-61888063D01*
X54721672Y-61888064D01*
X54721676Y-61888068D01*
X54834714Y-61945664D01*
X54834715Y-61945664D01*
X54834717Y-61945665D01*
X54960015Y-61965510D01*
X54960018Y-61965510D01*
X54960021Y-61965510D01*
X55085318Y-61945665D01*
X55085319Y-61945665D01*
X55085320Y-61945664D01*
X55085322Y-61945664D01*
X55198360Y-61888068D01*
X55288068Y-61798360D01*
X55319886Y-61735913D01*
X55367858Y-61685120D01*
X55435679Y-61668324D01*
X55501814Y-61690861D01*
X55518050Y-61704529D01*
X56079351Y-62265830D01*
X56112836Y-62327153D01*
X56107852Y-62396845D01*
X56065980Y-62452778D01*
X56011068Y-62475984D01*
X55932522Y-62488424D01*
X55932521Y-62488424D01*
X55826533Y-62542428D01*
X55826529Y-62542431D01*
X55742431Y-62626529D01*
X55742428Y-62626533D01*
X55688424Y-62732521D01*
X55688424Y-62732522D01*
X55669819Y-62849996D01*
X55669819Y-62850003D01*
X55688424Y-62967477D01*
X55688424Y-62967478D01*
X55688425Y-62967481D01*
X55688426Y-62967482D01*
X55742427Y-63073465D01*
X55742428Y-63073466D01*
X55742805Y-63074205D01*
X55755701Y-63142874D01*
X55729425Y-63207615D01*
X55672318Y-63247872D01*
X55632320Y-63254500D01*
X54126929Y-63254500D01*
X54070635Y-63240985D01*
X53967482Y-63188426D01*
X53967480Y-63188425D01*
X53967477Y-63188424D01*
X53850003Y-63169819D01*
X53849997Y-63169819D01*
X53732522Y-63188424D01*
X53732521Y-63188424D01*
X53626533Y-63242428D01*
X53626529Y-63242431D01*
X53542431Y-63326529D01*
X53542428Y-63326533D01*
X53488424Y-63432521D01*
X53488424Y-63432522D01*
X53469819Y-63549996D01*
X53469819Y-63550003D01*
X53488424Y-63667477D01*
X53488424Y-63667478D01*
X53488425Y-63667481D01*
X53488426Y-63667482D01*
X53521563Y-63732518D01*
X53542428Y-63773466D01*
X53542431Y-63773470D01*
X53633435Y-63864474D01*
X53632069Y-63865839D01*
X53667291Y-63911515D01*
X53673270Y-63981128D01*
X53640665Y-64042923D01*
X53639422Y-64044185D01*
X53571951Y-64111655D01*
X53571951Y-64111657D01*
X53514352Y-64224698D01*
X53514352Y-64224699D01*
X53494508Y-64349996D01*
X53494508Y-64350003D01*
X53514352Y-64475300D01*
X53514352Y-64475301D01*
X53514978Y-64476529D01*
X53571950Y-64588342D01*
X53571952Y-64588344D01*
X53571954Y-64588347D01*
X53661652Y-64678045D01*
X53661654Y-64678046D01*
X53661658Y-64678050D01*
X53774696Y-64735646D01*
X53774697Y-64735646D01*
X53774699Y-64735647D01*
X53899997Y-64755492D01*
X53900000Y-64755492D01*
X53900003Y-64755492D01*
X54025300Y-64735647D01*
X54025301Y-64735647D01*
X54025302Y-64735646D01*
X54025304Y-64735646D01*
X54138342Y-64678050D01*
X54228050Y-64588342D01*
X54285646Y-64475304D01*
X54285646Y-64475302D01*
X54285647Y-64475301D01*
X54285647Y-64475300D01*
X54305492Y-64350003D01*
X54305492Y-64349996D01*
X54285647Y-64224699D01*
X54285647Y-64224698D01*
X54262270Y-64178819D01*
X54228050Y-64111658D01*
X54228046Y-64111654D01*
X54228045Y-64111652D01*
X54138347Y-64021954D01*
X54138343Y-64021951D01*
X54138342Y-64021950D01*
X54138340Y-64021949D01*
X54130450Y-64016217D01*
X54131228Y-64015146D01*
X54087743Y-63974076D01*
X54070948Y-63906255D01*
X54093486Y-63840120D01*
X54107154Y-63823884D01*
X54125546Y-63805492D01*
X54157573Y-63773465D01*
X54185017Y-63719604D01*
X54188278Y-63713204D01*
X54236252Y-63662409D01*
X54298762Y-63645500D01*
X55857023Y-63645500D01*
X55924062Y-63665185D01*
X55969817Y-63717989D01*
X55979761Y-63787147D01*
X55979496Y-63788897D01*
X55969819Y-63849996D01*
X55969819Y-63850003D01*
X55988424Y-63967477D01*
X55988424Y-63967478D01*
X56042428Y-64073466D01*
X56042431Y-64073470D01*
X56126529Y-64157568D01*
X56126533Y-64157571D01*
X56126535Y-64157573D01*
X56232518Y-64211574D01*
X56232520Y-64211574D01*
X56232522Y-64211575D01*
X56349997Y-64230181D01*
X56350000Y-64230181D01*
X56350003Y-64230181D01*
X56467477Y-64211575D01*
X56467478Y-64211575D01*
X56467479Y-64211574D01*
X56467482Y-64211574D01*
X56573465Y-64157573D01*
X56657573Y-64073465D01*
X56711574Y-63967482D01*
X56711575Y-63967477D01*
X56730181Y-63850003D01*
X56730181Y-63849996D01*
X56720504Y-63788897D01*
X56729459Y-63719604D01*
X56774455Y-63666152D01*
X56841207Y-63645513D01*
X56842977Y-63645500D01*
X58528659Y-63645500D01*
X58595698Y-63665185D01*
X58641453Y-63717989D01*
X58651397Y-63787147D01*
X58622372Y-63850703D01*
X58616340Y-63857181D01*
X57062588Y-65410932D01*
X57001265Y-65444417D01*
X56931573Y-65439433D01*
X56875640Y-65397561D01*
X56851223Y-65332097D01*
X56864422Y-65266957D01*
X56885646Y-65225304D01*
X56885646Y-65225302D01*
X56885647Y-65225300D01*
X56905492Y-65100003D01*
X56905492Y-65099996D01*
X56885647Y-64974699D01*
X56885647Y-64974698D01*
X56885646Y-64974696D01*
X56828050Y-64861658D01*
X56828046Y-64861654D01*
X56828045Y-64861652D01*
X56738347Y-64771954D01*
X56738344Y-64771952D01*
X56738342Y-64771950D01*
X56625304Y-64714354D01*
X56625303Y-64714353D01*
X56625300Y-64714352D01*
X56500003Y-64694508D01*
X56499997Y-64694508D01*
X56374699Y-64714352D01*
X56374698Y-64714352D01*
X56299337Y-64752751D01*
X56261658Y-64771950D01*
X56261657Y-64771951D01*
X56261652Y-64771954D01*
X56171954Y-64861652D01*
X56171951Y-64861657D01*
X56171950Y-64861658D01*
X56166704Y-64871954D01*
X56114352Y-64974698D01*
X56114352Y-64974699D01*
X56094508Y-65099996D01*
X56094508Y-65100003D01*
X56114352Y-65225300D01*
X56114352Y-65225301D01*
X56132805Y-65261517D01*
X56171950Y-65338342D01*
X56171952Y-65338344D01*
X56171954Y-65338347D01*
X56261652Y-65428045D01*
X56261657Y-65428049D01*
X56261658Y-65428050D01*
X56348931Y-65472518D01*
X56351524Y-65473839D01*
X56402320Y-65521814D01*
X56419115Y-65589635D01*
X56396577Y-65655770D01*
X56341862Y-65699221D01*
X56295229Y-65708324D01*
X54256901Y-65708324D01*
X54189862Y-65688639D01*
X54169220Y-65672005D01*
X54093470Y-65596255D01*
X54093466Y-65596252D01*
X54093465Y-65596251D01*
X53987482Y-65542250D01*
X53987480Y-65542249D01*
X53987477Y-65542248D01*
X53870003Y-65523643D01*
X53869997Y-65523643D01*
X53752522Y-65542248D01*
X53752521Y-65542248D01*
X53646533Y-65596252D01*
X53646529Y-65596255D01*
X53562431Y-65680353D01*
X53562426Y-65680360D01*
X53530009Y-65743981D01*
X53482034Y-65794777D01*
X53414213Y-65811571D01*
X53348078Y-65789033D01*
X53331844Y-65775366D01*
X53236838Y-65680360D01*
X52980742Y-65424263D01*
X52980741Y-65424262D01*
X52980739Y-65424260D01*
X52908890Y-65394501D01*
X52908888Y-65394500D01*
X52908887Y-65394500D01*
X52908885Y-65394500D01*
X52266901Y-65394500D01*
X52199862Y-65374815D01*
X52179220Y-65358181D01*
X52103470Y-65282431D01*
X52103466Y-65282428D01*
X52103465Y-65282427D01*
X51997482Y-65228426D01*
X51997480Y-65228425D01*
X51997477Y-65228424D01*
X51880003Y-65209819D01*
X51879997Y-65209819D01*
X51762522Y-65228424D01*
X51762521Y-65228424D01*
X51656533Y-65282428D01*
X51656529Y-65282431D01*
X51572431Y-65366529D01*
X51572428Y-65366533D01*
X51518424Y-65472521D01*
X51518424Y-65472522D01*
X51499819Y-65589996D01*
X51499819Y-65590003D01*
X51518424Y-65707477D01*
X51518424Y-65707478D01*
X51518425Y-65707481D01*
X51518426Y-65707482D01*
X51568208Y-65805185D01*
X51572428Y-65813466D01*
X51572431Y-65813470D01*
X51656529Y-65897568D01*
X51656533Y-65897571D01*
X51656535Y-65897573D01*
X51762518Y-65951574D01*
X51762520Y-65951574D01*
X51762522Y-65951575D01*
X51879997Y-65970181D01*
X51880000Y-65970181D01*
X51880003Y-65970181D01*
X51997477Y-65951575D01*
X51997478Y-65951575D01*
X51997479Y-65951574D01*
X51997482Y-65951574D01*
X52103465Y-65897573D01*
X52103470Y-65897568D01*
X52179220Y-65821819D01*
X52240543Y-65788334D01*
X52266901Y-65785500D01*
X52737659Y-65785500D01*
X52804698Y-65805185D01*
X52825340Y-65821819D01*
X53720719Y-66717197D01*
X53754204Y-66778520D01*
X53749220Y-66848211D01*
X53707348Y-66904145D01*
X53652437Y-66927351D01*
X53582521Y-66938425D01*
X53582519Y-66938425D01*
X53582518Y-66938426D01*
X53511334Y-66974696D01*
X53476533Y-66992428D01*
X53476529Y-66992431D01*
X53392431Y-67076529D01*
X53392428Y-67076533D01*
X53392427Y-67076535D01*
X53338426Y-67182518D01*
X53338425Y-67182519D01*
X53338425Y-67182521D01*
X53319819Y-67299996D01*
X53319819Y-67299997D01*
X53328784Y-67356603D01*
X53319828Y-67425896D01*
X53274831Y-67479348D01*
X53208080Y-67499987D01*
X53206310Y-67500000D01*
X49424500Y-67500000D01*
X49357461Y-67480315D01*
X49311706Y-67427511D01*
X49300500Y-67376000D01*
X49300500Y-66845704D01*
X49320185Y-66778665D01*
X49372989Y-66732910D01*
X49442147Y-66722966D01*
X49480790Y-66735217D01*
X49532518Y-66761574D01*
X49532520Y-66761574D01*
X49532522Y-66761575D01*
X49649997Y-66780181D01*
X49650000Y-66780181D01*
X49650003Y-66780181D01*
X49767477Y-66761575D01*
X49767478Y-66761575D01*
X49767479Y-66761574D01*
X49767482Y-66761574D01*
X49873465Y-66707573D01*
X49957573Y-66623465D01*
X50011574Y-66517482D01*
X50011575Y-66517477D01*
X50030181Y-66400003D01*
X50030181Y-66399996D01*
X50011575Y-66282522D01*
X50011575Y-66282521D01*
X50011574Y-66282519D01*
X50011574Y-66282518D01*
X49957573Y-66176535D01*
X49957571Y-66176533D01*
X49957568Y-66176529D01*
X49873470Y-66092431D01*
X49873466Y-66092428D01*
X49873465Y-66092427D01*
X49767482Y-66038426D01*
X49767480Y-66038425D01*
X49767477Y-66038424D01*
X49650003Y-66019819D01*
X49649997Y-66019819D01*
X49532522Y-66038424D01*
X49532520Y-66038425D01*
X49480793Y-66064781D01*
X49412124Y-66077676D01*
X49347384Y-66051399D01*
X49307128Y-65994292D01*
X49300500Y-65954295D01*
X49300500Y-65121180D01*
X49320185Y-65054141D01*
X49372989Y-65008386D01*
X49442147Y-64998442D01*
X49480791Y-65010694D01*
X49482518Y-65011574D01*
X49482522Y-65011574D01*
X49482523Y-65011575D01*
X49482522Y-65011575D01*
X49599997Y-65030181D01*
X49600000Y-65030181D01*
X49600003Y-65030181D01*
X49717477Y-65011575D01*
X49717478Y-65011575D01*
X49717479Y-65011574D01*
X49717482Y-65011574D01*
X49811474Y-64963682D01*
X49880142Y-64950787D01*
X49944882Y-64977063D01*
X49955448Y-64986487D01*
X49976529Y-65007568D01*
X49976533Y-65007571D01*
X49976535Y-65007573D01*
X50082518Y-65061574D01*
X50082520Y-65061574D01*
X50082522Y-65061575D01*
X50199997Y-65080181D01*
X50200000Y-65080181D01*
X50200003Y-65080181D01*
X50317477Y-65061575D01*
X50317478Y-65061575D01*
X50317479Y-65061574D01*
X50317482Y-65061574D01*
X50423465Y-65007573D01*
X50507573Y-64923465D01*
X50561574Y-64817482D01*
X50561575Y-64817477D01*
X50580181Y-64700003D01*
X50580181Y-64699996D01*
X50561575Y-64582522D01*
X50561575Y-64582521D01*
X50561574Y-64582519D01*
X50561574Y-64582518D01*
X50507573Y-64476535D01*
X50507571Y-64476533D01*
X50507568Y-64476529D01*
X50423470Y-64392431D01*
X50423466Y-64392428D01*
X50423465Y-64392427D01*
X50317482Y-64338426D01*
X50317480Y-64338425D01*
X50317477Y-64338424D01*
X50200003Y-64319819D01*
X50199997Y-64319819D01*
X50082522Y-64338424D01*
X50082518Y-64338425D01*
X49988526Y-64386317D01*
X49919857Y-64399213D01*
X49855117Y-64372936D01*
X49844558Y-64363520D01*
X49823465Y-64342427D01*
X49717482Y-64288426D01*
X49717480Y-64288425D01*
X49717477Y-64288424D01*
X49600003Y-64269819D01*
X49599997Y-64269819D01*
X49482522Y-64288424D01*
X49482518Y-64288426D01*
X49480789Y-64289307D01*
X49478463Y-64289743D01*
X49473240Y-64291441D01*
X49473020Y-64290765D01*
X49412119Y-64302199D01*
X49347380Y-64275919D01*
X49307126Y-64218811D01*
X49300500Y-64178819D01*
X49300500Y-61643756D01*
X49320185Y-61576717D01*
X49372989Y-61530962D01*
X49442147Y-61521018D01*
X49480792Y-61533270D01*
X49524706Y-61555646D01*
X49524709Y-61555647D01*
X49650007Y-61575492D01*
X49650010Y-61575492D01*
X49650013Y-61575492D01*
X49775310Y-61555647D01*
X49775312Y-61555646D01*
X49775314Y-61555646D01*
X49865484Y-61509701D01*
X49934151Y-61496805D01*
X49998892Y-61523081D01*
G37*
%TD.AperFunction*%
%TA.AperFunction,Conductor*%
G36*
X56177569Y-60495980D02*
G01*
X56233503Y-60537851D01*
X56257920Y-60603316D01*
X56257421Y-60614990D01*
X56257789Y-60614990D01*
X56257789Y-60624752D01*
X56276394Y-60742226D01*
X56276394Y-60742227D01*
X56276395Y-60742230D01*
X56276396Y-60742231D01*
X56327205Y-60841950D01*
X56330398Y-60848215D01*
X56330401Y-60848219D01*
X56414499Y-60932317D01*
X56414503Y-60932320D01*
X56414505Y-60932322D01*
X56520488Y-60986323D01*
X56520490Y-60986323D01*
X56520492Y-60986324D01*
X56637967Y-61004930D01*
X56637970Y-61004930D01*
X56637973Y-61004930D01*
X56755447Y-60986324D01*
X56755448Y-60986324D01*
X56755449Y-60986323D01*
X56755452Y-60986323D01*
X56861435Y-60932322D01*
X56945543Y-60848214D01*
X56945546Y-60848207D01*
X56951276Y-60840322D01*
X56952584Y-60841272D01*
X56992941Y-60798535D01*
X57060761Y-60781734D01*
X57111755Y-60795136D01*
X57116536Y-60797572D01*
X57116537Y-60797573D01*
X57222520Y-60851574D01*
X57222522Y-60851574D01*
X57222524Y-60851575D01*
X57339999Y-60870181D01*
X57340002Y-60870181D01*
X57340005Y-60870181D01*
X57457479Y-60851575D01*
X57457480Y-60851575D01*
X57457481Y-60851574D01*
X57457484Y-60851574D01*
X57563467Y-60797573D01*
X57596532Y-60764508D01*
X57639222Y-60721819D01*
X57700545Y-60688334D01*
X57726903Y-60685500D01*
X58097775Y-60685500D01*
X58164814Y-60705185D01*
X58210569Y-60757989D01*
X58220513Y-60827147D01*
X58191488Y-60890703D01*
X58185456Y-60897181D01*
X57414456Y-61668181D01*
X57353133Y-61701666D01*
X57326775Y-61704500D01*
X56986901Y-61704500D01*
X56919862Y-61684815D01*
X56899220Y-61668181D01*
X56823470Y-61592431D01*
X56823466Y-61592428D01*
X56823465Y-61592427D01*
X56717482Y-61538426D01*
X56717480Y-61538425D01*
X56717477Y-61538424D01*
X56600003Y-61519819D01*
X56599997Y-61519819D01*
X56482522Y-61538424D01*
X56482521Y-61538424D01*
X56376533Y-61592428D01*
X56376529Y-61592431D01*
X56292431Y-61676529D01*
X56292425Y-61676537D01*
X56285721Y-61689695D01*
X56237745Y-61740490D01*
X56169924Y-61757283D01*
X56103789Y-61734743D01*
X56087557Y-61721078D01*
X55786819Y-61420340D01*
X55753334Y-61359017D01*
X55750500Y-61332659D01*
X55750500Y-60871899D01*
X55770185Y-60804860D01*
X55786819Y-60784218D01*
X55913464Y-60657573D01*
X56046557Y-60524479D01*
X56107878Y-60490996D01*
X56177569Y-60495980D01*
G37*
%TD.AperFunction*%
%TA.AperFunction,Conductor*%
G36*
X63516075Y-49320185D02*
G01*
X63561830Y-49372989D01*
X63571774Y-49442147D01*
X63542749Y-49505703D01*
X63505333Y-49534982D01*
X63491994Y-49541779D01*
X63491658Y-49541951D01*
X63491654Y-49541954D01*
X63401956Y-49631652D01*
X63401953Y-49631657D01*
X63344354Y-49744698D01*
X63344354Y-49744699D01*
X63324510Y-49869996D01*
X63324510Y-49870003D01*
X63344354Y-49995300D01*
X63344354Y-49995301D01*
X63346750Y-50000003D01*
X63401952Y-50108342D01*
X63401954Y-50108344D01*
X63401956Y-50108347D01*
X63491654Y-50198045D01*
X63491656Y-50198046D01*
X63491660Y-50198050D01*
X63562954Y-50234376D01*
X63613749Y-50282350D01*
X63630544Y-50350171D01*
X63617143Y-50401154D01*
X63588425Y-50457515D01*
X63588424Y-50457519D01*
X63569819Y-50574993D01*
X63569819Y-50575000D01*
X63588424Y-50692474D01*
X63588424Y-50692475D01*
X63588425Y-50692478D01*
X63588426Y-50692479D01*
X63642427Y-50798462D01*
X63642428Y-50798463D01*
X63646372Y-50806203D01*
X63659268Y-50874872D01*
X63646372Y-50918792D01*
X63588425Y-51032518D01*
X63588424Y-51032522D01*
X63569819Y-51149996D01*
X63569819Y-51150003D01*
X63588424Y-51267477D01*
X63588424Y-51267478D01*
X63588425Y-51267481D01*
X63588426Y-51267482D01*
X63642427Y-51373465D01*
X63718182Y-51449220D01*
X63751666Y-51510541D01*
X63754500Y-51536900D01*
X63754500Y-54406843D01*
X63734815Y-54473882D01*
X63682011Y-54519637D01*
X63612853Y-54529581D01*
X63574206Y-54517328D01*
X63517481Y-54488425D01*
X63517477Y-54488424D01*
X63400003Y-54469819D01*
X63399997Y-54469819D01*
X63282522Y-54488424D01*
X63282517Y-54488426D01*
X63275786Y-54491856D01*
X63207117Y-54504751D01*
X63142377Y-54478473D01*
X63102121Y-54421366D01*
X63095494Y-54381370D01*
X63095494Y-52586900D01*
X63115179Y-52519861D01*
X63131808Y-52499223D01*
X63207567Y-52423465D01*
X63261568Y-52317482D01*
X63261569Y-52317477D01*
X63280175Y-52200003D01*
X63280175Y-52199996D01*
X63261569Y-52082522D01*
X63261569Y-52082521D01*
X63261568Y-52082519D01*
X63261568Y-52082518D01*
X63207567Y-51976535D01*
X63207565Y-51976533D01*
X63207562Y-51976529D01*
X63123464Y-51892431D01*
X63123460Y-51892428D01*
X63123459Y-51892427D01*
X63017476Y-51838426D01*
X63017474Y-51838425D01*
X63017471Y-51838424D01*
X62899997Y-51819819D01*
X62899991Y-51819819D01*
X62782516Y-51838424D01*
X62782515Y-51838424D01*
X62676527Y-51892428D01*
X62676523Y-51892431D01*
X62592425Y-51976529D01*
X62592422Y-51976533D01*
X62538418Y-52082521D01*
X62538418Y-52082522D01*
X62519813Y-52199996D01*
X62519813Y-52200003D01*
X62538418Y-52317477D01*
X62538418Y-52317478D01*
X62538419Y-52317481D01*
X62538420Y-52317482D01*
X62592421Y-52423465D01*
X62668176Y-52499220D01*
X62701660Y-52560541D01*
X62704494Y-52586900D01*
X62704494Y-53707022D01*
X62684809Y-53774061D01*
X62632005Y-53819816D01*
X62562847Y-53829760D01*
X62561097Y-53829495D01*
X62500003Y-53819819D01*
X62499997Y-53819819D01*
X62382522Y-53838424D01*
X62382521Y-53838424D01*
X62276533Y-53892428D01*
X62276529Y-53892431D01*
X62192431Y-53976529D01*
X62192428Y-53976533D01*
X62138424Y-54082521D01*
X62138424Y-54082522D01*
X62119819Y-54199996D01*
X62119819Y-54200003D01*
X62138424Y-54317477D01*
X62138424Y-54317478D01*
X62138425Y-54317481D01*
X62138426Y-54317482D01*
X62187838Y-54414459D01*
X62192428Y-54423466D01*
X62192431Y-54423470D01*
X62276529Y-54507568D01*
X62276533Y-54507571D01*
X62276535Y-54507573D01*
X62382518Y-54561574D01*
X62382520Y-54561574D01*
X62382522Y-54561575D01*
X62499997Y-54580181D01*
X62500000Y-54580181D01*
X62500003Y-54580181D01*
X62561097Y-54570505D01*
X62630390Y-54579460D01*
X62683842Y-54624456D01*
X62704481Y-54691208D01*
X62704494Y-54692978D01*
X62704494Y-55402347D01*
X62684809Y-55469386D01*
X62668175Y-55490028D01*
X62490278Y-55667925D01*
X62428955Y-55701410D01*
X62359263Y-55696426D01*
X62303330Y-55654554D01*
X62280124Y-55599645D01*
X62261574Y-55482518D01*
X62207573Y-55376535D01*
X62207571Y-55376533D01*
X62207568Y-55376529D01*
X62123470Y-55292431D01*
X62123466Y-55292428D01*
X62123465Y-55292427D01*
X62017482Y-55238426D01*
X62017480Y-55238425D01*
X62017477Y-55238424D01*
X61900003Y-55219819D01*
X61899997Y-55219819D01*
X61782522Y-55238424D01*
X61782518Y-55238425D01*
X61679535Y-55290898D01*
X61610866Y-55303794D01*
X61546126Y-55277517D01*
X61512757Y-55236709D01*
X61511967Y-55235160D01*
X61507573Y-55226535D01*
X61507570Y-55226532D01*
X61507568Y-55226529D01*
X61423470Y-55142431D01*
X61423466Y-55142428D01*
X61423465Y-55142427D01*
X61317482Y-55088426D01*
X61317480Y-55088425D01*
X61317477Y-55088424D01*
X61200003Y-55069819D01*
X61199997Y-55069819D01*
X61082522Y-55088424D01*
X61082521Y-55088424D01*
X60976533Y-55142428D01*
X60976529Y-55142431D01*
X60892431Y-55226529D01*
X60892428Y-55226533D01*
X60838424Y-55332521D01*
X60838424Y-55332522D01*
X60819819Y-55449996D01*
X60819819Y-55450003D01*
X60838424Y-55567477D01*
X60838424Y-55567478D01*
X60838425Y-55567481D01*
X60838426Y-55567482D01*
X60889604Y-55667925D01*
X60892428Y-55673466D01*
X60892431Y-55673470D01*
X60976529Y-55757568D01*
X60976533Y-55757571D01*
X60976535Y-55757573D01*
X61082518Y-55811574D01*
X61082520Y-55811574D01*
X61082522Y-55811575D01*
X61199997Y-55830181D01*
X61200000Y-55830181D01*
X61200003Y-55830181D01*
X61317477Y-55811575D01*
X61317477Y-55811574D01*
X61317482Y-55811574D01*
X61420467Y-55759100D01*
X61489132Y-55746205D01*
X61553872Y-55772481D01*
X61587241Y-55813288D01*
X61592425Y-55823462D01*
X61592431Y-55823470D01*
X61676529Y-55907568D01*
X61676533Y-55907571D01*
X61676535Y-55907573D01*
X61782518Y-55961574D01*
X61899644Y-55980124D01*
X61962776Y-56010052D01*
X61999708Y-56069364D01*
X61998710Y-56139226D01*
X61967925Y-56190278D01*
X60604527Y-57553675D01*
X60543204Y-57587160D01*
X60473512Y-57582176D01*
X60417579Y-57540304D01*
X60406364Y-57522292D01*
X60357573Y-57426535D01*
X60357570Y-57426532D01*
X60357568Y-57426529D01*
X60273470Y-57342431D01*
X60273466Y-57342428D01*
X60273465Y-57342427D01*
X60167482Y-57288426D01*
X60167480Y-57288425D01*
X60167477Y-57288424D01*
X60050003Y-57269819D01*
X60049997Y-57269819D01*
X59932522Y-57288424D01*
X59932521Y-57288424D01*
X59826533Y-57342428D01*
X59826529Y-57342431D01*
X59742431Y-57426529D01*
X59742428Y-57426533D01*
X59688424Y-57532521D01*
X59688424Y-57532522D01*
X59669819Y-57649996D01*
X59669819Y-57650000D01*
X59674114Y-57677123D01*
X59665157Y-57746416D01*
X59639321Y-57784198D01*
X58258158Y-59165362D01*
X58196835Y-59198847D01*
X58127143Y-59193863D01*
X58071210Y-59151991D01*
X58048004Y-59097079D01*
X58044114Y-59072518D01*
X57990113Y-58966535D01*
X57990111Y-58966533D01*
X57990108Y-58966529D01*
X57906010Y-58882431D01*
X57906006Y-58882428D01*
X57906005Y-58882427D01*
X57800022Y-58828426D01*
X57800020Y-58828425D01*
X57800017Y-58828424D01*
X57682543Y-58809819D01*
X57682537Y-58809819D01*
X57565062Y-58828424D01*
X57565061Y-58828424D01*
X57459073Y-58882428D01*
X57459069Y-58882431D01*
X57383320Y-58958181D01*
X57321997Y-58991666D01*
X57295639Y-58994500D01*
X56404329Y-58994500D01*
X56326555Y-58994500D01*
X56326553Y-58994500D01*
X56326551Y-58994501D01*
X56254702Y-59024260D01*
X56254700Y-59024262D01*
X55180122Y-60098839D01*
X55118799Y-60132324D01*
X55049107Y-60127340D01*
X54993174Y-60085468D01*
X54981958Y-60067457D01*
X54928050Y-59961656D01*
X54928046Y-59961652D01*
X54928045Y-59961650D01*
X54838347Y-59871952D01*
X54838344Y-59871950D01*
X54838342Y-59871948D01*
X54725304Y-59814352D01*
X54725303Y-59814351D01*
X54725300Y-59814350D01*
X54600003Y-59794506D01*
X54599997Y-59794506D01*
X54474699Y-59814350D01*
X54474694Y-59814352D01*
X54470544Y-59816467D01*
X54401875Y-59829362D01*
X54337135Y-59803084D01*
X54296879Y-59745977D01*
X54291779Y-59686583D01*
X54305492Y-59600002D01*
X54305492Y-59599996D01*
X54285647Y-59474699D01*
X54285647Y-59474698D01*
X54265397Y-59434956D01*
X54228050Y-59361658D01*
X54228046Y-59361654D01*
X54228045Y-59361652D01*
X54138347Y-59271954D01*
X54138344Y-59271952D01*
X54138342Y-59271950D01*
X54025304Y-59214354D01*
X54025303Y-59214353D01*
X54025300Y-59214352D01*
X53900003Y-59194508D01*
X53899997Y-59194508D01*
X53774699Y-59214352D01*
X53774698Y-59214352D01*
X53699337Y-59252751D01*
X53661658Y-59271950D01*
X53661657Y-59271951D01*
X53661652Y-59271954D01*
X53571954Y-59361652D01*
X53571949Y-59361659D01*
X53560484Y-59384161D01*
X53512510Y-59434956D01*
X53444688Y-59451751D01*
X53378554Y-59429213D01*
X53339516Y-59384161D01*
X53337688Y-59380574D01*
X53328050Y-59361658D01*
X53328047Y-59361655D01*
X53328045Y-59361652D01*
X53238347Y-59271954D01*
X53238344Y-59271952D01*
X53238342Y-59271950D01*
X53125304Y-59214354D01*
X53125303Y-59214353D01*
X53125300Y-59214352D01*
X53000003Y-59194508D01*
X52999997Y-59194508D01*
X52874699Y-59214352D01*
X52874698Y-59214352D01*
X52799337Y-59252751D01*
X52761658Y-59271950D01*
X52761657Y-59271951D01*
X52761652Y-59271954D01*
X52671954Y-59361652D01*
X52671951Y-59361657D01*
X52671950Y-59361658D01*
X52660484Y-59384161D01*
X52614352Y-59474698D01*
X52614352Y-59474699D01*
X52594508Y-59599996D01*
X52594508Y-59600003D01*
X52614352Y-59725300D01*
X52614352Y-59725301D01*
X52631144Y-59758256D01*
X52671950Y-59838342D01*
X52671952Y-59838344D01*
X52671954Y-59838347D01*
X52761652Y-59928045D01*
X52761654Y-59928046D01*
X52761658Y-59928050D01*
X52874696Y-59985646D01*
X52874697Y-59985646D01*
X52874699Y-59985647D01*
X52999997Y-60005492D01*
X53000000Y-60005492D01*
X53000003Y-60005492D01*
X53125300Y-59985647D01*
X53125301Y-59985647D01*
X53125302Y-59985646D01*
X53125304Y-59985646D01*
X53238342Y-59928050D01*
X53328050Y-59838342D01*
X53339515Y-59815839D01*
X53387489Y-59765043D01*
X53455310Y-59748248D01*
X53521445Y-59770785D01*
X53560484Y-59815838D01*
X53571819Y-59838084D01*
X53571949Y-59838340D01*
X53571954Y-59838347D01*
X53661652Y-59928045D01*
X53661654Y-59928046D01*
X53661658Y-59928050D01*
X53774696Y-59985646D01*
X53774697Y-59985646D01*
X53774699Y-59985647D01*
X53899997Y-60005492D01*
X53900000Y-60005492D01*
X53900003Y-60005492D01*
X54025298Y-59985647D01*
X54025298Y-59985646D01*
X54025304Y-59985646D01*
X54029448Y-59983534D01*
X54098112Y-59970634D01*
X54162855Y-59996906D01*
X54203116Y-60054009D01*
X54208221Y-60113412D01*
X54198515Y-60174696D01*
X54195707Y-60192431D01*
X54194508Y-60199999D01*
X54194508Y-60200001D01*
X54214352Y-60325298D01*
X54214352Y-60325299D01*
X54214354Y-60325302D01*
X54271950Y-60438340D01*
X54271952Y-60438342D01*
X54271954Y-60438345D01*
X54321428Y-60487819D01*
X54354913Y-60549142D01*
X54349929Y-60618834D01*
X54308057Y-60674767D01*
X54242593Y-60699184D01*
X54233747Y-60699500D01*
X50477340Y-60699500D01*
X50410301Y-60679815D01*
X50389656Y-60663178D01*
X50374613Y-60648134D01*
X50341130Y-60586810D01*
X50346117Y-60517119D01*
X50387990Y-60461186D01*
X50423984Y-60442523D01*
X50425395Y-60442063D01*
X50425410Y-60442061D01*
X50531393Y-60388060D01*
X50615501Y-60303952D01*
X50669502Y-60197969D01*
X50673188Y-60174696D01*
X50688109Y-60080490D01*
X50688109Y-60080483D01*
X50669503Y-59963009D01*
X50669503Y-59963008D01*
X50669502Y-59963006D01*
X50669502Y-59963005D01*
X50615501Y-59857022D01*
X50615499Y-59857020D01*
X50609762Y-59849123D01*
X50612628Y-59847040D01*
X50587693Y-59801375D01*
X50592677Y-59731683D01*
X50603154Y-59712166D01*
X50603142Y-59712160D01*
X50607571Y-59703466D01*
X50607573Y-59703465D01*
X50661574Y-59597482D01*
X50661575Y-59597477D01*
X50680181Y-59480003D01*
X50680181Y-59479996D01*
X50661575Y-59362522D01*
X50661575Y-59362521D01*
X50661574Y-59362519D01*
X50661574Y-59362518D01*
X50607573Y-59256535D01*
X50607571Y-59256533D01*
X50607568Y-59256529D01*
X50523470Y-59172431D01*
X50523466Y-59172428D01*
X50523465Y-59172427D01*
X50417482Y-59118426D01*
X50417480Y-59118425D01*
X50417477Y-59118424D01*
X50300003Y-59099819D01*
X50299997Y-59099819D01*
X50182522Y-59118424D01*
X50182521Y-59118424D01*
X50076533Y-59172428D01*
X50076529Y-59172431D01*
X49992431Y-59256529D01*
X49992428Y-59256533D01*
X49938424Y-59362521D01*
X49938424Y-59362522D01*
X49919819Y-59479996D01*
X49919819Y-59480003D01*
X49938424Y-59597477D01*
X49938424Y-59597478D01*
X49938425Y-59597481D01*
X49938426Y-59597482D01*
X49991416Y-59701481D01*
X49992428Y-59703466D01*
X49998166Y-59711364D01*
X49995299Y-59713446D01*
X50020234Y-59759111D01*
X50015250Y-59828803D01*
X50004773Y-59848322D01*
X50004785Y-59848328D01*
X49973112Y-59910488D01*
X49925137Y-59961284D01*
X49857316Y-59978078D01*
X49843232Y-59976666D01*
X49813480Y-59971954D01*
X49800000Y-59969819D01*
X49799999Y-59969819D01*
X49799997Y-59969819D01*
X49682522Y-59988424D01*
X49682521Y-59988424D01*
X49576533Y-60042428D01*
X49576529Y-60042431D01*
X49512181Y-60106780D01*
X49450858Y-60140265D01*
X49381166Y-60135281D01*
X49325233Y-60093409D01*
X49300816Y-60027945D01*
X49300500Y-60019099D01*
X49300500Y-57865152D01*
X49320185Y-57798113D01*
X49372989Y-57752358D01*
X49442147Y-57742414D01*
X49505703Y-57771439D01*
X49534982Y-57808854D01*
X49542427Y-57823465D01*
X49542428Y-57823466D01*
X49542431Y-57823470D01*
X49626529Y-57907568D01*
X49626533Y-57907571D01*
X49626535Y-57907573D01*
X49732518Y-57961574D01*
X49732520Y-57961574D01*
X49732522Y-57961575D01*
X49857796Y-57981416D01*
X49920931Y-58011345D01*
X49957863Y-58070656D01*
X49960873Y-58123285D01*
X49950399Y-58189421D01*
X49950399Y-58189423D01*
X49969004Y-58306897D01*
X49969004Y-58306898D01*
X49969005Y-58306901D01*
X49969006Y-58306902D01*
X50023005Y-58412882D01*
X50023008Y-58412886D01*
X50023011Y-58412890D01*
X50107109Y-58496988D01*
X50107113Y-58496991D01*
X50107115Y-58496993D01*
X50213098Y-58550994D01*
X50213100Y-58550994D01*
X50213102Y-58550995D01*
X50330577Y-58569601D01*
X50330580Y-58569601D01*
X50330583Y-58569601D01*
X50448057Y-58550995D01*
X50448058Y-58550995D01*
X50448059Y-58550994D01*
X50448062Y-58550994D01*
X50554045Y-58496993D01*
X50638153Y-58412885D01*
X50692154Y-58306902D01*
X50710761Y-58189420D01*
X50710761Y-58189416D01*
X50690628Y-58062299D01*
X50692902Y-58061938D01*
X50691286Y-58005595D01*
X50727359Y-57945757D01*
X50790056Y-57914922D01*
X50830611Y-57914630D01*
X50852615Y-57918115D01*
X50852616Y-57918114D01*
X50852617Y-57918115D01*
X50852618Y-57918115D01*
X50970092Y-57899509D01*
X50970093Y-57899509D01*
X50970094Y-57899508D01*
X50970097Y-57899508D01*
X51076080Y-57845507D01*
X51160188Y-57761399D01*
X51214189Y-57655416D01*
X51215047Y-57650000D01*
X51232796Y-57537937D01*
X51232796Y-57537930D01*
X51214190Y-57420456D01*
X51214190Y-57420455D01*
X51214189Y-57420453D01*
X51214189Y-57420452D01*
X51160188Y-57314469D01*
X51160186Y-57314467D01*
X51160183Y-57314463D01*
X51076085Y-57230365D01*
X51076081Y-57230362D01*
X51076080Y-57230361D01*
X50970097Y-57176360D01*
X50970095Y-57176359D01*
X50970092Y-57176358D01*
X50852618Y-57157753D01*
X50852612Y-57157753D01*
X50735137Y-57176358D01*
X50735136Y-57176358D01*
X50629148Y-57230362D01*
X50629144Y-57230365D01*
X50545046Y-57314463D01*
X50545043Y-57314467D01*
X50491039Y-57420455D01*
X50491039Y-57420456D01*
X50472434Y-57537930D01*
X50472434Y-57537937D01*
X50492567Y-57665055D01*
X50490293Y-57665415D01*
X50491905Y-57721771D01*
X50455825Y-57781604D01*
X50393125Y-57812433D01*
X50352578Y-57812723D01*
X50322780Y-57808003D01*
X50259646Y-57778073D01*
X50222716Y-57718761D01*
X50219707Y-57666132D01*
X50230181Y-57600002D01*
X50230181Y-57599996D01*
X50211575Y-57482522D01*
X50211575Y-57482521D01*
X50211574Y-57482519D01*
X50211574Y-57482518D01*
X50157573Y-57376535D01*
X50157571Y-57376533D01*
X50157568Y-57376529D01*
X50073470Y-57292431D01*
X50073466Y-57292428D01*
X50073465Y-57292427D01*
X49967482Y-57238426D01*
X49967480Y-57238425D01*
X49967477Y-57238424D01*
X49850003Y-57219819D01*
X49849997Y-57219819D01*
X49732522Y-57238424D01*
X49732521Y-57238424D01*
X49626533Y-57292428D01*
X49626529Y-57292431D01*
X49542431Y-57376529D01*
X49542429Y-57376533D01*
X49542427Y-57376535D01*
X49534983Y-57391143D01*
X49487010Y-57441938D01*
X49419189Y-57458733D01*
X49353054Y-57436196D01*
X49309603Y-57381480D01*
X49300500Y-57334847D01*
X49300500Y-56799996D01*
X56369819Y-56799996D01*
X56369819Y-56800003D01*
X56388424Y-56917477D01*
X56388424Y-56917478D01*
X56388425Y-56917481D01*
X56388426Y-56917482D01*
X56414689Y-56969027D01*
X56442428Y-57023466D01*
X56442431Y-57023470D01*
X56526529Y-57107568D01*
X56526533Y-57107571D01*
X56526535Y-57107573D01*
X56632518Y-57161574D01*
X56632520Y-57161574D01*
X56632522Y-57161575D01*
X56749997Y-57180181D01*
X56750000Y-57180181D01*
X56750003Y-57180181D01*
X56867477Y-57161575D01*
X56867478Y-57161575D01*
X56867479Y-57161574D01*
X56867482Y-57161574D01*
X56973465Y-57107573D01*
X57057573Y-57023465D01*
X57111574Y-56917482D01*
X57111575Y-56917477D01*
X57130181Y-56800003D01*
X57130181Y-56799996D01*
X57111575Y-56682522D01*
X57111575Y-56682521D01*
X57111574Y-56682519D01*
X57111574Y-56682518D01*
X57057573Y-56576535D01*
X57057571Y-56576533D01*
X57057568Y-56576529D01*
X56976058Y-56495019D01*
X57439498Y-56495019D01*
X57439498Y-56495026D01*
X57459342Y-56620323D01*
X57459342Y-56620324D01*
X57459344Y-56620327D01*
X57516940Y-56733365D01*
X57516942Y-56733367D01*
X57516944Y-56733370D01*
X57606642Y-56823068D01*
X57606644Y-56823069D01*
X57606648Y-56823073D01*
X57719686Y-56880669D01*
X57719687Y-56880669D01*
X57719689Y-56880670D01*
X57844987Y-56900515D01*
X57844990Y-56900515D01*
X57844993Y-56900515D01*
X57970290Y-56880670D01*
X57970291Y-56880670D01*
X57970292Y-56880669D01*
X57970294Y-56880669D01*
X58083332Y-56823073D01*
X58173040Y-56733365D01*
X58230636Y-56620327D01*
X58230636Y-56620325D01*
X58230637Y-56620324D01*
X58230637Y-56620323D01*
X58250482Y-56495026D01*
X58250482Y-56495019D01*
X58230637Y-56369722D01*
X58230637Y-56369721D01*
X58230636Y-56369719D01*
X58173040Y-56256681D01*
X58173036Y-56256677D01*
X58173035Y-56256675D01*
X58083337Y-56166977D01*
X58083334Y-56166975D01*
X58083332Y-56166973D01*
X57970294Y-56109377D01*
X57970293Y-56109376D01*
X57970290Y-56109375D01*
X57844993Y-56089531D01*
X57844987Y-56089531D01*
X57719689Y-56109375D01*
X57719688Y-56109375D01*
X57661104Y-56139226D01*
X57606648Y-56166973D01*
X57606647Y-56166974D01*
X57606642Y-56166977D01*
X57516944Y-56256675D01*
X57516941Y-56256680D01*
X57516940Y-56256681D01*
X57506053Y-56278048D01*
X57459342Y-56369721D01*
X57459342Y-56369722D01*
X57439498Y-56495019D01*
X56976058Y-56495019D01*
X56973470Y-56492431D01*
X56973466Y-56492428D01*
X56973465Y-56492427D01*
X56867482Y-56438426D01*
X56867480Y-56438425D01*
X56867477Y-56438424D01*
X56750003Y-56419819D01*
X56749997Y-56419819D01*
X56632522Y-56438424D01*
X56632521Y-56438424D01*
X56526533Y-56492428D01*
X56526529Y-56492431D01*
X56442431Y-56576529D01*
X56442428Y-56576533D01*
X56388424Y-56682521D01*
X56388424Y-56682522D01*
X56369819Y-56799996D01*
X49300500Y-56799996D01*
X49300500Y-56374015D01*
X51206062Y-56374015D01*
X51206062Y-56374022D01*
X51224667Y-56491496D01*
X51224667Y-56491497D01*
X51224668Y-56491500D01*
X51224669Y-56491501D01*
X51273388Y-56587118D01*
X51278671Y-56597485D01*
X51278674Y-56597489D01*
X51362772Y-56681587D01*
X51362776Y-56681590D01*
X51362778Y-56681592D01*
X51468761Y-56735593D01*
X51468763Y-56735593D01*
X51468765Y-56735594D01*
X51586240Y-56754200D01*
X51586243Y-56754200D01*
X51586246Y-56754200D01*
X51703720Y-56735594D01*
X51703721Y-56735594D01*
X51703722Y-56735593D01*
X51703725Y-56735593D01*
X51809708Y-56681592D01*
X51893816Y-56597484D01*
X51947817Y-56491501D01*
X51948304Y-56488426D01*
X51966424Y-56374022D01*
X51966424Y-56374015D01*
X51947818Y-56256541D01*
X51947818Y-56256540D01*
X51947817Y-56256538D01*
X51947817Y-56256537D01*
X51919008Y-56199996D01*
X52444508Y-56199996D01*
X52444508Y-56200003D01*
X52464352Y-56325300D01*
X52464352Y-56325301D01*
X52478136Y-56352353D01*
X52521950Y-56438342D01*
X52521952Y-56438344D01*
X52521954Y-56438347D01*
X52611652Y-56528045D01*
X52611654Y-56528046D01*
X52611658Y-56528050D01*
X52724696Y-56585646D01*
X52724697Y-56585646D01*
X52724699Y-56585647D01*
X52849997Y-56605492D01*
X52850000Y-56605492D01*
X52850003Y-56605492D01*
X52975300Y-56585647D01*
X52975301Y-56585647D01*
X52975302Y-56585646D01*
X52975304Y-56585646D01*
X53088342Y-56528050D01*
X53178050Y-56438342D01*
X53235646Y-56325304D01*
X53235646Y-56325302D01*
X53235647Y-56325301D01*
X53235647Y-56325300D01*
X53255492Y-56200003D01*
X53255492Y-56199996D01*
X53235647Y-56074699D01*
X53235647Y-56074698D01*
X53231442Y-56066446D01*
X53178050Y-55961658D01*
X53178046Y-55961654D01*
X53178045Y-55961652D01*
X53166389Y-55949996D01*
X54244508Y-55949996D01*
X54244508Y-55950003D01*
X54264352Y-56075300D01*
X54264352Y-56075301D01*
X54264354Y-56075304D01*
X54321950Y-56188342D01*
X54321952Y-56188344D01*
X54321954Y-56188347D01*
X54411652Y-56278045D01*
X54411654Y-56278046D01*
X54411658Y-56278050D01*
X54524696Y-56335646D01*
X54524697Y-56335646D01*
X54524699Y-56335647D01*
X54649997Y-56355492D01*
X54650000Y-56355492D01*
X54650003Y-56355492D01*
X54775300Y-56335647D01*
X54775301Y-56335647D01*
X54775302Y-56335646D01*
X54775304Y-56335646D01*
X54888342Y-56278050D01*
X54978050Y-56188342D01*
X55035646Y-56075304D01*
X55035646Y-56075302D01*
X55035647Y-56075301D01*
X55035647Y-56075300D01*
X55055492Y-55950003D01*
X55055492Y-55949996D01*
X55035647Y-55824699D01*
X55035647Y-55824698D01*
X55028960Y-55811574D01*
X54978050Y-55711658D01*
X54978046Y-55711654D01*
X54978045Y-55711652D01*
X54888347Y-55621954D01*
X54888344Y-55621952D01*
X54888342Y-55621950D01*
X54775304Y-55564354D01*
X54775303Y-55564353D01*
X54775300Y-55564352D01*
X54650003Y-55544508D01*
X54649997Y-55544508D01*
X54524699Y-55564352D01*
X54524698Y-55564352D01*
X54455442Y-55599641D01*
X54411658Y-55621950D01*
X54411657Y-55621951D01*
X54411652Y-55621954D01*
X54321954Y-55711652D01*
X54321951Y-55711657D01*
X54264352Y-55824698D01*
X54264352Y-55824699D01*
X54244508Y-55949996D01*
X53166389Y-55949996D01*
X53088347Y-55871954D01*
X53088344Y-55871952D01*
X53088342Y-55871950D01*
X52975304Y-55814354D01*
X52975303Y-55814353D01*
X52975300Y-55814352D01*
X52850003Y-55794508D01*
X52849997Y-55794508D01*
X52724699Y-55814352D01*
X52724698Y-55814352D01*
X52649337Y-55852751D01*
X52611658Y-55871950D01*
X52611657Y-55871951D01*
X52611652Y-55871954D01*
X52521954Y-55961652D01*
X52521951Y-55961657D01*
X52464352Y-56074698D01*
X52464352Y-56074699D01*
X52444508Y-56199996D01*
X51919008Y-56199996D01*
X51893816Y-56150554D01*
X51893814Y-56150552D01*
X51893811Y-56150548D01*
X51809713Y-56066450D01*
X51809709Y-56066447D01*
X51809708Y-56066446D01*
X51703725Y-56012445D01*
X51703723Y-56012444D01*
X51703720Y-56012443D01*
X51586246Y-55993838D01*
X51586240Y-55993838D01*
X51468765Y-56012443D01*
X51468764Y-56012443D01*
X51362776Y-56066447D01*
X51362772Y-56066450D01*
X51278674Y-56150548D01*
X51278671Y-56150552D01*
X51224667Y-56256540D01*
X51224667Y-56256541D01*
X51206062Y-56374015D01*
X49300500Y-56374015D01*
X49300500Y-55002424D01*
X49300596Y-54997556D01*
X49312563Y-54692978D01*
X49317878Y-54557693D01*
X49318641Y-54547995D01*
X49319300Y-54542427D01*
X49370100Y-54113215D01*
X49371619Y-54103627D01*
X49457032Y-53674230D01*
X49459294Y-53664810D01*
X49578132Y-53243438D01*
X49581127Y-53234219D01*
X49667536Y-52999998D01*
X51094645Y-52999998D01*
X51094645Y-53000001D01*
X51114039Y-53271160D01*
X51114040Y-53271167D01*
X51171823Y-53536793D01*
X51171825Y-53536801D01*
X51237012Y-53711574D01*
X51266830Y-53791519D01*
X51397109Y-54030107D01*
X51397110Y-54030108D01*
X51397113Y-54030113D01*
X51560029Y-54247742D01*
X51560033Y-54247746D01*
X51560038Y-54247752D01*
X51752247Y-54439961D01*
X51752253Y-54439966D01*
X51752258Y-54439971D01*
X51969887Y-54602887D01*
X51969891Y-54602889D01*
X51969892Y-54602890D01*
X52208481Y-54733169D01*
X52208480Y-54733169D01*
X52208484Y-54733170D01*
X52208487Y-54733172D01*
X52463199Y-54828175D01*
X52728840Y-54885961D01*
X52973589Y-54903466D01*
X52999999Y-54905355D01*
X53000000Y-54905355D01*
X53000001Y-54905355D01*
X53026411Y-54903466D01*
X53271160Y-54885961D01*
X53536801Y-54828175D01*
X53791513Y-54733172D01*
X53791517Y-54733169D01*
X53791519Y-54733169D01*
X53910813Y-54668029D01*
X54030113Y-54602887D01*
X54247742Y-54439971D01*
X54439971Y-54247742D01*
X54602887Y-54030113D01*
X54690414Y-53869819D01*
X54733169Y-53791519D01*
X54733169Y-53791517D01*
X54733172Y-53791513D01*
X54828175Y-53536801D01*
X54868811Y-53349996D01*
X60669819Y-53349996D01*
X60669819Y-53350003D01*
X60688424Y-53467477D01*
X60688424Y-53467478D01*
X60742428Y-53573466D01*
X60742431Y-53573470D01*
X60826529Y-53657568D01*
X60826533Y-53657571D01*
X60826535Y-53657573D01*
X60932518Y-53711574D01*
X60932520Y-53711574D01*
X60932522Y-53711575D01*
X61058927Y-53731595D01*
X61122062Y-53761524D01*
X61158994Y-53820835D01*
X61157996Y-53890697D01*
X61127212Y-53941749D01*
X61042428Y-54026533D01*
X60988424Y-54132521D01*
X60988424Y-54132522D01*
X60969819Y-54249996D01*
X60969819Y-54250003D01*
X60988424Y-54367477D01*
X60988424Y-54367478D01*
X60988425Y-54367481D01*
X60988426Y-54367482D01*
X61041119Y-54470898D01*
X61042428Y-54473466D01*
X61042431Y-54473470D01*
X61126529Y-54557568D01*
X61126533Y-54557571D01*
X61126535Y-54557573D01*
X61232518Y-54611574D01*
X61232520Y-54611574D01*
X61232522Y-54611575D01*
X61349997Y-54630181D01*
X61350000Y-54630181D01*
X61350003Y-54630181D01*
X61467477Y-54611575D01*
X61467478Y-54611575D01*
X61467479Y-54611574D01*
X61467482Y-54611574D01*
X61573465Y-54557573D01*
X61657573Y-54473465D01*
X61711574Y-54367482D01*
X61712496Y-54361659D01*
X61730181Y-54250003D01*
X61730181Y-54249996D01*
X61711575Y-54132522D01*
X61711575Y-54132521D01*
X61711574Y-54132519D01*
X61711574Y-54132518D01*
X61657573Y-54026535D01*
X61657571Y-54026533D01*
X61657568Y-54026529D01*
X61573470Y-53942431D01*
X61573466Y-53942428D01*
X61573465Y-53942427D01*
X61467482Y-53888426D01*
X61467481Y-53888425D01*
X61467478Y-53888424D01*
X61341071Y-53868404D01*
X61277936Y-53838475D01*
X61241005Y-53779163D01*
X61242003Y-53709301D01*
X61272788Y-53658249D01*
X61273462Y-53657574D01*
X61273465Y-53657573D01*
X61357573Y-53573465D01*
X61411574Y-53467482D01*
X61426270Y-53374696D01*
X61430181Y-53350003D01*
X61430181Y-53349996D01*
X61411575Y-53232522D01*
X61411574Y-53232520D01*
X61411574Y-53232518D01*
X61400261Y-53210315D01*
X61387366Y-53141650D01*
X61413642Y-53076910D01*
X61470748Y-53036652D01*
X61491350Y-53031551D01*
X61617477Y-53011575D01*
X61617478Y-53011575D01*
X61617479Y-53011574D01*
X61617482Y-53011574D01*
X61723465Y-52957573D01*
X61807573Y-52873465D01*
X61861574Y-52767482D01*
X61867694Y-52728840D01*
X61880181Y-52650003D01*
X61880181Y-52649996D01*
X61861575Y-52532522D01*
X61861575Y-52532521D01*
X61861574Y-52532519D01*
X61861574Y-52532518D01*
X61807573Y-52426535D01*
X61807571Y-52426533D01*
X61807568Y-52426529D01*
X61723470Y-52342431D01*
X61723466Y-52342428D01*
X61723465Y-52342427D01*
X61617482Y-52288426D01*
X61617480Y-52288425D01*
X61617477Y-52288424D01*
X61500003Y-52269819D01*
X61499997Y-52269819D01*
X61382522Y-52288424D01*
X61382521Y-52288424D01*
X61276533Y-52342428D01*
X61276529Y-52342431D01*
X61192431Y-52426529D01*
X61192428Y-52426533D01*
X61138424Y-52532521D01*
X61138424Y-52532522D01*
X61119819Y-52649996D01*
X61119819Y-52650003D01*
X61138424Y-52767477D01*
X61138425Y-52767481D01*
X61149737Y-52789681D01*
X61162633Y-52858350D01*
X61136356Y-52923090D01*
X61079249Y-52963347D01*
X61058650Y-52968448D01*
X60932521Y-52988424D01*
X60826533Y-53042428D01*
X60826529Y-53042431D01*
X60742431Y-53126529D01*
X60742428Y-53126533D01*
X60688424Y-53232521D01*
X60688424Y-53232522D01*
X60669819Y-53349996D01*
X54868811Y-53349996D01*
X54885961Y-53271160D01*
X54905355Y-53000000D01*
X54885961Y-52728840D01*
X54828175Y-52463199D01*
X54733172Y-52208487D01*
X54733170Y-52208484D01*
X54733169Y-52208480D01*
X54602890Y-51969892D01*
X54602889Y-51969891D01*
X54602887Y-51969887D01*
X54439971Y-51752258D01*
X54439966Y-51752253D01*
X54439961Y-51752247D01*
X54247752Y-51560038D01*
X54247746Y-51560033D01*
X54247742Y-51560029D01*
X54030113Y-51397113D01*
X54030108Y-51397110D01*
X54030107Y-51397109D01*
X53791518Y-51266830D01*
X53791519Y-51266830D01*
X53741920Y-51248330D01*
X53536801Y-51171825D01*
X53536794Y-51171823D01*
X53536793Y-51171823D01*
X53271167Y-51114040D01*
X53271160Y-51114039D01*
X53000001Y-51094645D01*
X52999999Y-51094645D01*
X52728839Y-51114039D01*
X52728832Y-51114040D01*
X52463206Y-51171823D01*
X52463202Y-51171824D01*
X52463199Y-51171825D01*
X52335843Y-51219326D01*
X52208480Y-51266830D01*
X51969892Y-51397109D01*
X51969891Y-51397110D01*
X51752259Y-51560028D01*
X51752247Y-51560038D01*
X51560038Y-51752247D01*
X51560028Y-51752259D01*
X51397110Y-51969891D01*
X51397109Y-51969892D01*
X51266830Y-52208480D01*
X51226177Y-52317477D01*
X51171825Y-52463199D01*
X51171824Y-52463202D01*
X51171823Y-52463206D01*
X51114040Y-52728832D01*
X51114039Y-52728839D01*
X51094645Y-52999998D01*
X49667536Y-52999998D01*
X49732666Y-52823456D01*
X49736389Y-52814471D01*
X49789159Y-52700003D01*
X49919673Y-52416894D01*
X49924088Y-52408231D01*
X49926360Y-52404175D01*
X49956916Y-52349613D01*
X50138000Y-52026265D01*
X50143087Y-52017963D01*
X50155092Y-51999996D01*
X50386311Y-51653953D01*
X50392012Y-51646106D01*
X50663066Y-51302275D01*
X50669357Y-51294909D01*
X50966556Y-50973402D01*
X50973402Y-50966556D01*
X51294909Y-50669357D01*
X51302275Y-50663066D01*
X51646106Y-50392012D01*
X51653953Y-50386311D01*
X52017965Y-50143085D01*
X52026265Y-50138000D01*
X52272688Y-49999996D01*
X59269819Y-49999996D01*
X59269819Y-50000003D01*
X59288424Y-50117477D01*
X59288424Y-50117478D01*
X59288425Y-50117481D01*
X59288426Y-50117482D01*
X59341200Y-50221057D01*
X59342428Y-50223466D01*
X59342431Y-50223470D01*
X59426529Y-50307568D01*
X59426533Y-50307571D01*
X59426535Y-50307573D01*
X59532518Y-50361574D01*
X59532520Y-50361574D01*
X59532522Y-50361575D01*
X59649997Y-50380181D01*
X59650000Y-50380181D01*
X59650003Y-50380181D01*
X59767477Y-50361575D01*
X59767478Y-50361575D01*
X59767479Y-50361574D01*
X59767482Y-50361574D01*
X59873465Y-50307573D01*
X59957573Y-50223465D01*
X60011574Y-50117482D01*
X60015527Y-50092522D01*
X60030181Y-50000003D01*
X60030181Y-49999996D01*
X60011575Y-49882522D01*
X60011575Y-49882521D01*
X60011574Y-49882519D01*
X60011574Y-49882518D01*
X59957573Y-49776535D01*
X59957571Y-49776533D01*
X59957568Y-49776529D01*
X59873470Y-49692431D01*
X59873466Y-49692428D01*
X59873465Y-49692427D01*
X59767482Y-49638426D01*
X59767480Y-49638425D01*
X59767477Y-49638424D01*
X59650003Y-49619819D01*
X59649997Y-49619819D01*
X59532522Y-49638424D01*
X59532521Y-49638424D01*
X59426533Y-49692428D01*
X59426529Y-49692431D01*
X59342431Y-49776529D01*
X59342428Y-49776533D01*
X59288424Y-49882521D01*
X59288424Y-49882522D01*
X59269819Y-49999996D01*
X52272688Y-49999996D01*
X52408231Y-49924088D01*
X52416894Y-49919673D01*
X52814471Y-49736389D01*
X52823456Y-49732666D01*
X53234219Y-49581127D01*
X53243438Y-49578132D01*
X53664810Y-49459294D01*
X53674230Y-49457032D01*
X54103627Y-49371619D01*
X54113215Y-49370100D01*
X54548002Y-49318640D01*
X54557693Y-49317878D01*
X54997557Y-49300596D01*
X55002425Y-49300500D01*
X55047595Y-49300500D01*
X63449036Y-49300500D01*
X63516075Y-49320185D01*
G37*
%TD.AperFunction*%
%TD*%
M02*
