%TF.GenerationSoftware,KiCad,Pcbnew,8.0.3-8.0.3-0~ubuntu24.04.1*%
%TF.CreationDate,2024-07-13T12:59:08+02:00*%
%TF.ProjectId,erace-rx-v2,65726163-652d-4727-982d-76322e6b6963,rev?*%
%TF.SameCoordinates,Original*%
%TF.FileFunction,Copper,L3,Inr*%
%TF.FilePolarity,Positive*%
%FSLAX46Y46*%
G04 Gerber Fmt 4.6, Leading zero omitted, Abs format (unit mm)*
G04 Created by KiCad (PCBNEW 8.0.3-8.0.3-0~ubuntu24.04.1) date 2024-07-13 12:59:08*
%MOMM*%
%LPD*%
G01*
G04 APERTURE LIST*
%TA.AperFunction,ComponentPad*%
%ADD10O,1.000000X2.100000*%
%TD*%
%TA.AperFunction,ComponentPad*%
%ADD11O,1.000000X1.800000*%
%TD*%
%TA.AperFunction,ViaPad*%
%ADD12C,0.450000*%
%TD*%
%TA.AperFunction,ViaPad*%
%ADD13C,0.500000*%
%TD*%
%TA.AperFunction,Conductor*%
%ADD14C,0.090000*%
%TD*%
G04 APERTURE END LIST*
D10*
%TO.N,GND*%
%TO.C,J2*%
X60450000Y-70040000D03*
D11*
X60450000Y-74190000D03*
D10*
X69090000Y-70040000D03*
D11*
X69090000Y-74190000D03*
%TD*%
D12*
%TO.N,GND*%
X49650000Y-66400000D03*
X49600000Y-64650000D03*
X50200000Y-64700000D03*
X69900000Y-50950000D03*
D13*
X64700000Y-53500000D03*
X66700000Y-52700000D03*
D12*
X59650000Y-50000000D03*
D13*
X70050000Y-54350000D03*
X53900000Y-64350000D03*
X54650000Y-55950000D03*
D12*
X63200000Y-50600000D03*
D13*
X53200000Y-62000000D03*
X66000000Y-52000000D03*
X62000000Y-65800000D03*
X63730002Y-49870000D03*
X63200000Y-67100000D03*
X66000000Y-53399994D03*
X49650010Y-61170000D03*
D12*
X75350000Y-63200000D03*
D13*
X57844990Y-56495023D03*
X60800000Y-65800000D03*
X53900000Y-59600000D03*
X58750000Y-62750000D03*
X64600000Y-52099984D03*
X52000000Y-61400000D03*
X56500000Y-65100000D03*
X59650000Y-60300000D03*
X69600000Y-61350000D03*
X54600000Y-60199998D03*
X62400000Y-67100000D03*
X73100000Y-66900000D03*
X59800000Y-67100000D03*
D12*
X56900000Y-73250000D03*
D13*
X54800000Y-61400000D03*
X54900000Y-67100000D03*
X56250000Y-69350000D03*
X53000000Y-59600000D03*
X61600000Y-67100000D03*
X61400000Y-65200000D03*
X52850000Y-56200000D03*
D12*
%TO.N,/IO9*%
X56750000Y-56800000D03*
X60900000Y-60600000D03*
D13*
%TO.N,Net-(Q1-D)*%
X58000000Y-70650000D03*
D12*
%TO.N,Net-(C7-Pad1)*%
X60050000Y-57650000D03*
X50000000Y-57600000D03*
%TO.N,Net-(U1-XTAL_N)*%
X57850000Y-59350000D03*
X49800000Y-60350000D03*
D13*
%TO.N,+3V3*%
X62000000Y-63200000D03*
X63400000Y-60000000D03*
X63400000Y-61200000D03*
X63800000Y-65000000D03*
X64600000Y-61200000D03*
X68250000Y-71160000D03*
X66400000Y-61800000D03*
X64600000Y-60000000D03*
X51200000Y-62600000D03*
X64400000Y-65600000D03*
X62200000Y-61200000D03*
X62600000Y-63800000D03*
X65200000Y-61800000D03*
X69300000Y-53000000D03*
D12*
X63100000Y-49800000D03*
D13*
X70720000Y-75160000D03*
X64400000Y-63200000D03*
X63200000Y-64400000D03*
X71250000Y-69430000D03*
X63200000Y-63200000D03*
D12*
X53911112Y-65072230D03*
X56699980Y-61250000D03*
D13*
X67000000Y-62400000D03*
X64000000Y-61800000D03*
X56050000Y-57850000D03*
X66400000Y-60600000D03*
X65000000Y-65000000D03*
X62800000Y-60600000D03*
X65609727Y-50228174D03*
D12*
X54900002Y-64600000D03*
D13*
X66600000Y-63100000D03*
X67000000Y-61200000D03*
X65000000Y-63800000D03*
X64400000Y-64400000D03*
X63800000Y-63800000D03*
X65900000Y-62400000D03*
X49650000Y-62550000D03*
X72100000Y-56250000D03*
X65800000Y-61200000D03*
X62800000Y-61800000D03*
X65800000Y-66200000D03*
X65200000Y-60600000D03*
X65800000Y-60000000D03*
X65600000Y-64400000D03*
X64000000Y-60600000D03*
X61600000Y-61800000D03*
X66400000Y-65600000D03*
X65000002Y-66950000D03*
%TO.N,Net-(Q2-D)*%
X56850000Y-68050000D03*
D12*
%TO.N,Net-(RF1-DCC_FB)*%
X68720000Y-50390000D03*
X64300000Y-55800000D03*
%TO.N,VCC*%
X51900000Y-55650000D03*
X69350000Y-66700000D03*
%TO.N,/IO3*%
X56050000Y-62850000D03*
X57900000Y-69300000D03*
X70700000Y-62350000D03*
%TO.N,/IO2*%
X56350000Y-63850000D03*
X51586243Y-56374019D03*
%TO.N,/IO0*%
X67500000Y-54700000D03*
X53870000Y-65903824D03*
%TO.N,/SS*%
X56580000Y-62490000D03*
X63200000Y-51350000D03*
%TO.N,/IO1*%
X69600000Y-53800000D03*
X53850000Y-63550000D03*
%TO.N,/MISO*%
X56600000Y-61900000D03*
X65010000Y-50210000D03*
%TO.N,/MOSI*%
X63950000Y-50574997D03*
X57340002Y-60490000D03*
%TO.N,/SCK*%
X56637970Y-60624749D03*
X63950000Y-51150000D03*
D13*
%TO.N,Net-(P3-Pad1)*%
X73650000Y-59600000D03*
%TO.N,Net-(P4-Pad1)*%
X73450000Y-63400000D03*
D12*
%TO.N,/IO20*%
X50300000Y-59480000D03*
X68000000Y-64700000D03*
X53700000Y-67300000D03*
%TO.N,/IO21*%
X68500000Y-63200000D03*
X50307928Y-60080487D03*
X52800000Y-66300000D03*
%TO.N,/CH_4*%
X68200000Y-61950000D03*
X56850000Y-66250000D03*
%TO.N,/USBD-*%
X57950000Y-76000000D03*
X50852615Y-57537934D03*
X64000000Y-70300000D03*
%TO.N,/USBD+*%
X50330580Y-58189420D03*
X64575003Y-70300000D03*
X57567763Y-75499031D03*
%TD*%
D14*
%TO.N,/IO21*%
X50307928Y-60080487D02*
X50307928Y-63207928D01*
X50307928Y-63207928D02*
X52800000Y-65700000D01*
X52800000Y-65700000D02*
X52800000Y-66300000D01*
%TO.N,/IO9*%
X57500000Y-56800000D02*
X56750000Y-56800000D01*
X60900000Y-60200000D02*
X57500000Y-56800000D01*
X60900000Y-60600000D02*
X60900000Y-60200000D01*
%TO.N,VCC*%
X51900000Y-55650000D02*
X53150000Y-55650000D01*
X65150000Y-62500000D02*
X69350000Y-66700000D01*
X60000000Y-62500000D02*
X62100000Y-62500000D01*
X62100000Y-62500000D02*
X65150000Y-62500000D01*
X53150000Y-55650000D02*
X60000000Y-62500000D01*
%TO.N,/IO3*%
X56050000Y-62850000D02*
X57900000Y-64700000D01*
X57900000Y-64700000D02*
X57900000Y-69300000D01*
%TO.N,/IO2*%
X56350000Y-63850000D02*
X55655000Y-63155000D01*
X55655000Y-63155000D02*
X55655000Y-60442776D01*
X55655000Y-60442776D02*
X51586243Y-56374019D01*
%TO.N,/USBD-*%
X57962763Y-75987237D02*
X57962763Y-72043524D01*
X55475000Y-63079283D02*
X50852615Y-58456898D01*
X55475000Y-69555761D02*
X55475000Y-63079283D01*
X57962763Y-72043524D02*
X55475000Y-69555761D01*
X50852615Y-58456898D02*
X50852615Y-57537934D01*
X57950000Y-76000000D02*
X57962763Y-75987237D01*
%TO.N,/USBD+*%
X57567763Y-71903082D02*
X57567763Y-75499031D01*
X55295001Y-69481202D02*
X55295000Y-69630319D01*
X55295000Y-69630319D02*
X57567763Y-71903082D01*
X55295001Y-63153842D02*
X55295000Y-63162731D01*
X50330580Y-58189421D02*
X55295001Y-63153842D01*
X55295000Y-63162731D02*
X55295001Y-69481202D01*
X50330580Y-58189420D02*
X50330580Y-58189421D01*
%TO.N,/IO20*%
X53700000Y-66292439D02*
X53700000Y-67300000D01*
X50702928Y-59882928D02*
X50702928Y-63295367D01*
X50702928Y-63295367D02*
X53700000Y-66292439D01*
X50300000Y-59480000D02*
X50702928Y-59882928D01*
%TD*%
%TA.AperFunction,Conductor*%
%TO.N,+3V3*%
G36*
X63516075Y-49320185D02*
G01*
X63561830Y-49372989D01*
X63571774Y-49442147D01*
X63542749Y-49505703D01*
X63505333Y-49534982D01*
X63491994Y-49541779D01*
X63491658Y-49541951D01*
X63491654Y-49541954D01*
X63401956Y-49631652D01*
X63401953Y-49631657D01*
X63344354Y-49744698D01*
X63344354Y-49744699D01*
X63324510Y-49869996D01*
X63324510Y-49870003D01*
X63344354Y-49995300D01*
X63344356Y-49995306D01*
X63370981Y-50047559D01*
X63383878Y-50116228D01*
X63357602Y-50180968D01*
X63300496Y-50221226D01*
X63241102Y-50226328D01*
X63200000Y-50219819D01*
X63199997Y-50219819D01*
X63082522Y-50238424D01*
X63082521Y-50238424D01*
X62976533Y-50292428D01*
X62976529Y-50292431D01*
X62892431Y-50376529D01*
X62892428Y-50376533D01*
X62892427Y-50376535D01*
X62838426Y-50482518D01*
X62838425Y-50482519D01*
X62838425Y-50482521D01*
X62819819Y-50599996D01*
X62819819Y-50600003D01*
X62838424Y-50717477D01*
X62838424Y-50717478D01*
X62838425Y-50717481D01*
X62838426Y-50717482D01*
X62879687Y-50798462D01*
X62892428Y-50823466D01*
X62892431Y-50823470D01*
X62956280Y-50887319D01*
X62989765Y-50948642D01*
X62984781Y-51018334D01*
X62956280Y-51062681D01*
X62892431Y-51126529D01*
X62892428Y-51126533D01*
X62838424Y-51232521D01*
X62838424Y-51232522D01*
X62819819Y-51349996D01*
X62819819Y-51350003D01*
X62838424Y-51467477D01*
X62838424Y-51467478D01*
X62838425Y-51467481D01*
X62838426Y-51467482D01*
X62860892Y-51511575D01*
X62892428Y-51573466D01*
X62892431Y-51573470D01*
X62976529Y-51657568D01*
X62976533Y-51657571D01*
X62976535Y-51657573D01*
X63082518Y-51711574D01*
X63082520Y-51711574D01*
X63082522Y-51711575D01*
X63199997Y-51730181D01*
X63200000Y-51730181D01*
X63200003Y-51730181D01*
X63317477Y-51711575D01*
X63317478Y-51711575D01*
X63317479Y-51711574D01*
X63317482Y-51711574D01*
X63423465Y-51657573D01*
X63507573Y-51573465D01*
X63543914Y-51502140D01*
X63591886Y-51451345D01*
X63659707Y-51434549D01*
X63717311Y-51454178D01*
X63717840Y-51453142D01*
X63725046Y-51456814D01*
X63725842Y-51457085D01*
X63726492Y-51457550D01*
X63726532Y-51457570D01*
X63726535Y-51457573D01*
X63832518Y-51511574D01*
X63832520Y-51511574D01*
X63832522Y-51511575D01*
X63949997Y-51530181D01*
X63950000Y-51530181D01*
X63950003Y-51530181D01*
X64067477Y-51511575D01*
X64067478Y-51511575D01*
X64067479Y-51511574D01*
X64067482Y-51511574D01*
X64173465Y-51457573D01*
X64257573Y-51373465D01*
X64311574Y-51267482D01*
X64311575Y-51267477D01*
X64330181Y-51150003D01*
X64330181Y-51149996D01*
X64311575Y-51032522D01*
X64311575Y-51032521D01*
X64311574Y-51032519D01*
X64311574Y-51032518D01*
X64269527Y-50949996D01*
X69519819Y-50949996D01*
X69519819Y-50950003D01*
X69538424Y-51067477D01*
X69538424Y-51067478D01*
X69538425Y-51067481D01*
X69538426Y-51067482D01*
X69567085Y-51123729D01*
X69592428Y-51173466D01*
X69592431Y-51173470D01*
X69676529Y-51257568D01*
X69676533Y-51257571D01*
X69676535Y-51257573D01*
X69782518Y-51311574D01*
X69782520Y-51311574D01*
X69782522Y-51311575D01*
X69899997Y-51330181D01*
X69900000Y-51330181D01*
X69900003Y-51330181D01*
X70017477Y-51311575D01*
X70017478Y-51311575D01*
X70017479Y-51311574D01*
X70017482Y-51311574D01*
X70123465Y-51257573D01*
X70207573Y-51173465D01*
X70261574Y-51067482D01*
X70262059Y-51064422D01*
X70280181Y-50950003D01*
X70280181Y-50949996D01*
X70261575Y-50832522D01*
X70261575Y-50832521D01*
X70261574Y-50832519D01*
X70261574Y-50832518D01*
X70207573Y-50726535D01*
X70207571Y-50726533D01*
X70207568Y-50726529D01*
X70123470Y-50642431D01*
X70123466Y-50642428D01*
X70123465Y-50642427D01*
X70017482Y-50588426D01*
X70017480Y-50588425D01*
X70017477Y-50588424D01*
X69900003Y-50569819D01*
X69899997Y-50569819D01*
X69782522Y-50588424D01*
X69782521Y-50588424D01*
X69676533Y-50642428D01*
X69676529Y-50642431D01*
X69592431Y-50726529D01*
X69592428Y-50726533D01*
X69538424Y-50832521D01*
X69538424Y-50832522D01*
X69519819Y-50949996D01*
X64269527Y-50949996D01*
X64257573Y-50926535D01*
X64257570Y-50926532D01*
X64253627Y-50918793D01*
X64240731Y-50850124D01*
X64253628Y-50806203D01*
X64257571Y-50798463D01*
X64257573Y-50798462D01*
X64311574Y-50692479D01*
X64311575Y-50692474D01*
X64330181Y-50575000D01*
X64330181Y-50574993D01*
X64311575Y-50457519D01*
X64311575Y-50457518D01*
X64311574Y-50457516D01*
X64311574Y-50457515D01*
X64257573Y-50351532D01*
X64257571Y-50351530D01*
X64257568Y-50351526D01*
X64173470Y-50267428D01*
X64173467Y-50267426D01*
X64173465Y-50267424D01*
X64127972Y-50244244D01*
X64091710Y-50209996D01*
X64629819Y-50209996D01*
X64629819Y-50210003D01*
X64648424Y-50327477D01*
X64648424Y-50327478D01*
X64648425Y-50327481D01*
X64648426Y-50327482D01*
X64680280Y-50390000D01*
X64702428Y-50433466D01*
X64702431Y-50433470D01*
X64786529Y-50517568D01*
X64786533Y-50517571D01*
X64786535Y-50517573D01*
X64892518Y-50571574D01*
X64892520Y-50571574D01*
X64892522Y-50571575D01*
X65009997Y-50590181D01*
X65010000Y-50590181D01*
X65010003Y-50590181D01*
X65127477Y-50571575D01*
X65127478Y-50571575D01*
X65127479Y-50571574D01*
X65127482Y-50571574D01*
X65233465Y-50517573D01*
X65317573Y-50433465D01*
X65339722Y-50389996D01*
X68339819Y-50389996D01*
X68339819Y-50390003D01*
X68358424Y-50507477D01*
X68358424Y-50507478D01*
X68358425Y-50507481D01*
X68358426Y-50507482D01*
X68405566Y-50600000D01*
X68412428Y-50613466D01*
X68412431Y-50613470D01*
X68496529Y-50697568D01*
X68496533Y-50697571D01*
X68496535Y-50697573D01*
X68602518Y-50751574D01*
X68602520Y-50751574D01*
X68602522Y-50751575D01*
X68719997Y-50770181D01*
X68720000Y-50770181D01*
X68720003Y-50770181D01*
X68837477Y-50751575D01*
X68837478Y-50751575D01*
X68837479Y-50751574D01*
X68837482Y-50751574D01*
X68943465Y-50697573D01*
X69027573Y-50613465D01*
X69081574Y-50507482D01*
X69081575Y-50507477D01*
X69100181Y-50390003D01*
X69100181Y-50389996D01*
X69081575Y-50272522D01*
X69081575Y-50272521D01*
X69081574Y-50272519D01*
X69081574Y-50272518D01*
X69027573Y-50166535D01*
X69027571Y-50166533D01*
X69027568Y-50166529D01*
X68943470Y-50082431D01*
X68943466Y-50082428D01*
X68943465Y-50082427D01*
X68837482Y-50028426D01*
X68837480Y-50028425D01*
X68837477Y-50028424D01*
X68720003Y-50009819D01*
X68719997Y-50009819D01*
X68602522Y-50028424D01*
X68602521Y-50028424D01*
X68496533Y-50082428D01*
X68496529Y-50082431D01*
X68412431Y-50166529D01*
X68412428Y-50166533D01*
X68358424Y-50272521D01*
X68358424Y-50272522D01*
X68339819Y-50389996D01*
X65339722Y-50389996D01*
X65371574Y-50327482D01*
X65374728Y-50307568D01*
X65390181Y-50210003D01*
X65390181Y-50209996D01*
X65371575Y-50092522D01*
X65371575Y-50092521D01*
X65371574Y-50092519D01*
X65371574Y-50092518D01*
X65317573Y-49986535D01*
X65317571Y-49986533D01*
X65317568Y-49986529D01*
X65233470Y-49902431D01*
X65233466Y-49902428D01*
X65233465Y-49902427D01*
X65127482Y-49848426D01*
X65127480Y-49848425D01*
X65127477Y-49848424D01*
X65010003Y-49829819D01*
X65009997Y-49829819D01*
X64892522Y-49848424D01*
X64892521Y-49848424D01*
X64786533Y-49902428D01*
X64786529Y-49902431D01*
X64702431Y-49986529D01*
X64702428Y-49986533D01*
X64648424Y-50092521D01*
X64648424Y-50092522D01*
X64629819Y-50209996D01*
X64091710Y-50209996D01*
X64077177Y-50196270D01*
X64060382Y-50128449D01*
X64073782Y-50077468D01*
X64115648Y-49995304D01*
X64117037Y-49986535D01*
X64135494Y-49870003D01*
X64135494Y-49869996D01*
X64115649Y-49744699D01*
X64115649Y-49744698D01*
X64109517Y-49732663D01*
X64058052Y-49631658D01*
X64058048Y-49631654D01*
X64058047Y-49631652D01*
X63968349Y-49541954D01*
X63968345Y-49541951D01*
X63968344Y-49541950D01*
X63954671Y-49534983D01*
X63903877Y-49487011D01*
X63887082Y-49419190D01*
X63909619Y-49353055D01*
X63964334Y-49309603D01*
X64010968Y-49300500D01*
X70952405Y-49300500D01*
X70997575Y-49300500D01*
X71002443Y-49300596D01*
X71442304Y-49317878D01*
X71451999Y-49318640D01*
X71886780Y-49370099D01*
X71896376Y-49371620D01*
X72325764Y-49457031D01*
X72335195Y-49459295D01*
X72756553Y-49578130D01*
X72765787Y-49581130D01*
X72983588Y-49661481D01*
X73176534Y-49732663D01*
X73185528Y-49736389D01*
X73583092Y-49919667D01*
X73591768Y-49924088D01*
X73973734Y-50138000D01*
X73982036Y-50143087D01*
X74175749Y-50272522D01*
X74293995Y-50351532D01*
X74346031Y-50386301D01*
X74353905Y-50392022D01*
X74697711Y-50663056D01*
X74705102Y-50669369D01*
X75026583Y-50966543D01*
X75033456Y-50973416D01*
X75305288Y-51267482D01*
X75330625Y-51294891D01*
X75336945Y-51302291D01*
X75393055Y-51373466D01*
X75607975Y-51646091D01*
X75613698Y-51653968D01*
X75856912Y-52017963D01*
X75861999Y-52026265D01*
X76075911Y-52408231D01*
X76080332Y-52416907D01*
X76263610Y-52814471D01*
X76267336Y-52823465D01*
X76418865Y-53234199D01*
X76421873Y-53243460D01*
X76540699Y-53664787D01*
X76542972Y-53674254D01*
X76628377Y-54103613D01*
X76629901Y-54113230D01*
X76681358Y-54547995D01*
X76682121Y-54557700D01*
X76699404Y-54997555D01*
X76699500Y-55002424D01*
X76699500Y-70997575D01*
X76699404Y-71002444D01*
X76682121Y-71442299D01*
X76681358Y-71452004D01*
X76629901Y-71886769D01*
X76628377Y-71896386D01*
X76542972Y-72325745D01*
X76540699Y-72335212D01*
X76421873Y-72756539D01*
X76418865Y-72765800D01*
X76267336Y-73176534D01*
X76263610Y-73185528D01*
X76080332Y-73583092D01*
X76075911Y-73591768D01*
X75861999Y-73973734D01*
X75856912Y-73982036D01*
X75613698Y-74346031D01*
X75607975Y-74353908D01*
X75336948Y-74697705D01*
X75330625Y-74705108D01*
X75033462Y-75026577D01*
X75026577Y-75033462D01*
X74705108Y-75330625D01*
X74697705Y-75336948D01*
X74353908Y-75607975D01*
X74346031Y-75613698D01*
X73982036Y-75856912D01*
X73973734Y-75861999D01*
X73591768Y-76075911D01*
X73583092Y-76080332D01*
X73185528Y-76263610D01*
X73176534Y-76267336D01*
X72765800Y-76418865D01*
X72756539Y-76421873D01*
X72335212Y-76540699D01*
X72325745Y-76542972D01*
X71896386Y-76628377D01*
X71886769Y-76629901D01*
X71452004Y-76681358D01*
X71442299Y-76682121D01*
X71030872Y-76698287D01*
X71002442Y-76699404D01*
X70997575Y-76699500D01*
X55002426Y-76699500D01*
X54997557Y-76699404D01*
X54969131Y-76698287D01*
X54902916Y-76675986D01*
X54859270Y-76621426D01*
X54850000Y-76574383D01*
X54850000Y-73643730D01*
X54857818Y-73600397D01*
X54858230Y-73599292D01*
X54876271Y-73550923D01*
X54934179Y-73284724D01*
X54935577Y-73278299D01*
X54935577Y-73278298D01*
X54935578Y-73278294D01*
X54955482Y-73000000D01*
X54935578Y-72721706D01*
X54876271Y-72449077D01*
X54857818Y-72399601D01*
X54850000Y-72356268D01*
X54850000Y-67690849D01*
X54827522Y-67649684D01*
X54832506Y-67579992D01*
X54874378Y-67524059D01*
X54929286Y-67500853D01*
X54956102Y-67496606D01*
X55025394Y-67505560D01*
X55078847Y-67550555D01*
X55099487Y-67617307D01*
X55099500Y-67619079D01*
X55099501Y-68839500D01*
X55099501Y-69442314D01*
X55099500Y-69591431D01*
X55099500Y-69591432D01*
X55099500Y-69669206D01*
X55103163Y-69678050D01*
X55104044Y-69680175D01*
X55104045Y-69680180D01*
X55104046Y-69680180D01*
X55104046Y-69680181D01*
X55129262Y-69741060D01*
X55129263Y-69741061D01*
X55129264Y-69741062D01*
X57335944Y-71947741D01*
X57369429Y-72009064D01*
X57372263Y-72035422D01*
X57372263Y-72891862D01*
X57352578Y-72958901D01*
X57299774Y-73004656D01*
X57230616Y-73014600D01*
X57167060Y-72985575D01*
X57160582Y-72979543D01*
X57123470Y-72942431D01*
X57123466Y-72942428D01*
X57123465Y-72942427D01*
X57017482Y-72888426D01*
X57017480Y-72888425D01*
X57017477Y-72888424D01*
X56900003Y-72869819D01*
X56899997Y-72869819D01*
X56782522Y-72888424D01*
X56782521Y-72888424D01*
X56676533Y-72942428D01*
X56676529Y-72942431D01*
X56592431Y-73026529D01*
X56592428Y-73026533D01*
X56538424Y-73132521D01*
X56538424Y-73132522D01*
X56519819Y-73249996D01*
X56519819Y-73250003D01*
X56538424Y-73367477D01*
X56538424Y-73367478D01*
X56538425Y-73367481D01*
X56538426Y-73367482D01*
X56586359Y-73461556D01*
X56592428Y-73473466D01*
X56592431Y-73473470D01*
X56676529Y-73557568D01*
X56676533Y-73557571D01*
X56676535Y-73557573D01*
X56782518Y-73611574D01*
X56782520Y-73611574D01*
X56782522Y-73611575D01*
X56899997Y-73630181D01*
X56900000Y-73630181D01*
X56900003Y-73630181D01*
X57017477Y-73611575D01*
X57017478Y-73611575D01*
X57017479Y-73611574D01*
X57017482Y-73611574D01*
X57123465Y-73557573D01*
X57130122Y-73550916D01*
X57160582Y-73520457D01*
X57221905Y-73486972D01*
X57291597Y-73491956D01*
X57347530Y-73533828D01*
X57371947Y-73599292D01*
X57372263Y-73608138D01*
X57372263Y-75112130D01*
X57352578Y-75179169D01*
X57335944Y-75199811D01*
X57260194Y-75275560D01*
X57260191Y-75275564D01*
X57206187Y-75381552D01*
X57206187Y-75381553D01*
X57187582Y-75499027D01*
X57187582Y-75499034D01*
X57206187Y-75616508D01*
X57206187Y-75616509D01*
X57206188Y-75616512D01*
X57206189Y-75616513D01*
X57255628Y-75713543D01*
X57260191Y-75722497D01*
X57260194Y-75722501D01*
X57344292Y-75806599D01*
X57344296Y-75806602D01*
X57344298Y-75806604D01*
X57450281Y-75860605D01*
X57465958Y-75863087D01*
X57529091Y-75893016D01*
X57566023Y-75952326D01*
X57568192Y-75990241D01*
X57569819Y-75990241D01*
X57569819Y-76000003D01*
X57588424Y-76117477D01*
X57588424Y-76117478D01*
X57642428Y-76223466D01*
X57642431Y-76223470D01*
X57726529Y-76307568D01*
X57726533Y-76307571D01*
X57726535Y-76307573D01*
X57832518Y-76361574D01*
X57832520Y-76361574D01*
X57832522Y-76361575D01*
X57949997Y-76380181D01*
X57950000Y-76380181D01*
X57950003Y-76380181D01*
X58067477Y-76361575D01*
X58067478Y-76361575D01*
X58067479Y-76361574D01*
X58067482Y-76361574D01*
X58173465Y-76307573D01*
X58257573Y-76223465D01*
X58311574Y-76117482D01*
X58318158Y-76075911D01*
X58330181Y-76000003D01*
X58330181Y-75999996D01*
X58311575Y-75882522D01*
X58311575Y-75882521D01*
X58311574Y-75882519D01*
X58311574Y-75882518D01*
X58257573Y-75776535D01*
X58257571Y-75776533D01*
X58257568Y-75776529D01*
X58194582Y-75713543D01*
X58161097Y-75652220D01*
X58158263Y-75625862D01*
X58158263Y-74654071D01*
X59799499Y-74654071D01*
X59824497Y-74779738D01*
X59824499Y-74779744D01*
X59873533Y-74898124D01*
X59873538Y-74898133D01*
X59944723Y-75004668D01*
X59944726Y-75004672D01*
X60035327Y-75095273D01*
X60035331Y-75095276D01*
X60141866Y-75166461D01*
X60141872Y-75166464D01*
X60141873Y-75166465D01*
X60260256Y-75215501D01*
X60260260Y-75215501D01*
X60260261Y-75215502D01*
X60385928Y-75240500D01*
X60385931Y-75240500D01*
X60514071Y-75240500D01*
X60598615Y-75223682D01*
X60639744Y-75215501D01*
X60758127Y-75166465D01*
X60864669Y-75095276D01*
X60955276Y-75004669D01*
X61026465Y-74898127D01*
X61075501Y-74779744D01*
X61083682Y-74738615D01*
X61100500Y-74654071D01*
X68439499Y-74654071D01*
X68464497Y-74779738D01*
X68464499Y-74779744D01*
X68513533Y-74898124D01*
X68513538Y-74898133D01*
X68584723Y-75004668D01*
X68584726Y-75004672D01*
X68675327Y-75095273D01*
X68675331Y-75095276D01*
X68781866Y-75166461D01*
X68781872Y-75166464D01*
X68781873Y-75166465D01*
X68900256Y-75215501D01*
X68900260Y-75215501D01*
X68900261Y-75215502D01*
X69025928Y-75240500D01*
X69025931Y-75240500D01*
X69154071Y-75240500D01*
X69238615Y-75223682D01*
X69279744Y-75215501D01*
X69398127Y-75166465D01*
X69504669Y-75095276D01*
X69595276Y-75004669D01*
X69666465Y-74898127D01*
X69715501Y-74779744D01*
X69723682Y-74738615D01*
X69740500Y-74654071D01*
X69740500Y-73725928D01*
X69715502Y-73600261D01*
X69715501Y-73600260D01*
X69715501Y-73600256D01*
X69666465Y-73481873D01*
X69666464Y-73481872D01*
X69666461Y-73481866D01*
X69595276Y-73375331D01*
X69595273Y-73375327D01*
X69504672Y-73284726D01*
X69504668Y-73284723D01*
X69398133Y-73213538D01*
X69398124Y-73213533D01*
X69279744Y-73164499D01*
X69279738Y-73164497D01*
X69154071Y-73139500D01*
X69154069Y-73139500D01*
X69025931Y-73139500D01*
X69025929Y-73139500D01*
X68900261Y-73164497D01*
X68900255Y-73164499D01*
X68781875Y-73213533D01*
X68781866Y-73213538D01*
X68675331Y-73284723D01*
X68675327Y-73284726D01*
X68584726Y-73375327D01*
X68584723Y-73375331D01*
X68513538Y-73481866D01*
X68513533Y-73481875D01*
X68464499Y-73600255D01*
X68464497Y-73600261D01*
X68439500Y-73725928D01*
X68439500Y-73725931D01*
X68439500Y-74654069D01*
X68439500Y-74654071D01*
X68439499Y-74654071D01*
X61100500Y-74654071D01*
X61100500Y-73725928D01*
X61075502Y-73600261D01*
X61075501Y-73600260D01*
X61075501Y-73600256D01*
X61026465Y-73481873D01*
X61026464Y-73481872D01*
X61026461Y-73481866D01*
X60955276Y-73375331D01*
X60955273Y-73375327D01*
X60864672Y-73284726D01*
X60864668Y-73284723D01*
X60758133Y-73213538D01*
X60758124Y-73213533D01*
X60639744Y-73164499D01*
X60639738Y-73164497D01*
X60514071Y-73139500D01*
X60514069Y-73139500D01*
X60385931Y-73139500D01*
X60385929Y-73139500D01*
X60260261Y-73164497D01*
X60260255Y-73164499D01*
X60141875Y-73213533D01*
X60141866Y-73213538D01*
X60035331Y-73284723D01*
X60035327Y-73284726D01*
X59944726Y-73375327D01*
X59944723Y-73375331D01*
X59873538Y-73481866D01*
X59873533Y-73481875D01*
X59824499Y-73600255D01*
X59824497Y-73600261D01*
X59799500Y-73725928D01*
X59799500Y-73725931D01*
X59799500Y-74654069D01*
X59799500Y-74654071D01*
X59799499Y-74654071D01*
X58158263Y-74654071D01*
X58158263Y-72999998D01*
X71044518Y-72999998D01*
X71044518Y-73000001D01*
X71064422Y-73278299D01*
X71117281Y-73521283D01*
X71123729Y-73550923D01*
X71142131Y-73600261D01*
X71221231Y-73812338D01*
X71221233Y-73812342D01*
X71354940Y-74057207D01*
X71354945Y-74057215D01*
X71522138Y-74280560D01*
X71522154Y-74280578D01*
X71719421Y-74477845D01*
X71719439Y-74477861D01*
X71942784Y-74645054D01*
X71942792Y-74645059D01*
X72187657Y-74778766D01*
X72187661Y-74778768D01*
X72187663Y-74778769D01*
X72449077Y-74876271D01*
X72549547Y-74898127D01*
X72721700Y-74935577D01*
X72721702Y-74935577D01*
X72721706Y-74935578D01*
X72969014Y-74953265D01*
X72999999Y-74955482D01*
X73000000Y-74955482D01*
X73000001Y-74955482D01*
X73027881Y-74953487D01*
X73278294Y-74935578D01*
X73550923Y-74876271D01*
X73812337Y-74778769D01*
X74057213Y-74645056D01*
X74280568Y-74477855D01*
X74477855Y-74280568D01*
X74645056Y-74057213D01*
X74778769Y-73812337D01*
X74876271Y-73550923D01*
X74934179Y-73284724D01*
X74935577Y-73278299D01*
X74935577Y-73278298D01*
X74935578Y-73278294D01*
X74955482Y-73000000D01*
X74935578Y-72721706D01*
X74876271Y-72449077D01*
X74778769Y-72187663D01*
X74748679Y-72132558D01*
X74645059Y-71942792D01*
X74645054Y-71942784D01*
X74477861Y-71719439D01*
X74477845Y-71719421D01*
X74280578Y-71522154D01*
X74280560Y-71522138D01*
X74057215Y-71354945D01*
X74057207Y-71354940D01*
X73812342Y-71221233D01*
X73812338Y-71221231D01*
X73713230Y-71184266D01*
X73550923Y-71123729D01*
X73550919Y-71123728D01*
X73550916Y-71123727D01*
X73278299Y-71064422D01*
X73000001Y-71044518D01*
X72999999Y-71044518D01*
X72721700Y-71064422D01*
X72449083Y-71123727D01*
X72449078Y-71123728D01*
X72449077Y-71123729D01*
X72385875Y-71147301D01*
X72187661Y-71221231D01*
X72187657Y-71221233D01*
X71942792Y-71354940D01*
X71942784Y-71354945D01*
X71719439Y-71522138D01*
X71719421Y-71522154D01*
X71522154Y-71719421D01*
X71522138Y-71719439D01*
X71354945Y-71942784D01*
X71354940Y-71942792D01*
X71221233Y-72187657D01*
X71221231Y-72187661D01*
X71123727Y-72449083D01*
X71064422Y-72721700D01*
X71044518Y-72999998D01*
X58158263Y-72999998D01*
X58158263Y-72004638D01*
X58158261Y-72004633D01*
X58128502Y-71932784D01*
X56845714Y-70649996D01*
X57594508Y-70649996D01*
X57594508Y-70650003D01*
X57614352Y-70775300D01*
X57614352Y-70775301D01*
X57614354Y-70775304D01*
X57671950Y-70888342D01*
X57671952Y-70888344D01*
X57671954Y-70888347D01*
X57761652Y-70978045D01*
X57761654Y-70978046D01*
X57761658Y-70978050D01*
X57874696Y-71035646D01*
X57874697Y-71035646D01*
X57874699Y-71035647D01*
X57999997Y-71055492D01*
X58000000Y-71055492D01*
X58000003Y-71055492D01*
X58125300Y-71035647D01*
X58125301Y-71035647D01*
X58125302Y-71035646D01*
X58125304Y-71035646D01*
X58238342Y-70978050D01*
X58328050Y-70888342D01*
X58385646Y-70775304D01*
X58385646Y-70775302D01*
X58385647Y-70775301D01*
X58385647Y-70775300D01*
X58404848Y-70654071D01*
X59799499Y-70654071D01*
X59824497Y-70779738D01*
X59824499Y-70779744D01*
X59873533Y-70898124D01*
X59873538Y-70898133D01*
X59944723Y-71004668D01*
X59944726Y-71004672D01*
X60035327Y-71095273D01*
X60035331Y-71095276D01*
X60141866Y-71166461D01*
X60141872Y-71166464D01*
X60141873Y-71166465D01*
X60260256Y-71215501D01*
X60260260Y-71215501D01*
X60260261Y-71215502D01*
X60385928Y-71240500D01*
X60385931Y-71240500D01*
X60514071Y-71240500D01*
X60610938Y-71221231D01*
X60639744Y-71215501D01*
X60758127Y-71166465D01*
X60864669Y-71095276D01*
X60955276Y-71004669D01*
X61026465Y-70898127D01*
X61075501Y-70779744D01*
X61088810Y-70712836D01*
X61100500Y-70654071D01*
X61100500Y-70440817D01*
X61354500Y-70440817D01*
X61354500Y-70579183D01*
X61376577Y-70661574D01*
X61390312Y-70712835D01*
X61390313Y-70712838D01*
X61459492Y-70832661D01*
X61459494Y-70832664D01*
X61459495Y-70832665D01*
X61557335Y-70930505D01*
X61677164Y-70999688D01*
X61810817Y-71035500D01*
X61810819Y-71035500D01*
X61949181Y-71035500D01*
X61949183Y-71035500D01*
X62082836Y-70999688D01*
X62202665Y-70930505D01*
X62300505Y-70832665D01*
X62369688Y-70712836D01*
X62405500Y-70579183D01*
X62405500Y-70440817D01*
X62369688Y-70307164D01*
X62365550Y-70299996D01*
X63619819Y-70299996D01*
X63619819Y-70300003D01*
X63638424Y-70417477D01*
X63638424Y-70417478D01*
X63692428Y-70523466D01*
X63692431Y-70523470D01*
X63776529Y-70607568D01*
X63776533Y-70607571D01*
X63776535Y-70607573D01*
X63882518Y-70661574D01*
X63882520Y-70661574D01*
X63882522Y-70661575D01*
X63999997Y-70680181D01*
X64000000Y-70680181D01*
X64000003Y-70680181D01*
X64117477Y-70661575D01*
X64117478Y-70661574D01*
X64117482Y-70661574D01*
X64223465Y-70607573D01*
X64223466Y-70607571D01*
X64231206Y-70603628D01*
X64299875Y-70590731D01*
X64343796Y-70603627D01*
X64351535Y-70607570D01*
X64351538Y-70607573D01*
X64457521Y-70661574D01*
X64457523Y-70661574D01*
X64457525Y-70661575D01*
X64575000Y-70680181D01*
X64575003Y-70680181D01*
X64575006Y-70680181D01*
X64692480Y-70661575D01*
X64692481Y-70661575D01*
X64692482Y-70661574D01*
X64692485Y-70661574D01*
X64798468Y-70607573D01*
X64882576Y-70523465D01*
X64924687Y-70440817D01*
X67134500Y-70440817D01*
X67134500Y-70579183D01*
X67156577Y-70661574D01*
X67170312Y-70712835D01*
X67170313Y-70712838D01*
X67239492Y-70832661D01*
X67239494Y-70832664D01*
X67239495Y-70832665D01*
X67337335Y-70930505D01*
X67457164Y-70999688D01*
X67590817Y-71035500D01*
X67590819Y-71035500D01*
X67729181Y-71035500D01*
X67729183Y-71035500D01*
X67862836Y-70999688D01*
X67982665Y-70930505D01*
X68080505Y-70832665D01*
X68149688Y-70712836D01*
X68165434Y-70654071D01*
X68439499Y-70654071D01*
X68464497Y-70779738D01*
X68464499Y-70779744D01*
X68513533Y-70898124D01*
X68513538Y-70898133D01*
X68584723Y-71004668D01*
X68584726Y-71004672D01*
X68675327Y-71095273D01*
X68675331Y-71095276D01*
X68781866Y-71166461D01*
X68781872Y-71166464D01*
X68781873Y-71166465D01*
X68900256Y-71215501D01*
X68900260Y-71215501D01*
X68900261Y-71215502D01*
X69025928Y-71240500D01*
X69025931Y-71240500D01*
X69154071Y-71240500D01*
X69250938Y-71221231D01*
X69279744Y-71215501D01*
X69398127Y-71166465D01*
X69504669Y-71095276D01*
X69595276Y-71004669D01*
X69666465Y-70898127D01*
X69715501Y-70779744D01*
X69728810Y-70712836D01*
X69740500Y-70654071D01*
X69740500Y-69425928D01*
X69715502Y-69300261D01*
X69715501Y-69300260D01*
X69715501Y-69300256D01*
X69666734Y-69182522D01*
X69666466Y-69181875D01*
X69666461Y-69181866D01*
X69595276Y-69075331D01*
X69595273Y-69075327D01*
X69504672Y-68984726D01*
X69504668Y-68984723D01*
X69398133Y-68913538D01*
X69398124Y-68913533D01*
X69279744Y-68864499D01*
X69279738Y-68864497D01*
X69154071Y-68839500D01*
X69154069Y-68839500D01*
X69025931Y-68839500D01*
X69025929Y-68839500D01*
X68900261Y-68864497D01*
X68900255Y-68864499D01*
X68781875Y-68913533D01*
X68781866Y-68913538D01*
X68675331Y-68984723D01*
X68675327Y-68984726D01*
X68584726Y-69075327D01*
X68584723Y-69075331D01*
X68513538Y-69181866D01*
X68513533Y-69181875D01*
X68464499Y-69300255D01*
X68464497Y-69300261D01*
X68439500Y-69425928D01*
X68439500Y-69425931D01*
X68439500Y-70654069D01*
X68439500Y-70654071D01*
X68439499Y-70654071D01*
X68165434Y-70654071D01*
X68185500Y-70579183D01*
X68185500Y-70440817D01*
X68149688Y-70307164D01*
X68080505Y-70187335D01*
X67982665Y-70089495D01*
X67982664Y-70089494D01*
X67982661Y-70089492D01*
X67862838Y-70020313D01*
X67862837Y-70020312D01*
X67862836Y-70020312D01*
X67729183Y-69984500D01*
X67590817Y-69984500D01*
X67457164Y-70020312D01*
X67457161Y-70020313D01*
X67337338Y-70089492D01*
X67337333Y-70089496D01*
X67239496Y-70187333D01*
X67239492Y-70187338D01*
X67170313Y-70307161D01*
X67170312Y-70307164D01*
X67134500Y-70440817D01*
X64924687Y-70440817D01*
X64936577Y-70417482D01*
X64936578Y-70417477D01*
X64955184Y-70300003D01*
X64955184Y-70299996D01*
X64936578Y-70182522D01*
X64936578Y-70182521D01*
X64936577Y-70182519D01*
X64936577Y-70182518D01*
X64882576Y-70076535D01*
X64882574Y-70076533D01*
X64882571Y-70076529D01*
X64798473Y-69992431D01*
X64798469Y-69992428D01*
X64798468Y-69992427D01*
X64692485Y-69938426D01*
X64692483Y-69938425D01*
X64692480Y-69938424D01*
X64575006Y-69919819D01*
X64575000Y-69919819D01*
X64457525Y-69938424D01*
X64457521Y-69938425D01*
X64343795Y-69996372D01*
X64275126Y-70009268D01*
X64231206Y-69996372D01*
X64223466Y-69992428D01*
X64223465Y-69992427D01*
X64117482Y-69938426D01*
X64117480Y-69938425D01*
X64117477Y-69938424D01*
X64000003Y-69919819D01*
X63999997Y-69919819D01*
X63882522Y-69938424D01*
X63882521Y-69938424D01*
X63776533Y-69992428D01*
X63776529Y-69992431D01*
X63692431Y-70076529D01*
X63692428Y-70076533D01*
X63638424Y-70182521D01*
X63638424Y-70182522D01*
X63619819Y-70299996D01*
X62365550Y-70299996D01*
X62300505Y-70187335D01*
X62202665Y-70089495D01*
X62202664Y-70089494D01*
X62202661Y-70089492D01*
X62082838Y-70020313D01*
X62082837Y-70020312D01*
X62082836Y-70020312D01*
X61949183Y-69984500D01*
X61810817Y-69984500D01*
X61677164Y-70020312D01*
X61677161Y-70020313D01*
X61557338Y-70089492D01*
X61557333Y-70089496D01*
X61459496Y-70187333D01*
X61459492Y-70187338D01*
X61390313Y-70307161D01*
X61390312Y-70307164D01*
X61354500Y-70440817D01*
X61100500Y-70440817D01*
X61100500Y-69425928D01*
X61075502Y-69300261D01*
X61075501Y-69300260D01*
X61075501Y-69300256D01*
X61026734Y-69182522D01*
X61026466Y-69181875D01*
X61026461Y-69181866D01*
X60955276Y-69075331D01*
X60955273Y-69075327D01*
X60864672Y-68984726D01*
X60864668Y-68984723D01*
X60758133Y-68913538D01*
X60758124Y-68913533D01*
X60639744Y-68864499D01*
X60639738Y-68864497D01*
X60514071Y-68839500D01*
X60514069Y-68839500D01*
X60385931Y-68839500D01*
X60385929Y-68839500D01*
X60260261Y-68864497D01*
X60260255Y-68864499D01*
X60141875Y-68913533D01*
X60141866Y-68913538D01*
X60035331Y-68984723D01*
X60035327Y-68984726D01*
X59944726Y-69075327D01*
X59944723Y-69075331D01*
X59873538Y-69181866D01*
X59873533Y-69181875D01*
X59824499Y-69300255D01*
X59824497Y-69300261D01*
X59799500Y-69425928D01*
X59799500Y-69425931D01*
X59799500Y-70654069D01*
X59799500Y-70654071D01*
X59799499Y-70654071D01*
X58404848Y-70654071D01*
X58405492Y-70650003D01*
X58405492Y-70649996D01*
X58385647Y-70524699D01*
X58385647Y-70524698D01*
X58385019Y-70523465D01*
X58328050Y-70411658D01*
X58328046Y-70411654D01*
X58328045Y-70411652D01*
X58238347Y-70321954D01*
X58238344Y-70321952D01*
X58238342Y-70321950D01*
X58125304Y-70264354D01*
X58125303Y-70264353D01*
X58125300Y-70264352D01*
X58000003Y-70244508D01*
X57999997Y-70244508D01*
X57874699Y-70264352D01*
X57874698Y-70264352D01*
X57804745Y-70299996D01*
X57761658Y-70321950D01*
X57761657Y-70321951D01*
X57761652Y-70321954D01*
X57671954Y-70411652D01*
X57671951Y-70411657D01*
X57614352Y-70524698D01*
X57614352Y-70524699D01*
X57594508Y-70649996D01*
X56845714Y-70649996D01*
X56162891Y-69967173D01*
X56129406Y-69905850D01*
X56134390Y-69836158D01*
X56176262Y-69780225D01*
X56241726Y-69755808D01*
X56249837Y-69755518D01*
X56375300Y-69735647D01*
X56375301Y-69735647D01*
X56375302Y-69735646D01*
X56375304Y-69735646D01*
X56488342Y-69678050D01*
X56578050Y-69588342D01*
X56635646Y-69475304D01*
X56635646Y-69475302D01*
X56635647Y-69475301D01*
X56635647Y-69475300D01*
X56655492Y-69350003D01*
X56655492Y-69349996D01*
X56635647Y-69224699D01*
X56635647Y-69224698D01*
X56614157Y-69182522D01*
X56578050Y-69111658D01*
X56578046Y-69111654D01*
X56578045Y-69111652D01*
X56488347Y-69021954D01*
X56488344Y-69021952D01*
X56488342Y-69021950D01*
X56375304Y-68964354D01*
X56375303Y-68964353D01*
X56375300Y-68964352D01*
X56250003Y-68944508D01*
X56249997Y-68944508D01*
X56124699Y-68964352D01*
X56124698Y-68964352D01*
X56053206Y-69000780D01*
X56011658Y-69021950D01*
X56011657Y-69021951D01*
X56011652Y-69021954D01*
X55921954Y-69111652D01*
X55921949Y-69111659D01*
X55904984Y-69144955D01*
X55857009Y-69195750D01*
X55789188Y-69212545D01*
X55723054Y-69190007D01*
X55679603Y-69135291D01*
X55670500Y-69088659D01*
X55670500Y-68049996D01*
X56444508Y-68049996D01*
X56444508Y-68050003D01*
X56464352Y-68175300D01*
X56464352Y-68175301D01*
X56464354Y-68175304D01*
X56521950Y-68288342D01*
X56521952Y-68288344D01*
X56521954Y-68288347D01*
X56611652Y-68378045D01*
X56611654Y-68378046D01*
X56611658Y-68378050D01*
X56724696Y-68435646D01*
X56724697Y-68435646D01*
X56724699Y-68435647D01*
X56849997Y-68455492D01*
X56850000Y-68455492D01*
X56850003Y-68455492D01*
X56975300Y-68435647D01*
X56975301Y-68435647D01*
X56975302Y-68435646D01*
X56975304Y-68435646D01*
X57088342Y-68378050D01*
X57178050Y-68288342D01*
X57235646Y-68175304D01*
X57235646Y-68175302D01*
X57235647Y-68175301D01*
X57235647Y-68175300D01*
X57255492Y-68050003D01*
X57255492Y-68049996D01*
X57235647Y-67924699D01*
X57235647Y-67924698D01*
X57235646Y-67924696D01*
X57178050Y-67811658D01*
X57178046Y-67811654D01*
X57178045Y-67811652D01*
X57088347Y-67721954D01*
X57088344Y-67721952D01*
X57088342Y-67721950D01*
X56975304Y-67664354D01*
X56975303Y-67664353D01*
X56975300Y-67664352D01*
X56850003Y-67644508D01*
X56849997Y-67644508D01*
X56724699Y-67664352D01*
X56724698Y-67664352D01*
X56667745Y-67693372D01*
X56611658Y-67721950D01*
X56611657Y-67721951D01*
X56611652Y-67721954D01*
X56521954Y-67811652D01*
X56521951Y-67811657D01*
X56464352Y-67924698D01*
X56464352Y-67924699D01*
X56444508Y-68049996D01*
X55670500Y-68049996D01*
X55670500Y-66249996D01*
X56469819Y-66249996D01*
X56469819Y-66250003D01*
X56488424Y-66367477D01*
X56488424Y-66367478D01*
X56488425Y-66367481D01*
X56488426Y-66367482D01*
X56513902Y-66417482D01*
X56542428Y-66473466D01*
X56542431Y-66473470D01*
X56626529Y-66557568D01*
X56626533Y-66557571D01*
X56626535Y-66557573D01*
X56732518Y-66611574D01*
X56732520Y-66611574D01*
X56732522Y-66611575D01*
X56849997Y-66630181D01*
X56850000Y-66630181D01*
X56850003Y-66630181D01*
X56967477Y-66611575D01*
X56967478Y-66611575D01*
X56967479Y-66611574D01*
X56967482Y-66611574D01*
X57073465Y-66557573D01*
X57157573Y-66473465D01*
X57211574Y-66367482D01*
X57216176Y-66338426D01*
X57230181Y-66250003D01*
X57230181Y-66249996D01*
X57211575Y-66132522D01*
X57211575Y-66132521D01*
X57211574Y-66132519D01*
X57211574Y-66132518D01*
X57157573Y-66026535D01*
X57157571Y-66026533D01*
X57157568Y-66026529D01*
X57073470Y-65942431D01*
X57073466Y-65942428D01*
X57073465Y-65942427D01*
X56967482Y-65888426D01*
X56967480Y-65888425D01*
X56967477Y-65888424D01*
X56850003Y-65869819D01*
X56849997Y-65869819D01*
X56732522Y-65888424D01*
X56732521Y-65888424D01*
X56626533Y-65942428D01*
X56626529Y-65942431D01*
X56542431Y-66026529D01*
X56542428Y-66026533D01*
X56488424Y-66132521D01*
X56488424Y-66132522D01*
X56469819Y-66249996D01*
X55670500Y-66249996D01*
X55670500Y-65099996D01*
X56094508Y-65099996D01*
X56094508Y-65100003D01*
X56114352Y-65225300D01*
X56114352Y-65225301D01*
X56132805Y-65261517D01*
X56171950Y-65338342D01*
X56171952Y-65338344D01*
X56171954Y-65338347D01*
X56261652Y-65428045D01*
X56261654Y-65428046D01*
X56261658Y-65428050D01*
X56374696Y-65485646D01*
X56374697Y-65485646D01*
X56374699Y-65485647D01*
X56499997Y-65505492D01*
X56500000Y-65505492D01*
X56500003Y-65505492D01*
X56625300Y-65485647D01*
X56625301Y-65485647D01*
X56625302Y-65485646D01*
X56625304Y-65485646D01*
X56738342Y-65428050D01*
X56828050Y-65338342D01*
X56885646Y-65225304D01*
X56885646Y-65225302D01*
X56885647Y-65225301D01*
X56885647Y-65225300D01*
X56905492Y-65100003D01*
X56905492Y-65099996D01*
X56885647Y-64974699D01*
X56885647Y-64974698D01*
X56885646Y-64974696D01*
X56828050Y-64861658D01*
X56828046Y-64861654D01*
X56828045Y-64861652D01*
X56738347Y-64771954D01*
X56738344Y-64771952D01*
X56738342Y-64771950D01*
X56625304Y-64714354D01*
X56625303Y-64714353D01*
X56625300Y-64714352D01*
X56500003Y-64694508D01*
X56499997Y-64694508D01*
X56374699Y-64714352D01*
X56374698Y-64714352D01*
X56315217Y-64744660D01*
X56261658Y-64771950D01*
X56261657Y-64771951D01*
X56261652Y-64771954D01*
X56171954Y-64861652D01*
X56171951Y-64861657D01*
X56171950Y-64861658D01*
X56166704Y-64871954D01*
X56114352Y-64974698D01*
X56114352Y-64974699D01*
X56094508Y-65099996D01*
X55670500Y-65099996D01*
X55670500Y-63746340D01*
X55690185Y-63679301D01*
X55742989Y-63633546D01*
X55812147Y-63623602D01*
X55875703Y-63652627D01*
X55882172Y-63658650D01*
X55929364Y-63705843D01*
X55939322Y-63715801D01*
X55972806Y-63777124D01*
X55974114Y-63822874D01*
X55969819Y-63849997D01*
X55969819Y-63850003D01*
X55988424Y-63967477D01*
X55988424Y-63967478D01*
X56042428Y-64073466D01*
X56042431Y-64073470D01*
X56126529Y-64157568D01*
X56126533Y-64157571D01*
X56126535Y-64157573D01*
X56232518Y-64211574D01*
X56232520Y-64211574D01*
X56232522Y-64211575D01*
X56349997Y-64230181D01*
X56350000Y-64230181D01*
X56350003Y-64230181D01*
X56467477Y-64211575D01*
X56467478Y-64211575D01*
X56467479Y-64211574D01*
X56467482Y-64211574D01*
X56573465Y-64157573D01*
X56657573Y-64073465D01*
X56694657Y-64000681D01*
X56742627Y-63949890D01*
X56810448Y-63933094D01*
X56876583Y-63955630D01*
X56892820Y-63969299D01*
X57668181Y-64744660D01*
X57701666Y-64805983D01*
X57704500Y-64832341D01*
X57704500Y-68913099D01*
X57684815Y-68980138D01*
X57668181Y-69000780D01*
X57592431Y-69076529D01*
X57592428Y-69076533D01*
X57538424Y-69182521D01*
X57538424Y-69182522D01*
X57519819Y-69299996D01*
X57519819Y-69300003D01*
X57538424Y-69417477D01*
X57538424Y-69417478D01*
X57538425Y-69417481D01*
X57538426Y-69417482D01*
X57567886Y-69475301D01*
X57592428Y-69523466D01*
X57592431Y-69523470D01*
X57676529Y-69607568D01*
X57676533Y-69607571D01*
X57676535Y-69607573D01*
X57782518Y-69661574D01*
X57782520Y-69661574D01*
X57782522Y-69661575D01*
X57899997Y-69680181D01*
X57900000Y-69680181D01*
X57900003Y-69680181D01*
X58017477Y-69661575D01*
X58017478Y-69661575D01*
X58017479Y-69661574D01*
X58017482Y-69661574D01*
X58123465Y-69607573D01*
X58207573Y-69523465D01*
X58261574Y-69417482D01*
X58261575Y-69417477D01*
X58280181Y-69300003D01*
X58280181Y-69299996D01*
X58261575Y-69182522D01*
X58261575Y-69182521D01*
X58261574Y-69182519D01*
X58261574Y-69182518D01*
X58207573Y-69076535D01*
X58207571Y-69076533D01*
X58207568Y-69076529D01*
X58131819Y-69000780D01*
X58098334Y-68939457D01*
X58095500Y-68913099D01*
X58095500Y-67099996D01*
X59394508Y-67099996D01*
X59394508Y-67100003D01*
X59414352Y-67225300D01*
X59414352Y-67225301D01*
X59415752Y-67228048D01*
X59471950Y-67338342D01*
X59471952Y-67338344D01*
X59471954Y-67338347D01*
X59561652Y-67428045D01*
X59561654Y-67428046D01*
X59561658Y-67428050D01*
X59674696Y-67485646D01*
X59674697Y-67485646D01*
X59674699Y-67485647D01*
X59799997Y-67505492D01*
X59800000Y-67505492D01*
X59800003Y-67505492D01*
X59925300Y-67485647D01*
X59925301Y-67485647D01*
X59925302Y-67485646D01*
X59925304Y-67485646D01*
X60038342Y-67428050D01*
X60128050Y-67338342D01*
X60185646Y-67225304D01*
X60185646Y-67225302D01*
X60185647Y-67225301D01*
X60185647Y-67225300D01*
X60205492Y-67100003D01*
X60205492Y-67099996D01*
X61194508Y-67099996D01*
X61194508Y-67100003D01*
X61214352Y-67225300D01*
X61214352Y-67225301D01*
X61215752Y-67228048D01*
X61271950Y-67338342D01*
X61271952Y-67338344D01*
X61271954Y-67338347D01*
X61361652Y-67428045D01*
X61361654Y-67428046D01*
X61361658Y-67428050D01*
X61474696Y-67485646D01*
X61474697Y-67485646D01*
X61474699Y-67485647D01*
X61599997Y-67505492D01*
X61600000Y-67505492D01*
X61600003Y-67505492D01*
X61725300Y-67485647D01*
X61725301Y-67485647D01*
X61725302Y-67485646D01*
X61725304Y-67485646D01*
X61838342Y-67428050D01*
X61848915Y-67417477D01*
X61912319Y-67354074D01*
X61973642Y-67320589D01*
X62043334Y-67325573D01*
X62087681Y-67354074D01*
X62161652Y-67428045D01*
X62161654Y-67428046D01*
X62161658Y-67428050D01*
X62274696Y-67485646D01*
X62274697Y-67485646D01*
X62274699Y-67485647D01*
X62399997Y-67505492D01*
X62400000Y-67505492D01*
X62400003Y-67505492D01*
X62525300Y-67485647D01*
X62525301Y-67485647D01*
X62525302Y-67485646D01*
X62525304Y-67485646D01*
X62638342Y-67428050D01*
X62648915Y-67417477D01*
X62712319Y-67354074D01*
X62773642Y-67320589D01*
X62843334Y-67325573D01*
X62887681Y-67354074D01*
X62961652Y-67428045D01*
X62961654Y-67428046D01*
X62961658Y-67428050D01*
X63074696Y-67485646D01*
X63074697Y-67485646D01*
X63074699Y-67485647D01*
X63199997Y-67505492D01*
X63200000Y-67505492D01*
X63200003Y-67505492D01*
X63325300Y-67485647D01*
X63325301Y-67485647D01*
X63325302Y-67485646D01*
X63325304Y-67485646D01*
X63438342Y-67428050D01*
X63528050Y-67338342D01*
X63585646Y-67225304D01*
X63585646Y-67225302D01*
X63585647Y-67225301D01*
X63585647Y-67225300D01*
X63605492Y-67100003D01*
X63605492Y-67099996D01*
X63585647Y-66974699D01*
X63585647Y-66974698D01*
X63585646Y-66974696D01*
X63528050Y-66861658D01*
X63528046Y-66861654D01*
X63528045Y-66861652D01*
X63438347Y-66771954D01*
X63438344Y-66771952D01*
X63438342Y-66771950D01*
X63325304Y-66714354D01*
X63325303Y-66714353D01*
X63325300Y-66714352D01*
X63200003Y-66694508D01*
X63199997Y-66694508D01*
X63074699Y-66714352D01*
X63074698Y-66714352D01*
X63000500Y-66752159D01*
X62961658Y-66771950D01*
X62961657Y-66771951D01*
X62961652Y-66771954D01*
X62887681Y-66845926D01*
X62826358Y-66879411D01*
X62756666Y-66874427D01*
X62712319Y-66845926D01*
X62638347Y-66771954D01*
X62638344Y-66771952D01*
X62638342Y-66771950D01*
X62525304Y-66714354D01*
X62525303Y-66714353D01*
X62525300Y-66714352D01*
X62400003Y-66694508D01*
X62399997Y-66694508D01*
X62274699Y-66714352D01*
X62274698Y-66714352D01*
X62200500Y-66752159D01*
X62161658Y-66771950D01*
X62161657Y-66771951D01*
X62161652Y-66771954D01*
X62087681Y-66845926D01*
X62026358Y-66879411D01*
X61956666Y-66874427D01*
X61912319Y-66845926D01*
X61838347Y-66771954D01*
X61838344Y-66771952D01*
X61838342Y-66771950D01*
X61725304Y-66714354D01*
X61725303Y-66714353D01*
X61725300Y-66714352D01*
X61600003Y-66694508D01*
X61599997Y-66694508D01*
X61474699Y-66714352D01*
X61474698Y-66714352D01*
X61400500Y-66752159D01*
X61361658Y-66771950D01*
X61361657Y-66771951D01*
X61361652Y-66771954D01*
X61271954Y-66861652D01*
X61271951Y-66861657D01*
X61271950Y-66861658D01*
X61252751Y-66899337D01*
X61214352Y-66974698D01*
X61214352Y-66974699D01*
X61194508Y-67099996D01*
X60205492Y-67099996D01*
X60185647Y-66974699D01*
X60185647Y-66974698D01*
X60185646Y-66974696D01*
X60128050Y-66861658D01*
X60128046Y-66861654D01*
X60128045Y-66861652D01*
X60038347Y-66771954D01*
X60038344Y-66771952D01*
X60038342Y-66771950D01*
X59925304Y-66714354D01*
X59925303Y-66714353D01*
X59925300Y-66714352D01*
X59800003Y-66694508D01*
X59799997Y-66694508D01*
X59674699Y-66714352D01*
X59674698Y-66714352D01*
X59600500Y-66752159D01*
X59561658Y-66771950D01*
X59561657Y-66771951D01*
X59561652Y-66771954D01*
X59471954Y-66861652D01*
X59471951Y-66861657D01*
X59471950Y-66861658D01*
X59452751Y-66899337D01*
X59414352Y-66974698D01*
X59414352Y-66974699D01*
X59394508Y-67099996D01*
X58095500Y-67099996D01*
X58095500Y-65799996D01*
X60394508Y-65799996D01*
X60394508Y-65800003D01*
X60414352Y-65925300D01*
X60414352Y-65925301D01*
X60429126Y-65954295D01*
X60471950Y-66038342D01*
X60471952Y-66038344D01*
X60471954Y-66038347D01*
X60561652Y-66128045D01*
X60561654Y-66128046D01*
X60561658Y-66128050D01*
X60674696Y-66185646D01*
X60674697Y-66185646D01*
X60674699Y-66185647D01*
X60799997Y-66205492D01*
X60800000Y-66205492D01*
X60800003Y-66205492D01*
X60925300Y-66185647D01*
X60925301Y-66185647D01*
X60925302Y-66185646D01*
X60925304Y-66185646D01*
X61038342Y-66128050D01*
X61128050Y-66038342D01*
X61185646Y-65925304D01*
X61185646Y-65925302D01*
X61185647Y-65925301D01*
X61185647Y-65925300D01*
X61205492Y-65800003D01*
X61205492Y-65799999D01*
X61195586Y-65737458D01*
X61204540Y-65668164D01*
X61249536Y-65614712D01*
X61316288Y-65594072D01*
X61337453Y-65595585D01*
X61382935Y-65602789D01*
X61399999Y-65605492D01*
X61400000Y-65605492D01*
X61400001Y-65605492D01*
X61413406Y-65603368D01*
X61462543Y-65595586D01*
X61531835Y-65604540D01*
X61585287Y-65649536D01*
X61605927Y-65716287D01*
X61604413Y-65737456D01*
X61594508Y-65799996D01*
X61594508Y-65800003D01*
X61614352Y-65925300D01*
X61614352Y-65925301D01*
X61629126Y-65954295D01*
X61671950Y-66038342D01*
X61671952Y-66038344D01*
X61671954Y-66038347D01*
X61761652Y-66128045D01*
X61761654Y-66128046D01*
X61761658Y-66128050D01*
X61874696Y-66185646D01*
X61874697Y-66185646D01*
X61874699Y-66185647D01*
X61999997Y-66205492D01*
X62000000Y-66205492D01*
X62000003Y-66205492D01*
X62125300Y-66185647D01*
X62125301Y-66185647D01*
X62125302Y-66185646D01*
X62125304Y-66185646D01*
X62238342Y-66128050D01*
X62328050Y-66038342D01*
X62385646Y-65925304D01*
X62385646Y-65925302D01*
X62385647Y-65925301D01*
X62385647Y-65925300D01*
X62405492Y-65800003D01*
X62405492Y-65799996D01*
X62385647Y-65674699D01*
X62385647Y-65674698D01*
X62355082Y-65614712D01*
X62328050Y-65561658D01*
X62328046Y-65561654D01*
X62328045Y-65561652D01*
X62238347Y-65471954D01*
X62238344Y-65471952D01*
X62238342Y-65471950D01*
X62125304Y-65414354D01*
X62125303Y-65414353D01*
X62125300Y-65414352D01*
X62000003Y-65394508D01*
X61999996Y-65394508D01*
X61937456Y-65404413D01*
X61868163Y-65395458D01*
X61814711Y-65350461D01*
X61794072Y-65283710D01*
X61795586Y-65262543D01*
X61805492Y-65200000D01*
X61805492Y-65199996D01*
X61785647Y-65074699D01*
X61785647Y-65074698D01*
X61778960Y-65061574D01*
X61728050Y-64961658D01*
X61728046Y-64961654D01*
X61728045Y-64961652D01*
X61638347Y-64871954D01*
X61638344Y-64871952D01*
X61638342Y-64871950D01*
X61525304Y-64814354D01*
X61525303Y-64814353D01*
X61525300Y-64814352D01*
X61400003Y-64794508D01*
X61399997Y-64794508D01*
X61274699Y-64814352D01*
X61274698Y-64814352D01*
X61199337Y-64852751D01*
X61161658Y-64871950D01*
X61161657Y-64871951D01*
X61161652Y-64871954D01*
X61071954Y-64961652D01*
X61071951Y-64961657D01*
X61071950Y-64961658D01*
X61064101Y-64977063D01*
X61014352Y-65074698D01*
X61014352Y-65074699D01*
X60994508Y-65199996D01*
X60994508Y-65200003D01*
X61004413Y-65262543D01*
X60995458Y-65331836D01*
X60950462Y-65385288D01*
X60883710Y-65405927D01*
X60862543Y-65404413D01*
X60800003Y-65394508D01*
X60799997Y-65394508D01*
X60674699Y-65414352D01*
X60674698Y-65414352D01*
X60599337Y-65452751D01*
X60561658Y-65471950D01*
X60561657Y-65471951D01*
X60561652Y-65471954D01*
X60471954Y-65561652D01*
X60471951Y-65561657D01*
X60471950Y-65561658D01*
X60455434Y-65594072D01*
X60414352Y-65674698D01*
X60414352Y-65674699D01*
X60394508Y-65799996D01*
X58095500Y-65799996D01*
X58095500Y-64661114D01*
X58095498Y-64661109D01*
X58065739Y-64589260D01*
X56550648Y-63074169D01*
X56517163Y-63012846D01*
X56522147Y-62943154D01*
X56564019Y-62887221D01*
X56618928Y-62864015D01*
X56697482Y-62851574D01*
X56803465Y-62797573D01*
X56851042Y-62749996D01*
X58344508Y-62749996D01*
X58344508Y-62750003D01*
X58364352Y-62875300D01*
X58364352Y-62875301D01*
X58382805Y-62911517D01*
X58421950Y-62988342D01*
X58421952Y-62988344D01*
X58421954Y-62988347D01*
X58511652Y-63078045D01*
X58511654Y-63078046D01*
X58511658Y-63078050D01*
X58624696Y-63135646D01*
X58624697Y-63135646D01*
X58624699Y-63135647D01*
X58749997Y-63155492D01*
X58750000Y-63155492D01*
X58750003Y-63155492D01*
X58875300Y-63135647D01*
X58875301Y-63135647D01*
X58875302Y-63135646D01*
X58875304Y-63135646D01*
X58988342Y-63078050D01*
X59078050Y-62988342D01*
X59135646Y-62875304D01*
X59135646Y-62875302D01*
X59135647Y-62875301D01*
X59135647Y-62875300D01*
X59155492Y-62750003D01*
X59155492Y-62749996D01*
X59135647Y-62624699D01*
X59135647Y-62624698D01*
X59126872Y-62607477D01*
X59078050Y-62511658D01*
X59078046Y-62511654D01*
X59078045Y-62511652D01*
X58988347Y-62421954D01*
X58988344Y-62421952D01*
X58988342Y-62421950D01*
X58875304Y-62364354D01*
X58875303Y-62364353D01*
X58875300Y-62364352D01*
X58750003Y-62344508D01*
X58749997Y-62344508D01*
X58624699Y-62364352D01*
X58624698Y-62364352D01*
X58549337Y-62402751D01*
X58511658Y-62421950D01*
X58511657Y-62421951D01*
X58511652Y-62421954D01*
X58421954Y-62511652D01*
X58421951Y-62511657D01*
X58364352Y-62624698D01*
X58364352Y-62624699D01*
X58344508Y-62749996D01*
X56851042Y-62749996D01*
X56887573Y-62713465D01*
X56941574Y-62607482D01*
X56941575Y-62607477D01*
X56960181Y-62490003D01*
X56960181Y-62489996D01*
X56941575Y-62372522D01*
X56941575Y-62372521D01*
X56941574Y-62372519D01*
X56941574Y-62372518D01*
X56887573Y-62266535D01*
X56887571Y-62266533D01*
X56886932Y-62265278D01*
X56874036Y-62196608D01*
X56900313Y-62131868D01*
X56906539Y-62124886D01*
X56907568Y-62123469D01*
X56907573Y-62123465D01*
X56961574Y-62017482D01*
X56962016Y-62014690D01*
X56980181Y-61900003D01*
X56980181Y-61899996D01*
X56961575Y-61782522D01*
X56961575Y-61782521D01*
X56961574Y-61782519D01*
X56961574Y-61782518D01*
X56907573Y-61676535D01*
X56907571Y-61676533D01*
X56907568Y-61676529D01*
X56823470Y-61592431D01*
X56823466Y-61592428D01*
X56823465Y-61592427D01*
X56717482Y-61538426D01*
X56717480Y-61538425D01*
X56717477Y-61538424D01*
X56600003Y-61519819D01*
X56599997Y-61519819D01*
X56482522Y-61538424D01*
X56482521Y-61538424D01*
X56376533Y-61592428D01*
X56376529Y-61592431D01*
X56292431Y-61676529D01*
X56292428Y-61676533D01*
X56238424Y-61782521D01*
X56238424Y-61782522D01*
X56219819Y-61899996D01*
X56219819Y-61900003D01*
X56238424Y-62017477D01*
X56238425Y-62017481D01*
X56293067Y-62124722D01*
X56305963Y-62193391D01*
X56279686Y-62258131D01*
X56273463Y-62265109D01*
X56272428Y-62266533D01*
X56218424Y-62372521D01*
X56215409Y-62381803D01*
X56213791Y-62381277D01*
X56188728Y-62434133D01*
X56129412Y-62471057D01*
X56076799Y-62474063D01*
X56050000Y-62469819D01*
X56049997Y-62469819D01*
X55993897Y-62478704D01*
X55924604Y-62469749D01*
X55871152Y-62424753D01*
X55850513Y-62358001D01*
X55850500Y-62356231D01*
X55850500Y-60403890D01*
X55850499Y-60403886D01*
X55843943Y-60388059D01*
X55843941Y-60388056D01*
X55834697Y-60365737D01*
X55820737Y-60332034D01*
X55765742Y-60277039D01*
X55758677Y-60269974D01*
X55758670Y-60269968D01*
X51996920Y-56508217D01*
X51963435Y-56446894D01*
X51962128Y-56401141D01*
X51966424Y-56374019D01*
X51966424Y-56374016D01*
X51966424Y-56374015D01*
X51947818Y-56256541D01*
X51947818Y-56256540D01*
X51947817Y-56256538D01*
X51947817Y-56256537D01*
X51915006Y-56192142D01*
X51902111Y-56123477D01*
X51928387Y-56058737D01*
X51985493Y-56018479D01*
X52006089Y-56013378D01*
X52017482Y-56011574D01*
X52123465Y-55957573D01*
X52131042Y-55949996D01*
X52199220Y-55881819D01*
X52260543Y-55848334D01*
X52286901Y-55845500D01*
X52378786Y-55845500D01*
X52445825Y-55865185D01*
X52491580Y-55917989D01*
X52501524Y-55987147D01*
X52489271Y-56025791D01*
X52487036Y-56030181D01*
X52464352Y-56074699D01*
X52444508Y-56199996D01*
X52444508Y-56200003D01*
X52464352Y-56325300D01*
X52464352Y-56325301D01*
X52469624Y-56335647D01*
X52521950Y-56438342D01*
X52521952Y-56438344D01*
X52521954Y-56438347D01*
X52611652Y-56528045D01*
X52611654Y-56528046D01*
X52611658Y-56528050D01*
X52724696Y-56585646D01*
X52724697Y-56585646D01*
X52724699Y-56585647D01*
X52849997Y-56605492D01*
X52850000Y-56605492D01*
X52850003Y-56605492D01*
X52975300Y-56585647D01*
X52975301Y-56585647D01*
X52975302Y-56585646D01*
X52975304Y-56585646D01*
X53088342Y-56528050D01*
X53178050Y-56438342D01*
X53235646Y-56325304D01*
X53240396Y-56295312D01*
X53270323Y-56232180D01*
X53329634Y-56195247D01*
X53399496Y-56196243D01*
X53450550Y-56227029D01*
X57187577Y-59964056D01*
X57221062Y-60025379D01*
X57216078Y-60095071D01*
X57174206Y-60151004D01*
X57156193Y-60162221D01*
X57116536Y-60182427D01*
X57116531Y-60182431D01*
X57032433Y-60266529D01*
X57026696Y-60274427D01*
X57025389Y-60273478D01*
X56985013Y-60316223D01*
X56917190Y-60333013D01*
X56866217Y-60319612D01*
X56755451Y-60263174D01*
X56755447Y-60263173D01*
X56637973Y-60244568D01*
X56637967Y-60244568D01*
X56520492Y-60263173D01*
X56520491Y-60263173D01*
X56414503Y-60317177D01*
X56414499Y-60317180D01*
X56330401Y-60401278D01*
X56330398Y-60401282D01*
X56276394Y-60507270D01*
X56276394Y-60507271D01*
X56257789Y-60624745D01*
X56257789Y-60624752D01*
X56276394Y-60742226D01*
X56276394Y-60742227D01*
X56276395Y-60742230D01*
X56276396Y-60742231D01*
X56327205Y-60841950D01*
X56330398Y-60848215D01*
X56330401Y-60848219D01*
X56414499Y-60932317D01*
X56414503Y-60932320D01*
X56414505Y-60932322D01*
X56520488Y-60986323D01*
X56520490Y-60986323D01*
X56520492Y-60986324D01*
X56637967Y-61004930D01*
X56637970Y-61004930D01*
X56637973Y-61004930D01*
X56755447Y-60986324D01*
X56755448Y-60986324D01*
X56755449Y-60986323D01*
X56755452Y-60986323D01*
X56861435Y-60932322D01*
X56945543Y-60848214D01*
X56945546Y-60848207D01*
X56951276Y-60840322D01*
X56952584Y-60841272D01*
X56992941Y-60798535D01*
X57060761Y-60781734D01*
X57111755Y-60795136D01*
X57116536Y-60797572D01*
X57116537Y-60797573D01*
X57222520Y-60851574D01*
X57222522Y-60851574D01*
X57222524Y-60851575D01*
X57339999Y-60870181D01*
X57340002Y-60870181D01*
X57340005Y-60870181D01*
X57457479Y-60851575D01*
X57457480Y-60851575D01*
X57457481Y-60851574D01*
X57457484Y-60851574D01*
X57563467Y-60797573D01*
X57647575Y-60713465D01*
X57667780Y-60673809D01*
X57715753Y-60623015D01*
X57783573Y-60606219D01*
X57849709Y-60628756D01*
X57865945Y-60642424D01*
X59889260Y-62665739D01*
X59944831Y-62688756D01*
X59961113Y-62695500D01*
X60038887Y-62695500D01*
X62061113Y-62695500D01*
X65017659Y-62695500D01*
X65084698Y-62715185D01*
X65105340Y-62731819D01*
X68939321Y-66565800D01*
X68972806Y-66627123D01*
X68974114Y-66672874D01*
X68969819Y-66699997D01*
X68969819Y-66700003D01*
X68988424Y-66817477D01*
X68988424Y-66817478D01*
X68988425Y-66817481D01*
X68988426Y-66817482D01*
X69037145Y-66913099D01*
X69042428Y-66923466D01*
X69042431Y-66923470D01*
X69126529Y-67007568D01*
X69126533Y-67007571D01*
X69126535Y-67007573D01*
X69232518Y-67061574D01*
X69232520Y-67061574D01*
X69232522Y-67061575D01*
X69349997Y-67080181D01*
X69350000Y-67080181D01*
X69350003Y-67080181D01*
X69467477Y-67061575D01*
X69467478Y-67061575D01*
X69467479Y-67061574D01*
X69467482Y-67061574D01*
X69573465Y-67007573D01*
X69657573Y-66923465D01*
X69669531Y-66899996D01*
X72694508Y-66899996D01*
X72694508Y-66900003D01*
X72714352Y-67025300D01*
X72714352Y-67025301D01*
X72714354Y-67025304D01*
X72771950Y-67138342D01*
X72771952Y-67138344D01*
X72771954Y-67138347D01*
X72861652Y-67228045D01*
X72861654Y-67228046D01*
X72861658Y-67228050D01*
X72974696Y-67285646D01*
X72974697Y-67285646D01*
X72974699Y-67285647D01*
X73099997Y-67305492D01*
X73100000Y-67305492D01*
X73100003Y-67305492D01*
X73225300Y-67285647D01*
X73225301Y-67285647D01*
X73225302Y-67285646D01*
X73225304Y-67285646D01*
X73338342Y-67228050D01*
X73428050Y-67138342D01*
X73485646Y-67025304D01*
X73485646Y-67025302D01*
X73485647Y-67025301D01*
X73485647Y-67025300D01*
X73505492Y-66900003D01*
X73505492Y-66899996D01*
X73485647Y-66774699D01*
X73485647Y-66774698D01*
X73478960Y-66761574D01*
X73428050Y-66661658D01*
X73428046Y-66661654D01*
X73428045Y-66661652D01*
X73338347Y-66571954D01*
X73338344Y-66571952D01*
X73338342Y-66571950D01*
X73225304Y-66514354D01*
X73225303Y-66514353D01*
X73225300Y-66514352D01*
X73100003Y-66494508D01*
X73099997Y-66494508D01*
X72974699Y-66514352D01*
X72974698Y-66514352D01*
X72922051Y-66541178D01*
X72861658Y-66571950D01*
X72861657Y-66571951D01*
X72861652Y-66571954D01*
X72771954Y-66661652D01*
X72771951Y-66661657D01*
X72714352Y-66774698D01*
X72714352Y-66774699D01*
X72694508Y-66899996D01*
X69669531Y-66899996D01*
X69711574Y-66817482D01*
X69718350Y-66774699D01*
X69730181Y-66700003D01*
X69730181Y-66699996D01*
X69711575Y-66582522D01*
X69711575Y-66582521D01*
X69711574Y-66582519D01*
X69711574Y-66582518D01*
X69657573Y-66476535D01*
X69657571Y-66476533D01*
X69657568Y-66476529D01*
X69573470Y-66392431D01*
X69573466Y-66392428D01*
X69573465Y-66392427D01*
X69467482Y-66338426D01*
X69467480Y-66338425D01*
X69467477Y-66338424D01*
X69350003Y-66319819D01*
X69349998Y-66319819D01*
X69322874Y-66324114D01*
X69253581Y-66315157D01*
X69215800Y-66289321D01*
X68152422Y-65225943D01*
X68118937Y-65164620D01*
X68123921Y-65094928D01*
X68165793Y-65038995D01*
X68183795Y-65027785D01*
X68223465Y-65007573D01*
X68307573Y-64923465D01*
X68361574Y-64817482D01*
X68361575Y-64817477D01*
X68380181Y-64700003D01*
X68380181Y-64699996D01*
X68361575Y-64582522D01*
X68361575Y-64582521D01*
X68361574Y-64582519D01*
X68361574Y-64582518D01*
X68307573Y-64476535D01*
X68307571Y-64476533D01*
X68307568Y-64476529D01*
X68223470Y-64392431D01*
X68223466Y-64392428D01*
X68223465Y-64392427D01*
X68117482Y-64338426D01*
X68117480Y-64338425D01*
X68117477Y-64338424D01*
X68000003Y-64319819D01*
X67999997Y-64319819D01*
X67882522Y-64338424D01*
X67882521Y-64338424D01*
X67776533Y-64392428D01*
X67776529Y-64392431D01*
X67692431Y-64476529D01*
X67692424Y-64476539D01*
X67672219Y-64516192D01*
X67624244Y-64566987D01*
X67556423Y-64583781D01*
X67490288Y-64561242D01*
X67474055Y-64547576D01*
X66126475Y-63199996D01*
X68119819Y-63199996D01*
X68119819Y-63200003D01*
X68138424Y-63317477D01*
X68138424Y-63317478D01*
X68192428Y-63423466D01*
X68192431Y-63423470D01*
X68276529Y-63507568D01*
X68276533Y-63507571D01*
X68276535Y-63507573D01*
X68382518Y-63561574D01*
X68382520Y-63561574D01*
X68382522Y-63561575D01*
X68499997Y-63580181D01*
X68500000Y-63580181D01*
X68500003Y-63580181D01*
X68617477Y-63561575D01*
X68617478Y-63561575D01*
X68617479Y-63561574D01*
X68617482Y-63561574D01*
X68723465Y-63507573D01*
X68807573Y-63423465D01*
X68819531Y-63399996D01*
X73044508Y-63399996D01*
X73044508Y-63400003D01*
X73064352Y-63525300D01*
X73064352Y-63525301D01*
X73064354Y-63525304D01*
X73121950Y-63638342D01*
X73121952Y-63638344D01*
X73121954Y-63638347D01*
X73211652Y-63728045D01*
X73211654Y-63728046D01*
X73211658Y-63728050D01*
X73324696Y-63785646D01*
X73324697Y-63785646D01*
X73324699Y-63785647D01*
X73449997Y-63805492D01*
X73450000Y-63805492D01*
X73450003Y-63805492D01*
X73575300Y-63785647D01*
X73575301Y-63785647D01*
X73575302Y-63785646D01*
X73575304Y-63785646D01*
X73688342Y-63728050D01*
X73778050Y-63638342D01*
X73835646Y-63525304D01*
X73835646Y-63525302D01*
X73835647Y-63525301D01*
X73835647Y-63525300D01*
X73855492Y-63400003D01*
X73855492Y-63399996D01*
X73835647Y-63274699D01*
X73835647Y-63274698D01*
X73821441Y-63246818D01*
X73797584Y-63199996D01*
X74969819Y-63199996D01*
X74969819Y-63200003D01*
X74988424Y-63317477D01*
X74988424Y-63317478D01*
X75042428Y-63423466D01*
X75042431Y-63423470D01*
X75126529Y-63507568D01*
X75126533Y-63507571D01*
X75126535Y-63507573D01*
X75232518Y-63561574D01*
X75232520Y-63561574D01*
X75232522Y-63561575D01*
X75349997Y-63580181D01*
X75350000Y-63580181D01*
X75350003Y-63580181D01*
X75467477Y-63561575D01*
X75467478Y-63561575D01*
X75467479Y-63561574D01*
X75467482Y-63561574D01*
X75573465Y-63507573D01*
X75657573Y-63423465D01*
X75711574Y-63317482D01*
X75711575Y-63317477D01*
X75730181Y-63200003D01*
X75730181Y-63199996D01*
X75711575Y-63082522D01*
X75711575Y-63082521D01*
X75711574Y-63082519D01*
X75711574Y-63082518D01*
X75657573Y-62976535D01*
X75657571Y-62976533D01*
X75657568Y-62976529D01*
X75573470Y-62892431D01*
X75573466Y-62892428D01*
X75573465Y-62892427D01*
X75467482Y-62838426D01*
X75467480Y-62838425D01*
X75467477Y-62838424D01*
X75350003Y-62819819D01*
X75349997Y-62819819D01*
X75232522Y-62838424D01*
X75232521Y-62838424D01*
X75126533Y-62892428D01*
X75126529Y-62892431D01*
X75042431Y-62976529D01*
X75042428Y-62976533D01*
X74988424Y-63082521D01*
X74988424Y-63082522D01*
X74969819Y-63199996D01*
X73797584Y-63199996D01*
X73778050Y-63161658D01*
X73778046Y-63161654D01*
X73778045Y-63161652D01*
X73688347Y-63071954D01*
X73688344Y-63071952D01*
X73688342Y-63071950D01*
X73575304Y-63014354D01*
X73575303Y-63014353D01*
X73575300Y-63014352D01*
X73450003Y-62994508D01*
X73449997Y-62994508D01*
X73324699Y-63014352D01*
X73324698Y-63014352D01*
X73249337Y-63052751D01*
X73211658Y-63071950D01*
X73211657Y-63071951D01*
X73211652Y-63071954D01*
X73121954Y-63161652D01*
X73121951Y-63161657D01*
X73121950Y-63161658D01*
X73117792Y-63169819D01*
X73064352Y-63274698D01*
X73064352Y-63274699D01*
X73044508Y-63399996D01*
X68819531Y-63399996D01*
X68861574Y-63317482D01*
X68861575Y-63317477D01*
X68880181Y-63200003D01*
X68880181Y-63199996D01*
X68861575Y-63082522D01*
X68861575Y-63082521D01*
X68861574Y-63082519D01*
X68861574Y-63082518D01*
X68807573Y-62976535D01*
X68807571Y-62976533D01*
X68807568Y-62976529D01*
X68723470Y-62892431D01*
X68723466Y-62892428D01*
X68723465Y-62892427D01*
X68617482Y-62838426D01*
X68617480Y-62838425D01*
X68617477Y-62838424D01*
X68500003Y-62819819D01*
X68499997Y-62819819D01*
X68382522Y-62838424D01*
X68382521Y-62838424D01*
X68276533Y-62892428D01*
X68276529Y-62892431D01*
X68192431Y-62976529D01*
X68192428Y-62976533D01*
X68138424Y-63082521D01*
X68138424Y-63082522D01*
X68119819Y-63199996D01*
X66126475Y-63199996D01*
X65276475Y-62349996D01*
X70319819Y-62349996D01*
X70319819Y-62350003D01*
X70338424Y-62467477D01*
X70338424Y-62467478D01*
X70338425Y-62467481D01*
X70338426Y-62467482D01*
X70349899Y-62490000D01*
X70392428Y-62573466D01*
X70392431Y-62573470D01*
X70476529Y-62657568D01*
X70476533Y-62657571D01*
X70476535Y-62657573D01*
X70582518Y-62711574D01*
X70582520Y-62711574D01*
X70582522Y-62711575D01*
X70699997Y-62730181D01*
X70700000Y-62730181D01*
X70700003Y-62730181D01*
X70817477Y-62711575D01*
X70817478Y-62711575D01*
X70817479Y-62711574D01*
X70817482Y-62711574D01*
X70923465Y-62657573D01*
X71007573Y-62573465D01*
X71061574Y-62467482D01*
X71066856Y-62434133D01*
X71080181Y-62350003D01*
X71080181Y-62349996D01*
X71061575Y-62232522D01*
X71061575Y-62232521D01*
X71061574Y-62232519D01*
X71061574Y-62232518D01*
X71007573Y-62126535D01*
X71007571Y-62126533D01*
X71007568Y-62126529D01*
X70923470Y-62042431D01*
X70923466Y-62042428D01*
X70923465Y-62042427D01*
X70817482Y-61988426D01*
X70817480Y-61988425D01*
X70817477Y-61988424D01*
X70700003Y-61969819D01*
X70699997Y-61969819D01*
X70582522Y-61988424D01*
X70582521Y-61988424D01*
X70476533Y-62042428D01*
X70476529Y-62042431D01*
X70392431Y-62126529D01*
X70392428Y-62126533D01*
X70338424Y-62232521D01*
X70338424Y-62232522D01*
X70319819Y-62349996D01*
X65276475Y-62349996D01*
X65260739Y-62334260D01*
X65188890Y-62304501D01*
X65188888Y-62304500D01*
X65188887Y-62304500D01*
X65188885Y-62304500D01*
X60132341Y-62304500D01*
X60065302Y-62284815D01*
X60044660Y-62268181D01*
X59726475Y-61949996D01*
X67819819Y-61949996D01*
X67819819Y-61950003D01*
X67838424Y-62067477D01*
X67838424Y-62067478D01*
X67838425Y-62067481D01*
X67838426Y-62067482D01*
X67871232Y-62131868D01*
X67892428Y-62173466D01*
X67892431Y-62173470D01*
X67976529Y-62257568D01*
X67976533Y-62257571D01*
X67976535Y-62257573D01*
X68082518Y-62311574D01*
X68082520Y-62311574D01*
X68082522Y-62311575D01*
X68199997Y-62330181D01*
X68200000Y-62330181D01*
X68200003Y-62330181D01*
X68317477Y-62311575D01*
X68317478Y-62311575D01*
X68317479Y-62311574D01*
X68317482Y-62311574D01*
X68423465Y-62257573D01*
X68507573Y-62173465D01*
X68561574Y-62067482D01*
X68565542Y-62042428D01*
X68580181Y-61950003D01*
X68580181Y-61949996D01*
X68561575Y-61832522D01*
X68561575Y-61832521D01*
X68561574Y-61832519D01*
X68561574Y-61832518D01*
X68507573Y-61726535D01*
X68507571Y-61726533D01*
X68507568Y-61726529D01*
X68423470Y-61642431D01*
X68423466Y-61642428D01*
X68423465Y-61642427D01*
X68317482Y-61588426D01*
X68317480Y-61588425D01*
X68317477Y-61588424D01*
X68200003Y-61569819D01*
X68199997Y-61569819D01*
X68082522Y-61588424D01*
X68082521Y-61588424D01*
X67976533Y-61642428D01*
X67976529Y-61642431D01*
X67892431Y-61726529D01*
X67892428Y-61726533D01*
X67838424Y-61832521D01*
X67838424Y-61832522D01*
X67819819Y-61949996D01*
X59726475Y-61949996D01*
X59126475Y-61349996D01*
X69194508Y-61349996D01*
X69194508Y-61350003D01*
X69214352Y-61475300D01*
X69214352Y-61475301D01*
X69232805Y-61511517D01*
X69271950Y-61588342D01*
X69271952Y-61588344D01*
X69271954Y-61588347D01*
X69361652Y-61678045D01*
X69361654Y-61678046D01*
X69361658Y-61678050D01*
X69474696Y-61735646D01*
X69474697Y-61735646D01*
X69474699Y-61735647D01*
X69599997Y-61755492D01*
X69600000Y-61755492D01*
X69600003Y-61755492D01*
X69725300Y-61735647D01*
X69725301Y-61735647D01*
X69725302Y-61735646D01*
X69725304Y-61735646D01*
X69838342Y-61678050D01*
X69928050Y-61588342D01*
X69985646Y-61475304D01*
X69985646Y-61475302D01*
X69985647Y-61475301D01*
X69985647Y-61475300D01*
X70005492Y-61350003D01*
X70005492Y-61349996D01*
X69985647Y-61224699D01*
X69985647Y-61224698D01*
X69985646Y-61224696D01*
X69928050Y-61111658D01*
X69928046Y-61111654D01*
X69928045Y-61111652D01*
X69838347Y-61021954D01*
X69838344Y-61021952D01*
X69838342Y-61021950D01*
X69725304Y-60964354D01*
X69725303Y-60964353D01*
X69725300Y-60964352D01*
X69600003Y-60944508D01*
X69599997Y-60944508D01*
X69474699Y-60964352D01*
X69474698Y-60964352D01*
X69399337Y-61002751D01*
X69361658Y-61021950D01*
X69361657Y-61021951D01*
X69361652Y-61021954D01*
X69271954Y-61111652D01*
X69271951Y-61111657D01*
X69214352Y-61224698D01*
X69214352Y-61224699D01*
X69194508Y-61349996D01*
X59126475Y-61349996D01*
X58076475Y-60299996D01*
X59244508Y-60299996D01*
X59244508Y-60300003D01*
X59264352Y-60425300D01*
X59264352Y-60425301D01*
X59273726Y-60443698D01*
X59321950Y-60538342D01*
X59321952Y-60538344D01*
X59321954Y-60538347D01*
X59411652Y-60628045D01*
X59411654Y-60628046D01*
X59411658Y-60628050D01*
X59524696Y-60685646D01*
X59524697Y-60685646D01*
X59524699Y-60685647D01*
X59649997Y-60705492D01*
X59650000Y-60705492D01*
X59650003Y-60705492D01*
X59775300Y-60685647D01*
X59775301Y-60685647D01*
X59775302Y-60685646D01*
X59775304Y-60685646D01*
X59888342Y-60628050D01*
X59978050Y-60538342D01*
X60035646Y-60425304D01*
X60035646Y-60425302D01*
X60035647Y-60425301D01*
X60035647Y-60425300D01*
X60055492Y-60300003D01*
X60055492Y-60299996D01*
X60035647Y-60174699D01*
X60035647Y-60174698D01*
X60035646Y-60174696D01*
X59978050Y-60061658D01*
X59978046Y-60061654D01*
X59978045Y-60061652D01*
X59888347Y-59971954D01*
X59888344Y-59971952D01*
X59888342Y-59971950D01*
X59775304Y-59914354D01*
X59775303Y-59914353D01*
X59775300Y-59914352D01*
X59650003Y-59894508D01*
X59649997Y-59894508D01*
X59524699Y-59914352D01*
X59524698Y-59914352D01*
X59449337Y-59952751D01*
X59411658Y-59971950D01*
X59411657Y-59971951D01*
X59411652Y-59971954D01*
X59321954Y-60061652D01*
X59321951Y-60061657D01*
X59264352Y-60174698D01*
X59264352Y-60174699D01*
X59244508Y-60299996D01*
X58076475Y-60299996D01*
X57711901Y-59935422D01*
X57678416Y-59874099D01*
X57683400Y-59804407D01*
X57725272Y-59748474D01*
X57790736Y-59724057D01*
X57818979Y-59725267D01*
X57834459Y-59727719D01*
X57849999Y-59730181D01*
X57850000Y-59730181D01*
X57850003Y-59730181D01*
X57967477Y-59711575D01*
X57967478Y-59711575D01*
X57967479Y-59711574D01*
X57967482Y-59711574D01*
X58073465Y-59657573D01*
X58157573Y-59573465D01*
X58211574Y-59467482D01*
X58228198Y-59362521D01*
X58230181Y-59350003D01*
X58230181Y-59349996D01*
X58211575Y-59232522D01*
X58211575Y-59232521D01*
X58211574Y-59232519D01*
X58211574Y-59232518D01*
X58157573Y-59126535D01*
X58157571Y-59126533D01*
X58157568Y-59126529D01*
X58073470Y-59042431D01*
X58073466Y-59042428D01*
X58073465Y-59042427D01*
X57967482Y-58988426D01*
X57967480Y-58988425D01*
X57967477Y-58988424D01*
X57850003Y-58969819D01*
X57849997Y-58969819D01*
X57732522Y-58988424D01*
X57732521Y-58988424D01*
X57626533Y-59042428D01*
X57626529Y-59042431D01*
X57542431Y-59126529D01*
X57542428Y-59126533D01*
X57488424Y-59232521D01*
X57488424Y-59232522D01*
X57469819Y-59349996D01*
X57469819Y-59349998D01*
X57469819Y-59350000D01*
X57471666Y-59361659D01*
X57474732Y-59381021D01*
X57465776Y-59450314D01*
X57420779Y-59503765D01*
X57354027Y-59524404D01*
X57286713Y-59505678D01*
X57264577Y-59488098D01*
X54576475Y-56799996D01*
X56369819Y-56799996D01*
X56369819Y-56800003D01*
X56388424Y-56917477D01*
X56388424Y-56917478D01*
X56388425Y-56917481D01*
X56388426Y-56917482D01*
X56438208Y-57015185D01*
X56442428Y-57023466D01*
X56442431Y-57023470D01*
X56526529Y-57107568D01*
X56526533Y-57107571D01*
X56526535Y-57107573D01*
X56632518Y-57161574D01*
X56632520Y-57161574D01*
X56632522Y-57161575D01*
X56749997Y-57180181D01*
X56750000Y-57180181D01*
X56750003Y-57180181D01*
X56867477Y-57161575D01*
X56867478Y-57161575D01*
X56867479Y-57161574D01*
X56867482Y-57161574D01*
X56973465Y-57107573D01*
X56973470Y-57107568D01*
X57049220Y-57031819D01*
X57110543Y-56998334D01*
X57136901Y-56995500D01*
X57367659Y-56995500D01*
X57434698Y-57015185D01*
X57455340Y-57031819D01*
X60608560Y-60185039D01*
X60642045Y-60246362D01*
X60637061Y-60316054D01*
X60608560Y-60360401D01*
X60592431Y-60376529D01*
X60592428Y-60376533D01*
X60538424Y-60482521D01*
X60538424Y-60482522D01*
X60519819Y-60599996D01*
X60519819Y-60600003D01*
X60538424Y-60717477D01*
X60538424Y-60717478D01*
X60538425Y-60717481D01*
X60538426Y-60717482D01*
X60579234Y-60797573D01*
X60592428Y-60823466D01*
X60592431Y-60823470D01*
X60676529Y-60907568D01*
X60676533Y-60907571D01*
X60676535Y-60907573D01*
X60782518Y-60961574D01*
X60782520Y-60961574D01*
X60782522Y-60961575D01*
X60899997Y-60980181D01*
X60900000Y-60980181D01*
X60900003Y-60980181D01*
X61017477Y-60961575D01*
X61017478Y-60961575D01*
X61017479Y-60961574D01*
X61017482Y-60961574D01*
X61123465Y-60907573D01*
X61207573Y-60823465D01*
X61261574Y-60717482D01*
X61261575Y-60717477D01*
X61280181Y-60600003D01*
X61280181Y-60599996D01*
X61261575Y-60482522D01*
X61261575Y-60482521D01*
X61261574Y-60482519D01*
X61261574Y-60482518D01*
X61207573Y-60376535D01*
X61207571Y-60376533D01*
X61207568Y-60376529D01*
X61131819Y-60300780D01*
X61098334Y-60239457D01*
X61095500Y-60213099D01*
X61095500Y-60161114D01*
X61095498Y-60161109D01*
X61092291Y-60153367D01*
X61081961Y-60128426D01*
X61065739Y-60089260D01*
X60576475Y-59599996D01*
X73244508Y-59599996D01*
X73244508Y-59600003D01*
X73264352Y-59725300D01*
X73264352Y-59725301D01*
X73276160Y-59748474D01*
X73321950Y-59838342D01*
X73321952Y-59838344D01*
X73321954Y-59838347D01*
X73411652Y-59928045D01*
X73411654Y-59928046D01*
X73411658Y-59928050D01*
X73524696Y-59985646D01*
X73524697Y-59985646D01*
X73524699Y-59985647D01*
X73649997Y-60005492D01*
X73650000Y-60005492D01*
X73650003Y-60005492D01*
X73775300Y-59985647D01*
X73775301Y-59985647D01*
X73775302Y-59985646D01*
X73775304Y-59985646D01*
X73888342Y-59928050D01*
X73978050Y-59838342D01*
X74035646Y-59725304D01*
X74035646Y-59725302D01*
X74035647Y-59725301D01*
X74035647Y-59725300D01*
X74055492Y-59600003D01*
X74055492Y-59599996D01*
X74035647Y-59474699D01*
X74035647Y-59474698D01*
X74023955Y-59451751D01*
X73978050Y-59361658D01*
X73978046Y-59361654D01*
X73978045Y-59361652D01*
X73888347Y-59271954D01*
X73888344Y-59271952D01*
X73888342Y-59271950D01*
X73775304Y-59214354D01*
X73775303Y-59214353D01*
X73775300Y-59214352D01*
X73650003Y-59194508D01*
X73649997Y-59194508D01*
X73524699Y-59214352D01*
X73524698Y-59214352D01*
X73449337Y-59252751D01*
X73411658Y-59271950D01*
X73411657Y-59271951D01*
X73411652Y-59271954D01*
X73321954Y-59361652D01*
X73321951Y-59361657D01*
X73321950Y-59361658D01*
X73321510Y-59362522D01*
X73264352Y-59474698D01*
X73264352Y-59474699D01*
X73244508Y-59599996D01*
X60576475Y-59599996D01*
X58626475Y-57649996D01*
X59669819Y-57649996D01*
X59669819Y-57650003D01*
X59688424Y-57767477D01*
X59688424Y-57767478D01*
X59688425Y-57767481D01*
X59688426Y-57767482D01*
X59735441Y-57859755D01*
X59742428Y-57873466D01*
X59742431Y-57873470D01*
X59826529Y-57957568D01*
X59826533Y-57957571D01*
X59826535Y-57957573D01*
X59932518Y-58011574D01*
X59932520Y-58011574D01*
X59932522Y-58011575D01*
X60049997Y-58030181D01*
X60050000Y-58030181D01*
X60050003Y-58030181D01*
X60167477Y-58011575D01*
X60167478Y-58011575D01*
X60167479Y-58011574D01*
X60167482Y-58011574D01*
X60273465Y-57957573D01*
X60357573Y-57873465D01*
X60411574Y-57767482D01*
X60412537Y-57761400D01*
X60430181Y-57650003D01*
X60430181Y-57649996D01*
X60411575Y-57532522D01*
X60411575Y-57532521D01*
X60411574Y-57532519D01*
X60411574Y-57532518D01*
X60357573Y-57426535D01*
X60357571Y-57426533D01*
X60357568Y-57426529D01*
X60273470Y-57342431D01*
X60273466Y-57342428D01*
X60273465Y-57342427D01*
X60167482Y-57288426D01*
X60167480Y-57288425D01*
X60167477Y-57288424D01*
X60050003Y-57269819D01*
X60049997Y-57269819D01*
X59932522Y-57288424D01*
X59932521Y-57288424D01*
X59826533Y-57342428D01*
X59826529Y-57342431D01*
X59742431Y-57426529D01*
X59742428Y-57426533D01*
X59688424Y-57532521D01*
X59688424Y-57532522D01*
X59669819Y-57649996D01*
X58626475Y-57649996D01*
X58016021Y-57039542D01*
X57982536Y-56978219D01*
X57987520Y-56908527D01*
X58029392Y-56852594D01*
X58047393Y-56841384D01*
X58083332Y-56823073D01*
X58173040Y-56733365D01*
X58230636Y-56620327D01*
X58230636Y-56620325D01*
X58230637Y-56620324D01*
X58230637Y-56620323D01*
X58250482Y-56495026D01*
X58250482Y-56495019D01*
X58230637Y-56369722D01*
X58230637Y-56369721D01*
X58213275Y-56335647D01*
X58173040Y-56256681D01*
X58173036Y-56256677D01*
X58173035Y-56256675D01*
X58083337Y-56166977D01*
X58083334Y-56166975D01*
X58083332Y-56166973D01*
X57970294Y-56109377D01*
X57970293Y-56109376D01*
X57970290Y-56109375D01*
X57844993Y-56089531D01*
X57844987Y-56089531D01*
X57719689Y-56109375D01*
X57719688Y-56109375D01*
X57644327Y-56147774D01*
X57606648Y-56166973D01*
X57606647Y-56166974D01*
X57606642Y-56166977D01*
X57516944Y-56256675D01*
X57516941Y-56256680D01*
X57516940Y-56256681D01*
X57506053Y-56278048D01*
X57459342Y-56369721D01*
X57459342Y-56369722D01*
X57438726Y-56499897D01*
X57408797Y-56563032D01*
X57349486Y-56599964D01*
X57316253Y-56604500D01*
X57136901Y-56604500D01*
X57069862Y-56584815D01*
X57049220Y-56568181D01*
X56973470Y-56492431D01*
X56973466Y-56492428D01*
X56973465Y-56492427D01*
X56867482Y-56438426D01*
X56867480Y-56438425D01*
X56867477Y-56438424D01*
X56750003Y-56419819D01*
X56749997Y-56419819D01*
X56632522Y-56438424D01*
X56632521Y-56438424D01*
X56526533Y-56492428D01*
X56526529Y-56492431D01*
X56442431Y-56576529D01*
X56442428Y-56576533D01*
X56388424Y-56682521D01*
X56388424Y-56682522D01*
X56369819Y-56799996D01*
X54576475Y-56799996D01*
X53726475Y-55949996D01*
X54244508Y-55949996D01*
X54244508Y-55950003D01*
X54264352Y-56075300D01*
X54264352Y-56075301D01*
X54264354Y-56075304D01*
X54321950Y-56188342D01*
X54321952Y-56188344D01*
X54321954Y-56188347D01*
X54411652Y-56278045D01*
X54411654Y-56278046D01*
X54411658Y-56278050D01*
X54524696Y-56335646D01*
X54524697Y-56335646D01*
X54524699Y-56335647D01*
X54649997Y-56355492D01*
X54650000Y-56355492D01*
X54650003Y-56355492D01*
X54775300Y-56335647D01*
X54775301Y-56335647D01*
X54775302Y-56335646D01*
X54775304Y-56335646D01*
X54888342Y-56278050D01*
X54978050Y-56188342D01*
X55035646Y-56075304D01*
X55035646Y-56075302D01*
X55035647Y-56075301D01*
X55035647Y-56075300D01*
X55055492Y-55950003D01*
X55055492Y-55949996D01*
X55035647Y-55824699D01*
X55035647Y-55824698D01*
X55023064Y-55800003D01*
X55023060Y-55799996D01*
X63919819Y-55799996D01*
X63919819Y-55800003D01*
X63938424Y-55917477D01*
X63938424Y-55917478D01*
X63938425Y-55917481D01*
X63938426Y-55917482D01*
X63986368Y-56011574D01*
X63992428Y-56023466D01*
X63992431Y-56023470D01*
X64076529Y-56107568D01*
X64076533Y-56107571D01*
X64076535Y-56107573D01*
X64182518Y-56161574D01*
X64182520Y-56161574D01*
X64182522Y-56161575D01*
X64299997Y-56180181D01*
X64300000Y-56180181D01*
X64300003Y-56180181D01*
X64417477Y-56161575D01*
X64417478Y-56161575D01*
X64417479Y-56161574D01*
X64417482Y-56161574D01*
X64523465Y-56107573D01*
X64607573Y-56023465D01*
X64661574Y-55917482D01*
X64664257Y-55900542D01*
X64680181Y-55800003D01*
X64680181Y-55799996D01*
X64661575Y-55682522D01*
X64661575Y-55682521D01*
X64661574Y-55682519D01*
X64661574Y-55682518D01*
X64607573Y-55576535D01*
X64607571Y-55576533D01*
X64607568Y-55576529D01*
X64523470Y-55492431D01*
X64523466Y-55492428D01*
X64523465Y-55492427D01*
X64417482Y-55438426D01*
X64417480Y-55438425D01*
X64417477Y-55438424D01*
X64300003Y-55419819D01*
X64299997Y-55419819D01*
X64182522Y-55438424D01*
X64182521Y-55438424D01*
X64076533Y-55492428D01*
X64076529Y-55492431D01*
X63992431Y-55576529D01*
X63992428Y-55576533D01*
X63938424Y-55682521D01*
X63938424Y-55682522D01*
X63919819Y-55799996D01*
X55023060Y-55799996D01*
X54978050Y-55711658D01*
X54978046Y-55711654D01*
X54978045Y-55711652D01*
X54888347Y-55621954D01*
X54888344Y-55621952D01*
X54888342Y-55621950D01*
X54775304Y-55564354D01*
X54775303Y-55564353D01*
X54775300Y-55564352D01*
X54650003Y-55544508D01*
X54649997Y-55544508D01*
X54524699Y-55564352D01*
X54524698Y-55564352D01*
X54449337Y-55602751D01*
X54411658Y-55621950D01*
X54411657Y-55621951D01*
X54411652Y-55621954D01*
X54321954Y-55711652D01*
X54321951Y-55711657D01*
X54264352Y-55824698D01*
X54264352Y-55824699D01*
X54244508Y-55949996D01*
X53726475Y-55949996D01*
X53260739Y-55484260D01*
X53188890Y-55454501D01*
X53188888Y-55454500D01*
X53188887Y-55454500D01*
X53188885Y-55454500D01*
X52286901Y-55454500D01*
X52219862Y-55434815D01*
X52199220Y-55418181D01*
X52123470Y-55342431D01*
X52123466Y-55342428D01*
X52123465Y-55342427D01*
X52017482Y-55288426D01*
X52017480Y-55288425D01*
X52017477Y-55288424D01*
X51900003Y-55269819D01*
X51899997Y-55269819D01*
X51782522Y-55288424D01*
X51782521Y-55288424D01*
X51676533Y-55342428D01*
X51676529Y-55342431D01*
X51592431Y-55426529D01*
X51592428Y-55426533D01*
X51538424Y-55532521D01*
X51538424Y-55532522D01*
X51519819Y-55649996D01*
X51519819Y-55650003D01*
X51538424Y-55767477D01*
X51538424Y-55767478D01*
X51538425Y-55767481D01*
X51538426Y-55767482D01*
X51571235Y-55831874D01*
X51584131Y-55900542D01*
X51557854Y-55965282D01*
X51500748Y-56005539D01*
X51480153Y-56010639D01*
X51468768Y-56012442D01*
X51468764Y-56012443D01*
X51362776Y-56066447D01*
X51362772Y-56066450D01*
X51278674Y-56150548D01*
X51278671Y-56150552D01*
X51224667Y-56256540D01*
X51224667Y-56256541D01*
X51206062Y-56374015D01*
X51206062Y-56374022D01*
X51224667Y-56491496D01*
X51224667Y-56491497D01*
X51224668Y-56491500D01*
X51224669Y-56491501D01*
X51272638Y-56585646D01*
X51278671Y-56597485D01*
X51278674Y-56597489D01*
X51362772Y-56681587D01*
X51362776Y-56681590D01*
X51362778Y-56681592D01*
X51468761Y-56735593D01*
X51468763Y-56735593D01*
X51468765Y-56735594D01*
X51586239Y-56754200D01*
X51586240Y-56754199D01*
X51586243Y-56754200D01*
X51613363Y-56749904D01*
X51682652Y-56758857D01*
X51720441Y-56784696D01*
X53926686Y-58990941D01*
X53960171Y-59052264D01*
X53955187Y-59121956D01*
X53913315Y-59177889D01*
X53858403Y-59201095D01*
X53774699Y-59214352D01*
X53774698Y-59214352D01*
X53699337Y-59252751D01*
X53661658Y-59271950D01*
X53661657Y-59271951D01*
X53661652Y-59271954D01*
X53571954Y-59361652D01*
X53571949Y-59361659D01*
X53560484Y-59384161D01*
X53512510Y-59434956D01*
X53444688Y-59451751D01*
X53378554Y-59429213D01*
X53339516Y-59384161D01*
X53328490Y-59362522D01*
X53328050Y-59361658D01*
X53328047Y-59361655D01*
X53328045Y-59361652D01*
X53238347Y-59271954D01*
X53238344Y-59271952D01*
X53238342Y-59271950D01*
X53125304Y-59214354D01*
X53125303Y-59214353D01*
X53125300Y-59214352D01*
X53000003Y-59194508D01*
X52999997Y-59194508D01*
X52874699Y-59214352D01*
X52874698Y-59214352D01*
X52799337Y-59252751D01*
X52761658Y-59271950D01*
X52761657Y-59271951D01*
X52761652Y-59271954D01*
X52671954Y-59361652D01*
X52671951Y-59361657D01*
X52671950Y-59361658D01*
X52671510Y-59362522D01*
X52614352Y-59474698D01*
X52614352Y-59474699D01*
X52594508Y-59599996D01*
X52594508Y-59600000D01*
X52595464Y-59606037D01*
X52586507Y-59675330D01*
X52541510Y-59728781D01*
X52474758Y-59749419D01*
X52407445Y-59730693D01*
X52385309Y-59713113D01*
X51084434Y-58412238D01*
X51050949Y-58350915D01*
X51048115Y-58324557D01*
X51048115Y-57924834D01*
X51067800Y-57857795D01*
X51084429Y-57837157D01*
X51160188Y-57761399D01*
X51214189Y-57655416D01*
X51214190Y-57655411D01*
X51232796Y-57537937D01*
X51232796Y-57537930D01*
X51214190Y-57420456D01*
X51214190Y-57420455D01*
X51214189Y-57420453D01*
X51214189Y-57420452D01*
X51160188Y-57314469D01*
X51160186Y-57314467D01*
X51160183Y-57314463D01*
X51076085Y-57230365D01*
X51076081Y-57230362D01*
X51076080Y-57230361D01*
X50970097Y-57176360D01*
X50970095Y-57176359D01*
X50970092Y-57176358D01*
X50852618Y-57157753D01*
X50852612Y-57157753D01*
X50735137Y-57176358D01*
X50735136Y-57176358D01*
X50629148Y-57230362D01*
X50629144Y-57230365D01*
X50545046Y-57314463D01*
X50545041Y-57314471D01*
X50520429Y-57362773D01*
X50472454Y-57413569D01*
X50404633Y-57430363D01*
X50338498Y-57407825D01*
X50309624Y-57379358D01*
X50307570Y-57376531D01*
X50223470Y-57292431D01*
X50223466Y-57292428D01*
X50223465Y-57292427D01*
X50117482Y-57238426D01*
X50117480Y-57238425D01*
X50117477Y-57238424D01*
X50000003Y-57219819D01*
X49999997Y-57219819D01*
X49882522Y-57238424D01*
X49882521Y-57238424D01*
X49776533Y-57292428D01*
X49776529Y-57292431D01*
X49692431Y-57376529D01*
X49692428Y-57376533D01*
X49638424Y-57482521D01*
X49638424Y-57482522D01*
X49619819Y-57599996D01*
X49619819Y-57600003D01*
X49638424Y-57717477D01*
X49638424Y-57717478D01*
X49638425Y-57717481D01*
X49638426Y-57717482D01*
X49686561Y-57811953D01*
X49692428Y-57823466D01*
X49692431Y-57823470D01*
X49776529Y-57907568D01*
X49776533Y-57907571D01*
X49776535Y-57907573D01*
X49882518Y-57961574D01*
X49882520Y-57961574D01*
X49891214Y-57966004D01*
X49890390Y-57967619D01*
X49938345Y-58000406D01*
X49965547Y-58064764D01*
X49964830Y-58098301D01*
X49950399Y-58189421D01*
X49950399Y-58189423D01*
X49969004Y-58306897D01*
X49969004Y-58306898D01*
X49969005Y-58306901D01*
X49969006Y-58306902D01*
X50022677Y-58412238D01*
X50023008Y-58412886D01*
X50023011Y-58412890D01*
X50107109Y-58496988D01*
X50107113Y-58496991D01*
X50107115Y-58496993D01*
X50213098Y-58550994D01*
X50213100Y-58550994D01*
X50213102Y-58550995D01*
X50271839Y-58560297D01*
X50330580Y-58569601D01*
X50357699Y-58565305D01*
X50426988Y-58574258D01*
X50464777Y-58600097D01*
X53251665Y-61386985D01*
X53285150Y-61448308D01*
X53280166Y-61518000D01*
X53238294Y-61573933D01*
X53183382Y-61597139D01*
X53074698Y-61614352D01*
X52999337Y-61652751D01*
X52961658Y-61671950D01*
X52961657Y-61671951D01*
X52961652Y-61671954D01*
X52871954Y-61761652D01*
X52871951Y-61761657D01*
X52871950Y-61761658D01*
X52859727Y-61785647D01*
X52814352Y-61874698D01*
X52814352Y-61874699D01*
X52794508Y-61999996D01*
X52794508Y-62000003D01*
X52814352Y-62125300D01*
X52814352Y-62125301D01*
X52832805Y-62161517D01*
X52871950Y-62238342D01*
X52871952Y-62238344D01*
X52871954Y-62238347D01*
X52961652Y-62328045D01*
X52961654Y-62328046D01*
X52961658Y-62328050D01*
X53074696Y-62385646D01*
X53074697Y-62385646D01*
X53074699Y-62385647D01*
X53199997Y-62405492D01*
X53200000Y-62405492D01*
X53200003Y-62405492D01*
X53325300Y-62385647D01*
X53325301Y-62385647D01*
X53325302Y-62385646D01*
X53325304Y-62385646D01*
X53438342Y-62328050D01*
X53528050Y-62238342D01*
X53585646Y-62125304D01*
X53602860Y-62016614D01*
X53632788Y-61953483D01*
X53692100Y-61916551D01*
X53761962Y-61917549D01*
X53813014Y-61948334D01*
X55063181Y-63198501D01*
X55096666Y-63259824D01*
X55099500Y-63286182D01*
X55099500Y-66580920D01*
X55079815Y-66647959D01*
X55027011Y-66693714D01*
X54957853Y-66703658D01*
X54956103Y-66703393D01*
X54900003Y-66694508D01*
X54899997Y-66694508D01*
X54774699Y-66714352D01*
X54774698Y-66714352D01*
X54700500Y-66752159D01*
X54661658Y-66771950D01*
X54661657Y-66771951D01*
X54661652Y-66771954D01*
X54571954Y-66861652D01*
X54571951Y-66861657D01*
X54571950Y-66861658D01*
X54552751Y-66899337D01*
X54514352Y-66974698D01*
X54514352Y-66974699D01*
X54494508Y-67099996D01*
X54494508Y-67100003D01*
X54514352Y-67225300D01*
X54514352Y-67225301D01*
X54515752Y-67228048D01*
X54571950Y-67338342D01*
X54571952Y-67338344D01*
X54571954Y-67338347D01*
X54661652Y-67428045D01*
X54661654Y-67428046D01*
X54661658Y-67428050D01*
X54735189Y-67465516D01*
X54785984Y-67513490D01*
X54802779Y-67581311D01*
X54780241Y-67647446D01*
X54725526Y-67690897D01*
X54678893Y-67700000D01*
X54119973Y-67700000D01*
X54052934Y-67680315D01*
X54007179Y-67627511D01*
X53997235Y-67558353D01*
X54009486Y-67519709D01*
X54061574Y-67417482D01*
X54074108Y-67338347D01*
X54080181Y-67300003D01*
X54080181Y-67299996D01*
X54061575Y-67182521D01*
X54061574Y-67182519D01*
X54061574Y-67182518D01*
X54007573Y-67076535D01*
X54007571Y-67076533D01*
X54007568Y-67076529D01*
X53931819Y-67000780D01*
X53898334Y-66939457D01*
X53895500Y-66913099D01*
X53895500Y-66385376D01*
X53915185Y-66318337D01*
X53967989Y-66272582D01*
X53981179Y-66267446D01*
X53987478Y-66265399D01*
X53987479Y-66265398D01*
X53987482Y-66265398D01*
X54093465Y-66211397D01*
X54177573Y-66127289D01*
X54231574Y-66021306D01*
X54236148Y-65992427D01*
X54250181Y-65903827D01*
X54250181Y-65903820D01*
X54231575Y-65786346D01*
X54231575Y-65786345D01*
X54231574Y-65786343D01*
X54231574Y-65786342D01*
X54177573Y-65680359D01*
X54177571Y-65680357D01*
X54177568Y-65680353D01*
X54093470Y-65596255D01*
X54093466Y-65596252D01*
X54093465Y-65596251D01*
X53987482Y-65542250D01*
X53987480Y-65542249D01*
X53987477Y-65542248D01*
X53870003Y-65523643D01*
X53869997Y-65523643D01*
X53752522Y-65542248D01*
X53752521Y-65542248D01*
X53646533Y-65596252D01*
X53646529Y-65596255D01*
X53555526Y-65687259D01*
X53553949Y-65685682D01*
X53509088Y-65720268D01*
X53439474Y-65726239D01*
X53377683Y-65693626D01*
X53376433Y-65692393D01*
X51234036Y-63549996D01*
X53469819Y-63549996D01*
X53469819Y-63550003D01*
X53488424Y-63667477D01*
X53488424Y-63667478D01*
X53488425Y-63667481D01*
X53488426Y-63667482D01*
X53528606Y-63746340D01*
X53542428Y-63773466D01*
X53542431Y-63773470D01*
X53633435Y-63864474D01*
X53632069Y-63865839D01*
X53667291Y-63911515D01*
X53673270Y-63981128D01*
X53640665Y-64042923D01*
X53639422Y-64044185D01*
X53571951Y-64111655D01*
X53571951Y-64111657D01*
X53514352Y-64224698D01*
X53514352Y-64224699D01*
X53494508Y-64349996D01*
X53494508Y-64350003D01*
X53514352Y-64475300D01*
X53514352Y-64475301D01*
X53514354Y-64475304D01*
X53571950Y-64588342D01*
X53571952Y-64588344D01*
X53571954Y-64588347D01*
X53661652Y-64678045D01*
X53661654Y-64678046D01*
X53661658Y-64678050D01*
X53774696Y-64735646D01*
X53774697Y-64735646D01*
X53774699Y-64735647D01*
X53899997Y-64755492D01*
X53900000Y-64755492D01*
X53900003Y-64755492D01*
X54025300Y-64735647D01*
X54025301Y-64735647D01*
X54025302Y-64735646D01*
X54025304Y-64735646D01*
X54138342Y-64678050D01*
X54228050Y-64588342D01*
X54285646Y-64475304D01*
X54285646Y-64475302D01*
X54285647Y-64475301D01*
X54285647Y-64475300D01*
X54305492Y-64350003D01*
X54305492Y-64349996D01*
X54285647Y-64224699D01*
X54285647Y-64224698D01*
X54262270Y-64178819D01*
X54228050Y-64111658D01*
X54228046Y-64111654D01*
X54228045Y-64111652D01*
X54138347Y-64021954D01*
X54138343Y-64021951D01*
X54138342Y-64021950D01*
X54138340Y-64021949D01*
X54130450Y-64016217D01*
X54131228Y-64015146D01*
X54087743Y-63974076D01*
X54070948Y-63906255D01*
X54093486Y-63840120D01*
X54107154Y-63823884D01*
X54125546Y-63805492D01*
X54157573Y-63773465D01*
X54211574Y-63667482D01*
X54213927Y-63652627D01*
X54230181Y-63550003D01*
X54230181Y-63549996D01*
X54211575Y-63432522D01*
X54211575Y-63432521D01*
X54211574Y-63432519D01*
X54211574Y-63432518D01*
X54157573Y-63326535D01*
X54157571Y-63326533D01*
X54157568Y-63326529D01*
X54073470Y-63242431D01*
X54073466Y-63242428D01*
X54073465Y-63242427D01*
X53967482Y-63188426D01*
X53967480Y-63188425D01*
X53967477Y-63188424D01*
X53850003Y-63169819D01*
X53849997Y-63169819D01*
X53732522Y-63188424D01*
X53732521Y-63188424D01*
X53626533Y-63242428D01*
X53626529Y-63242431D01*
X53542431Y-63326529D01*
X53542428Y-63326533D01*
X53488424Y-63432521D01*
X53488424Y-63432522D01*
X53469819Y-63549996D01*
X51234036Y-63549996D01*
X50934747Y-63250707D01*
X50901262Y-63189384D01*
X50898428Y-63163026D01*
X50898428Y-61399996D01*
X51594508Y-61399996D01*
X51594508Y-61400003D01*
X51614352Y-61525300D01*
X51614352Y-61525301D01*
X51617237Y-61530962D01*
X51671950Y-61638342D01*
X51671952Y-61638344D01*
X51671954Y-61638347D01*
X51761652Y-61728045D01*
X51761654Y-61728046D01*
X51761658Y-61728050D01*
X51874696Y-61785646D01*
X51874697Y-61785646D01*
X51874699Y-61785647D01*
X51999997Y-61805492D01*
X52000000Y-61805492D01*
X52000003Y-61805492D01*
X52125300Y-61785647D01*
X52125301Y-61785647D01*
X52125302Y-61785646D01*
X52125304Y-61785646D01*
X52238342Y-61728050D01*
X52328050Y-61638342D01*
X52385646Y-61525304D01*
X52385646Y-61525302D01*
X52385647Y-61525301D01*
X52385647Y-61525300D01*
X52405492Y-61400003D01*
X52405492Y-61399996D01*
X52385647Y-61274699D01*
X52385647Y-61274698D01*
X52385646Y-61274696D01*
X52328050Y-61161658D01*
X52328046Y-61161654D01*
X52328045Y-61161652D01*
X52238347Y-61071954D01*
X52238344Y-61071952D01*
X52238342Y-61071950D01*
X52125304Y-61014354D01*
X52125303Y-61014353D01*
X52125300Y-61014352D01*
X52000003Y-60994508D01*
X51999997Y-60994508D01*
X51874699Y-61014352D01*
X51874698Y-61014352D01*
X51799337Y-61052751D01*
X51761658Y-61071950D01*
X51761657Y-61071951D01*
X51761652Y-61071954D01*
X51671954Y-61161652D01*
X51671951Y-61161657D01*
X51614352Y-61274698D01*
X51614352Y-61274699D01*
X51594508Y-61399996D01*
X50898428Y-61399996D01*
X50898428Y-59844041D01*
X50897407Y-59841577D01*
X50897404Y-59841568D01*
X50887434Y-59817498D01*
X50868667Y-59772191D01*
X50868665Y-59772186D01*
X50813670Y-59717191D01*
X50710677Y-59614198D01*
X50677192Y-59552875D01*
X50675885Y-59507122D01*
X50680181Y-59480000D01*
X50680181Y-59479997D01*
X50680181Y-59479996D01*
X50661575Y-59362522D01*
X50661575Y-59362521D01*
X50661574Y-59362519D01*
X50661574Y-59362518D01*
X50607573Y-59256535D01*
X50607571Y-59256533D01*
X50607568Y-59256529D01*
X50523470Y-59172431D01*
X50523466Y-59172428D01*
X50523465Y-59172427D01*
X50417482Y-59118426D01*
X50417480Y-59118425D01*
X50417477Y-59118424D01*
X50300003Y-59099819D01*
X50299997Y-59099819D01*
X50182522Y-59118424D01*
X50182521Y-59118424D01*
X50076533Y-59172428D01*
X50076529Y-59172431D01*
X49992431Y-59256529D01*
X49992428Y-59256533D01*
X49938424Y-59362521D01*
X49938424Y-59362522D01*
X49919819Y-59479996D01*
X49919819Y-59480003D01*
X49938424Y-59597477D01*
X49938424Y-59597478D01*
X49938425Y-59597481D01*
X49938426Y-59597482D01*
X49969041Y-59657568D01*
X49992428Y-59703466D01*
X49998166Y-59711364D01*
X49995299Y-59713446D01*
X50020234Y-59759111D01*
X50015250Y-59828803D01*
X50004773Y-59848322D01*
X50004785Y-59848328D01*
X49973112Y-59910488D01*
X49925137Y-59961284D01*
X49857316Y-59978078D01*
X49843232Y-59976666D01*
X49813461Y-59971951D01*
X49800000Y-59969819D01*
X49799999Y-59969819D01*
X49799997Y-59969819D01*
X49682522Y-59988424D01*
X49682521Y-59988424D01*
X49576533Y-60042428D01*
X49576529Y-60042431D01*
X49512181Y-60106780D01*
X49450858Y-60140265D01*
X49381166Y-60135281D01*
X49325233Y-60093409D01*
X49300816Y-60027945D01*
X49300500Y-60019099D01*
X49300500Y-55002424D01*
X49300596Y-54997556D01*
X49310107Y-54755492D01*
X49317878Y-54557693D01*
X49318641Y-54547995D01*
X49326942Y-54477861D01*
X49370100Y-54113215D01*
X49371619Y-54103627D01*
X49457032Y-53674230D01*
X49459294Y-53664810D01*
X49578132Y-53243438D01*
X49581127Y-53234219D01*
X49667536Y-52999998D01*
X51044518Y-52999998D01*
X51044518Y-53000001D01*
X51064422Y-53278299D01*
X51123727Y-53550916D01*
X51123729Y-53550923D01*
X51156334Y-53638341D01*
X51221231Y-53812338D01*
X51221233Y-53812342D01*
X51354940Y-54057207D01*
X51354945Y-54057215D01*
X51522138Y-54280560D01*
X51522154Y-54280578D01*
X51719421Y-54477845D01*
X51719439Y-54477861D01*
X51942784Y-54645054D01*
X51942792Y-54645059D01*
X52187657Y-54778766D01*
X52187661Y-54778768D01*
X52187663Y-54778769D01*
X52449077Y-54876271D01*
X52585391Y-54905924D01*
X52721700Y-54935577D01*
X52721702Y-54935577D01*
X52721706Y-54935578D01*
X52969014Y-54953265D01*
X52999999Y-54955482D01*
X53000000Y-54955482D01*
X53000001Y-54955482D01*
X53027881Y-54953487D01*
X53278294Y-54935578D01*
X53550923Y-54876271D01*
X53812337Y-54778769D01*
X53956598Y-54699996D01*
X67119819Y-54699996D01*
X67119819Y-54700003D01*
X67138424Y-54817477D01*
X67138424Y-54817478D01*
X67138425Y-54817481D01*
X67138426Y-54817482D01*
X67168380Y-54876271D01*
X67192428Y-54923466D01*
X67192431Y-54923470D01*
X67276529Y-55007568D01*
X67276533Y-55007571D01*
X67276535Y-55007573D01*
X67382518Y-55061574D01*
X67382520Y-55061574D01*
X67382522Y-55061575D01*
X67499997Y-55080181D01*
X67500000Y-55080181D01*
X67500003Y-55080181D01*
X67617477Y-55061575D01*
X67617478Y-55061575D01*
X67617479Y-55061574D01*
X67617482Y-55061574D01*
X67723465Y-55007573D01*
X67807573Y-54923465D01*
X67861574Y-54817482D01*
X67861575Y-54817477D01*
X67880181Y-54700003D01*
X67880181Y-54699996D01*
X67861575Y-54582522D01*
X67861575Y-54582521D01*
X67861574Y-54582519D01*
X67861574Y-54582518D01*
X67807573Y-54476535D01*
X67807571Y-54476533D01*
X67807568Y-54476529D01*
X67723470Y-54392431D01*
X67723466Y-54392428D01*
X67723465Y-54392427D01*
X67617482Y-54338426D01*
X67617480Y-54338425D01*
X67617477Y-54338424D01*
X67500003Y-54319819D01*
X67499997Y-54319819D01*
X67382522Y-54338424D01*
X67382521Y-54338424D01*
X67276533Y-54392428D01*
X67276529Y-54392431D01*
X67192431Y-54476529D01*
X67192428Y-54476533D01*
X67138424Y-54582521D01*
X67138424Y-54582522D01*
X67119819Y-54699996D01*
X53956598Y-54699996D01*
X54057213Y-54645056D01*
X54280568Y-54477855D01*
X54477855Y-54280568D01*
X54645056Y-54057213D01*
X54778769Y-53812337D01*
X54876271Y-53550923D01*
X54887350Y-53499996D01*
X64294508Y-53499996D01*
X64294508Y-53500003D01*
X64314352Y-53625300D01*
X64314352Y-53625301D01*
X64332805Y-53661517D01*
X64371950Y-53738342D01*
X64371952Y-53738344D01*
X64371954Y-53738347D01*
X64461652Y-53828045D01*
X64461654Y-53828046D01*
X64461658Y-53828050D01*
X64574696Y-53885646D01*
X64574697Y-53885646D01*
X64574699Y-53885647D01*
X64699997Y-53905492D01*
X64700000Y-53905492D01*
X64700003Y-53905492D01*
X64825300Y-53885647D01*
X64825301Y-53885647D01*
X64825302Y-53885646D01*
X64825304Y-53885646D01*
X64938342Y-53828050D01*
X65028050Y-53738342D01*
X65085646Y-53625304D01*
X65085646Y-53625302D01*
X65085647Y-53625301D01*
X65085647Y-53625300D01*
X65105492Y-53500003D01*
X65105492Y-53499996D01*
X65085647Y-53374699D01*
X65085647Y-53374698D01*
X65082320Y-53368169D01*
X65028050Y-53261658D01*
X65028046Y-53261654D01*
X65028045Y-53261652D01*
X64938347Y-53171954D01*
X64938344Y-53171952D01*
X64938342Y-53171950D01*
X64825304Y-53114354D01*
X64825303Y-53114353D01*
X64825300Y-53114352D01*
X64700003Y-53094508D01*
X64699997Y-53094508D01*
X64574699Y-53114352D01*
X64574698Y-53114352D01*
X64499337Y-53152751D01*
X64461658Y-53171950D01*
X64461657Y-53171951D01*
X64461652Y-53171954D01*
X64371954Y-53261652D01*
X64371951Y-53261657D01*
X64371950Y-53261658D01*
X64363471Y-53278299D01*
X64314352Y-53374698D01*
X64314352Y-53374699D01*
X64294508Y-53499996D01*
X54887350Y-53499996D01*
X54935578Y-53278294D01*
X54955482Y-53000000D01*
X54935578Y-52721706D01*
X54930855Y-52699996D01*
X54888540Y-52505476D01*
X54876271Y-52449077D01*
X54778769Y-52187663D01*
X54748679Y-52132558D01*
X54730890Y-52099980D01*
X64194508Y-52099980D01*
X64194508Y-52099987D01*
X64214352Y-52225284D01*
X64214352Y-52225285D01*
X64214354Y-52225288D01*
X64271950Y-52338326D01*
X64271952Y-52338328D01*
X64271954Y-52338331D01*
X64361652Y-52428029D01*
X64361654Y-52428030D01*
X64361658Y-52428034D01*
X64474696Y-52485630D01*
X64474697Y-52485630D01*
X64474699Y-52485631D01*
X64599997Y-52505476D01*
X64600000Y-52505476D01*
X64600003Y-52505476D01*
X64725300Y-52485631D01*
X64725301Y-52485631D01*
X64725302Y-52485630D01*
X64725304Y-52485630D01*
X64838342Y-52428034D01*
X64928050Y-52338326D01*
X64985646Y-52225288D01*
X64985646Y-52225286D01*
X64985647Y-52225285D01*
X64985647Y-52225284D01*
X65005492Y-52099987D01*
X65005492Y-52099980D01*
X64989656Y-51999996D01*
X65594508Y-51999996D01*
X65594508Y-52000003D01*
X65614352Y-52125300D01*
X65614352Y-52125301D01*
X65614354Y-52125304D01*
X65671950Y-52238342D01*
X65671952Y-52238344D01*
X65671954Y-52238347D01*
X65761652Y-52328045D01*
X65761654Y-52328046D01*
X65761658Y-52328050D01*
X65874696Y-52385646D01*
X65874697Y-52385646D01*
X65874699Y-52385647D01*
X65999997Y-52405492D01*
X66000000Y-52405492D01*
X66000003Y-52405492D01*
X66125300Y-52385647D01*
X66125301Y-52385646D01*
X66125304Y-52385646D01*
X66170712Y-52362509D01*
X66239377Y-52349613D01*
X66304118Y-52375888D01*
X66344376Y-52432994D01*
X66347370Y-52502799D01*
X66337490Y-52529288D01*
X66314353Y-52574695D01*
X66314352Y-52574699D01*
X66294508Y-52699996D01*
X66294508Y-52700003D01*
X66314352Y-52825300D01*
X66314352Y-52825301D01*
X66337486Y-52870702D01*
X66350382Y-52939371D01*
X66324106Y-53004111D01*
X66267000Y-53044369D01*
X66197194Y-53047361D01*
X66170709Y-53037483D01*
X66125304Y-53014348D01*
X66125303Y-53014347D01*
X66125300Y-53014346D01*
X66000003Y-52994502D01*
X65999997Y-52994502D01*
X65874699Y-53014346D01*
X65874698Y-53014346D01*
X65799560Y-53052632D01*
X65761658Y-53071944D01*
X65761657Y-53071945D01*
X65761652Y-53071948D01*
X65671954Y-53161646D01*
X65671951Y-53161651D01*
X65671950Y-53161652D01*
X65666701Y-53171954D01*
X65614352Y-53274692D01*
X65614352Y-53274693D01*
X65594508Y-53399990D01*
X65594508Y-53399997D01*
X65614352Y-53525294D01*
X65614352Y-53525295D01*
X65614354Y-53525298D01*
X65671950Y-53638336D01*
X65671952Y-53638338D01*
X65671954Y-53638341D01*
X65761652Y-53728039D01*
X65761654Y-53728040D01*
X65761658Y-53728044D01*
X65874696Y-53785640D01*
X65874697Y-53785640D01*
X65874699Y-53785641D01*
X65999997Y-53805486D01*
X66000000Y-53805486D01*
X66000003Y-53805486D01*
X66034666Y-53799996D01*
X69219819Y-53799996D01*
X69219819Y-53800003D01*
X69238424Y-53917477D01*
X69238424Y-53917478D01*
X69238425Y-53917481D01*
X69238426Y-53917482D01*
X69291657Y-54021954D01*
X69292428Y-54023466D01*
X69292431Y-54023470D01*
X69376529Y-54107568D01*
X69376533Y-54107571D01*
X69376535Y-54107573D01*
X69482518Y-54161574D01*
X69482520Y-54161574D01*
X69482522Y-54161575D01*
X69547182Y-54171816D01*
X69610317Y-54201745D01*
X69647249Y-54261056D01*
X69650259Y-54313684D01*
X69644508Y-54349999D01*
X69644508Y-54350003D01*
X69664352Y-54475300D01*
X69664352Y-54475301D01*
X69682805Y-54511517D01*
X69721950Y-54588342D01*
X69721952Y-54588344D01*
X69721954Y-54588347D01*
X69811652Y-54678045D01*
X69811654Y-54678046D01*
X69811658Y-54678050D01*
X69924696Y-54735646D01*
X69924697Y-54735646D01*
X69924699Y-54735647D01*
X70049997Y-54755492D01*
X70050000Y-54755492D01*
X70050003Y-54755492D01*
X70175300Y-54735647D01*
X70175301Y-54735647D01*
X70175302Y-54735646D01*
X70175304Y-54735646D01*
X70288342Y-54678050D01*
X70378050Y-54588342D01*
X70435646Y-54475304D01*
X70435646Y-54475302D01*
X70435647Y-54475301D01*
X70435647Y-54475300D01*
X70455492Y-54350003D01*
X70455492Y-54349996D01*
X70435647Y-54224699D01*
X70435647Y-54224698D01*
X70412964Y-54180181D01*
X70378050Y-54111658D01*
X70378046Y-54111654D01*
X70378045Y-54111652D01*
X70288347Y-54021954D01*
X70288344Y-54021952D01*
X70288342Y-54021950D01*
X70211517Y-53982805D01*
X70175301Y-53964352D01*
X70082035Y-53949581D01*
X70018900Y-53919652D01*
X69981969Y-53860340D01*
X69978960Y-53807709D01*
X69980181Y-53800000D01*
X69980181Y-53799996D01*
X69961575Y-53682522D01*
X69961575Y-53682521D01*
X69961574Y-53682519D01*
X69961574Y-53682518D01*
X69907573Y-53576535D01*
X69907571Y-53576533D01*
X69907568Y-53576529D01*
X69823470Y-53492431D01*
X69823466Y-53492428D01*
X69823465Y-53492427D01*
X69717482Y-53438426D01*
X69717480Y-53438425D01*
X69717477Y-53438424D01*
X69600003Y-53419819D01*
X69599997Y-53419819D01*
X69482522Y-53438424D01*
X69482521Y-53438424D01*
X69376533Y-53492428D01*
X69376529Y-53492431D01*
X69292431Y-53576529D01*
X69292428Y-53576533D01*
X69238424Y-53682521D01*
X69238424Y-53682522D01*
X69219819Y-53799996D01*
X66034666Y-53799996D01*
X66125300Y-53785641D01*
X66125301Y-53785641D01*
X66125302Y-53785640D01*
X66125304Y-53785640D01*
X66238342Y-53728044D01*
X66328050Y-53638336D01*
X66385646Y-53525298D01*
X66385646Y-53525296D01*
X66385647Y-53525295D01*
X66385647Y-53525294D01*
X66405492Y-53399997D01*
X66405492Y-53399990D01*
X66385647Y-53274693D01*
X66385646Y-53274690D01*
X66369733Y-53243460D01*
X66362513Y-53229290D01*
X66349617Y-53160623D01*
X66375893Y-53095882D01*
X66432999Y-53055625D01*
X66502804Y-53052632D01*
X66529290Y-53062510D01*
X66574696Y-53085646D01*
X66574699Y-53085647D01*
X66699997Y-53105492D01*
X66700000Y-53105492D01*
X66700003Y-53105492D01*
X66825300Y-53085647D01*
X66825301Y-53085647D01*
X66825302Y-53085646D01*
X66825304Y-53085646D01*
X66938342Y-53028050D01*
X66966394Y-52999998D01*
X71044518Y-52999998D01*
X71044518Y-53000001D01*
X71064422Y-53278299D01*
X71123727Y-53550916D01*
X71123729Y-53550923D01*
X71156334Y-53638341D01*
X71221231Y-53812338D01*
X71221233Y-53812342D01*
X71354940Y-54057207D01*
X71354945Y-54057215D01*
X71522138Y-54280560D01*
X71522154Y-54280578D01*
X71719421Y-54477845D01*
X71719439Y-54477861D01*
X71942784Y-54645054D01*
X71942792Y-54645059D01*
X72187657Y-54778766D01*
X72187661Y-54778768D01*
X72187663Y-54778769D01*
X72449077Y-54876271D01*
X72585391Y-54905924D01*
X72721700Y-54935577D01*
X72721702Y-54935577D01*
X72721706Y-54935578D01*
X72969014Y-54953265D01*
X72999999Y-54955482D01*
X73000000Y-54955482D01*
X73000001Y-54955482D01*
X73027881Y-54953487D01*
X73278294Y-54935578D01*
X73550923Y-54876271D01*
X73812337Y-54778769D01*
X74057213Y-54645056D01*
X74280568Y-54477855D01*
X74477855Y-54280568D01*
X74645056Y-54057213D01*
X74778769Y-53812337D01*
X74876271Y-53550923D01*
X74935578Y-53278294D01*
X74955482Y-53000000D01*
X74935578Y-52721706D01*
X74930855Y-52699996D01*
X74888540Y-52505476D01*
X74876271Y-52449077D01*
X74778769Y-52187663D01*
X74748679Y-52132558D01*
X74645059Y-51942792D01*
X74645054Y-51942784D01*
X74477861Y-51719439D01*
X74477845Y-51719421D01*
X74280578Y-51522154D01*
X74280560Y-51522138D01*
X74057215Y-51354945D01*
X74057207Y-51354940D01*
X73812342Y-51221233D01*
X73812338Y-51221231D01*
X73684284Y-51173470D01*
X73550923Y-51123729D01*
X73550919Y-51123728D01*
X73550916Y-51123727D01*
X73278299Y-51064422D01*
X73000001Y-51044518D01*
X72999999Y-51044518D01*
X72721700Y-51064422D01*
X72449083Y-51123727D01*
X72449078Y-51123728D01*
X72449077Y-51123729D01*
X72441554Y-51126535D01*
X72187661Y-51221231D01*
X72187657Y-51221233D01*
X71942792Y-51354940D01*
X71942784Y-51354945D01*
X71719439Y-51522138D01*
X71719421Y-51522154D01*
X71522154Y-51719421D01*
X71522138Y-51719439D01*
X71354945Y-51942784D01*
X71354940Y-51942792D01*
X71221233Y-52187657D01*
X71221231Y-52187661D01*
X71165037Y-52338326D01*
X71131579Y-52428032D01*
X71123727Y-52449083D01*
X71064422Y-52721700D01*
X71044518Y-52999998D01*
X66966394Y-52999998D01*
X67028050Y-52938342D01*
X67085646Y-52825304D01*
X67085646Y-52825302D01*
X67085647Y-52825301D01*
X67085647Y-52825300D01*
X67105492Y-52700003D01*
X67105492Y-52699996D01*
X67085647Y-52574699D01*
X67085647Y-52574698D01*
X67085645Y-52574695D01*
X67028050Y-52461658D01*
X67028046Y-52461654D01*
X67028045Y-52461652D01*
X66938347Y-52371954D01*
X66938344Y-52371952D01*
X66938342Y-52371950D01*
X66825304Y-52314354D01*
X66825303Y-52314353D01*
X66825300Y-52314352D01*
X66700003Y-52294508D01*
X66699997Y-52294508D01*
X66574699Y-52314352D01*
X66574695Y-52314353D01*
X66529288Y-52337490D01*
X66460619Y-52350386D01*
X66395879Y-52324109D01*
X66355622Y-52267003D01*
X66352630Y-52197197D01*
X66362506Y-52170718D01*
X66385646Y-52125304D01*
X66389656Y-52099987D01*
X66405492Y-52000003D01*
X66405492Y-51999996D01*
X66385647Y-51874699D01*
X66385647Y-51874698D01*
X66385646Y-51874696D01*
X66328050Y-51761658D01*
X66328046Y-51761654D01*
X66328045Y-51761652D01*
X66238347Y-51671954D01*
X66238344Y-51671952D01*
X66238342Y-51671950D01*
X66125304Y-51614354D01*
X66125303Y-51614353D01*
X66125300Y-51614352D01*
X66000003Y-51594508D01*
X65999997Y-51594508D01*
X65874699Y-51614352D01*
X65874698Y-51614352D01*
X65813400Y-51645586D01*
X65761658Y-51671950D01*
X65761657Y-51671951D01*
X65761652Y-51671954D01*
X65671954Y-51761652D01*
X65671951Y-51761657D01*
X65614352Y-51874698D01*
X65614352Y-51874699D01*
X65594508Y-51999996D01*
X64989656Y-51999996D01*
X64985647Y-51974683D01*
X64985647Y-51974682D01*
X64969398Y-51942792D01*
X64928050Y-51861642D01*
X64928046Y-51861638D01*
X64928045Y-51861636D01*
X64838347Y-51771938D01*
X64838344Y-51771936D01*
X64838342Y-51771934D01*
X64725304Y-51714338D01*
X64725303Y-51714337D01*
X64725300Y-51714336D01*
X64600003Y-51694492D01*
X64599997Y-51694492D01*
X64474699Y-51714336D01*
X64474698Y-51714336D01*
X64399337Y-51752735D01*
X64361658Y-51771934D01*
X64361657Y-51771935D01*
X64361652Y-51771938D01*
X64271954Y-51861636D01*
X64271951Y-51861641D01*
X64214352Y-51974682D01*
X64214352Y-51974683D01*
X64194508Y-52099980D01*
X54730890Y-52099980D01*
X54645059Y-51942792D01*
X54645054Y-51942784D01*
X54477861Y-51719439D01*
X54477845Y-51719421D01*
X54280578Y-51522154D01*
X54280560Y-51522138D01*
X54057215Y-51354945D01*
X54057207Y-51354940D01*
X53812342Y-51221233D01*
X53812338Y-51221231D01*
X53684284Y-51173470D01*
X53550923Y-51123729D01*
X53550919Y-51123728D01*
X53550916Y-51123727D01*
X53278299Y-51064422D01*
X53000001Y-51044518D01*
X52999999Y-51044518D01*
X52721700Y-51064422D01*
X52449083Y-51123727D01*
X52449078Y-51123728D01*
X52449077Y-51123729D01*
X52441554Y-51126535D01*
X52187661Y-51221231D01*
X52187657Y-51221233D01*
X51942792Y-51354940D01*
X51942784Y-51354945D01*
X51719439Y-51522138D01*
X51719421Y-51522154D01*
X51522154Y-51719421D01*
X51522138Y-51719439D01*
X51354945Y-51942784D01*
X51354940Y-51942792D01*
X51221233Y-52187657D01*
X51221231Y-52187661D01*
X51165037Y-52338326D01*
X51131579Y-52428032D01*
X51123727Y-52449083D01*
X51064422Y-52721700D01*
X51044518Y-52999998D01*
X49667536Y-52999998D01*
X49732666Y-52823456D01*
X49736389Y-52814471D01*
X49789159Y-52700003D01*
X49919673Y-52416894D01*
X49924088Y-52408231D01*
X50138000Y-52026265D01*
X50143087Y-52017963D01*
X50172006Y-51974683D01*
X50386311Y-51653953D01*
X50392012Y-51646106D01*
X50663066Y-51302275D01*
X50669357Y-51294909D01*
X50966556Y-50973402D01*
X50973402Y-50966556D01*
X51294909Y-50669357D01*
X51302275Y-50663066D01*
X51646106Y-50392012D01*
X51653953Y-50386311D01*
X52017965Y-50143085D01*
X52026265Y-50138000D01*
X52272688Y-49999996D01*
X59269819Y-49999996D01*
X59269819Y-50000003D01*
X59288424Y-50117477D01*
X59288424Y-50117478D01*
X59288425Y-50117481D01*
X59288426Y-50117482D01*
X59341286Y-50221226D01*
X59342428Y-50223466D01*
X59342431Y-50223470D01*
X59426529Y-50307568D01*
X59426533Y-50307571D01*
X59426535Y-50307573D01*
X59532518Y-50361574D01*
X59532520Y-50361574D01*
X59532522Y-50361575D01*
X59649997Y-50380181D01*
X59650000Y-50380181D01*
X59650003Y-50380181D01*
X59767477Y-50361575D01*
X59767478Y-50361575D01*
X59767479Y-50361574D01*
X59767482Y-50361574D01*
X59873465Y-50307573D01*
X59957573Y-50223465D01*
X60011574Y-50117482D01*
X60015527Y-50092522D01*
X60030181Y-50000003D01*
X60030181Y-49999996D01*
X60011575Y-49882522D01*
X60011575Y-49882521D01*
X60011574Y-49882519D01*
X60011574Y-49882518D01*
X59957573Y-49776535D01*
X59957571Y-49776533D01*
X59957568Y-49776529D01*
X59873470Y-49692431D01*
X59873466Y-49692428D01*
X59873465Y-49692427D01*
X59767482Y-49638426D01*
X59767480Y-49638425D01*
X59767477Y-49638424D01*
X59650003Y-49619819D01*
X59649997Y-49619819D01*
X59532522Y-49638424D01*
X59532521Y-49638424D01*
X59426533Y-49692428D01*
X59426529Y-49692431D01*
X59342431Y-49776529D01*
X59342428Y-49776533D01*
X59288424Y-49882521D01*
X59288424Y-49882522D01*
X59269819Y-49999996D01*
X52272688Y-49999996D01*
X52408231Y-49924088D01*
X52416894Y-49919673D01*
X52814471Y-49736389D01*
X52823456Y-49732666D01*
X53234219Y-49581127D01*
X53243438Y-49578132D01*
X53664810Y-49459294D01*
X53674230Y-49457032D01*
X54103627Y-49371619D01*
X54113215Y-49370100D01*
X54548002Y-49318640D01*
X54557693Y-49317878D01*
X54997557Y-49300596D01*
X55002425Y-49300500D01*
X55047595Y-49300500D01*
X63449036Y-49300500D01*
X63516075Y-49320185D01*
G37*
%TD.AperFunction*%
%TA.AperFunction,Conductor*%
G36*
X50031762Y-61457155D02*
G01*
X50087695Y-61499027D01*
X50112112Y-61564491D01*
X50112428Y-61573337D01*
X50112428Y-63246813D01*
X50112429Y-63246818D01*
X50142188Y-63318667D01*
X52568181Y-65744660D01*
X52601666Y-65805983D01*
X52604500Y-65832341D01*
X52604500Y-65913099D01*
X52584815Y-65980138D01*
X52568181Y-66000780D01*
X52492431Y-66076529D01*
X52492428Y-66076533D01*
X52438424Y-66182521D01*
X52438424Y-66182522D01*
X52419819Y-66299996D01*
X52419819Y-66300003D01*
X52438424Y-66417477D01*
X52438424Y-66417478D01*
X52438425Y-66417481D01*
X52438426Y-66417482D01*
X52489376Y-66517478D01*
X52492428Y-66523466D01*
X52492431Y-66523470D01*
X52576529Y-66607568D01*
X52576533Y-66607571D01*
X52576535Y-66607573D01*
X52682518Y-66661574D01*
X52682520Y-66661574D01*
X52682522Y-66661575D01*
X52799997Y-66680181D01*
X52800000Y-66680181D01*
X52800003Y-66680181D01*
X52917477Y-66661575D01*
X52917478Y-66661575D01*
X52917479Y-66661574D01*
X52917482Y-66661574D01*
X53023465Y-66607573D01*
X53107573Y-66523465D01*
X53161574Y-66417482D01*
X53176416Y-66323768D01*
X53206344Y-66260637D01*
X53265656Y-66223705D01*
X53335518Y-66224703D01*
X53386570Y-66255488D01*
X53468181Y-66337099D01*
X53501666Y-66398422D01*
X53504500Y-66424780D01*
X53504500Y-66913099D01*
X53484815Y-66980138D01*
X53468181Y-67000780D01*
X53392431Y-67076529D01*
X53392428Y-67076533D01*
X53392427Y-67076535D01*
X53338426Y-67182518D01*
X53338425Y-67182519D01*
X53338425Y-67182521D01*
X53319819Y-67299996D01*
X53319819Y-67300003D01*
X53338424Y-67417477D01*
X53338424Y-67417478D01*
X53338425Y-67417481D01*
X53338426Y-67417482D01*
X53390512Y-67519707D01*
X53403408Y-67588374D01*
X53377132Y-67653115D01*
X53320025Y-67693372D01*
X53280027Y-67700000D01*
X49424500Y-67700000D01*
X49357461Y-67680315D01*
X49311706Y-67627511D01*
X49300500Y-67576000D01*
X49300500Y-66845704D01*
X49320185Y-66778665D01*
X49372989Y-66732910D01*
X49442147Y-66722966D01*
X49480790Y-66735217D01*
X49532518Y-66761574D01*
X49532520Y-66761574D01*
X49532522Y-66761575D01*
X49649997Y-66780181D01*
X49650000Y-66780181D01*
X49650003Y-66780181D01*
X49767477Y-66761575D01*
X49767478Y-66761575D01*
X49767479Y-66761574D01*
X49767482Y-66761574D01*
X49873465Y-66707573D01*
X49957573Y-66623465D01*
X50011574Y-66517482D01*
X50011575Y-66517477D01*
X50030181Y-66400003D01*
X50030181Y-66399996D01*
X50011575Y-66282522D01*
X50011575Y-66282521D01*
X50011574Y-66282519D01*
X50011574Y-66282518D01*
X49957573Y-66176535D01*
X49957571Y-66176533D01*
X49957568Y-66176529D01*
X49873470Y-66092431D01*
X49873466Y-66092428D01*
X49873465Y-66092427D01*
X49767482Y-66038426D01*
X49767480Y-66038425D01*
X49767477Y-66038424D01*
X49650003Y-66019819D01*
X49649997Y-66019819D01*
X49532522Y-66038424D01*
X49532520Y-66038425D01*
X49480793Y-66064781D01*
X49412124Y-66077676D01*
X49347384Y-66051399D01*
X49307128Y-65994292D01*
X49300500Y-65954295D01*
X49300500Y-65121180D01*
X49320185Y-65054141D01*
X49372989Y-65008386D01*
X49442147Y-64998442D01*
X49480791Y-65010694D01*
X49482518Y-65011574D01*
X49482522Y-65011574D01*
X49482523Y-65011575D01*
X49482522Y-65011575D01*
X49599997Y-65030181D01*
X49600000Y-65030181D01*
X49600003Y-65030181D01*
X49717477Y-65011575D01*
X49717478Y-65011575D01*
X49717479Y-65011574D01*
X49717482Y-65011574D01*
X49811474Y-64963682D01*
X49880142Y-64950787D01*
X49944882Y-64977063D01*
X49955448Y-64986487D01*
X49976529Y-65007568D01*
X49976533Y-65007571D01*
X49976535Y-65007573D01*
X50082518Y-65061574D01*
X50082520Y-65061574D01*
X50082522Y-65061575D01*
X50199997Y-65080181D01*
X50200000Y-65080181D01*
X50200003Y-65080181D01*
X50317477Y-65061575D01*
X50317478Y-65061575D01*
X50317479Y-65061574D01*
X50317482Y-65061574D01*
X50423465Y-65007573D01*
X50507573Y-64923465D01*
X50561574Y-64817482D01*
X50561575Y-64817477D01*
X50580181Y-64700003D01*
X50580181Y-64699996D01*
X50561575Y-64582522D01*
X50561575Y-64582521D01*
X50561574Y-64582519D01*
X50561574Y-64582518D01*
X50507573Y-64476535D01*
X50507571Y-64476533D01*
X50507568Y-64476529D01*
X50423470Y-64392431D01*
X50423466Y-64392428D01*
X50423465Y-64392427D01*
X50317482Y-64338426D01*
X50317480Y-64338425D01*
X50317477Y-64338424D01*
X50200003Y-64319819D01*
X50199997Y-64319819D01*
X50082522Y-64338424D01*
X50082518Y-64338425D01*
X49988526Y-64386317D01*
X49919857Y-64399213D01*
X49855117Y-64372936D01*
X49844558Y-64363520D01*
X49823465Y-64342427D01*
X49717482Y-64288426D01*
X49717480Y-64288425D01*
X49717477Y-64288424D01*
X49600003Y-64269819D01*
X49599997Y-64269819D01*
X49482522Y-64288424D01*
X49482518Y-64288426D01*
X49480789Y-64289307D01*
X49478463Y-64289743D01*
X49473240Y-64291441D01*
X49473020Y-64290765D01*
X49412119Y-64302199D01*
X49347380Y-64275919D01*
X49307126Y-64218811D01*
X49300500Y-64178819D01*
X49300500Y-61643756D01*
X49320185Y-61576717D01*
X49372989Y-61530962D01*
X49442147Y-61521018D01*
X49480792Y-61533270D01*
X49512485Y-61549419D01*
X49524706Y-61555646D01*
X49524709Y-61555647D01*
X49650007Y-61575492D01*
X49650010Y-61575492D01*
X49650013Y-61575492D01*
X49775310Y-61555647D01*
X49775311Y-61555647D01*
X49775312Y-61555646D01*
X49775314Y-61555646D01*
X49888352Y-61498050D01*
X49888357Y-61498045D01*
X49900747Y-61485656D01*
X49962070Y-61452171D01*
X50031762Y-61457155D01*
G37*
%TD.AperFunction*%
%TD*%
M02*
