M48
; DRILL file {KiCad 8.0.3-8.0.3-0~ubuntu24.04.1} date 2024-07-13T12:59:11+0200
; FORMAT={-:-/ absolute / metric / decimal}
; #@! TF.CreationDate,2024-07-13T12:59:11+02:00
; #@! TF.GenerationSoftware,Kicad,Pcbnew,8.0.3-8.0.3-0~ubuntu24.04.1
; #@! TF.FileFunction,Plated,1,4,PTH
FMAT,2
METRIC
; #@! TA.AperFunction,Plated,PTH,ViaDrill
T1C0.300
; #@! TA.AperFunction,Plated,PTH,ComponentDrill
T2C0.600
%
G90
G05
T1
X49.6Y-64.65
X49.65Y-62.55
X49.65Y-66.4
X49.65Y-61.17
X49.8Y-60.35
X50.0Y-57.6
X50.2Y-64.7
X50.3Y-59.48
X50.308Y-60.08
X50.331Y-58.189
X50.853Y-57.538
X51.2Y-62.6
X51.586Y-56.374
X51.9Y-55.65
X52.0Y-61.4
X52.8Y-66.3
X52.85Y-56.2
X53.0Y-59.6
X53.2Y-62.0
X53.7Y-67.3
X53.85Y-63.55
X53.87Y-65.904
X53.9Y-59.6
X53.9Y-64.35
X53.911Y-65.072
X54.6Y-60.2
X54.65Y-55.95
X54.8Y-61.4
X54.9Y-67.1
X54.9Y-64.6
X56.05Y-57.85
X56.05Y-62.85
X56.25Y-69.35
X56.35Y-63.85
X56.5Y-65.1
X56.58Y-62.49
X56.6Y-61.9
X56.638Y-60.625
X56.7Y-61.25
X56.75Y-56.8
X56.85Y-66.25
X56.85Y-68.05
X56.9Y-73.25
X57.34Y-60.49
X57.568Y-75.499
X57.845Y-56.495
X57.85Y-59.35
X57.9Y-69.3
X57.95Y-76.0
X58.0Y-70.65
X58.75Y-62.75
X59.65Y-50.0
X59.65Y-60.3
X59.8Y-67.1
X60.05Y-57.65
X60.8Y-65.8
X60.9Y-60.6
X61.4Y-65.2
X61.6Y-61.8
X61.6Y-67.1
X62.0Y-63.2
X62.0Y-65.8
X62.2Y-61.2
X62.4Y-67.1
X62.6Y-63.8
X62.8Y-60.6
X62.8Y-61.8
X63.1Y-49.8
X63.2Y-50.6
X63.2Y-51.35
X63.2Y-63.2
X63.2Y-64.4
X63.2Y-67.1
X63.4Y-60.0
X63.4Y-61.2
X63.73Y-49.87
X63.8Y-63.8
X63.8Y-65.0
X63.95Y-50.575
X63.95Y-51.15
X64.0Y-60.6
X64.0Y-61.8
X64.0Y-70.3
X64.3Y-55.8
X64.4Y-63.2
X64.4Y-64.4
X64.4Y-65.6
X64.575Y-70.3
X64.6Y-52.1
X64.6Y-60.0
X64.6Y-61.2
X64.7Y-53.5
X65.0Y-63.8
X65.0Y-65.0
X65.0Y-66.95
X65.01Y-50.21
X65.2Y-60.6
X65.2Y-61.8
X65.6Y-64.4
X65.61Y-50.228
X65.8Y-60.0
X65.8Y-61.2
X65.8Y-66.2
X65.9Y-62.4
X66.0Y-52.0
X66.0Y-53.4
X66.4Y-60.6
X66.4Y-61.8
X66.4Y-65.6
X66.6Y-63.1
X66.7Y-52.7
X67.0Y-61.2
X67.0Y-62.4
X67.5Y-54.7
X68.0Y-64.7
X68.2Y-61.95
X68.25Y-71.16
X68.5Y-63.2
X68.72Y-50.39
X69.3Y-53.0
X69.35Y-66.7
X69.6Y-53.8
X69.6Y-61.35
X69.9Y-50.95
X70.05Y-54.35
X70.7Y-62.35
X70.72Y-75.16
X71.25Y-69.43
X72.1Y-56.25
X73.1Y-66.9
X73.45Y-63.4
X73.65Y-59.6
X75.35Y-63.2
T2
G00X60.45Y-69.49
M15
G01X60.45Y-70.59
M16
G05
G00X60.45Y-73.79
M15
G01X60.45Y-74.59
M16
G05
G00X69.09Y-69.49
M15
G01X69.09Y-70.59
M16
G05
G00X69.09Y-73.79
M15
G01X69.09Y-74.59
M16
G05
M30
