%TF.GenerationSoftware,KiCad,Pcbnew,8.0.3-8.0.3-0~ubuntu24.04.1*%
%TF.CreationDate,2024-07-13T12:59:09+02:00*%
%TF.ProjectId,erace-rx-v2,65726163-652d-4727-982d-76322e6b6963,rev?*%
%TF.SameCoordinates,Original*%
%TF.FileFunction,AssemblyDrawing,Top*%
%FSLAX46Y46*%
G04 Gerber Fmt 4.6, Leading zero omitted, Abs format (unit mm)*
G04 Created by KiCad (PCBNEW 8.0.3-8.0.3-0~ubuntu24.04.1) date 2024-07-13 12:59:09*
%MOMM*%
%LPD*%
G01*
G04 APERTURE LIST*
%ADD10C,0.040000*%
%ADD11C,0.105000*%
%ADD12C,0.060000*%
%ADD13C,0.150000*%
%ADD14C,0.050000*%
%ADD15C,0.080000*%
%ADD16C,0.120000*%
%ADD17C,0.100000*%
%ADD18C,0.025400*%
%ADD19C,0.152400*%
G04 APERTURE END LIST*
D10*
X51163574Y-65691666D02*
X51163574Y-65810714D01*
X51163574Y-65810714D02*
X50913574Y-65810714D01*
X50937384Y-65620237D02*
X50925479Y-65608333D01*
X50925479Y-65608333D02*
X50913574Y-65584523D01*
X50913574Y-65584523D02*
X50913574Y-65524999D01*
X50913574Y-65524999D02*
X50925479Y-65501190D01*
X50925479Y-65501190D02*
X50937384Y-65489285D01*
X50937384Y-65489285D02*
X50961193Y-65477380D01*
X50961193Y-65477380D02*
X50985003Y-65477380D01*
X50985003Y-65477380D02*
X51020717Y-65489285D01*
X51020717Y-65489285D02*
X51163574Y-65632142D01*
X51163574Y-65632142D02*
X51163574Y-65477380D01*
X50089285Y-67189765D02*
X50077381Y-67201670D01*
X50077381Y-67201670D02*
X50041666Y-67213574D01*
X50041666Y-67213574D02*
X50017857Y-67213574D01*
X50017857Y-67213574D02*
X49982143Y-67201670D01*
X49982143Y-67201670D02*
X49958333Y-67177860D01*
X49958333Y-67177860D02*
X49946428Y-67154050D01*
X49946428Y-67154050D02*
X49934524Y-67106431D01*
X49934524Y-67106431D02*
X49934524Y-67070717D01*
X49934524Y-67070717D02*
X49946428Y-67023098D01*
X49946428Y-67023098D02*
X49958333Y-66999289D01*
X49958333Y-66999289D02*
X49982143Y-66975479D01*
X49982143Y-66975479D02*
X50017857Y-66963574D01*
X50017857Y-66963574D02*
X50041666Y-66963574D01*
X50041666Y-66963574D02*
X50077381Y-66975479D01*
X50077381Y-66975479D02*
X50089285Y-66987384D01*
X50184524Y-66987384D02*
X50196428Y-66975479D01*
X50196428Y-66975479D02*
X50220238Y-66963574D01*
X50220238Y-66963574D02*
X50279762Y-66963574D01*
X50279762Y-66963574D02*
X50303571Y-66975479D01*
X50303571Y-66975479D02*
X50315476Y-66987384D01*
X50315476Y-66987384D02*
X50327381Y-67011193D01*
X50327381Y-67011193D02*
X50327381Y-67035003D01*
X50327381Y-67035003D02*
X50315476Y-67070717D01*
X50315476Y-67070717D02*
X50172619Y-67213574D01*
X50172619Y-67213574D02*
X50327381Y-67213574D01*
X50565476Y-67213574D02*
X50422619Y-67213574D01*
X50494047Y-67213574D02*
X50494047Y-66963574D01*
X50494047Y-66963574D02*
X50470238Y-66999289D01*
X50470238Y-66999289D02*
X50446428Y-67023098D01*
X50446428Y-67023098D02*
X50422619Y-67035003D01*
X50879285Y-64239765D02*
X50867381Y-64251670D01*
X50867381Y-64251670D02*
X50831666Y-64263574D01*
X50831666Y-64263574D02*
X50807857Y-64263574D01*
X50807857Y-64263574D02*
X50772143Y-64251670D01*
X50772143Y-64251670D02*
X50748333Y-64227860D01*
X50748333Y-64227860D02*
X50736428Y-64204050D01*
X50736428Y-64204050D02*
X50724524Y-64156431D01*
X50724524Y-64156431D02*
X50724524Y-64120717D01*
X50724524Y-64120717D02*
X50736428Y-64073098D01*
X50736428Y-64073098D02*
X50748333Y-64049289D01*
X50748333Y-64049289D02*
X50772143Y-64025479D01*
X50772143Y-64025479D02*
X50807857Y-64013574D01*
X50807857Y-64013574D02*
X50831666Y-64013574D01*
X50831666Y-64013574D02*
X50867381Y-64025479D01*
X50867381Y-64025479D02*
X50879285Y-64037384D01*
X51117381Y-64263574D02*
X50974524Y-64263574D01*
X51045952Y-64263574D02*
X51045952Y-64013574D01*
X51045952Y-64013574D02*
X51022143Y-64049289D01*
X51022143Y-64049289D02*
X50998333Y-64073098D01*
X50998333Y-64073098D02*
X50974524Y-64085003D01*
X51236428Y-64263574D02*
X51284047Y-64263574D01*
X51284047Y-64263574D02*
X51307857Y-64251670D01*
X51307857Y-64251670D02*
X51319761Y-64239765D01*
X51319761Y-64239765D02*
X51343571Y-64204050D01*
X51343571Y-64204050D02*
X51355476Y-64156431D01*
X51355476Y-64156431D02*
X51355476Y-64061193D01*
X51355476Y-64061193D02*
X51343571Y-64037384D01*
X51343571Y-64037384D02*
X51331666Y-64025479D01*
X51331666Y-64025479D02*
X51307857Y-64013574D01*
X51307857Y-64013574D02*
X51260238Y-64013574D01*
X51260238Y-64013574D02*
X51236428Y-64025479D01*
X51236428Y-64025479D02*
X51224523Y-64037384D01*
X51224523Y-64037384D02*
X51212619Y-64061193D01*
X51212619Y-64061193D02*
X51212619Y-64120717D01*
X51212619Y-64120717D02*
X51224523Y-64144527D01*
X51224523Y-64144527D02*
X51236428Y-64156431D01*
X51236428Y-64156431D02*
X51260238Y-64168336D01*
X51260238Y-64168336D02*
X51307857Y-64168336D01*
X51307857Y-64168336D02*
X51331666Y-64156431D01*
X51331666Y-64156431D02*
X51343571Y-64144527D01*
X51343571Y-64144527D02*
X51355476Y-64120717D01*
D11*
X68166667Y-57585040D02*
X68166667Y-57918373D01*
X67933333Y-57218373D02*
X68166667Y-57585040D01*
X68166667Y-57585040D02*
X68400000Y-57218373D01*
X68600000Y-57285040D02*
X68633333Y-57251706D01*
X68633333Y-57251706D02*
X68700000Y-57218373D01*
X68700000Y-57218373D02*
X68866667Y-57218373D01*
X68866667Y-57218373D02*
X68933333Y-57251706D01*
X68933333Y-57251706D02*
X68966667Y-57285040D01*
X68966667Y-57285040D02*
X69000000Y-57351706D01*
X69000000Y-57351706D02*
X69000000Y-57418373D01*
X69000000Y-57418373D02*
X68966667Y-57518373D01*
X68966667Y-57518373D02*
X68566667Y-57918373D01*
X68566667Y-57918373D02*
X69000000Y-57918373D01*
D12*
X70022857Y-49943832D02*
X70003809Y-49962880D01*
X70003809Y-49962880D02*
X69946667Y-49981927D01*
X69946667Y-49981927D02*
X69908571Y-49981927D01*
X69908571Y-49981927D02*
X69851428Y-49962880D01*
X69851428Y-49962880D02*
X69813333Y-49924784D01*
X69813333Y-49924784D02*
X69794286Y-49886689D01*
X69794286Y-49886689D02*
X69775238Y-49810499D01*
X69775238Y-49810499D02*
X69775238Y-49753356D01*
X69775238Y-49753356D02*
X69794286Y-49677165D01*
X69794286Y-49677165D02*
X69813333Y-49639070D01*
X69813333Y-49639070D02*
X69851428Y-49600975D01*
X69851428Y-49600975D02*
X69908571Y-49581927D01*
X69908571Y-49581927D02*
X69946667Y-49581927D01*
X69946667Y-49581927D02*
X70003809Y-49600975D01*
X70003809Y-49600975D02*
X70022857Y-49620022D01*
X70403809Y-49981927D02*
X70175238Y-49981927D01*
X70289524Y-49981927D02*
X70289524Y-49581927D01*
X70289524Y-49581927D02*
X70251428Y-49639070D01*
X70251428Y-49639070D02*
X70213333Y-49677165D01*
X70213333Y-49677165D02*
X70175238Y-49696213D01*
X70765714Y-49581927D02*
X70575238Y-49581927D01*
X70575238Y-49581927D02*
X70556190Y-49772403D01*
X70556190Y-49772403D02*
X70575238Y-49753356D01*
X70575238Y-49753356D02*
X70613333Y-49734308D01*
X70613333Y-49734308D02*
X70708571Y-49734308D01*
X70708571Y-49734308D02*
X70746666Y-49753356D01*
X70746666Y-49753356D02*
X70765714Y-49772403D01*
X70765714Y-49772403D02*
X70784761Y-49810499D01*
X70784761Y-49810499D02*
X70784761Y-49905737D01*
X70784761Y-49905737D02*
X70765714Y-49943832D01*
X70765714Y-49943832D02*
X70746666Y-49962880D01*
X70746666Y-49962880D02*
X70708571Y-49981927D01*
X70708571Y-49981927D02*
X70613333Y-49981927D01*
X70613333Y-49981927D02*
X70575238Y-49962880D01*
X70575238Y-49962880D02*
X70556190Y-49943832D01*
D10*
X54489765Y-64680714D02*
X54501670Y-64692618D01*
X54501670Y-64692618D02*
X54513574Y-64728333D01*
X54513574Y-64728333D02*
X54513574Y-64752142D01*
X54513574Y-64752142D02*
X54501670Y-64787856D01*
X54501670Y-64787856D02*
X54477860Y-64811666D01*
X54477860Y-64811666D02*
X54454050Y-64823571D01*
X54454050Y-64823571D02*
X54406431Y-64835475D01*
X54406431Y-64835475D02*
X54370717Y-64835475D01*
X54370717Y-64835475D02*
X54323098Y-64823571D01*
X54323098Y-64823571D02*
X54299289Y-64811666D01*
X54299289Y-64811666D02*
X54275479Y-64787856D01*
X54275479Y-64787856D02*
X54263574Y-64752142D01*
X54263574Y-64752142D02*
X54263574Y-64728333D01*
X54263574Y-64728333D02*
X54275479Y-64692618D01*
X54275479Y-64692618D02*
X54287384Y-64680714D01*
X54513574Y-64442618D02*
X54513574Y-64585475D01*
X54513574Y-64514047D02*
X54263574Y-64514047D01*
X54263574Y-64514047D02*
X54299289Y-64537856D01*
X54299289Y-64537856D02*
X54323098Y-64561666D01*
X54323098Y-64561666D02*
X54335003Y-64585475D01*
X54513574Y-64204523D02*
X54513574Y-64347380D01*
X54513574Y-64275952D02*
X54263574Y-64275952D01*
X54263574Y-64275952D02*
X54299289Y-64299761D01*
X54299289Y-64299761D02*
X54323098Y-64323571D01*
X54323098Y-64323571D02*
X54335003Y-64347380D01*
X58606667Y-62268200D02*
X58520000Y-62144391D01*
X58458095Y-62268200D02*
X58458095Y-62008200D01*
X58458095Y-62008200D02*
X58557143Y-62008200D01*
X58557143Y-62008200D02*
X58581905Y-62020581D01*
X58581905Y-62020581D02*
X58594286Y-62032962D01*
X58594286Y-62032962D02*
X58606667Y-62057724D01*
X58606667Y-62057724D02*
X58606667Y-62094867D01*
X58606667Y-62094867D02*
X58594286Y-62119629D01*
X58594286Y-62119629D02*
X58581905Y-62132010D01*
X58581905Y-62132010D02*
X58557143Y-62144391D01*
X58557143Y-62144391D02*
X58458095Y-62144391D01*
X58705714Y-62032962D02*
X58718095Y-62020581D01*
X58718095Y-62020581D02*
X58742857Y-62008200D01*
X58742857Y-62008200D02*
X58804762Y-62008200D01*
X58804762Y-62008200D02*
X58829524Y-62020581D01*
X58829524Y-62020581D02*
X58841905Y-62032962D01*
X58841905Y-62032962D02*
X58854286Y-62057724D01*
X58854286Y-62057724D02*
X58854286Y-62082486D01*
X58854286Y-62082486D02*
X58841905Y-62119629D01*
X58841905Y-62119629D02*
X58693333Y-62268200D01*
X58693333Y-62268200D02*
X58854286Y-62268200D01*
X64769285Y-49699765D02*
X64757381Y-49711670D01*
X64757381Y-49711670D02*
X64721666Y-49723574D01*
X64721666Y-49723574D02*
X64697857Y-49723574D01*
X64697857Y-49723574D02*
X64662143Y-49711670D01*
X64662143Y-49711670D02*
X64638333Y-49687860D01*
X64638333Y-49687860D02*
X64626428Y-49664050D01*
X64626428Y-49664050D02*
X64614524Y-49616431D01*
X64614524Y-49616431D02*
X64614524Y-49580717D01*
X64614524Y-49580717D02*
X64626428Y-49533098D01*
X64626428Y-49533098D02*
X64638333Y-49509289D01*
X64638333Y-49509289D02*
X64662143Y-49485479D01*
X64662143Y-49485479D02*
X64697857Y-49473574D01*
X64697857Y-49473574D02*
X64721666Y-49473574D01*
X64721666Y-49473574D02*
X64757381Y-49485479D01*
X64757381Y-49485479D02*
X64769285Y-49497384D01*
X65007381Y-49723574D02*
X64864524Y-49723574D01*
X64935952Y-49723574D02*
X64935952Y-49473574D01*
X64935952Y-49473574D02*
X64912143Y-49509289D01*
X64912143Y-49509289D02*
X64888333Y-49533098D01*
X64888333Y-49533098D02*
X64864524Y-49545003D01*
X65090714Y-49473574D02*
X65245476Y-49473574D01*
X65245476Y-49473574D02*
X65162142Y-49568812D01*
X65162142Y-49568812D02*
X65197857Y-49568812D01*
X65197857Y-49568812D02*
X65221666Y-49580717D01*
X65221666Y-49580717D02*
X65233571Y-49592622D01*
X65233571Y-49592622D02*
X65245476Y-49616431D01*
X65245476Y-49616431D02*
X65245476Y-49675955D01*
X65245476Y-49675955D02*
X65233571Y-49699765D01*
X65233571Y-49699765D02*
X65221666Y-49711670D01*
X65221666Y-49711670D02*
X65197857Y-49723574D01*
X65197857Y-49723574D02*
X65126428Y-49723574D01*
X65126428Y-49723574D02*
X65102619Y-49711670D01*
X65102619Y-49711670D02*
X65090714Y-49699765D01*
X57608333Y-63239765D02*
X57596429Y-63251670D01*
X57596429Y-63251670D02*
X57560714Y-63263574D01*
X57560714Y-63263574D02*
X57536905Y-63263574D01*
X57536905Y-63263574D02*
X57501191Y-63251670D01*
X57501191Y-63251670D02*
X57477381Y-63227860D01*
X57477381Y-63227860D02*
X57465476Y-63204050D01*
X57465476Y-63204050D02*
X57453572Y-63156431D01*
X57453572Y-63156431D02*
X57453572Y-63120717D01*
X57453572Y-63120717D02*
X57465476Y-63073098D01*
X57465476Y-63073098D02*
X57477381Y-63049289D01*
X57477381Y-63049289D02*
X57501191Y-63025479D01*
X57501191Y-63025479D02*
X57536905Y-63013574D01*
X57536905Y-63013574D02*
X57560714Y-63013574D01*
X57560714Y-63013574D02*
X57596429Y-63025479D01*
X57596429Y-63025479D02*
X57608333Y-63037384D01*
X57846429Y-63263574D02*
X57703572Y-63263574D01*
X57775000Y-63263574D02*
X57775000Y-63013574D01*
X57775000Y-63013574D02*
X57751191Y-63049289D01*
X57751191Y-63049289D02*
X57727381Y-63073098D01*
X57727381Y-63073098D02*
X57703572Y-63085003D01*
D13*
X64436666Y-72569819D02*
X64436666Y-73284104D01*
X64436666Y-73284104D02*
X64389047Y-73426961D01*
X64389047Y-73426961D02*
X64293809Y-73522200D01*
X64293809Y-73522200D02*
X64150952Y-73569819D01*
X64150952Y-73569819D02*
X64055714Y-73569819D01*
X64865238Y-72665057D02*
X64912857Y-72617438D01*
X64912857Y-72617438D02*
X65008095Y-72569819D01*
X65008095Y-72569819D02*
X65246190Y-72569819D01*
X65246190Y-72569819D02*
X65341428Y-72617438D01*
X65341428Y-72617438D02*
X65389047Y-72665057D01*
X65389047Y-72665057D02*
X65436666Y-72760295D01*
X65436666Y-72760295D02*
X65436666Y-72855533D01*
X65436666Y-72855533D02*
X65389047Y-72998390D01*
X65389047Y-72998390D02*
X64817619Y-73569819D01*
X64817619Y-73569819D02*
X65436666Y-73569819D01*
D10*
X57339765Y-61731666D02*
X57351670Y-61743570D01*
X57351670Y-61743570D02*
X57363574Y-61779285D01*
X57363574Y-61779285D02*
X57363574Y-61803094D01*
X57363574Y-61803094D02*
X57351670Y-61838808D01*
X57351670Y-61838808D02*
X57327860Y-61862618D01*
X57327860Y-61862618D02*
X57304050Y-61874523D01*
X57304050Y-61874523D02*
X57256431Y-61886427D01*
X57256431Y-61886427D02*
X57220717Y-61886427D01*
X57220717Y-61886427D02*
X57173098Y-61874523D01*
X57173098Y-61874523D02*
X57149289Y-61862618D01*
X57149289Y-61862618D02*
X57125479Y-61838808D01*
X57125479Y-61838808D02*
X57113574Y-61803094D01*
X57113574Y-61803094D02*
X57113574Y-61779285D01*
X57113574Y-61779285D02*
X57125479Y-61743570D01*
X57125479Y-61743570D02*
X57137384Y-61731666D01*
X57137384Y-61636427D02*
X57125479Y-61624523D01*
X57125479Y-61624523D02*
X57113574Y-61600713D01*
X57113574Y-61600713D02*
X57113574Y-61541189D01*
X57113574Y-61541189D02*
X57125479Y-61517380D01*
X57125479Y-61517380D02*
X57137384Y-61505475D01*
X57137384Y-61505475D02*
X57161193Y-61493570D01*
X57161193Y-61493570D02*
X57185003Y-61493570D01*
X57185003Y-61493570D02*
X57220717Y-61505475D01*
X57220717Y-61505475D02*
X57363574Y-61648332D01*
X57363574Y-61648332D02*
X57363574Y-61493570D01*
D13*
X61538990Y-54361904D02*
X61538990Y-54028571D01*
X61015180Y-54028571D02*
X62015180Y-54028571D01*
X62015180Y-54028571D02*
X62015180Y-54504761D01*
X61015180Y-55361904D02*
X61015180Y-54885714D01*
X61015180Y-54885714D02*
X62015180Y-54885714D01*
X61015180Y-56219047D02*
X61015180Y-55647619D01*
X61015180Y-55933333D02*
X62015180Y-55933333D01*
X62015180Y-55933333D02*
X61872323Y-55838095D01*
X61872323Y-55838095D02*
X61777085Y-55742857D01*
X61777085Y-55742857D02*
X61729466Y-55647619D01*
D10*
X56332857Y-76118200D02*
X56246190Y-75994391D01*
X56184285Y-76118200D02*
X56184285Y-75858200D01*
X56184285Y-75858200D02*
X56283333Y-75858200D01*
X56283333Y-75858200D02*
X56308095Y-75870581D01*
X56308095Y-75870581D02*
X56320476Y-75882962D01*
X56320476Y-75882962D02*
X56332857Y-75907724D01*
X56332857Y-75907724D02*
X56332857Y-75944867D01*
X56332857Y-75944867D02*
X56320476Y-75969629D01*
X56320476Y-75969629D02*
X56308095Y-75982010D01*
X56308095Y-75982010D02*
X56283333Y-75994391D01*
X56283333Y-75994391D02*
X56184285Y-75994391D01*
X56580476Y-76118200D02*
X56431904Y-76118200D01*
X56506190Y-76118200D02*
X56506190Y-75858200D01*
X56506190Y-75858200D02*
X56481428Y-75895343D01*
X56481428Y-75895343D02*
X56456666Y-75920105D01*
X56456666Y-75920105D02*
X56431904Y-75932486D01*
X56667142Y-75858200D02*
X56828095Y-75858200D01*
X56828095Y-75858200D02*
X56741428Y-75957248D01*
X56741428Y-75957248D02*
X56778571Y-75957248D01*
X56778571Y-75957248D02*
X56803333Y-75969629D01*
X56803333Y-75969629D02*
X56815714Y-75982010D01*
X56815714Y-75982010D02*
X56828095Y-76006772D01*
X56828095Y-76006772D02*
X56828095Y-76068677D01*
X56828095Y-76068677D02*
X56815714Y-76093439D01*
X56815714Y-76093439D02*
X56803333Y-76105820D01*
X56803333Y-76105820D02*
X56778571Y-76118200D01*
X56778571Y-76118200D02*
X56704285Y-76118200D01*
X56704285Y-76118200D02*
X56679523Y-76105820D01*
X56679523Y-76105820D02*
X56667142Y-76093439D01*
X52156667Y-57018200D02*
X52070000Y-56894391D01*
X52008095Y-57018200D02*
X52008095Y-56758200D01*
X52008095Y-56758200D02*
X52107143Y-56758200D01*
X52107143Y-56758200D02*
X52131905Y-56770581D01*
X52131905Y-56770581D02*
X52144286Y-56782962D01*
X52144286Y-56782962D02*
X52156667Y-56807724D01*
X52156667Y-56807724D02*
X52156667Y-56844867D01*
X52156667Y-56844867D02*
X52144286Y-56869629D01*
X52144286Y-56869629D02*
X52131905Y-56882010D01*
X52131905Y-56882010D02*
X52107143Y-56894391D01*
X52107143Y-56894391D02*
X52008095Y-56894391D01*
X52379524Y-56758200D02*
X52330000Y-56758200D01*
X52330000Y-56758200D02*
X52305238Y-56770581D01*
X52305238Y-56770581D02*
X52292857Y-56782962D01*
X52292857Y-56782962D02*
X52268095Y-56820105D01*
X52268095Y-56820105D02*
X52255714Y-56869629D01*
X52255714Y-56869629D02*
X52255714Y-56968677D01*
X52255714Y-56968677D02*
X52268095Y-56993439D01*
X52268095Y-56993439D02*
X52280476Y-57005820D01*
X52280476Y-57005820D02*
X52305238Y-57018200D01*
X52305238Y-57018200D02*
X52354762Y-57018200D01*
X52354762Y-57018200D02*
X52379524Y-57005820D01*
X52379524Y-57005820D02*
X52391905Y-56993439D01*
X52391905Y-56993439D02*
X52404286Y-56968677D01*
X52404286Y-56968677D02*
X52404286Y-56906772D01*
X52404286Y-56906772D02*
X52391905Y-56882010D01*
X52391905Y-56882010D02*
X52379524Y-56869629D01*
X52379524Y-56869629D02*
X52354762Y-56857248D01*
X52354762Y-56857248D02*
X52305238Y-56857248D01*
X52305238Y-56857248D02*
X52280476Y-56869629D01*
X52280476Y-56869629D02*
X52268095Y-56882010D01*
X52268095Y-56882010D02*
X52255714Y-56906772D01*
X54966667Y-69468200D02*
X54880000Y-69344391D01*
X54818095Y-69468200D02*
X54818095Y-69208200D01*
X54818095Y-69208200D02*
X54917143Y-69208200D01*
X54917143Y-69208200D02*
X54941905Y-69220581D01*
X54941905Y-69220581D02*
X54954286Y-69232962D01*
X54954286Y-69232962D02*
X54966667Y-69257724D01*
X54966667Y-69257724D02*
X54966667Y-69294867D01*
X54966667Y-69294867D02*
X54954286Y-69319629D01*
X54954286Y-69319629D02*
X54941905Y-69332010D01*
X54941905Y-69332010D02*
X54917143Y-69344391D01*
X54917143Y-69344391D02*
X54818095Y-69344391D01*
X55090476Y-69468200D02*
X55140000Y-69468200D01*
X55140000Y-69468200D02*
X55164762Y-69455820D01*
X55164762Y-69455820D02*
X55177143Y-69443439D01*
X55177143Y-69443439D02*
X55201905Y-69406296D01*
X55201905Y-69406296D02*
X55214286Y-69356772D01*
X55214286Y-69356772D02*
X55214286Y-69257724D01*
X55214286Y-69257724D02*
X55201905Y-69232962D01*
X55201905Y-69232962D02*
X55189524Y-69220581D01*
X55189524Y-69220581D02*
X55164762Y-69208200D01*
X55164762Y-69208200D02*
X55115238Y-69208200D01*
X55115238Y-69208200D02*
X55090476Y-69220581D01*
X55090476Y-69220581D02*
X55078095Y-69232962D01*
X55078095Y-69232962D02*
X55065714Y-69257724D01*
X55065714Y-69257724D02*
X55065714Y-69319629D01*
X55065714Y-69319629D02*
X55078095Y-69344391D01*
X55078095Y-69344391D02*
X55090476Y-69356772D01*
X55090476Y-69356772D02*
X55115238Y-69369153D01*
X55115238Y-69369153D02*
X55164762Y-69369153D01*
X55164762Y-69369153D02*
X55189524Y-69356772D01*
X55189524Y-69356772D02*
X55201905Y-69344391D01*
X55201905Y-69344391D02*
X55214286Y-69319629D01*
X60218200Y-61643332D02*
X60094391Y-61729999D01*
X60218200Y-61791904D02*
X59958200Y-61791904D01*
X59958200Y-61791904D02*
X59958200Y-61692856D01*
X59958200Y-61692856D02*
X59970581Y-61668094D01*
X59970581Y-61668094D02*
X59982962Y-61655713D01*
X59982962Y-61655713D02*
X60007724Y-61643332D01*
X60007724Y-61643332D02*
X60044867Y-61643332D01*
X60044867Y-61643332D02*
X60069629Y-61655713D01*
X60069629Y-61655713D02*
X60082010Y-61668094D01*
X60082010Y-61668094D02*
X60094391Y-61692856D01*
X60094391Y-61692856D02*
X60094391Y-61791904D01*
X59958200Y-61556666D02*
X59958200Y-61395713D01*
X59958200Y-61395713D02*
X60057248Y-61482380D01*
X60057248Y-61482380D02*
X60057248Y-61445237D01*
X60057248Y-61445237D02*
X60069629Y-61420475D01*
X60069629Y-61420475D02*
X60082010Y-61408094D01*
X60082010Y-61408094D02*
X60106772Y-61395713D01*
X60106772Y-61395713D02*
X60168677Y-61395713D01*
X60168677Y-61395713D02*
X60193439Y-61408094D01*
X60193439Y-61408094D02*
X60205820Y-61420475D01*
X60205820Y-61420475D02*
X60218200Y-61445237D01*
X60218200Y-61445237D02*
X60218200Y-61519523D01*
X60218200Y-61519523D02*
X60205820Y-61544285D01*
X60205820Y-61544285D02*
X60193439Y-61556666D01*
X57118200Y-74667142D02*
X56994391Y-74753809D01*
X57118200Y-74815714D02*
X56858200Y-74815714D01*
X56858200Y-74815714D02*
X56858200Y-74716666D01*
X56858200Y-74716666D02*
X56870581Y-74691904D01*
X56870581Y-74691904D02*
X56882962Y-74679523D01*
X56882962Y-74679523D02*
X56907724Y-74667142D01*
X56907724Y-74667142D02*
X56944867Y-74667142D01*
X56944867Y-74667142D02*
X56969629Y-74679523D01*
X56969629Y-74679523D02*
X56982010Y-74691904D01*
X56982010Y-74691904D02*
X56994391Y-74716666D01*
X56994391Y-74716666D02*
X56994391Y-74815714D01*
X57118200Y-74419523D02*
X57118200Y-74568095D01*
X57118200Y-74493809D02*
X56858200Y-74493809D01*
X56858200Y-74493809D02*
X56895343Y-74518571D01*
X56895343Y-74518571D02*
X56920105Y-74543333D01*
X56920105Y-74543333D02*
X56932486Y-74568095D01*
X56858200Y-74258571D02*
X56858200Y-74233809D01*
X56858200Y-74233809D02*
X56870581Y-74209047D01*
X56870581Y-74209047D02*
X56882962Y-74196666D01*
X56882962Y-74196666D02*
X56907724Y-74184285D01*
X56907724Y-74184285D02*
X56957248Y-74171904D01*
X56957248Y-74171904D02*
X57019153Y-74171904D01*
X57019153Y-74171904D02*
X57068677Y-74184285D01*
X57068677Y-74184285D02*
X57093439Y-74196666D01*
X57093439Y-74196666D02*
X57105820Y-74209047D01*
X57105820Y-74209047D02*
X57118200Y-74233809D01*
X57118200Y-74233809D02*
X57118200Y-74258571D01*
X57118200Y-74258571D02*
X57105820Y-74283333D01*
X57105820Y-74283333D02*
X57093439Y-74295714D01*
X57093439Y-74295714D02*
X57068677Y-74308095D01*
X57068677Y-74308095D02*
X57019153Y-74320476D01*
X57019153Y-74320476D02*
X56957248Y-74320476D01*
X56957248Y-74320476D02*
X56907724Y-74308095D01*
X56907724Y-74308095D02*
X56882962Y-74295714D01*
X56882962Y-74295714D02*
X56870581Y-74283333D01*
X56870581Y-74283333D02*
X56858200Y-74258571D01*
X58608333Y-61239765D02*
X58596429Y-61251670D01*
X58596429Y-61251670D02*
X58560714Y-61263574D01*
X58560714Y-61263574D02*
X58536905Y-61263574D01*
X58536905Y-61263574D02*
X58501191Y-61251670D01*
X58501191Y-61251670D02*
X58477381Y-61227860D01*
X58477381Y-61227860D02*
X58465476Y-61204050D01*
X58465476Y-61204050D02*
X58453572Y-61156431D01*
X58453572Y-61156431D02*
X58453572Y-61120717D01*
X58453572Y-61120717D02*
X58465476Y-61073098D01*
X58465476Y-61073098D02*
X58477381Y-61049289D01*
X58477381Y-61049289D02*
X58501191Y-61025479D01*
X58501191Y-61025479D02*
X58536905Y-61013574D01*
X58536905Y-61013574D02*
X58560714Y-61013574D01*
X58560714Y-61013574D02*
X58596429Y-61025479D01*
X58596429Y-61025479D02*
X58608333Y-61037384D01*
X58751191Y-61120717D02*
X58727381Y-61108812D01*
X58727381Y-61108812D02*
X58715476Y-61096908D01*
X58715476Y-61096908D02*
X58703572Y-61073098D01*
X58703572Y-61073098D02*
X58703572Y-61061193D01*
X58703572Y-61061193D02*
X58715476Y-61037384D01*
X58715476Y-61037384D02*
X58727381Y-61025479D01*
X58727381Y-61025479D02*
X58751191Y-61013574D01*
X58751191Y-61013574D02*
X58798810Y-61013574D01*
X58798810Y-61013574D02*
X58822619Y-61025479D01*
X58822619Y-61025479D02*
X58834524Y-61037384D01*
X58834524Y-61037384D02*
X58846429Y-61061193D01*
X58846429Y-61061193D02*
X58846429Y-61073098D01*
X58846429Y-61073098D02*
X58834524Y-61096908D01*
X58834524Y-61096908D02*
X58822619Y-61108812D01*
X58822619Y-61108812D02*
X58798810Y-61120717D01*
X58798810Y-61120717D02*
X58751191Y-61120717D01*
X58751191Y-61120717D02*
X58727381Y-61132622D01*
X58727381Y-61132622D02*
X58715476Y-61144527D01*
X58715476Y-61144527D02*
X58703572Y-61168336D01*
X58703572Y-61168336D02*
X58703572Y-61215955D01*
X58703572Y-61215955D02*
X58715476Y-61239765D01*
X58715476Y-61239765D02*
X58727381Y-61251670D01*
X58727381Y-61251670D02*
X58751191Y-61263574D01*
X58751191Y-61263574D02*
X58798810Y-61263574D01*
X58798810Y-61263574D02*
X58822619Y-61251670D01*
X58822619Y-61251670D02*
X58834524Y-61239765D01*
X58834524Y-61239765D02*
X58846429Y-61215955D01*
X58846429Y-61215955D02*
X58846429Y-61168336D01*
X58846429Y-61168336D02*
X58834524Y-61144527D01*
X58834524Y-61144527D02*
X58822619Y-61132622D01*
X58822619Y-61132622D02*
X58798810Y-61120717D01*
D13*
X73354819Y-64733333D02*
X74069104Y-64733333D01*
X74069104Y-64733333D02*
X74211961Y-64780952D01*
X74211961Y-64780952D02*
X74307200Y-64876190D01*
X74307200Y-64876190D02*
X74354819Y-65019047D01*
X74354819Y-65019047D02*
X74354819Y-65114285D01*
X74354819Y-63733333D02*
X74354819Y-64304761D01*
X74354819Y-64019047D02*
X73354819Y-64019047D01*
X73354819Y-64019047D02*
X73497676Y-64114285D01*
X73497676Y-64114285D02*
X73592914Y-64209523D01*
X73592914Y-64209523D02*
X73640533Y-64304761D01*
D10*
X52739285Y-64239765D02*
X52727381Y-64251670D01*
X52727381Y-64251670D02*
X52691666Y-64263574D01*
X52691666Y-64263574D02*
X52667857Y-64263574D01*
X52667857Y-64263574D02*
X52632143Y-64251670D01*
X52632143Y-64251670D02*
X52608333Y-64227860D01*
X52608333Y-64227860D02*
X52596428Y-64204050D01*
X52596428Y-64204050D02*
X52584524Y-64156431D01*
X52584524Y-64156431D02*
X52584524Y-64120717D01*
X52584524Y-64120717D02*
X52596428Y-64073098D01*
X52596428Y-64073098D02*
X52608333Y-64049289D01*
X52608333Y-64049289D02*
X52632143Y-64025479D01*
X52632143Y-64025479D02*
X52667857Y-64013574D01*
X52667857Y-64013574D02*
X52691666Y-64013574D01*
X52691666Y-64013574D02*
X52727381Y-64025479D01*
X52727381Y-64025479D02*
X52739285Y-64037384D01*
X52977381Y-64263574D02*
X52834524Y-64263574D01*
X52905952Y-64263574D02*
X52905952Y-64013574D01*
X52905952Y-64013574D02*
X52882143Y-64049289D01*
X52882143Y-64049289D02*
X52858333Y-64073098D01*
X52858333Y-64073098D02*
X52834524Y-64085003D01*
X53132142Y-64013574D02*
X53155952Y-64013574D01*
X53155952Y-64013574D02*
X53179761Y-64025479D01*
X53179761Y-64025479D02*
X53191666Y-64037384D01*
X53191666Y-64037384D02*
X53203571Y-64061193D01*
X53203571Y-64061193D02*
X53215476Y-64108812D01*
X53215476Y-64108812D02*
X53215476Y-64168336D01*
X53215476Y-64168336D02*
X53203571Y-64215955D01*
X53203571Y-64215955D02*
X53191666Y-64239765D01*
X53191666Y-64239765D02*
X53179761Y-64251670D01*
X53179761Y-64251670D02*
X53155952Y-64263574D01*
X53155952Y-64263574D02*
X53132142Y-64263574D01*
X53132142Y-64263574D02*
X53108333Y-64251670D01*
X53108333Y-64251670D02*
X53096428Y-64239765D01*
X53096428Y-64239765D02*
X53084523Y-64215955D01*
X53084523Y-64215955D02*
X53072619Y-64168336D01*
X53072619Y-64168336D02*
X53072619Y-64108812D01*
X53072619Y-64108812D02*
X53084523Y-64061193D01*
X53084523Y-64061193D02*
X53096428Y-64037384D01*
X53096428Y-64037384D02*
X53108333Y-64025479D01*
X53108333Y-64025479D02*
X53132142Y-64013574D01*
X54008333Y-56989765D02*
X53996429Y-57001670D01*
X53996429Y-57001670D02*
X53960714Y-57013574D01*
X53960714Y-57013574D02*
X53936905Y-57013574D01*
X53936905Y-57013574D02*
X53901191Y-57001670D01*
X53901191Y-57001670D02*
X53877381Y-56977860D01*
X53877381Y-56977860D02*
X53865476Y-56954050D01*
X53865476Y-56954050D02*
X53853572Y-56906431D01*
X53853572Y-56906431D02*
X53853572Y-56870717D01*
X53853572Y-56870717D02*
X53865476Y-56823098D01*
X53865476Y-56823098D02*
X53877381Y-56799289D01*
X53877381Y-56799289D02*
X53901191Y-56775479D01*
X53901191Y-56775479D02*
X53936905Y-56763574D01*
X53936905Y-56763574D02*
X53960714Y-56763574D01*
X53960714Y-56763574D02*
X53996429Y-56775479D01*
X53996429Y-56775479D02*
X54008333Y-56787384D01*
X54222619Y-56846908D02*
X54222619Y-57013574D01*
X54163095Y-56751670D02*
X54103572Y-56930241D01*
X54103572Y-56930241D02*
X54258333Y-56930241D01*
X61832857Y-51818200D02*
X61746190Y-51694391D01*
X61684285Y-51818200D02*
X61684285Y-51558200D01*
X61684285Y-51558200D02*
X61783333Y-51558200D01*
X61783333Y-51558200D02*
X61808095Y-51570581D01*
X61808095Y-51570581D02*
X61820476Y-51582962D01*
X61820476Y-51582962D02*
X61832857Y-51607724D01*
X61832857Y-51607724D02*
X61832857Y-51644867D01*
X61832857Y-51644867D02*
X61820476Y-51669629D01*
X61820476Y-51669629D02*
X61808095Y-51682010D01*
X61808095Y-51682010D02*
X61783333Y-51694391D01*
X61783333Y-51694391D02*
X61684285Y-51694391D01*
X62080476Y-51818200D02*
X61931904Y-51818200D01*
X62006190Y-51818200D02*
X62006190Y-51558200D01*
X62006190Y-51558200D02*
X61981428Y-51595343D01*
X61981428Y-51595343D02*
X61956666Y-51620105D01*
X61956666Y-51620105D02*
X61931904Y-51632486D01*
X62328095Y-51818200D02*
X62179523Y-51818200D01*
X62253809Y-51818200D02*
X62253809Y-51558200D01*
X62253809Y-51558200D02*
X62229047Y-51595343D01*
X62229047Y-51595343D02*
X62204285Y-51620105D01*
X62204285Y-51620105D02*
X62179523Y-51632486D01*
X61815476Y-50863574D02*
X61815476Y-50613574D01*
X61815476Y-50613574D02*
X61875000Y-50613574D01*
X61875000Y-50613574D02*
X61910714Y-50625479D01*
X61910714Y-50625479D02*
X61934524Y-50649289D01*
X61934524Y-50649289D02*
X61946429Y-50673098D01*
X61946429Y-50673098D02*
X61958333Y-50720717D01*
X61958333Y-50720717D02*
X61958333Y-50756431D01*
X61958333Y-50756431D02*
X61946429Y-50804050D01*
X61946429Y-50804050D02*
X61934524Y-50827860D01*
X61934524Y-50827860D02*
X61910714Y-50851670D01*
X61910714Y-50851670D02*
X61875000Y-50863574D01*
X61875000Y-50863574D02*
X61815476Y-50863574D01*
X62041667Y-50613574D02*
X62196429Y-50613574D01*
X62196429Y-50613574D02*
X62113095Y-50708812D01*
X62113095Y-50708812D02*
X62148810Y-50708812D01*
X62148810Y-50708812D02*
X62172619Y-50720717D01*
X62172619Y-50720717D02*
X62184524Y-50732622D01*
X62184524Y-50732622D02*
X62196429Y-50756431D01*
X62196429Y-50756431D02*
X62196429Y-50815955D01*
X62196429Y-50815955D02*
X62184524Y-50839765D01*
X62184524Y-50839765D02*
X62172619Y-50851670D01*
X62172619Y-50851670D02*
X62148810Y-50863574D01*
X62148810Y-50863574D02*
X62077381Y-50863574D01*
X62077381Y-50863574D02*
X62053572Y-50851670D01*
X62053572Y-50851670D02*
X62041667Y-50839765D01*
X61956667Y-49918200D02*
X61870000Y-49794391D01*
X61808095Y-49918200D02*
X61808095Y-49658200D01*
X61808095Y-49658200D02*
X61907143Y-49658200D01*
X61907143Y-49658200D02*
X61931905Y-49670581D01*
X61931905Y-49670581D02*
X61944286Y-49682962D01*
X61944286Y-49682962D02*
X61956667Y-49707724D01*
X61956667Y-49707724D02*
X61956667Y-49744867D01*
X61956667Y-49744867D02*
X61944286Y-49769629D01*
X61944286Y-49769629D02*
X61931905Y-49782010D01*
X61931905Y-49782010D02*
X61907143Y-49794391D01*
X61907143Y-49794391D02*
X61808095Y-49794391D01*
X62179524Y-49744867D02*
X62179524Y-49918200D01*
X62117619Y-49645820D02*
X62055714Y-49831534D01*
X62055714Y-49831534D02*
X62216667Y-49831534D01*
D14*
X55969523Y-67313414D02*
X55939047Y-67298176D01*
X55939047Y-67298176D02*
X55908571Y-67267700D01*
X55908571Y-67267700D02*
X55862857Y-67221985D01*
X55862857Y-67221985D02*
X55832380Y-67206747D01*
X55832380Y-67206747D02*
X55801904Y-67206747D01*
X55817142Y-67282938D02*
X55786666Y-67267700D01*
X55786666Y-67267700D02*
X55756190Y-67237223D01*
X55756190Y-67237223D02*
X55740952Y-67176271D01*
X55740952Y-67176271D02*
X55740952Y-67069604D01*
X55740952Y-67069604D02*
X55756190Y-67008652D01*
X55756190Y-67008652D02*
X55786666Y-66978176D01*
X55786666Y-66978176D02*
X55817142Y-66962938D01*
X55817142Y-66962938D02*
X55878095Y-66962938D01*
X55878095Y-66962938D02*
X55908571Y-66978176D01*
X55908571Y-66978176D02*
X55939047Y-67008652D01*
X55939047Y-67008652D02*
X55954285Y-67069604D01*
X55954285Y-67069604D02*
X55954285Y-67176271D01*
X55954285Y-67176271D02*
X55939047Y-67237223D01*
X55939047Y-67237223D02*
X55908571Y-67267700D01*
X55908571Y-67267700D02*
X55878095Y-67282938D01*
X55878095Y-67282938D02*
X55817142Y-67282938D01*
X56076190Y-66993414D02*
X56091428Y-66978176D01*
X56091428Y-66978176D02*
X56121904Y-66962938D01*
X56121904Y-66962938D02*
X56198095Y-66962938D01*
X56198095Y-66962938D02*
X56228571Y-66978176D01*
X56228571Y-66978176D02*
X56243809Y-66993414D01*
X56243809Y-66993414D02*
X56259047Y-67023890D01*
X56259047Y-67023890D02*
X56259047Y-67054366D01*
X56259047Y-67054366D02*
X56243809Y-67100080D01*
X56243809Y-67100080D02*
X56060952Y-67282938D01*
X56060952Y-67282938D02*
X56259047Y-67282938D01*
D12*
X67253333Y-49961927D02*
X67062857Y-49961927D01*
X67062857Y-49961927D02*
X67062857Y-49561927D01*
X67577143Y-49561927D02*
X67386667Y-49561927D01*
X67386667Y-49561927D02*
X67367619Y-49752403D01*
X67367619Y-49752403D02*
X67386667Y-49733356D01*
X67386667Y-49733356D02*
X67424762Y-49714308D01*
X67424762Y-49714308D02*
X67520000Y-49714308D01*
X67520000Y-49714308D02*
X67558095Y-49733356D01*
X67558095Y-49733356D02*
X67577143Y-49752403D01*
X67577143Y-49752403D02*
X67596190Y-49790499D01*
X67596190Y-49790499D02*
X67596190Y-49885737D01*
X67596190Y-49885737D02*
X67577143Y-49923832D01*
X67577143Y-49923832D02*
X67558095Y-49942880D01*
X67558095Y-49942880D02*
X67520000Y-49961927D01*
X67520000Y-49961927D02*
X67424762Y-49961927D01*
X67424762Y-49961927D02*
X67386667Y-49942880D01*
X67386667Y-49942880D02*
X67367619Y-49923832D01*
D10*
X71718200Y-57543332D02*
X71594391Y-57629999D01*
X71718200Y-57691904D02*
X71458200Y-57691904D01*
X71458200Y-57691904D02*
X71458200Y-57592856D01*
X71458200Y-57592856D02*
X71470581Y-57568094D01*
X71470581Y-57568094D02*
X71482962Y-57555713D01*
X71482962Y-57555713D02*
X71507724Y-57543332D01*
X71507724Y-57543332D02*
X71544867Y-57543332D01*
X71544867Y-57543332D02*
X71569629Y-57555713D01*
X71569629Y-57555713D02*
X71582010Y-57568094D01*
X71582010Y-57568094D02*
X71594391Y-57592856D01*
X71594391Y-57592856D02*
X71594391Y-57691904D01*
X71569629Y-57394761D02*
X71557248Y-57419523D01*
X71557248Y-57419523D02*
X71544867Y-57431904D01*
X71544867Y-57431904D02*
X71520105Y-57444285D01*
X71520105Y-57444285D02*
X71507724Y-57444285D01*
X71507724Y-57444285D02*
X71482962Y-57431904D01*
X71482962Y-57431904D02*
X71470581Y-57419523D01*
X71470581Y-57419523D02*
X71458200Y-57394761D01*
X71458200Y-57394761D02*
X71458200Y-57345237D01*
X71458200Y-57345237D02*
X71470581Y-57320475D01*
X71470581Y-57320475D02*
X71482962Y-57308094D01*
X71482962Y-57308094D02*
X71507724Y-57295713D01*
X71507724Y-57295713D02*
X71520105Y-57295713D01*
X71520105Y-57295713D02*
X71544867Y-57308094D01*
X71544867Y-57308094D02*
X71557248Y-57320475D01*
X71557248Y-57320475D02*
X71569629Y-57345237D01*
X71569629Y-57345237D02*
X71569629Y-57394761D01*
X71569629Y-57394761D02*
X71582010Y-57419523D01*
X71582010Y-57419523D02*
X71594391Y-57431904D01*
X71594391Y-57431904D02*
X71619153Y-57444285D01*
X71619153Y-57444285D02*
X71668677Y-57444285D01*
X71668677Y-57444285D02*
X71693439Y-57431904D01*
X71693439Y-57431904D02*
X71705820Y-57419523D01*
X71705820Y-57419523D02*
X71718200Y-57394761D01*
X71718200Y-57394761D02*
X71718200Y-57345237D01*
X71718200Y-57345237D02*
X71705820Y-57320475D01*
X71705820Y-57320475D02*
X71693439Y-57308094D01*
X71693439Y-57308094D02*
X71668677Y-57295713D01*
X71668677Y-57295713D02*
X71619153Y-57295713D01*
X71619153Y-57295713D02*
X71594391Y-57308094D01*
X71594391Y-57308094D02*
X71582010Y-57320475D01*
X71582010Y-57320475D02*
X71569629Y-57345237D01*
D13*
X52954819Y-61261904D02*
X53764342Y-61261904D01*
X53764342Y-61261904D02*
X53859580Y-61214285D01*
X53859580Y-61214285D02*
X53907200Y-61166666D01*
X53907200Y-61166666D02*
X53954819Y-61071428D01*
X53954819Y-61071428D02*
X53954819Y-60880952D01*
X53954819Y-60880952D02*
X53907200Y-60785714D01*
X53907200Y-60785714D02*
X53859580Y-60738095D01*
X53859580Y-60738095D02*
X53764342Y-60690476D01*
X53764342Y-60690476D02*
X52954819Y-60690476D01*
X53954819Y-59690476D02*
X53954819Y-60261904D01*
X53954819Y-59976190D02*
X52954819Y-59976190D01*
X52954819Y-59976190D02*
X53097676Y-60071428D01*
X53097676Y-60071428D02*
X53192914Y-60166666D01*
X53192914Y-60166666D02*
X53240533Y-60261904D01*
D15*
X69779530Y-63521428D02*
X69803340Y-63545237D01*
X69803340Y-63545237D02*
X69827149Y-63616666D01*
X69827149Y-63616666D02*
X69827149Y-63664285D01*
X69827149Y-63664285D02*
X69803340Y-63735713D01*
X69803340Y-63735713D02*
X69755720Y-63783332D01*
X69755720Y-63783332D02*
X69708101Y-63807142D01*
X69708101Y-63807142D02*
X69612863Y-63830951D01*
X69612863Y-63830951D02*
X69541435Y-63830951D01*
X69541435Y-63830951D02*
X69446197Y-63807142D01*
X69446197Y-63807142D02*
X69398578Y-63783332D01*
X69398578Y-63783332D02*
X69350959Y-63735713D01*
X69350959Y-63735713D02*
X69327149Y-63664285D01*
X69327149Y-63664285D02*
X69327149Y-63616666D01*
X69327149Y-63616666D02*
X69350959Y-63545237D01*
X69350959Y-63545237D02*
X69374768Y-63521428D01*
X69374768Y-63330951D02*
X69350959Y-63307142D01*
X69350959Y-63307142D02*
X69327149Y-63259523D01*
X69327149Y-63259523D02*
X69327149Y-63140475D01*
X69327149Y-63140475D02*
X69350959Y-63092856D01*
X69350959Y-63092856D02*
X69374768Y-63069047D01*
X69374768Y-63069047D02*
X69422387Y-63045237D01*
X69422387Y-63045237D02*
X69470006Y-63045237D01*
X69470006Y-63045237D02*
X69541435Y-63069047D01*
X69541435Y-63069047D02*
X69827149Y-63354761D01*
X69827149Y-63354761D02*
X69827149Y-63045237D01*
X69327149Y-62735714D02*
X69327149Y-62688095D01*
X69327149Y-62688095D02*
X69350959Y-62640476D01*
X69350959Y-62640476D02*
X69374768Y-62616666D01*
X69374768Y-62616666D02*
X69422387Y-62592857D01*
X69422387Y-62592857D02*
X69517625Y-62569047D01*
X69517625Y-62569047D02*
X69636673Y-62569047D01*
X69636673Y-62569047D02*
X69731911Y-62592857D01*
X69731911Y-62592857D02*
X69779530Y-62616666D01*
X69779530Y-62616666D02*
X69803340Y-62640476D01*
X69803340Y-62640476D02*
X69827149Y-62688095D01*
X69827149Y-62688095D02*
X69827149Y-62735714D01*
X69827149Y-62735714D02*
X69803340Y-62783333D01*
X69803340Y-62783333D02*
X69779530Y-62807142D01*
X69779530Y-62807142D02*
X69731911Y-62830952D01*
X69731911Y-62830952D02*
X69636673Y-62854761D01*
X69636673Y-62854761D02*
X69517625Y-62854761D01*
X69517625Y-62854761D02*
X69422387Y-62830952D01*
X69422387Y-62830952D02*
X69374768Y-62807142D01*
X69374768Y-62807142D02*
X69350959Y-62783333D01*
X69350959Y-62783333D02*
X69327149Y-62735714D01*
X60579530Y-64721428D02*
X60603340Y-64745237D01*
X60603340Y-64745237D02*
X60627149Y-64816666D01*
X60627149Y-64816666D02*
X60627149Y-64864285D01*
X60627149Y-64864285D02*
X60603340Y-64935713D01*
X60603340Y-64935713D02*
X60555720Y-64983332D01*
X60555720Y-64983332D02*
X60508101Y-65007142D01*
X60508101Y-65007142D02*
X60412863Y-65030951D01*
X60412863Y-65030951D02*
X60341435Y-65030951D01*
X60341435Y-65030951D02*
X60246197Y-65007142D01*
X60246197Y-65007142D02*
X60198578Y-64983332D01*
X60198578Y-64983332D02*
X60150959Y-64935713D01*
X60150959Y-64935713D02*
X60127149Y-64864285D01*
X60127149Y-64864285D02*
X60127149Y-64816666D01*
X60127149Y-64816666D02*
X60150959Y-64745237D01*
X60150959Y-64745237D02*
X60174768Y-64721428D01*
X60174768Y-64530951D02*
X60150959Y-64507142D01*
X60150959Y-64507142D02*
X60127149Y-64459523D01*
X60127149Y-64459523D02*
X60127149Y-64340475D01*
X60127149Y-64340475D02*
X60150959Y-64292856D01*
X60150959Y-64292856D02*
X60174768Y-64269047D01*
X60174768Y-64269047D02*
X60222387Y-64245237D01*
X60222387Y-64245237D02*
X60270006Y-64245237D01*
X60270006Y-64245237D02*
X60341435Y-64269047D01*
X60341435Y-64269047D02*
X60627149Y-64554761D01*
X60627149Y-64554761D02*
X60627149Y-64245237D01*
X60127149Y-63816666D02*
X60127149Y-63911904D01*
X60127149Y-63911904D02*
X60150959Y-63959523D01*
X60150959Y-63959523D02*
X60174768Y-63983333D01*
X60174768Y-63983333D02*
X60246197Y-64030952D01*
X60246197Y-64030952D02*
X60341435Y-64054761D01*
X60341435Y-64054761D02*
X60531911Y-64054761D01*
X60531911Y-64054761D02*
X60579530Y-64030952D01*
X60579530Y-64030952D02*
X60603340Y-64007142D01*
X60603340Y-64007142D02*
X60627149Y-63959523D01*
X60627149Y-63959523D02*
X60627149Y-63864285D01*
X60627149Y-63864285D02*
X60603340Y-63816666D01*
X60603340Y-63816666D02*
X60579530Y-63792857D01*
X60579530Y-63792857D02*
X60531911Y-63769047D01*
X60531911Y-63769047D02*
X60412863Y-63769047D01*
X60412863Y-63769047D02*
X60365244Y-63792857D01*
X60365244Y-63792857D02*
X60341435Y-63816666D01*
X60341435Y-63816666D02*
X60317625Y-63864285D01*
X60317625Y-63864285D02*
X60317625Y-63959523D01*
X60317625Y-63959523D02*
X60341435Y-64007142D01*
X60341435Y-64007142D02*
X60365244Y-64030952D01*
X60365244Y-64030952D02*
X60412863Y-64054761D01*
D16*
X64390476Y-63363855D02*
X64390476Y-64011474D01*
X64390476Y-64011474D02*
X64428571Y-64087664D01*
X64428571Y-64087664D02*
X64466666Y-64125760D01*
X64466666Y-64125760D02*
X64542857Y-64163855D01*
X64542857Y-64163855D02*
X64695238Y-64163855D01*
X64695238Y-64163855D02*
X64771428Y-64125760D01*
X64771428Y-64125760D02*
X64809523Y-64087664D01*
X64809523Y-64087664D02*
X64847619Y-64011474D01*
X64847619Y-64011474D02*
X64847619Y-63363855D01*
X65190475Y-63440045D02*
X65228571Y-63401950D01*
X65228571Y-63401950D02*
X65304761Y-63363855D01*
X65304761Y-63363855D02*
X65495237Y-63363855D01*
X65495237Y-63363855D02*
X65571428Y-63401950D01*
X65571428Y-63401950D02*
X65609523Y-63440045D01*
X65609523Y-63440045D02*
X65647618Y-63516236D01*
X65647618Y-63516236D02*
X65647618Y-63592426D01*
X65647618Y-63592426D02*
X65609523Y-63706712D01*
X65609523Y-63706712D02*
X65152380Y-64163855D01*
X65152380Y-64163855D02*
X65647618Y-64163855D01*
D10*
X52858333Y-65213574D02*
X52739285Y-65213574D01*
X52739285Y-65213574D02*
X52739285Y-64963574D01*
X53072619Y-65213574D02*
X52929762Y-65213574D01*
X53001190Y-65213574D02*
X53001190Y-64963574D01*
X53001190Y-64963574D02*
X52977381Y-64999289D01*
X52977381Y-64999289D02*
X52953571Y-65023098D01*
X52953571Y-65023098D02*
X52929762Y-65035003D01*
X61889765Y-58441666D02*
X61901670Y-58453570D01*
X61901670Y-58453570D02*
X61913574Y-58489285D01*
X61913574Y-58489285D02*
X61913574Y-58513094D01*
X61913574Y-58513094D02*
X61901670Y-58548808D01*
X61901670Y-58548808D02*
X61877860Y-58572618D01*
X61877860Y-58572618D02*
X61854050Y-58584523D01*
X61854050Y-58584523D02*
X61806431Y-58596427D01*
X61806431Y-58596427D02*
X61770717Y-58596427D01*
X61770717Y-58596427D02*
X61723098Y-58584523D01*
X61723098Y-58584523D02*
X61699289Y-58572618D01*
X61699289Y-58572618D02*
X61675479Y-58548808D01*
X61675479Y-58548808D02*
X61663574Y-58513094D01*
X61663574Y-58513094D02*
X61663574Y-58489285D01*
X61663574Y-58489285D02*
X61675479Y-58453570D01*
X61675479Y-58453570D02*
X61687384Y-58441666D01*
X61663574Y-58358332D02*
X61663574Y-58191666D01*
X61663574Y-58191666D02*
X61913574Y-58298808D01*
D13*
X50483333Y-68969104D02*
X50959523Y-68969104D01*
X50388095Y-69254819D02*
X50721428Y-68254819D01*
X50721428Y-68254819D02*
X51054761Y-69254819D01*
X51388095Y-68731009D02*
X51721428Y-68731009D01*
X51864285Y-69254819D02*
X51388095Y-69254819D01*
X51388095Y-69254819D02*
X51388095Y-68254819D01*
X51388095Y-68254819D02*
X51864285Y-68254819D01*
X52816666Y-69254819D02*
X52245238Y-69254819D01*
X52530952Y-69254819D02*
X52530952Y-68254819D01*
X52530952Y-68254819D02*
X52435714Y-68397676D01*
X52435714Y-68397676D02*
X52340476Y-68492914D01*
X52340476Y-68492914D02*
X52245238Y-68540533D01*
X58796009Y-53526768D02*
X58843628Y-53383911D01*
X58843628Y-53383911D02*
X58891247Y-53336292D01*
X58891247Y-53336292D02*
X58986485Y-53288673D01*
X58986485Y-53288673D02*
X59129342Y-53288673D01*
X59129342Y-53288673D02*
X59224580Y-53336292D01*
X59224580Y-53336292D02*
X59272200Y-53383911D01*
X59272200Y-53383911D02*
X59319819Y-53479149D01*
X59319819Y-53479149D02*
X59319819Y-53860101D01*
X59319819Y-53860101D02*
X58319819Y-53860101D01*
X58319819Y-53860101D02*
X58319819Y-53526768D01*
X58319819Y-53526768D02*
X58367438Y-53431530D01*
X58367438Y-53431530D02*
X58415057Y-53383911D01*
X58415057Y-53383911D02*
X58510295Y-53336292D01*
X58510295Y-53336292D02*
X58605533Y-53336292D01*
X58605533Y-53336292D02*
X58700771Y-53383911D01*
X58700771Y-53383911D02*
X58748390Y-53431530D01*
X58748390Y-53431530D02*
X58796009Y-53526768D01*
X58796009Y-53526768D02*
X58796009Y-53860101D01*
X59319819Y-52860101D02*
X58319819Y-52860101D01*
X58319819Y-52860101D02*
X59319819Y-52288673D01*
X59319819Y-52288673D02*
X58319819Y-52288673D01*
X59319819Y-51288673D02*
X59319819Y-51860101D01*
X59319819Y-51574387D02*
X58319819Y-51574387D01*
X58319819Y-51574387D02*
X58462676Y-51669625D01*
X58462676Y-51669625D02*
X58557914Y-51764863D01*
X58557914Y-51764863D02*
X58605533Y-51860101D01*
X63233333Y-57569104D02*
X63709523Y-57569104D01*
X63138095Y-57854819D02*
X63471428Y-56854819D01*
X63471428Y-56854819D02*
X63804761Y-57854819D01*
X64138095Y-57331009D02*
X64471428Y-57331009D01*
X64614285Y-57854819D02*
X64138095Y-57854819D01*
X64138095Y-57854819D02*
X64138095Y-56854819D01*
X64138095Y-56854819D02*
X64614285Y-56854819D01*
X64995238Y-56950057D02*
X65042857Y-56902438D01*
X65042857Y-56902438D02*
X65138095Y-56854819D01*
X65138095Y-56854819D02*
X65376190Y-56854819D01*
X65376190Y-56854819D02*
X65471428Y-56902438D01*
X65471428Y-56902438D02*
X65519047Y-56950057D01*
X65519047Y-56950057D02*
X65566666Y-57045295D01*
X65566666Y-57045295D02*
X65566666Y-57140533D01*
X65566666Y-57140533D02*
X65519047Y-57283390D01*
X65519047Y-57283390D02*
X64947619Y-57854819D01*
X64947619Y-57854819D02*
X65566666Y-57854819D01*
D10*
X72718200Y-57667142D02*
X72594391Y-57753809D01*
X72718200Y-57815714D02*
X72458200Y-57815714D01*
X72458200Y-57815714D02*
X72458200Y-57716666D01*
X72458200Y-57716666D02*
X72470581Y-57691904D01*
X72470581Y-57691904D02*
X72482962Y-57679523D01*
X72482962Y-57679523D02*
X72507724Y-57667142D01*
X72507724Y-57667142D02*
X72544867Y-57667142D01*
X72544867Y-57667142D02*
X72569629Y-57679523D01*
X72569629Y-57679523D02*
X72582010Y-57691904D01*
X72582010Y-57691904D02*
X72594391Y-57716666D01*
X72594391Y-57716666D02*
X72594391Y-57815714D01*
X72718200Y-57419523D02*
X72718200Y-57568095D01*
X72718200Y-57493809D02*
X72458200Y-57493809D01*
X72458200Y-57493809D02*
X72495343Y-57518571D01*
X72495343Y-57518571D02*
X72520105Y-57543333D01*
X72520105Y-57543333D02*
X72532486Y-57568095D01*
X72482962Y-57320476D02*
X72470581Y-57308095D01*
X72470581Y-57308095D02*
X72458200Y-57283333D01*
X72458200Y-57283333D02*
X72458200Y-57221428D01*
X72458200Y-57221428D02*
X72470581Y-57196666D01*
X72470581Y-57196666D02*
X72482962Y-57184285D01*
X72482962Y-57184285D02*
X72507724Y-57171904D01*
X72507724Y-57171904D02*
X72532486Y-57171904D01*
X72532486Y-57171904D02*
X72569629Y-57184285D01*
X72569629Y-57184285D02*
X72718200Y-57332857D01*
X72718200Y-57332857D02*
X72718200Y-57171904D01*
X50818200Y-56443332D02*
X50694391Y-56529999D01*
X50818200Y-56591904D02*
X50558200Y-56591904D01*
X50558200Y-56591904D02*
X50558200Y-56492856D01*
X50558200Y-56492856D02*
X50570581Y-56468094D01*
X50570581Y-56468094D02*
X50582962Y-56455713D01*
X50582962Y-56455713D02*
X50607724Y-56443332D01*
X50607724Y-56443332D02*
X50644867Y-56443332D01*
X50644867Y-56443332D02*
X50669629Y-56455713D01*
X50669629Y-56455713D02*
X50682010Y-56468094D01*
X50682010Y-56468094D02*
X50694391Y-56492856D01*
X50694391Y-56492856D02*
X50694391Y-56591904D01*
X50558200Y-56208094D02*
X50558200Y-56331904D01*
X50558200Y-56331904D02*
X50682010Y-56344285D01*
X50682010Y-56344285D02*
X50669629Y-56331904D01*
X50669629Y-56331904D02*
X50657248Y-56307142D01*
X50657248Y-56307142D02*
X50657248Y-56245237D01*
X50657248Y-56245237D02*
X50669629Y-56220475D01*
X50669629Y-56220475D02*
X50682010Y-56208094D01*
X50682010Y-56208094D02*
X50706772Y-56195713D01*
X50706772Y-56195713D02*
X50768677Y-56195713D01*
X50768677Y-56195713D02*
X50793439Y-56208094D01*
X50793439Y-56208094D02*
X50805820Y-56220475D01*
X50805820Y-56220475D02*
X50818200Y-56245237D01*
X50818200Y-56245237D02*
X50818200Y-56307142D01*
X50818200Y-56307142D02*
X50805820Y-56331904D01*
X50805820Y-56331904D02*
X50793439Y-56344285D01*
X49739765Y-61691666D02*
X49751670Y-61703570D01*
X49751670Y-61703570D02*
X49763574Y-61739285D01*
X49763574Y-61739285D02*
X49763574Y-61763094D01*
X49763574Y-61763094D02*
X49751670Y-61798808D01*
X49751670Y-61798808D02*
X49727860Y-61822618D01*
X49727860Y-61822618D02*
X49704050Y-61834523D01*
X49704050Y-61834523D02*
X49656431Y-61846427D01*
X49656431Y-61846427D02*
X49620717Y-61846427D01*
X49620717Y-61846427D02*
X49573098Y-61834523D01*
X49573098Y-61834523D02*
X49549289Y-61822618D01*
X49549289Y-61822618D02*
X49525479Y-61798808D01*
X49525479Y-61798808D02*
X49513574Y-61763094D01*
X49513574Y-61763094D02*
X49513574Y-61739285D01*
X49513574Y-61739285D02*
X49525479Y-61703570D01*
X49525479Y-61703570D02*
X49537384Y-61691666D01*
X49513574Y-61465475D02*
X49513574Y-61584523D01*
X49513574Y-61584523D02*
X49632622Y-61596427D01*
X49632622Y-61596427D02*
X49620717Y-61584523D01*
X49620717Y-61584523D02*
X49608812Y-61560713D01*
X49608812Y-61560713D02*
X49608812Y-61501189D01*
X49608812Y-61501189D02*
X49620717Y-61477380D01*
X49620717Y-61477380D02*
X49632622Y-61465475D01*
X49632622Y-61465475D02*
X49656431Y-61453570D01*
X49656431Y-61453570D02*
X49715955Y-61453570D01*
X49715955Y-61453570D02*
X49739765Y-61465475D01*
X49739765Y-61465475D02*
X49751670Y-61477380D01*
X49751670Y-61477380D02*
X49763574Y-61501189D01*
X49763574Y-61501189D02*
X49763574Y-61560713D01*
X49763574Y-61560713D02*
X49751670Y-61584523D01*
X49751670Y-61584523D02*
X49739765Y-61596427D01*
X68789765Y-53660714D02*
X68801670Y-53672618D01*
X68801670Y-53672618D02*
X68813574Y-53708333D01*
X68813574Y-53708333D02*
X68813574Y-53732142D01*
X68813574Y-53732142D02*
X68801670Y-53767856D01*
X68801670Y-53767856D02*
X68777860Y-53791666D01*
X68777860Y-53791666D02*
X68754050Y-53803571D01*
X68754050Y-53803571D02*
X68706431Y-53815475D01*
X68706431Y-53815475D02*
X68670717Y-53815475D01*
X68670717Y-53815475D02*
X68623098Y-53803571D01*
X68623098Y-53803571D02*
X68599289Y-53791666D01*
X68599289Y-53791666D02*
X68575479Y-53767856D01*
X68575479Y-53767856D02*
X68563574Y-53732142D01*
X68563574Y-53732142D02*
X68563574Y-53708333D01*
X68563574Y-53708333D02*
X68575479Y-53672618D01*
X68575479Y-53672618D02*
X68587384Y-53660714D01*
X68813574Y-53422618D02*
X68813574Y-53565475D01*
X68813574Y-53494047D02*
X68563574Y-53494047D01*
X68563574Y-53494047D02*
X68599289Y-53517856D01*
X68599289Y-53517856D02*
X68623098Y-53541666D01*
X68623098Y-53541666D02*
X68635003Y-53565475D01*
X68587384Y-53327380D02*
X68575479Y-53315476D01*
X68575479Y-53315476D02*
X68563574Y-53291666D01*
X68563574Y-53291666D02*
X68563574Y-53232142D01*
X68563574Y-53232142D02*
X68575479Y-53208333D01*
X68575479Y-53208333D02*
X68587384Y-53196428D01*
X68587384Y-53196428D02*
X68611193Y-53184523D01*
X68611193Y-53184523D02*
X68635003Y-53184523D01*
X68635003Y-53184523D02*
X68670717Y-53196428D01*
X68670717Y-53196428D02*
X68813574Y-53339285D01*
X68813574Y-53339285D02*
X68813574Y-53184523D01*
X55689765Y-56491666D02*
X55701670Y-56503570D01*
X55701670Y-56503570D02*
X55713574Y-56539285D01*
X55713574Y-56539285D02*
X55713574Y-56563094D01*
X55713574Y-56563094D02*
X55701670Y-56598808D01*
X55701670Y-56598808D02*
X55677860Y-56622618D01*
X55677860Y-56622618D02*
X55654050Y-56634523D01*
X55654050Y-56634523D02*
X55606431Y-56646427D01*
X55606431Y-56646427D02*
X55570717Y-56646427D01*
X55570717Y-56646427D02*
X55523098Y-56634523D01*
X55523098Y-56634523D02*
X55499289Y-56622618D01*
X55499289Y-56622618D02*
X55475479Y-56598808D01*
X55475479Y-56598808D02*
X55463574Y-56563094D01*
X55463574Y-56563094D02*
X55463574Y-56539285D01*
X55463574Y-56539285D02*
X55475479Y-56503570D01*
X55475479Y-56503570D02*
X55487384Y-56491666D01*
X55463574Y-56408332D02*
X55463574Y-56253570D01*
X55463574Y-56253570D02*
X55558812Y-56336904D01*
X55558812Y-56336904D02*
X55558812Y-56301189D01*
X55558812Y-56301189D02*
X55570717Y-56277380D01*
X55570717Y-56277380D02*
X55582622Y-56265475D01*
X55582622Y-56265475D02*
X55606431Y-56253570D01*
X55606431Y-56253570D02*
X55665955Y-56253570D01*
X55665955Y-56253570D02*
X55689765Y-56265475D01*
X55689765Y-56265475D02*
X55701670Y-56277380D01*
X55701670Y-56277380D02*
X55713574Y-56301189D01*
X55713574Y-56301189D02*
X55713574Y-56372618D01*
X55713574Y-56372618D02*
X55701670Y-56396427D01*
X55701670Y-56396427D02*
X55689765Y-56408332D01*
D13*
X69934819Y-67258094D02*
X68934819Y-67258094D01*
X68934819Y-67258094D02*
X68934819Y-67019999D01*
X68934819Y-67019999D02*
X68982438Y-66877142D01*
X68982438Y-66877142D02*
X69077676Y-66781904D01*
X69077676Y-66781904D02*
X69172914Y-66734285D01*
X69172914Y-66734285D02*
X69363390Y-66686666D01*
X69363390Y-66686666D02*
X69506247Y-66686666D01*
X69506247Y-66686666D02*
X69696723Y-66734285D01*
X69696723Y-66734285D02*
X69791961Y-66781904D01*
X69791961Y-66781904D02*
X69887200Y-66877142D01*
X69887200Y-66877142D02*
X69934819Y-67019999D01*
X69934819Y-67019999D02*
X69934819Y-67258094D01*
X69030057Y-66305713D02*
X68982438Y-66258094D01*
X68982438Y-66258094D02*
X68934819Y-66162856D01*
X68934819Y-66162856D02*
X68934819Y-65924761D01*
X68934819Y-65924761D02*
X68982438Y-65829523D01*
X68982438Y-65829523D02*
X69030057Y-65781904D01*
X69030057Y-65781904D02*
X69125295Y-65734285D01*
X69125295Y-65734285D02*
X69220533Y-65734285D01*
X69220533Y-65734285D02*
X69363390Y-65781904D01*
X69363390Y-65781904D02*
X69934819Y-66353332D01*
X69934819Y-66353332D02*
X69934819Y-65734285D01*
D10*
X68859765Y-51760714D02*
X68871670Y-51772618D01*
X68871670Y-51772618D02*
X68883574Y-51808333D01*
X68883574Y-51808333D02*
X68883574Y-51832142D01*
X68883574Y-51832142D02*
X68871670Y-51867856D01*
X68871670Y-51867856D02*
X68847860Y-51891666D01*
X68847860Y-51891666D02*
X68824050Y-51903571D01*
X68824050Y-51903571D02*
X68776431Y-51915475D01*
X68776431Y-51915475D02*
X68740717Y-51915475D01*
X68740717Y-51915475D02*
X68693098Y-51903571D01*
X68693098Y-51903571D02*
X68669289Y-51891666D01*
X68669289Y-51891666D02*
X68645479Y-51867856D01*
X68645479Y-51867856D02*
X68633574Y-51832142D01*
X68633574Y-51832142D02*
X68633574Y-51808333D01*
X68633574Y-51808333D02*
X68645479Y-51772618D01*
X68645479Y-51772618D02*
X68657384Y-51760714D01*
X68883574Y-51522618D02*
X68883574Y-51665475D01*
X68883574Y-51594047D02*
X68633574Y-51594047D01*
X68633574Y-51594047D02*
X68669289Y-51617856D01*
X68669289Y-51617856D02*
X68693098Y-51641666D01*
X68693098Y-51641666D02*
X68705003Y-51665475D01*
X68633574Y-51308333D02*
X68633574Y-51355952D01*
X68633574Y-51355952D02*
X68645479Y-51379761D01*
X68645479Y-51379761D02*
X68657384Y-51391666D01*
X68657384Y-51391666D02*
X68693098Y-51415476D01*
X68693098Y-51415476D02*
X68740717Y-51427380D01*
X68740717Y-51427380D02*
X68835955Y-51427380D01*
X68835955Y-51427380D02*
X68859765Y-51415476D01*
X68859765Y-51415476D02*
X68871670Y-51403571D01*
X68871670Y-51403571D02*
X68883574Y-51379761D01*
X68883574Y-51379761D02*
X68883574Y-51332142D01*
X68883574Y-51332142D02*
X68871670Y-51308333D01*
X68871670Y-51308333D02*
X68859765Y-51296428D01*
X68859765Y-51296428D02*
X68835955Y-51284523D01*
X68835955Y-51284523D02*
X68776431Y-51284523D01*
X68776431Y-51284523D02*
X68752622Y-51296428D01*
X68752622Y-51296428D02*
X68740717Y-51308333D01*
X68740717Y-51308333D02*
X68728812Y-51332142D01*
X68728812Y-51332142D02*
X68728812Y-51379761D01*
X68728812Y-51379761D02*
X68740717Y-51403571D01*
X68740717Y-51403571D02*
X68752622Y-51415476D01*
X68752622Y-51415476D02*
X68776431Y-51427380D01*
X68799285Y-55369765D02*
X68787381Y-55381670D01*
X68787381Y-55381670D02*
X68751666Y-55393574D01*
X68751666Y-55393574D02*
X68727857Y-55393574D01*
X68727857Y-55393574D02*
X68692143Y-55381670D01*
X68692143Y-55381670D02*
X68668333Y-55357860D01*
X68668333Y-55357860D02*
X68656428Y-55334050D01*
X68656428Y-55334050D02*
X68644524Y-55286431D01*
X68644524Y-55286431D02*
X68644524Y-55250717D01*
X68644524Y-55250717D02*
X68656428Y-55203098D01*
X68656428Y-55203098D02*
X68668333Y-55179289D01*
X68668333Y-55179289D02*
X68692143Y-55155479D01*
X68692143Y-55155479D02*
X68727857Y-55143574D01*
X68727857Y-55143574D02*
X68751666Y-55143574D01*
X68751666Y-55143574D02*
X68787381Y-55155479D01*
X68787381Y-55155479D02*
X68799285Y-55167384D01*
X69037381Y-55393574D02*
X68894524Y-55393574D01*
X68965952Y-55393574D02*
X68965952Y-55143574D01*
X68965952Y-55143574D02*
X68942143Y-55179289D01*
X68942143Y-55179289D02*
X68918333Y-55203098D01*
X68918333Y-55203098D02*
X68894524Y-55215003D01*
X69180238Y-55250717D02*
X69156428Y-55238812D01*
X69156428Y-55238812D02*
X69144523Y-55226908D01*
X69144523Y-55226908D02*
X69132619Y-55203098D01*
X69132619Y-55203098D02*
X69132619Y-55191193D01*
X69132619Y-55191193D02*
X69144523Y-55167384D01*
X69144523Y-55167384D02*
X69156428Y-55155479D01*
X69156428Y-55155479D02*
X69180238Y-55143574D01*
X69180238Y-55143574D02*
X69227857Y-55143574D01*
X69227857Y-55143574D02*
X69251666Y-55155479D01*
X69251666Y-55155479D02*
X69263571Y-55167384D01*
X69263571Y-55167384D02*
X69275476Y-55191193D01*
X69275476Y-55191193D02*
X69275476Y-55203098D01*
X69275476Y-55203098D02*
X69263571Y-55226908D01*
X69263571Y-55226908D02*
X69251666Y-55238812D01*
X69251666Y-55238812D02*
X69227857Y-55250717D01*
X69227857Y-55250717D02*
X69180238Y-55250717D01*
X69180238Y-55250717D02*
X69156428Y-55262622D01*
X69156428Y-55262622D02*
X69144523Y-55274527D01*
X69144523Y-55274527D02*
X69132619Y-55298336D01*
X69132619Y-55298336D02*
X69132619Y-55345955D01*
X69132619Y-55345955D02*
X69144523Y-55369765D01*
X69144523Y-55369765D02*
X69156428Y-55381670D01*
X69156428Y-55381670D02*
X69180238Y-55393574D01*
X69180238Y-55393574D02*
X69227857Y-55393574D01*
X69227857Y-55393574D02*
X69251666Y-55381670D01*
X69251666Y-55381670D02*
X69263571Y-55369765D01*
X69263571Y-55369765D02*
X69275476Y-55345955D01*
X69275476Y-55345955D02*
X69275476Y-55298336D01*
X69275476Y-55298336D02*
X69263571Y-55274527D01*
X69263571Y-55274527D02*
X69251666Y-55262622D01*
X69251666Y-55262622D02*
X69227857Y-55250717D01*
X49739765Y-63541666D02*
X49751670Y-63553570D01*
X49751670Y-63553570D02*
X49763574Y-63589285D01*
X49763574Y-63589285D02*
X49763574Y-63613094D01*
X49763574Y-63613094D02*
X49751670Y-63648808D01*
X49751670Y-63648808D02*
X49727860Y-63672618D01*
X49727860Y-63672618D02*
X49704050Y-63684523D01*
X49704050Y-63684523D02*
X49656431Y-63696427D01*
X49656431Y-63696427D02*
X49620717Y-63696427D01*
X49620717Y-63696427D02*
X49573098Y-63684523D01*
X49573098Y-63684523D02*
X49549289Y-63672618D01*
X49549289Y-63672618D02*
X49525479Y-63648808D01*
X49525479Y-63648808D02*
X49513574Y-63613094D01*
X49513574Y-63613094D02*
X49513574Y-63589285D01*
X49513574Y-63589285D02*
X49525479Y-63553570D01*
X49525479Y-63553570D02*
X49537384Y-63541666D01*
X49513574Y-63327380D02*
X49513574Y-63374999D01*
X49513574Y-63374999D02*
X49525479Y-63398808D01*
X49525479Y-63398808D02*
X49537384Y-63410713D01*
X49537384Y-63410713D02*
X49573098Y-63434523D01*
X49573098Y-63434523D02*
X49620717Y-63446427D01*
X49620717Y-63446427D02*
X49715955Y-63446427D01*
X49715955Y-63446427D02*
X49739765Y-63434523D01*
X49739765Y-63434523D02*
X49751670Y-63422618D01*
X49751670Y-63422618D02*
X49763574Y-63398808D01*
X49763574Y-63398808D02*
X49763574Y-63351189D01*
X49763574Y-63351189D02*
X49751670Y-63327380D01*
X49751670Y-63327380D02*
X49739765Y-63315475D01*
X49739765Y-63315475D02*
X49715955Y-63303570D01*
X49715955Y-63303570D02*
X49656431Y-63303570D01*
X49656431Y-63303570D02*
X49632622Y-63315475D01*
X49632622Y-63315475D02*
X49620717Y-63327380D01*
X49620717Y-63327380D02*
X49608812Y-63351189D01*
X49608812Y-63351189D02*
X49608812Y-63398808D01*
X49608812Y-63398808D02*
X49620717Y-63422618D01*
X49620717Y-63422618D02*
X49632622Y-63434523D01*
X49632622Y-63434523D02*
X49656431Y-63446427D01*
X61815476Y-52763574D02*
X61815476Y-52513574D01*
X61815476Y-52513574D02*
X61875000Y-52513574D01*
X61875000Y-52513574D02*
X61910714Y-52525479D01*
X61910714Y-52525479D02*
X61934524Y-52549289D01*
X61934524Y-52549289D02*
X61946429Y-52573098D01*
X61946429Y-52573098D02*
X61958333Y-52620717D01*
X61958333Y-52620717D02*
X61958333Y-52656431D01*
X61958333Y-52656431D02*
X61946429Y-52704050D01*
X61946429Y-52704050D02*
X61934524Y-52727860D01*
X61934524Y-52727860D02*
X61910714Y-52751670D01*
X61910714Y-52751670D02*
X61875000Y-52763574D01*
X61875000Y-52763574D02*
X61815476Y-52763574D01*
X62196429Y-52763574D02*
X62053572Y-52763574D01*
X62125000Y-52763574D02*
X62125000Y-52513574D01*
X62125000Y-52513574D02*
X62101191Y-52549289D01*
X62101191Y-52549289D02*
X62077381Y-52573098D01*
X62077381Y-52573098D02*
X62053572Y-52585003D01*
D14*
X57875914Y-71030476D02*
X57860676Y-71060952D01*
X57860676Y-71060952D02*
X57830200Y-71091428D01*
X57830200Y-71091428D02*
X57784485Y-71137142D01*
X57784485Y-71137142D02*
X57769247Y-71167619D01*
X57769247Y-71167619D02*
X57769247Y-71198095D01*
X57845438Y-71182857D02*
X57830200Y-71213333D01*
X57830200Y-71213333D02*
X57799723Y-71243809D01*
X57799723Y-71243809D02*
X57738771Y-71259047D01*
X57738771Y-71259047D02*
X57632104Y-71259047D01*
X57632104Y-71259047D02*
X57571152Y-71243809D01*
X57571152Y-71243809D02*
X57540676Y-71213333D01*
X57540676Y-71213333D02*
X57525438Y-71182857D01*
X57525438Y-71182857D02*
X57525438Y-71121904D01*
X57525438Y-71121904D02*
X57540676Y-71091428D01*
X57540676Y-71091428D02*
X57571152Y-71060952D01*
X57571152Y-71060952D02*
X57632104Y-71045714D01*
X57632104Y-71045714D02*
X57738771Y-71045714D01*
X57738771Y-71045714D02*
X57799723Y-71060952D01*
X57799723Y-71060952D02*
X57830200Y-71091428D01*
X57830200Y-71091428D02*
X57845438Y-71121904D01*
X57845438Y-71121904D02*
X57845438Y-71182857D01*
X57845438Y-70740952D02*
X57845438Y-70923809D01*
X57845438Y-70832381D02*
X57525438Y-70832381D01*
X57525438Y-70832381D02*
X57571152Y-70862857D01*
X57571152Y-70862857D02*
X57601628Y-70893333D01*
X57601628Y-70893333D02*
X57616866Y-70923809D01*
D10*
X49818200Y-56443332D02*
X49694391Y-56529999D01*
X49818200Y-56591904D02*
X49558200Y-56591904D01*
X49558200Y-56591904D02*
X49558200Y-56492856D01*
X49558200Y-56492856D02*
X49570581Y-56468094D01*
X49570581Y-56468094D02*
X49582962Y-56455713D01*
X49582962Y-56455713D02*
X49607724Y-56443332D01*
X49607724Y-56443332D02*
X49644867Y-56443332D01*
X49644867Y-56443332D02*
X49669629Y-56455713D01*
X49669629Y-56455713D02*
X49682010Y-56468094D01*
X49682010Y-56468094D02*
X49694391Y-56492856D01*
X49694391Y-56492856D02*
X49694391Y-56591904D01*
X49558200Y-56356666D02*
X49558200Y-56183332D01*
X49558200Y-56183332D02*
X49818200Y-56294761D01*
D12*
X56333333Y-64543832D02*
X56314285Y-64562880D01*
X56314285Y-64562880D02*
X56257143Y-64581927D01*
X56257143Y-64581927D02*
X56219047Y-64581927D01*
X56219047Y-64581927D02*
X56161904Y-64562880D01*
X56161904Y-64562880D02*
X56123809Y-64524784D01*
X56123809Y-64524784D02*
X56104762Y-64486689D01*
X56104762Y-64486689D02*
X56085714Y-64410499D01*
X56085714Y-64410499D02*
X56085714Y-64353356D01*
X56085714Y-64353356D02*
X56104762Y-64277165D01*
X56104762Y-64277165D02*
X56123809Y-64239070D01*
X56123809Y-64239070D02*
X56161904Y-64200975D01*
X56161904Y-64200975D02*
X56219047Y-64181927D01*
X56219047Y-64181927D02*
X56257143Y-64181927D01*
X56257143Y-64181927D02*
X56314285Y-64200975D01*
X56314285Y-64200975D02*
X56333333Y-64220022D01*
X56523809Y-64581927D02*
X56600000Y-64581927D01*
X56600000Y-64581927D02*
X56638095Y-64562880D01*
X56638095Y-64562880D02*
X56657143Y-64543832D01*
X56657143Y-64543832D02*
X56695238Y-64486689D01*
X56695238Y-64486689D02*
X56714285Y-64410499D01*
X56714285Y-64410499D02*
X56714285Y-64258118D01*
X56714285Y-64258118D02*
X56695238Y-64220022D01*
X56695238Y-64220022D02*
X56676190Y-64200975D01*
X56676190Y-64200975D02*
X56638095Y-64181927D01*
X56638095Y-64181927D02*
X56561904Y-64181927D01*
X56561904Y-64181927D02*
X56523809Y-64200975D01*
X56523809Y-64200975D02*
X56504762Y-64220022D01*
X56504762Y-64220022D02*
X56485714Y-64258118D01*
X56485714Y-64258118D02*
X56485714Y-64353356D01*
X56485714Y-64353356D02*
X56504762Y-64391451D01*
X56504762Y-64391451D02*
X56523809Y-64410499D01*
X56523809Y-64410499D02*
X56561904Y-64429546D01*
X56561904Y-64429546D02*
X56638095Y-64429546D01*
X56638095Y-64429546D02*
X56676190Y-64410499D01*
X56676190Y-64410499D02*
X56695238Y-64391451D01*
X56695238Y-64391451D02*
X56714285Y-64353356D01*
D13*
X65104761Y-53484819D02*
X64771428Y-53008628D01*
X64533333Y-53484819D02*
X64533333Y-52484819D01*
X64533333Y-52484819D02*
X64914285Y-52484819D01*
X64914285Y-52484819D02*
X65009523Y-52532438D01*
X65009523Y-52532438D02*
X65057142Y-52580057D01*
X65057142Y-52580057D02*
X65104761Y-52675295D01*
X65104761Y-52675295D02*
X65104761Y-52818152D01*
X65104761Y-52818152D02*
X65057142Y-52913390D01*
X65057142Y-52913390D02*
X65009523Y-52961009D01*
X65009523Y-52961009D02*
X64914285Y-53008628D01*
X64914285Y-53008628D02*
X64533333Y-53008628D01*
X65866666Y-52961009D02*
X65533333Y-52961009D01*
X65533333Y-53484819D02*
X65533333Y-52484819D01*
X65533333Y-52484819D02*
X66009523Y-52484819D01*
X66914285Y-53484819D02*
X66342857Y-53484819D01*
X66628571Y-53484819D02*
X66628571Y-52484819D01*
X66628571Y-52484819D02*
X66533333Y-52627676D01*
X66533333Y-52627676D02*
X66438095Y-52722914D01*
X66438095Y-52722914D02*
X66342857Y-52770533D01*
D11*
X58616667Y-58485040D02*
X58616667Y-58818373D01*
X58383333Y-58118373D02*
X58616667Y-58485040D01*
X58616667Y-58485040D02*
X58850000Y-58118373D01*
X59450000Y-58818373D02*
X59050000Y-58818373D01*
X59250000Y-58818373D02*
X59250000Y-58118373D01*
X59250000Y-58118373D02*
X59183333Y-58218373D01*
X59183333Y-58218373D02*
X59116667Y-58285040D01*
X59116667Y-58285040D02*
X59050000Y-58318373D01*
D10*
X62789765Y-54760714D02*
X62801670Y-54772618D01*
X62801670Y-54772618D02*
X62813574Y-54808333D01*
X62813574Y-54808333D02*
X62813574Y-54832142D01*
X62813574Y-54832142D02*
X62801670Y-54867856D01*
X62801670Y-54867856D02*
X62777860Y-54891666D01*
X62777860Y-54891666D02*
X62754050Y-54903571D01*
X62754050Y-54903571D02*
X62706431Y-54915475D01*
X62706431Y-54915475D02*
X62670717Y-54915475D01*
X62670717Y-54915475D02*
X62623098Y-54903571D01*
X62623098Y-54903571D02*
X62599289Y-54891666D01*
X62599289Y-54891666D02*
X62575479Y-54867856D01*
X62575479Y-54867856D02*
X62563574Y-54832142D01*
X62563574Y-54832142D02*
X62563574Y-54808333D01*
X62563574Y-54808333D02*
X62575479Y-54772618D01*
X62575479Y-54772618D02*
X62587384Y-54760714D01*
X62813574Y-54522618D02*
X62813574Y-54665475D01*
X62813574Y-54594047D02*
X62563574Y-54594047D01*
X62563574Y-54594047D02*
X62599289Y-54617856D01*
X62599289Y-54617856D02*
X62623098Y-54641666D01*
X62623098Y-54641666D02*
X62635003Y-54665475D01*
X62646908Y-54308333D02*
X62813574Y-54308333D01*
X62551670Y-54367857D02*
X62730241Y-54427380D01*
X62730241Y-54427380D02*
X62730241Y-54272619D01*
X69439285Y-60169765D02*
X69427381Y-60181670D01*
X69427381Y-60181670D02*
X69391666Y-60193574D01*
X69391666Y-60193574D02*
X69367857Y-60193574D01*
X69367857Y-60193574D02*
X69332143Y-60181670D01*
X69332143Y-60181670D02*
X69308333Y-60157860D01*
X69308333Y-60157860D02*
X69296428Y-60134050D01*
X69296428Y-60134050D02*
X69284524Y-60086431D01*
X69284524Y-60086431D02*
X69284524Y-60050717D01*
X69284524Y-60050717D02*
X69296428Y-60003098D01*
X69296428Y-60003098D02*
X69308333Y-59979289D01*
X69308333Y-59979289D02*
X69332143Y-59955479D01*
X69332143Y-59955479D02*
X69367857Y-59943574D01*
X69367857Y-59943574D02*
X69391666Y-59943574D01*
X69391666Y-59943574D02*
X69427381Y-59955479D01*
X69427381Y-59955479D02*
X69439285Y-59967384D01*
X69677381Y-60193574D02*
X69534524Y-60193574D01*
X69605952Y-60193574D02*
X69605952Y-59943574D01*
X69605952Y-59943574D02*
X69582143Y-59979289D01*
X69582143Y-59979289D02*
X69558333Y-60003098D01*
X69558333Y-60003098D02*
X69534524Y-60015003D01*
X69760714Y-59943574D02*
X69927380Y-59943574D01*
X69927380Y-59943574D02*
X69820238Y-60193574D01*
X49743574Y-58891666D02*
X49743574Y-59010714D01*
X49743574Y-59010714D02*
X49493574Y-59010714D01*
X49576908Y-58701190D02*
X49743574Y-58701190D01*
X49481670Y-58760714D02*
X49660241Y-58820237D01*
X49660241Y-58820237D02*
X49660241Y-58665476D01*
D13*
X59024819Y-75418094D02*
X58024819Y-75418094D01*
X58024819Y-75418094D02*
X58024819Y-75179999D01*
X58024819Y-75179999D02*
X58072438Y-75037142D01*
X58072438Y-75037142D02*
X58167676Y-74941904D01*
X58167676Y-74941904D02*
X58262914Y-74894285D01*
X58262914Y-74894285D02*
X58453390Y-74846666D01*
X58453390Y-74846666D02*
X58596247Y-74846666D01*
X58596247Y-74846666D02*
X58786723Y-74894285D01*
X58786723Y-74894285D02*
X58881961Y-74941904D01*
X58881961Y-74941904D02*
X58977200Y-75037142D01*
X58977200Y-75037142D02*
X59024819Y-75179999D01*
X59024819Y-75179999D02*
X59024819Y-75418094D01*
X58358152Y-73989523D02*
X59024819Y-73989523D01*
X57977200Y-74227618D02*
X58691485Y-74465713D01*
X58691485Y-74465713D02*
X58691485Y-73846666D01*
D15*
X59378571Y-67379530D02*
X59354762Y-67403340D01*
X59354762Y-67403340D02*
X59283333Y-67427149D01*
X59283333Y-67427149D02*
X59235714Y-67427149D01*
X59235714Y-67427149D02*
X59164286Y-67403340D01*
X59164286Y-67403340D02*
X59116667Y-67355720D01*
X59116667Y-67355720D02*
X59092857Y-67308101D01*
X59092857Y-67308101D02*
X59069048Y-67212863D01*
X59069048Y-67212863D02*
X59069048Y-67141435D01*
X59069048Y-67141435D02*
X59092857Y-67046197D01*
X59092857Y-67046197D02*
X59116667Y-66998578D01*
X59116667Y-66998578D02*
X59164286Y-66950959D01*
X59164286Y-66950959D02*
X59235714Y-66927149D01*
X59235714Y-66927149D02*
X59283333Y-66927149D01*
X59283333Y-66927149D02*
X59354762Y-66950959D01*
X59354762Y-66950959D02*
X59378571Y-66974768D01*
X59569048Y-66974768D02*
X59592857Y-66950959D01*
X59592857Y-66950959D02*
X59640476Y-66927149D01*
X59640476Y-66927149D02*
X59759524Y-66927149D01*
X59759524Y-66927149D02*
X59807143Y-66950959D01*
X59807143Y-66950959D02*
X59830952Y-66974768D01*
X59830952Y-66974768D02*
X59854762Y-67022387D01*
X59854762Y-67022387D02*
X59854762Y-67070006D01*
X59854762Y-67070006D02*
X59830952Y-67141435D01*
X59830952Y-67141435D02*
X59545238Y-67427149D01*
X59545238Y-67427149D02*
X59854762Y-67427149D01*
X60021428Y-66927149D02*
X60354761Y-66927149D01*
X60354761Y-66927149D02*
X60140476Y-67427149D01*
D10*
X58518200Y-64633332D02*
X58394391Y-64719999D01*
X58518200Y-64781904D02*
X58258200Y-64781904D01*
X58258200Y-64781904D02*
X58258200Y-64682856D01*
X58258200Y-64682856D02*
X58270581Y-64658094D01*
X58270581Y-64658094D02*
X58282962Y-64645713D01*
X58282962Y-64645713D02*
X58307724Y-64633332D01*
X58307724Y-64633332D02*
X58344867Y-64633332D01*
X58344867Y-64633332D02*
X58369629Y-64645713D01*
X58369629Y-64645713D02*
X58382010Y-64658094D01*
X58382010Y-64658094D02*
X58394391Y-64682856D01*
X58394391Y-64682856D02*
X58394391Y-64781904D01*
X58518200Y-64385713D02*
X58518200Y-64534285D01*
X58518200Y-64459999D02*
X58258200Y-64459999D01*
X58258200Y-64459999D02*
X58295343Y-64484761D01*
X58295343Y-64484761D02*
X58320105Y-64509523D01*
X58320105Y-64509523D02*
X58332486Y-64534285D01*
D17*
%TO.C,L2*%
X51300000Y-65150000D02*
X51300000Y-66150000D01*
X50800000Y-65150000D02*
X51300000Y-65150000D01*
X51300000Y-66150000D02*
X50800000Y-66150000D01*
X50800000Y-66150000D02*
X50800000Y-65150000D01*
%TO.C,C21*%
X50750000Y-67350000D02*
X49750000Y-67350000D01*
X50750000Y-66850000D02*
X50750000Y-67350000D01*
X49750000Y-67350000D02*
X49750000Y-66850000D01*
X49750000Y-66850000D02*
X50750000Y-66850000D01*
%TO.C,C19*%
X50540000Y-63900000D02*
X51540000Y-63900000D01*
X50540000Y-64400000D02*
X50540000Y-63900000D01*
X51540000Y-63900000D02*
X51540000Y-64400000D01*
X51540000Y-64400000D02*
X50540000Y-64400000D01*
%TO.C,Y2*%
X66900000Y-56350000D02*
X66900000Y-58850000D01*
X66900000Y-57850000D02*
X67900000Y-58850000D01*
X66900000Y-58850000D02*
X70100000Y-58850000D01*
X70100000Y-56350000D02*
X66900000Y-56350000D01*
X70100000Y-58850000D02*
X70100000Y-56350000D01*
%TO.C,C15*%
X69480000Y-49400000D02*
X71080000Y-49400000D01*
X69480000Y-50200000D02*
X69480000Y-49400000D01*
X71080000Y-49400000D02*
X71080000Y-50200000D01*
X71080000Y-50200000D02*
X69480000Y-50200000D01*
%TO.C,C11*%
X54150000Y-64020000D02*
X54650000Y-64020000D01*
X54150000Y-65020000D02*
X54150000Y-64020000D01*
X54650000Y-64020000D02*
X54650000Y-65020000D01*
X54650000Y-65020000D02*
X54150000Y-65020000D01*
%TO.C,R2*%
X58125000Y-61880000D02*
X59175000Y-61880000D01*
X58125000Y-62420000D02*
X58125000Y-61880000D01*
X59175000Y-61880000D02*
X59175000Y-62420000D01*
X59175000Y-62420000D02*
X58125000Y-62420000D01*
%TO.C,C13*%
X64430000Y-49360000D02*
X65430000Y-49360000D01*
X64430000Y-49860000D02*
X64430000Y-49360000D01*
X65430000Y-49360000D02*
X65430000Y-49860000D01*
X65430000Y-49860000D02*
X64430000Y-49860000D01*
%TO.C,C1*%
X57150000Y-62900000D02*
X58150000Y-62900000D01*
X57150000Y-63400000D02*
X57150000Y-62900000D01*
X58150000Y-62900000D02*
X58150000Y-63400000D01*
X58150000Y-63400000D02*
X57150000Y-63400000D01*
%TO.C,J2*%
X60300000Y-69440000D02*
X60300000Y-76790000D01*
X60300000Y-69440000D02*
X69240000Y-69440000D01*
X60300000Y-76790000D02*
X69240000Y-76790000D01*
X69240000Y-76790000D02*
X69240000Y-69440000D01*
%TO.C,C2*%
X57000000Y-61190000D02*
X57500000Y-61190000D01*
X57000000Y-62190000D02*
X57000000Y-61190000D01*
X57500000Y-61190000D02*
X57500000Y-62190000D01*
X57500000Y-62190000D02*
X57000000Y-62190000D01*
%TO.C,R13*%
X55975000Y-75730000D02*
X57025000Y-75730000D01*
X55975000Y-76270000D02*
X55975000Y-75730000D01*
X57025000Y-75730000D02*
X57025000Y-76270000D01*
X57025000Y-76270000D02*
X55975000Y-76270000D01*
%TO.C,R6*%
X51675000Y-56630000D02*
X52725000Y-56630000D01*
X51675000Y-57170000D02*
X51675000Y-56630000D01*
X52725000Y-56630000D02*
X52725000Y-57170000D01*
X52725000Y-57170000D02*
X51675000Y-57170000D01*
%TO.C,R9*%
X54485000Y-69080000D02*
X55535000Y-69080000D01*
X54485000Y-69620000D02*
X54485000Y-69080000D01*
X55535000Y-69080000D02*
X55535000Y-69620000D01*
X55535000Y-69620000D02*
X54485000Y-69620000D01*
%TO.C,R3*%
X59830000Y-61075000D02*
X60370000Y-61075000D01*
X59830000Y-62125000D02*
X59830000Y-61075000D01*
X60370000Y-61075000D02*
X60370000Y-62125000D01*
X60370000Y-62125000D02*
X59830000Y-62125000D01*
%TO.C,R10*%
X56730000Y-73975000D02*
X57270000Y-73975000D01*
X56730000Y-75025000D02*
X56730000Y-73975000D01*
X57270000Y-73975000D02*
X57270000Y-75025000D01*
X57270000Y-75025000D02*
X56730000Y-75025000D01*
%TO.C,C8*%
X58150000Y-60900000D02*
X59150000Y-60900000D01*
X58150000Y-61400000D02*
X58150000Y-60900000D01*
X59150000Y-60900000D02*
X59150000Y-61400000D01*
X59150000Y-61400000D02*
X58150000Y-61400000D01*
%TO.C,J1*%
X72225000Y-59400000D02*
X76475000Y-59400000D01*
X72225000Y-68400000D02*
X72932107Y-67900000D01*
X72225000Y-69400000D02*
X72225000Y-59400000D01*
X72225000Y-69400000D02*
X76475000Y-69400000D01*
X72932107Y-67900000D02*
X72225000Y-67400000D01*
X76475000Y-69400000D02*
X76475000Y-59400000D01*
%TO.C,C10*%
X52400000Y-63900000D02*
X53400000Y-63900000D01*
X52400000Y-64400000D02*
X52400000Y-63900000D01*
X53400000Y-63900000D02*
X53400000Y-64400000D01*
X53400000Y-64400000D02*
X52400000Y-64400000D01*
%TO.C,C4*%
X53550000Y-56650000D02*
X54550000Y-56650000D01*
X53550000Y-57150000D02*
X53550000Y-56650000D01*
X54550000Y-56650000D02*
X54550000Y-57150000D01*
X54550000Y-57150000D02*
X53550000Y-57150000D01*
%TO.C,R11*%
X61475000Y-51430000D02*
X62525000Y-51430000D01*
X61475000Y-51970000D02*
X61475000Y-51430000D01*
X62525000Y-51430000D02*
X62525000Y-51970000D01*
X62525000Y-51970000D02*
X61475000Y-51970000D01*
%TO.C,D3*%
X61500000Y-50500000D02*
X62500000Y-50500000D01*
X61500000Y-51000000D02*
X61500000Y-50500000D01*
X62300000Y-50500000D02*
X62300000Y-51000000D01*
X62400000Y-50500000D02*
X62400000Y-51000000D01*
X62500000Y-50500000D02*
X62500000Y-51000000D01*
X62500000Y-51000000D02*
X61500000Y-51000000D01*
%TO.C,R4*%
X61475000Y-49530000D02*
X62525000Y-49530000D01*
X61475000Y-50070000D02*
X61475000Y-49530000D01*
X62525000Y-49530000D02*
X62525000Y-50070000D01*
X62525000Y-50070000D02*
X61475000Y-50070000D01*
%TO.C,Q2*%
X55350000Y-66012500D02*
X55675000Y-65687500D01*
X55350000Y-68587500D02*
X55350000Y-66012500D01*
X55675000Y-65687500D02*
X56650000Y-65687500D01*
X56650000Y-65687500D02*
X56650000Y-68587500D01*
X56650000Y-68587500D02*
X55350000Y-68587500D01*
%TO.C,L5*%
X66520000Y-49380000D02*
X68120000Y-49380000D01*
X66520000Y-50180000D02*
X66520000Y-49380000D01*
X68120000Y-49380000D02*
X68120000Y-50180000D01*
X68120000Y-50180000D02*
X66520000Y-50180000D01*
%TO.C,R8*%
X71330000Y-56975000D02*
X71870000Y-56975000D01*
X71330000Y-58025000D02*
X71330000Y-56975000D01*
X71870000Y-56975000D02*
X71870000Y-58025000D01*
X71870000Y-58025000D02*
X71330000Y-58025000D01*
%TO.C,U1*%
X51000000Y-58000000D02*
X56000000Y-58000000D01*
X51000000Y-62000000D02*
X51000000Y-58000000D01*
X52000000Y-63000000D02*
X51000000Y-62000000D01*
X56000000Y-58000000D02*
X56000000Y-63000000D01*
X56000000Y-63000000D02*
X52000000Y-63000000D01*
%TO.C,C20*%
X68975000Y-62200000D02*
X70225000Y-62200000D01*
X68975000Y-64200000D02*
X68975000Y-62200000D01*
X70225000Y-62200000D02*
X70225000Y-64200000D01*
X70225000Y-64200000D02*
X68975000Y-64200000D01*
%TO.C,C26*%
X59775000Y-63400000D02*
X61025000Y-63400000D01*
X59775000Y-65400000D02*
X59775000Y-63400000D01*
X61025000Y-63400000D02*
X61025000Y-65400000D01*
X61025000Y-65400000D02*
X59775000Y-65400000D01*
%TO.C,U2*%
X61650000Y-61950000D02*
X68350000Y-61950000D01*
X61650000Y-64650000D02*
X61650000Y-61950000D01*
X62650000Y-65650000D02*
X61650000Y-64650000D01*
X62650000Y-65650000D02*
X68350000Y-65650000D01*
X68350000Y-65650000D02*
X68350000Y-61950000D01*
%TO.C,L1*%
X52400000Y-64850000D02*
X53400000Y-64850000D01*
X52400000Y-65350000D02*
X52400000Y-64850000D01*
X53400000Y-64850000D02*
X53400000Y-65350000D01*
X53400000Y-65350000D02*
X52400000Y-65350000D01*
%TO.C,C7*%
X61550000Y-57900000D02*
X62050000Y-57900000D01*
X61550000Y-58900000D02*
X61550000Y-57900000D01*
X62050000Y-57900000D02*
X62050000Y-58900000D01*
X62050000Y-58900000D02*
X61550000Y-58900000D01*
D18*
%TO.C,AE2*%
X62799800Y-55799800D02*
X62799800Y-59000200D01*
X62799800Y-59000200D02*
X66000200Y-59000200D01*
X66000200Y-55799800D02*
X62799800Y-55799800D01*
X66000200Y-59000200D02*
X66000200Y-55799800D01*
X64704800Y-55799800D02*
G75*
G02*
X64095200Y-55799800I-304800J0D01*
G01*
D19*
X63866601Y-56435000D02*
X63866601Y-56435000D01*
X63866601Y-56435000D01*
X63866601Y-56435000D01*
X63866601Y-56435000D01*
X63866601Y-56435000D01*
X63866601Y-56435001D01*
X63866601Y-56435001D01*
X63866601Y-56435001D01*
X63866601Y-56435001D01*
X63866601Y-56435001D01*
X63866601Y-56435001D01*
X63866601Y-56435001D01*
X63866600Y-56435001D01*
X63866600Y-56435001D01*
X63866600Y-56435001D01*
X63866600Y-56435001D01*
X63866600Y-56435001D01*
X63866600Y-56435001D01*
X63866600Y-56435001D01*
X63866600Y-56435001D01*
X63866600Y-56435001D01*
X63866600Y-56435001D01*
X63866600Y-56435001D01*
X63866600Y-56435001D01*
X63866599Y-56435001D01*
X63866599Y-56435001D01*
X63866599Y-56435001D01*
X63866599Y-56435001D01*
X63866599Y-56435001D01*
X63866599Y-56435001D01*
X63866599Y-56435000D01*
X63866599Y-56435000D01*
X63866599Y-56435000D01*
X63866599Y-56435000D01*
X63866599Y-56435000D01*
X63866599Y-56435000D01*
X63866599Y-56435000D02*
X63866599Y-56435000D01*
X63866599Y-56435000D01*
X63866599Y-56435000D01*
X63866599Y-56435000D01*
X63866599Y-56435000D01*
X63866599Y-56435000D01*
X63866599Y-56434999D01*
X63866599Y-56434999D01*
X63866599Y-56434999D01*
X63866599Y-56434999D01*
X63866599Y-56434999D01*
X63866600Y-56434999D01*
X63866600Y-56434999D01*
X63866600Y-56434999D01*
X63866600Y-56434999D01*
X63866600Y-56434999D01*
X63866600Y-56434999D01*
X63866600Y-56434999D01*
X63866600Y-56434999D01*
X63866600Y-56434999D01*
X63866600Y-56434999D01*
X63866600Y-56434999D01*
X63866600Y-56434999D01*
X63866601Y-56434999D01*
X63866601Y-56434999D01*
X63866601Y-56434999D01*
X63866601Y-56434999D01*
X63866601Y-56434999D01*
X63866601Y-56434999D01*
X63866601Y-56435000D01*
X63866601Y-56435000D01*
X63866601Y-56435000D01*
X63866601Y-56435000D01*
X63866601Y-56435000D01*
X63866601Y-56435000D01*
X63866601Y-56435000D01*
D17*
%TO.C,R12*%
X72330000Y-56975000D02*
X72870000Y-56975000D01*
X72330000Y-58025000D02*
X72330000Y-56975000D01*
X72870000Y-56975000D02*
X72870000Y-58025000D01*
X72870000Y-58025000D02*
X72330000Y-58025000D01*
%TO.C,R5*%
X50430000Y-55875000D02*
X50970000Y-55875000D01*
X50430000Y-56925000D02*
X50430000Y-55875000D01*
X50970000Y-55875000D02*
X50970000Y-56925000D01*
X50970000Y-56925000D02*
X50430000Y-56925000D01*
%TO.C,C5*%
X49400000Y-61150000D02*
X49900000Y-61150000D01*
X49400000Y-62150000D02*
X49400000Y-61150000D01*
X49900000Y-61150000D02*
X49900000Y-62150000D01*
X49900000Y-62150000D02*
X49400000Y-62150000D01*
%TO.C,C12*%
X68450000Y-53000000D02*
X68950000Y-53000000D01*
X68450000Y-54000000D02*
X68450000Y-53000000D01*
X68950000Y-53000000D02*
X68950000Y-54000000D01*
X68950000Y-54000000D02*
X68450000Y-54000000D01*
%TO.C,C3*%
X55350000Y-55950000D02*
X55850000Y-55950000D01*
X55350000Y-56950000D02*
X55350000Y-55950000D01*
X55850000Y-55950000D02*
X55850000Y-56950000D01*
X55850000Y-56950000D02*
X55350000Y-56950000D01*
%TO.C,D2*%
X68900000Y-65700000D02*
X70300000Y-65700000D01*
X68900000Y-67500000D02*
X68900000Y-65700000D01*
X69250000Y-66800000D02*
X69600000Y-66300000D01*
X69600000Y-66300000D02*
X69600000Y-66100000D01*
X69600000Y-66300000D02*
X69950000Y-66800000D01*
X69600000Y-66800000D02*
X69600000Y-67050000D01*
X69950000Y-66300000D02*
X69250000Y-66300000D01*
X69950000Y-66800000D02*
X69250000Y-66800000D01*
X70300000Y-65700000D02*
X70300000Y-67500000D01*
X70300000Y-67500000D02*
X68900000Y-67500000D01*
%TO.C,C16*%
X68520000Y-51100000D02*
X69020000Y-51100000D01*
X68520000Y-52100000D02*
X68520000Y-51100000D01*
X69020000Y-51100000D02*
X69020000Y-52100000D01*
X69020000Y-52100000D02*
X68520000Y-52100000D01*
%TO.C,C18*%
X68460000Y-55030000D02*
X69460000Y-55030000D01*
X68460000Y-55530000D02*
X68460000Y-55030000D01*
X69460000Y-55030000D02*
X69460000Y-55530000D01*
X69460000Y-55530000D02*
X68460000Y-55530000D01*
%TO.C,C6*%
X49400000Y-63000000D02*
X49900000Y-63000000D01*
X49400000Y-64000000D02*
X49400000Y-63000000D01*
X49900000Y-63000000D02*
X49900000Y-64000000D01*
X49900000Y-64000000D02*
X49400000Y-64000000D01*
%TO.C,D1*%
X61500000Y-52400000D02*
X62500000Y-52400000D01*
X61500000Y-52900000D02*
X61500000Y-52400000D01*
X62300000Y-52400000D02*
X62300000Y-52900000D01*
X62400000Y-52400000D02*
X62400000Y-52900000D01*
X62500000Y-52400000D02*
X62500000Y-52900000D01*
X62500000Y-52900000D02*
X61500000Y-52900000D01*
%TO.C,Q1*%
X56250000Y-70350000D02*
X58825000Y-70350000D01*
X56250000Y-71650000D02*
X56250000Y-70350000D01*
X58825000Y-70350000D02*
X59150000Y-70675000D01*
X59150000Y-70675000D02*
X59150000Y-71650000D01*
X59150000Y-71650000D02*
X56250000Y-71650000D01*
%TO.C,R7*%
X49430000Y-55875000D02*
X49970000Y-55875000D01*
X49430000Y-56925000D02*
X49430000Y-55875000D01*
X49970000Y-55875000D02*
X49970000Y-56925000D01*
X49970000Y-56925000D02*
X49430000Y-56925000D01*
%TO.C,C9*%
X55600000Y-64000000D02*
X57200000Y-64000000D01*
X55600000Y-64800000D02*
X55600000Y-64000000D01*
X57200000Y-64000000D02*
X57200000Y-64800000D01*
X57200000Y-64800000D02*
X55600000Y-64800000D01*
%TO.C,Y1*%
X57350000Y-57250000D02*
X57350000Y-59750000D01*
X57350000Y-58750000D02*
X58350000Y-59750000D01*
X57350000Y-59750000D02*
X60550000Y-59750000D01*
X60550000Y-57250000D02*
X57350000Y-57250000D01*
X60550000Y-59750000D02*
X60550000Y-57250000D01*
%TO.C,C14*%
X62450000Y-54100000D02*
X62950000Y-54100000D01*
X62450000Y-55100000D02*
X62450000Y-54100000D01*
X62950000Y-54100000D02*
X62950000Y-55100000D01*
X62950000Y-55100000D02*
X62450000Y-55100000D01*
%TO.C,C17*%
X69100000Y-59830000D02*
X70100000Y-59830000D01*
X69100000Y-60330000D02*
X69100000Y-59830000D01*
X70100000Y-59830000D02*
X70100000Y-60330000D01*
X70100000Y-60330000D02*
X69100000Y-60330000D01*
%TO.C,L4*%
X49380000Y-58350000D02*
X49880000Y-58350000D01*
X49380000Y-59350000D02*
X49380000Y-58350000D01*
X49880000Y-58350000D02*
X49880000Y-59350000D01*
X49880000Y-59350000D02*
X49380000Y-59350000D01*
%TO.C,D4*%
X57800000Y-73700000D02*
X59200000Y-73700000D01*
X57800000Y-75500000D02*
X57800000Y-73700000D01*
X58150000Y-74400000D02*
X58850000Y-74400000D01*
X58150000Y-74900000D02*
X58850000Y-74900000D01*
X58500000Y-74400000D02*
X58500000Y-74150000D01*
X58500000Y-74900000D02*
X58150000Y-74400000D01*
X58500000Y-74900000D02*
X58500000Y-75100000D01*
X58850000Y-74400000D02*
X58500000Y-74900000D01*
X59200000Y-73700000D02*
X59200000Y-75500000D01*
X59200000Y-75500000D02*
X57800000Y-75500000D01*
%TO.C,C27*%
X58700000Y-66575000D02*
X60700000Y-66575000D01*
X58700000Y-67825000D02*
X58700000Y-66575000D01*
X60700000Y-66575000D02*
X60700000Y-67825000D01*
X60700000Y-67825000D02*
X58700000Y-67825000D01*
%TO.C,R1*%
X58130000Y-64065000D02*
X58670000Y-64065000D01*
X58130000Y-65115000D02*
X58130000Y-64065000D01*
X58670000Y-64065000D02*
X58670000Y-65115000D01*
X58670000Y-65115000D02*
X58130000Y-65115000D01*
%TD*%
M02*
