%TF.GenerationSoftware,KiCad,Pcbnew,8.0.3-8.0.3-0~ubuntu24.04.1*%
%TF.CreationDate,2024-07-13T12:59:09+02:00*%
%TF.ProjectId,erace-rx-v2,65726163-652d-4727-982d-76322e6b6963,rev?*%
%TF.SameCoordinates,Original*%
%TF.FileFunction,Soldermask,Top*%
%TF.FilePolarity,Negative*%
%FSLAX46Y46*%
G04 Gerber Fmt 4.6, Leading zero omitted, Abs format (unit mm)*
G04 Created by KiCad (PCBNEW 8.0.3-8.0.3-0~ubuntu24.04.1) date 2024-07-13 12:59:09*
%MOMM*%
%LPD*%
G01*
G04 APERTURE LIST*
G04 Aperture macros list*
%AMRoundRect*
0 Rectangle with rounded corners*
0 $1 Rounding radius*
0 $2 $3 $4 $5 $6 $7 $8 $9 X,Y pos of 4 corners*
0 Add a 4 corners polygon primitive as box body*
4,1,4,$2,$3,$4,$5,$6,$7,$8,$9,$2,$3,0*
0 Add four circle primitives for the rounded corners*
1,1,$1+$1,$2,$3*
1,1,$1+$1,$4,$5*
1,1,$1+$1,$6,$7*
1,1,$1+$1,$8,$9*
0 Add four rect primitives between the rounded corners*
20,1,$1+$1,$2,$3,$4,$5,0*
20,1,$1+$1,$4,$5,$6,$7,0*
20,1,$1+$1,$6,$7,$8,$9,0*
20,1,$1+$1,$8,$9,$2,$3,0*%
G04 Aperture macros list end*
%ADD10RoundRect,0.147500X-0.172500X0.147500X-0.172500X-0.147500X0.172500X-0.147500X0.172500X0.147500X0*%
%ADD11RoundRect,0.140000X0.140000X0.170000X-0.140000X0.170000X-0.140000X-0.170000X0.140000X-0.170000X0*%
%ADD12RoundRect,0.140000X-0.140000X-0.170000X0.140000X-0.170000X0.140000X0.170000X-0.140000X0.170000X0*%
%ADD13R,1.400000X1.200000*%
%ADD14RoundRect,0.225000X-0.225000X-0.250000X0.225000X-0.250000X0.225000X0.250000X-0.225000X0.250000X0*%
%ADD15RoundRect,0.140000X0.170000X-0.140000X0.170000X0.140000X-0.170000X0.140000X-0.170000X-0.140000X0*%
%ADD16RoundRect,0.135000X0.135000X0.185000X-0.135000X0.185000X-0.135000X-0.185000X0.135000X-0.185000X0*%
%ADD17C,0.650000*%
%ADD18R,0.600000X1.050000*%
%ADD19R,0.300000X1.150000*%
%ADD20O,1.000000X2.100000*%
%ADD21O,1.000000X1.800000*%
%ADD22R,0.450000X0.300000*%
%ADD23R,0.300000X0.450000*%
%ADD24RoundRect,0.135000X-0.135000X-0.185000X0.135000X-0.185000X0.135000X0.185000X-0.135000X0.185000X0*%
%ADD25RoundRect,0.135000X0.185000X-0.135000X0.185000X0.135000X-0.185000X0.135000X-0.185000X-0.135000X0*%
%ADD26RoundRect,0.135000X-0.185000X0.135000X-0.185000X-0.135000X0.185000X-0.135000X0.185000X0.135000X0*%
%ADD27RoundRect,0.150000X0.625000X-0.150000X0.625000X0.150000X-0.625000X0.150000X-0.625000X-0.150000X0*%
%ADD28RoundRect,0.250000X0.650000X-0.350000X0.650000X0.350000X-0.650000X0.350000X-0.650000X-0.350000X0*%
%ADD29RoundRect,0.147500X0.147500X0.172500X-0.147500X0.172500X-0.147500X-0.172500X0.147500X-0.172500X0*%
%ADD30RoundRect,0.150000X-0.587500X-0.150000X0.587500X-0.150000X0.587500X0.150000X-0.587500X0.150000X0*%
%ADD31RoundRect,0.218750X0.218750X0.256250X-0.218750X0.256250X-0.218750X-0.256250X0.218750X-0.256250X0*%
%ADD32RoundRect,0.062500X0.062500X-0.337500X0.062500X0.337500X-0.062500X0.337500X-0.062500X-0.337500X0*%
%ADD33RoundRect,0.062500X0.337500X-0.062500X0.337500X0.062500X-0.337500X0.062500X-0.337500X-0.062500X0*%
%ADD34R,3.700000X3.700000*%
%ADD35RoundRect,0.250000X0.475000X-0.250000X0.475000X0.250000X-0.475000X0.250000X-0.475000X-0.250000X0*%
%ADD36RoundRect,0.250000X-0.475000X0.250000X-0.475000X-0.250000X0.475000X-0.250000X0.475000X0.250000X0*%
%ADD37RoundRect,0.375000X0.375000X-0.625000X0.375000X0.625000X-0.375000X0.625000X-0.375000X-0.625000X0*%
%ADD38RoundRect,0.500000X1.400000X-0.500000X1.400000X0.500000X-1.400000X0.500000X-1.400000X-0.500000X0*%
%ADD39RoundRect,0.140000X-0.170000X0.140000X-0.170000X-0.140000X0.170000X-0.140000X0.170000X0.140000X0*%
%ADD40RoundRect,0.250000X-0.250000X-0.600000X0.250000X-0.600000X0.250000X0.600000X-0.250000X0.600000X0*%
%ADD41RoundRect,0.187500X0.187500X-0.312500X0.187500X0.312500X-0.187500X0.312500X-0.187500X-0.312500X0*%
%ADD42R,0.863600X0.863600*%
%ADD43RoundRect,0.112500X-0.112500X0.187500X-0.112500X-0.187500X0.112500X-0.187500X0.112500X0.187500X0*%
%ADD44RoundRect,0.150000X-0.150000X0.587500X-0.150000X-0.587500X0.150000X-0.587500X0.150000X0.587500X0*%
%ADD45RoundRect,0.135000X-1.215000X-1.215000X1.215000X-1.215000X1.215000X1.215000X-1.215000X1.215000X0*%
%ADD46RoundRect,0.060000X-0.090000X-0.340000X0.090000X-0.340000X0.090000X0.340000X-0.090000X0.340000X0*%
%ADD47RoundRect,0.060000X0.340000X-0.090000X0.340000X0.090000X-0.340000X0.090000X-0.340000X-0.090000X0*%
%ADD48RoundRect,0.060000X0.090000X0.340000X-0.090000X0.340000X-0.090000X-0.340000X0.090000X-0.340000X0*%
%ADD49RoundRect,0.060000X-0.340000X0.090000X-0.340000X-0.090000X0.340000X-0.090000X0.340000X0.090000X0*%
%ADD50RoundRect,0.112500X0.112500X-0.187500X0.112500X0.187500X-0.112500X0.187500X-0.112500X-0.187500X0*%
%ADD51RoundRect,0.250000X-0.250000X-0.475000X0.250000X-0.475000X0.250000X0.475000X-0.250000X0.475000X0*%
G04 APERTURE END LIST*
D10*
%TO.C,L2*%
X51050000Y-65165000D03*
X51050000Y-66135000D03*
%TD*%
D11*
%TO.C,C21*%
X50730000Y-67100000D03*
X49770000Y-67100000D03*
%TD*%
D12*
%TO.C,C19*%
X50560000Y-64150000D03*
X51520000Y-64150000D03*
%TD*%
D13*
%TO.C,Y2*%
X67400000Y-58450000D03*
X69600000Y-58450000D03*
X69600000Y-56750000D03*
X67400000Y-56750000D03*
%TD*%
D14*
%TO.C,C15*%
X69505000Y-49800000D03*
X71055000Y-49800000D03*
%TD*%
D15*
%TO.C,C11*%
X54400000Y-65000000D03*
X54400000Y-64040000D03*
%TD*%
D16*
%TO.C,R2*%
X59160000Y-62150000D03*
X58140000Y-62150000D03*
%TD*%
D11*
%TO.C,C13*%
X65410000Y-49610000D03*
X64450000Y-49610000D03*
%TD*%
D12*
%TO.C,C1*%
X57170000Y-63150000D03*
X58130000Y-63150000D03*
%TD*%
D17*
%TO.C,J2*%
X61880000Y-70510000D03*
X67660000Y-70510000D03*
D18*
X61570000Y-69415000D03*
X62370000Y-69415000D03*
D19*
X63520000Y-69465000D03*
X64520000Y-69465000D03*
X65020000Y-69465000D03*
X66020000Y-69465000D03*
D18*
X67170000Y-69415000D03*
X67970000Y-69415000D03*
X67970000Y-69415000D03*
X67170000Y-69415000D03*
D19*
X66520000Y-69465000D03*
X65520000Y-69465000D03*
X64020000Y-69465000D03*
X63020000Y-69465000D03*
D18*
X62370000Y-69415000D03*
X61570000Y-69415000D03*
D20*
X60450000Y-70040000D03*
D21*
X60450000Y-74190000D03*
D20*
X69090000Y-70040000D03*
D21*
X69090000Y-74190000D03*
%TD*%
D15*
%TO.C,C2*%
X57250000Y-62170000D03*
X57250000Y-61210000D03*
%TD*%
D22*
%TO.C,FL1*%
X61925000Y-55100000D03*
D23*
X61600000Y-55675000D03*
D22*
X61275000Y-55100000D03*
D23*
X61600000Y-54525000D03*
%TD*%
D16*
%TO.C,R13*%
X57010000Y-76000000D03*
X55990000Y-76000000D03*
%TD*%
D24*
%TO.C,R6*%
X51690000Y-56900000D03*
X52710000Y-56900000D03*
%TD*%
%TO.C,R9*%
X54500000Y-69350000D03*
X55520000Y-69350000D03*
%TD*%
D25*
%TO.C,R3*%
X60100000Y-62110000D03*
X60100000Y-61090000D03*
%TD*%
D26*
%TO.C,R10*%
X57000000Y-73990000D03*
X57000000Y-75010000D03*
%TD*%
D12*
%TO.C,C8*%
X58170000Y-61150000D03*
X59130000Y-61150000D03*
%TD*%
D27*
%TO.C,J1*%
X71900000Y-67900000D03*
X71900000Y-66900000D03*
X71900000Y-65900000D03*
X71900000Y-64900000D03*
X71900000Y-63900000D03*
X71900000Y-62900000D03*
X71900000Y-61900000D03*
X71900000Y-60900000D03*
D28*
X75775000Y-69200000D03*
X75775000Y-59600000D03*
%TD*%
D12*
%TO.C,C10*%
X52420000Y-64150000D03*
X53380000Y-64150000D03*
%TD*%
%TO.C,C4*%
X53570000Y-56900000D03*
X54530000Y-56900000D03*
%TD*%
D16*
%TO.C,R11*%
X62510000Y-51700000D03*
X61490000Y-51700000D03*
%TD*%
D29*
%TO.C,D3*%
X62485000Y-50750000D03*
X61515000Y-50750000D03*
%TD*%
D16*
%TO.C,R4*%
X62510000Y-49800000D03*
X61490000Y-49800000D03*
%TD*%
D30*
%TO.C,Q2*%
X55062500Y-66187500D03*
X55062500Y-68087500D03*
X56937500Y-67137500D03*
%TD*%
D31*
%TO.C,L5*%
X68107500Y-49780000D03*
X66532500Y-49780000D03*
%TD*%
D26*
%TO.C,R8*%
X71600000Y-56990000D03*
X71600000Y-58010000D03*
%TD*%
D32*
%TO.C,U1*%
X51750000Y-62950000D03*
X52250000Y-62950000D03*
X52750000Y-62950000D03*
X53250000Y-62950000D03*
X53750000Y-62950000D03*
X54250000Y-62950000D03*
X54750000Y-62950000D03*
X55250000Y-62950000D03*
D33*
X55950000Y-62250000D03*
X55950000Y-61750000D03*
X55950000Y-61250000D03*
X55950000Y-60750000D03*
X55950000Y-60250000D03*
X55950000Y-59750000D03*
X55950000Y-59250000D03*
X55950000Y-58750000D03*
D32*
X55250000Y-58050000D03*
X54750000Y-58050000D03*
X54250000Y-58050000D03*
X53750000Y-58050000D03*
X53250000Y-58050000D03*
X52750000Y-58050000D03*
X52250000Y-58050000D03*
X51750000Y-58050000D03*
D33*
X51050000Y-58750000D03*
X51050000Y-59250000D03*
X51050000Y-59750000D03*
X51050000Y-60250000D03*
X51050000Y-60750000D03*
X51050000Y-61250000D03*
X51050000Y-61750000D03*
X51050000Y-62250000D03*
D34*
X53500000Y-60500000D03*
%TD*%
D35*
%TO.C,C20*%
X69600000Y-64150000D03*
X69600000Y-62250000D03*
%TD*%
D36*
%TO.C,C26*%
X60400000Y-63450000D03*
X60400000Y-65350000D03*
%TD*%
D37*
%TO.C,U2*%
X62700000Y-66950000D03*
X65000000Y-66950000D03*
D38*
X65000000Y-60650000D03*
D37*
X67300000Y-66950000D03*
%TD*%
D29*
%TO.C,L1*%
X53385000Y-65100000D03*
X52415000Y-65100000D03*
%TD*%
D39*
%TO.C,C7*%
X61800000Y-57920000D03*
X61800000Y-58880000D03*
%TD*%
D40*
%TO.C,AE1*%
X49950000Y-68800000D03*
X53150000Y-68800000D03*
%TD*%
D41*
%TO.C,BN1*%
X56725000Y-55913197D03*
X56725000Y-49913197D03*
X60475000Y-55913197D03*
X60475000Y-49913197D03*
%TD*%
D42*
%TO.C,AE2*%
X63434800Y-56435001D03*
X63434800Y-58364999D03*
X65365200Y-58364999D03*
X65365200Y-56435001D03*
%TD*%
D26*
%TO.C,R12*%
X72600000Y-56990000D03*
X72600000Y-58010000D03*
%TD*%
%TO.C,R5*%
X50700000Y-55890000D03*
X50700000Y-56910000D03*
%TD*%
D39*
%TO.C,C5*%
X49650000Y-61170000D03*
X49650000Y-62130000D03*
%TD*%
%TO.C,C12*%
X68700000Y-53020000D03*
X68700000Y-53980000D03*
%TD*%
%TO.C,C3*%
X55600000Y-55970000D03*
X55600000Y-56930000D03*
%TD*%
D43*
%TO.C,D2*%
X69600000Y-65550000D03*
X69600000Y-67650000D03*
%TD*%
D15*
%TO.C,C16*%
X68770000Y-52080000D03*
X68770000Y-51120000D03*
%TD*%
D11*
%TO.C,C18*%
X69440000Y-55280000D03*
X68480000Y-55280000D03*
%TD*%
D15*
%TO.C,C6*%
X49650000Y-63980000D03*
X49650000Y-63020000D03*
%TD*%
D29*
%TO.C,D1*%
X62485000Y-52650000D03*
X61515000Y-52650000D03*
%TD*%
D44*
%TO.C,Q1*%
X58650000Y-70062500D03*
X56750000Y-70062500D03*
X57700000Y-71937500D03*
%TD*%
D25*
%TO.C,R7*%
X49700000Y-56910000D03*
X49700000Y-55890000D03*
%TD*%
D14*
%TO.C,C9*%
X55625000Y-64400000D03*
X57175000Y-64400000D03*
%TD*%
D45*
%TO.C,RF1*%
X65700000Y-53000000D03*
D46*
X64450000Y-55000000D03*
X64950000Y-55000000D03*
X65450000Y-55000000D03*
X65950000Y-55000000D03*
X66450000Y-55000000D03*
X66950000Y-55000000D03*
D47*
X67700000Y-54250000D03*
X67700000Y-53750000D03*
X67700000Y-53250000D03*
X67700000Y-52750000D03*
X67700000Y-52250000D03*
X67700000Y-51750000D03*
D48*
X66950000Y-51000000D03*
X66450000Y-51000000D03*
X65950000Y-51000000D03*
X65450000Y-51000000D03*
X64950000Y-51000000D03*
X64450000Y-51000000D03*
D49*
X63700000Y-51750000D03*
X63700000Y-52250000D03*
X63700000Y-52750000D03*
X63700000Y-53250000D03*
X63700000Y-53750000D03*
X63700000Y-54250000D03*
%TD*%
D13*
%TO.C,Y1*%
X57850000Y-59350000D03*
X60050000Y-59350000D03*
X60050000Y-57650000D03*
X57850000Y-57650000D03*
%TD*%
D39*
%TO.C,C14*%
X62700000Y-54120000D03*
X62700000Y-55080000D03*
%TD*%
D12*
%TO.C,C17*%
X69120000Y-60080000D03*
X70080000Y-60080000D03*
%TD*%
D10*
%TO.C,L4*%
X49630000Y-58365000D03*
X49630000Y-59335000D03*
%TD*%
D50*
%TO.C,D4*%
X58500000Y-75650000D03*
X58500000Y-73550000D03*
%TD*%
D51*
%TO.C,C27*%
X58750000Y-67200000D03*
X60650000Y-67200000D03*
%TD*%
D26*
%TO.C,R1*%
X58400000Y-64080000D03*
X58400000Y-65100000D03*
%TD*%
M02*
