%TF.GenerationSoftware,KiCad,Pcbnew,8.0.4-8.0.4-0~ubuntu24.04.1*%
%TF.CreationDate,2024-08-29T15:44:27+02:00*%
%TF.ProjectId,erace-rx-v2,65726163-652d-4727-982d-76322e6b6963,rev?*%
%TF.SameCoordinates,Original*%
%TF.FileFunction,Legend,Top*%
%TF.FilePolarity,Positive*%
%FSLAX46Y46*%
G04 Gerber Fmt 4.6, Leading zero omitted, Abs format (unit mm)*
G04 Created by KiCad (PCBNEW 8.0.4-8.0.4-0~ubuntu24.04.1) date 2024-08-29 15:44:27*
%MOMM*%
%LPD*%
G01*
G04 APERTURE LIST*
%ADD10C,0.100000*%
%ADD11C,0.120000*%
%ADD12C,0.150000*%
%ADD13C,0.273607*%
%ADD14C,0.152400*%
G04 APERTURE END LIST*
D10*
X73000000Y-76162277D02*
G75*
G02*
X76162277Y-73000000I0J3162277D01*
G01*
X53000000Y-49837723D02*
G75*
G02*
X49837723Y-53000000I0J-3162277D01*
G01*
X49837723Y-73000000D02*
G75*
G02*
X53000000Y-76162277I3162277J0D01*
G01*
X76162277Y-53000000D02*
G75*
G02*
X73000000Y-49837723I-3162277J0D01*
G01*
D11*
%TO.C,C11*%
X54040000Y-64627836D02*
X54040000Y-64412164D01*
X54760000Y-64627836D02*
X54760000Y-64412164D01*
%TO.C,R2*%
X58803641Y-61770000D02*
X58496359Y-61770000D01*
X58803641Y-62530000D02*
X58496359Y-62530000D01*
%TO.C,C13*%
X65037836Y-49250000D02*
X64822164Y-49250000D01*
X65037836Y-49970000D02*
X64822164Y-49970000D01*
%TO.C,C1*%
X57542164Y-62790000D02*
X57757836Y-62790000D01*
X57542164Y-63510000D02*
X57757836Y-63510000D01*
%TO.C,J2*%
X60190000Y-71265000D02*
X60190000Y-73185000D01*
X60190000Y-76900000D02*
X60190000Y-75195000D01*
X69350000Y-73185000D02*
X69350000Y-71265000D01*
X69350000Y-75195000D02*
X69350000Y-76900000D01*
X69350000Y-76900000D02*
X60190000Y-76900000D01*
%TO.C,C2*%
X56890000Y-61797836D02*
X56890000Y-61582164D01*
X57610000Y-61797836D02*
X57610000Y-61582164D01*
%TO.C,FL1*%
D12*
X63525000Y-53250000D02*
G75*
G02*
X63375000Y-53250000I-75000J0D01*
G01*
X63375000Y-53250000D02*
G75*
G02*
X63525000Y-53250000I75000J0D01*
G01*
D11*
%TO.C,R6*%
X52046359Y-56520000D02*
X52353641Y-56520000D01*
X52046359Y-57280000D02*
X52353641Y-57280000D01*
%TO.C,R9*%
X54856359Y-68970000D02*
X55163641Y-68970000D01*
X54856359Y-69730000D02*
X55163641Y-69730000D01*
%TO.C,R3*%
X59720000Y-61753641D02*
X59720000Y-61446359D01*
X60480000Y-61753641D02*
X60480000Y-61446359D01*
%TO.C,R10*%
X56620000Y-74346359D02*
X56620000Y-74653641D01*
X57380000Y-74346359D02*
X57380000Y-74653641D01*
%TO.C,C8*%
X58542164Y-60790000D02*
X58757836Y-60790000D01*
X58542164Y-61510000D02*
X58757836Y-61510000D01*
%TO.C,J1*%
X72115000Y-59290000D02*
X72115000Y-60340000D01*
X72115000Y-68460000D02*
X71125000Y-68460000D01*
X72115000Y-69510000D02*
X72115000Y-68460000D01*
X74615000Y-59290000D02*
X72115000Y-59290000D01*
X74615000Y-69510000D02*
X72115000Y-69510000D01*
X76585000Y-68340000D02*
X76585000Y-60460000D01*
%TO.C,C10*%
X52792164Y-63790000D02*
X53007836Y-63790000D01*
X52792164Y-64510000D02*
X53007836Y-64510000D01*
%TO.C,C4*%
X53942164Y-56540000D02*
X54157836Y-56540000D01*
X53942164Y-57260000D02*
X54157836Y-57260000D01*
%TO.C,R11*%
X62046359Y-50570000D02*
X62353641Y-50570000D01*
X62046359Y-51330000D02*
X62353641Y-51330000D01*
D10*
%TO.C,D3*%
X68560000Y-60500000D02*
G75*
G02*
X68460000Y-60500000I-50000J0D01*
G01*
X68460000Y-60500000D02*
G75*
G02*
X68560000Y-60500000I50000J0D01*
G01*
D11*
%TO.C,R4*%
X69446359Y-59120000D02*
X69753641Y-59120000D01*
X69446359Y-59880000D02*
X69753641Y-59880000D01*
%TO.C,Q2*%
X56000000Y-65577500D02*
X55350000Y-65577500D01*
X56000000Y-65577500D02*
X56650000Y-65577500D01*
X56000000Y-68697500D02*
X55350000Y-68697500D01*
X56000000Y-68697500D02*
X56650000Y-68697500D01*
X54837500Y-65627500D02*
X54597500Y-65297500D01*
X55077500Y-65297500D01*
X54837500Y-65627500D01*
G36*
X54837500Y-65627500D02*
G01*
X54597500Y-65297500D01*
X55077500Y-65297500D01*
X54837500Y-65627500D01*
G37*
%TO.C,L5*%
X67482779Y-49270000D02*
X67157221Y-49270000D01*
X67482779Y-50290000D02*
X67157221Y-50290000D01*
%TO.C,R8*%
X71220000Y-57346359D02*
X71220000Y-57653641D01*
X71980000Y-57346359D02*
X71980000Y-57653641D01*
%TO.C,Y2*%
X66500000Y-55650000D02*
X66500000Y-58950000D01*
X66500000Y-58950000D02*
X70500000Y-58950000D01*
%TO.C,U1*%
X50890000Y-57890000D02*
X51365000Y-57890000D01*
X50890000Y-58365000D02*
X50890000Y-57890000D01*
X50890000Y-62635000D02*
X50890000Y-62810000D01*
X51365000Y-63110000D02*
X51130000Y-63110000D01*
X56110000Y-57890000D02*
X55635000Y-57890000D01*
X56110000Y-58365000D02*
X56110000Y-57890000D01*
X56110000Y-62635000D02*
X56110000Y-63110000D01*
X56110000Y-63110000D02*
X55635000Y-63110000D01*
X50890000Y-63110000D02*
X50560000Y-63350000D01*
X50560000Y-62870000D01*
X50890000Y-63110000D01*
G36*
X50890000Y-63110000D02*
G01*
X50560000Y-63350000D01*
X50560000Y-62870000D01*
X50890000Y-63110000D01*
G37*
%TO.C,C20*%
X68865000Y-63461252D02*
X68865000Y-62938748D01*
X70335000Y-63461252D02*
X70335000Y-62938748D01*
%TO.C,C26*%
X59665000Y-64138748D02*
X59665000Y-64661252D01*
X61135000Y-64138748D02*
X61135000Y-64661252D01*
%TO.C,C19*%
X50932164Y-63790000D02*
X51147836Y-63790000D01*
X50932164Y-64510000D02*
X51147836Y-64510000D01*
%TO.C,U2*%
X61590000Y-61890000D02*
X62850000Y-61890000D01*
X61590000Y-65650000D02*
X61590000Y-61890000D01*
X68410000Y-61890000D02*
X67150000Y-61890000D01*
X68410000Y-65650000D02*
X68410000Y-61890000D01*
X61690000Y-66930000D02*
X61360000Y-67170000D01*
X61360000Y-66690000D01*
X61690000Y-66930000D01*
G36*
X61690000Y-66930000D02*
G01*
X61360000Y-67170000D01*
X61360000Y-66690000D01*
X61690000Y-66930000D01*
G37*
%TO.C,C7*%
X61440000Y-58292164D02*
X61440000Y-58507836D01*
X62160000Y-58292164D02*
X62160000Y-58507836D01*
D10*
%TO.C,AE1*%
X49050000Y-68050000D02*
X49050000Y-69550000D01*
X50550000Y-68050000D02*
X52550000Y-68050000D01*
X50550000Y-69550000D02*
X52550000Y-69550000D01*
%TO.C,BN1*%
X56600000Y-54913197D02*
X60600000Y-54913197D01*
X60600000Y-50913197D01*
X56600000Y-50913197D01*
X56600000Y-54913197D01*
D13*
X56836803Y-56913197D02*
G75*
G02*
X56563197Y-56913197I-136803J0D01*
G01*
X56563197Y-56913197D02*
G75*
G02*
X56836803Y-56913197I136803J0D01*
G01*
D10*
X59718034Y-52913197D02*
G75*
G02*
X57481966Y-52913197I-1118034J0D01*
G01*
X57481966Y-52913197D02*
G75*
G02*
X59718034Y-52913197I1118034J0D01*
G01*
D14*
%TO.C,AE2*%
X62672800Y-55672800D02*
X62672800Y-55962166D01*
X62672800Y-56907836D02*
X62672800Y-57892164D01*
X62672800Y-58837834D02*
X62672800Y-59127200D01*
X62672800Y-59127200D02*
X62963613Y-59127200D01*
X62963613Y-55672800D02*
X62672800Y-55672800D01*
X63905987Y-59127200D02*
X64894013Y-59127200D01*
X64894013Y-55672800D02*
X63905987Y-55672800D01*
X65836387Y-59127200D02*
X66127200Y-59127200D01*
X66127200Y-55672800D02*
X65836387Y-55672800D01*
X66127200Y-55962166D02*
X66127200Y-55672800D01*
X66127200Y-57892164D02*
X66127200Y-56907836D01*
X66127200Y-59127200D02*
X66127200Y-58837834D01*
X62012600Y-56435000D02*
G75*
G02*
X61860200Y-56435000I-76200J0D01*
G01*
X61860200Y-56435000D02*
G75*
G02*
X62012600Y-56435000I76200J0D01*
G01*
D11*
%TO.C,R12*%
X72220000Y-57346359D02*
X72220000Y-57653641D01*
X72980000Y-57346359D02*
X72980000Y-57653641D01*
%TO.C,R5*%
X50320000Y-56246359D02*
X50320000Y-56553641D01*
X51080000Y-56246359D02*
X51080000Y-56553641D01*
%TO.C,C5*%
X49290000Y-61542164D02*
X49290000Y-61757836D01*
X50010000Y-61542164D02*
X50010000Y-61757836D01*
%TO.C,C12*%
X68340000Y-53392164D02*
X68340000Y-53607836D01*
X69060000Y-53392164D02*
X69060000Y-53607836D01*
%TO.C,C3*%
X55240000Y-56342164D02*
X55240000Y-56557836D01*
X55960000Y-56342164D02*
X55960000Y-56557836D01*
%TO.C,D2*%
X68750000Y-64990000D02*
X68750000Y-67650000D01*
X70450000Y-64990000D02*
X68750000Y-64990000D01*
X70450000Y-64990000D02*
X70450000Y-67650000D01*
%TO.C,C16*%
X68410000Y-51707836D02*
X68410000Y-51492164D01*
X69130000Y-51707836D02*
X69130000Y-51492164D01*
%TO.C,C15*%
X70139420Y-49290000D02*
X70420580Y-49290000D01*
X70139420Y-50310000D02*
X70420580Y-50310000D01*
%TO.C,C6*%
X49290000Y-63607836D02*
X49290000Y-63392164D01*
X50010000Y-63607836D02*
X50010000Y-63392164D01*
D10*
%TO.C,D1*%
X61160000Y-49950000D02*
G75*
G02*
X61060000Y-49950000I-50000J0D01*
G01*
X61060000Y-49950000D02*
G75*
G02*
X61160000Y-49950000I50000J0D01*
G01*
D11*
%TO.C,Q1*%
X56140000Y-71000000D02*
X56140000Y-70350000D01*
X56140000Y-71000000D02*
X56140000Y-71650000D01*
X59260000Y-71000000D02*
X59260000Y-70350000D01*
X59260000Y-71000000D02*
X59260000Y-71650000D01*
X59540000Y-70077500D02*
X59210000Y-69837500D01*
X59540000Y-69597500D01*
X59540000Y-70077500D01*
G36*
X59540000Y-70077500D02*
G01*
X59210000Y-69837500D01*
X59540000Y-69597500D01*
X59540000Y-70077500D01*
G37*
%TO.C,R7*%
X49320000Y-56553641D02*
X49320000Y-56246359D01*
X50080000Y-56553641D02*
X50080000Y-56246359D01*
%TO.C,C9*%
X56259420Y-63890000D02*
X56540580Y-63890000D01*
X56259420Y-64910000D02*
X56540580Y-64910000D01*
D10*
%TO.C,RF1*%
X63400000Y-54500000D02*
X63400000Y-54800000D01*
X63450000Y-50750000D02*
X64200000Y-50750000D01*
X63450000Y-51500000D02*
X63450000Y-50750000D01*
X63700000Y-55300000D02*
X64200000Y-55300000D01*
X67200000Y-50750000D02*
X67950000Y-50750000D01*
X67950000Y-50750000D02*
X67950000Y-51500000D01*
X67950000Y-54500000D02*
X67950000Y-55250000D01*
X67950000Y-55250000D02*
X67200000Y-55250000D01*
X63700000Y-55300000D02*
X63400000Y-55600000D01*
X63400000Y-55000000D01*
X63700000Y-55300000D01*
G36*
X63700000Y-55300000D02*
G01*
X63400000Y-55600000D01*
X63400000Y-55000000D01*
X63700000Y-55300000D01*
G37*
D11*
%TO.C,Y1*%
X56950000Y-56850000D02*
X56950000Y-60150000D01*
X56950000Y-60150000D02*
X60950000Y-60150000D01*
%TO.C,C14*%
X61440000Y-56342164D02*
X61440000Y-56557836D01*
X62160000Y-56342164D02*
X62160000Y-56557836D01*
%TO.C,D4*%
X57650000Y-76210000D02*
X57650000Y-73550000D01*
X57650000Y-76210000D02*
X59350000Y-76210000D01*
X59350000Y-76210000D02*
X59350000Y-73550000D01*
%TO.C,C27*%
X59438748Y-66465000D02*
X59961252Y-66465000D01*
X59438748Y-67935000D02*
X59961252Y-67935000D01*
%TO.C,C21*%
X50357836Y-66740000D02*
X50142164Y-66740000D01*
X50357836Y-67460000D02*
X50142164Y-67460000D01*
%TO.C,R1*%
X58020000Y-64436359D02*
X58020000Y-64743641D01*
X58780000Y-64436359D02*
X58780000Y-64743641D01*
%TD*%
M02*
