%TF.GenerationSoftware,KiCad,Pcbnew,8.0.3-8.0.3-0~ubuntu24.04.1*%
%TF.CreationDate,2024-07-13T12:59:08+02:00*%
%TF.ProjectId,erace-rx-v2,65726163-652d-4727-982d-76322e6b6963,rev?*%
%TF.SameCoordinates,Original*%
%TF.FileFunction,Copper,L2,Inr*%
%TF.FilePolarity,Positive*%
%FSLAX46Y46*%
G04 Gerber Fmt 4.6, Leading zero omitted, Abs format (unit mm)*
G04 Created by KiCad (PCBNEW 8.0.3-8.0.3-0~ubuntu24.04.1) date 2024-07-13 12:59:08*
%MOMM*%
%LPD*%
G01*
G04 APERTURE LIST*
%TA.AperFunction,ComponentPad*%
%ADD10O,1.000000X2.100000*%
%TD*%
%TA.AperFunction,ComponentPad*%
%ADD11O,1.000000X1.800000*%
%TD*%
%TA.AperFunction,ViaPad*%
%ADD12C,0.450000*%
%TD*%
%TA.AperFunction,ViaPad*%
%ADD13C,0.500000*%
%TD*%
G04 APERTURE END LIST*
D10*
%TO.N,GND*%
%TO.C,J2*%
X60450000Y-70040000D03*
D11*
X60450000Y-74190000D03*
D10*
X69090000Y-70040000D03*
D11*
X69090000Y-74190000D03*
%TD*%
D12*
%TO.N,GND*%
X49650000Y-66400000D03*
X49600000Y-64650000D03*
X50200000Y-64700000D03*
X69900000Y-50950000D03*
D13*
X64700000Y-53500000D03*
X66700000Y-52700000D03*
D12*
X59650000Y-50000000D03*
D13*
X70050000Y-54350000D03*
X53900000Y-64350000D03*
X54650000Y-55950000D03*
D12*
X63200000Y-50600000D03*
D13*
X53200000Y-62000000D03*
X66000000Y-52000000D03*
X62000000Y-65800000D03*
X63730002Y-49870000D03*
X63200000Y-67100000D03*
X66000000Y-53399994D03*
X49650010Y-61170000D03*
D12*
X75350000Y-63200000D03*
D13*
X57844990Y-56495023D03*
X60800000Y-65800000D03*
X53900000Y-59600000D03*
X58750000Y-62750000D03*
X64600000Y-52099984D03*
X52000000Y-61400000D03*
X56500000Y-65100000D03*
X59650000Y-60300000D03*
X69600000Y-61350000D03*
X54600000Y-60199998D03*
X62400000Y-67100000D03*
X73100000Y-66900000D03*
X59800000Y-67100000D03*
D12*
X56900000Y-73250000D03*
D13*
X54800000Y-61400000D03*
X54900000Y-67100000D03*
X56250000Y-69350000D03*
X53000000Y-59600000D03*
X61600000Y-67100000D03*
X61400000Y-65200000D03*
X52850000Y-56200000D03*
D12*
%TO.N,/IO9*%
X56750000Y-56800000D03*
X60900000Y-60600000D03*
D13*
%TO.N,Net-(Q1-D)*%
X58000000Y-70650000D03*
D12*
%TO.N,Net-(C7-Pad1)*%
X60050000Y-57650000D03*
X50000000Y-57600000D03*
%TO.N,Net-(U1-XTAL_N)*%
X57850000Y-59350000D03*
X49800000Y-60350000D03*
D13*
%TO.N,+3V3*%
X62000000Y-63200000D03*
X63400000Y-60000000D03*
X63400000Y-61200000D03*
X63800000Y-65000000D03*
X64600000Y-61200000D03*
X68250000Y-71160000D03*
X66400000Y-61800000D03*
X64600000Y-60000000D03*
X51200000Y-62600000D03*
X64400000Y-65600000D03*
X62200000Y-61200000D03*
X62600000Y-63800000D03*
X65200000Y-61800000D03*
X69300000Y-53000000D03*
D12*
X63100000Y-49800000D03*
D13*
X70720000Y-75160000D03*
X64400000Y-63200000D03*
X63200000Y-64400000D03*
X71250000Y-69430000D03*
X63200000Y-63200000D03*
D12*
X53911112Y-65072230D03*
X56699980Y-61250000D03*
D13*
X67000000Y-62400000D03*
X64000000Y-61800000D03*
X56050000Y-57850000D03*
X66400000Y-60600000D03*
X65000000Y-65000000D03*
X62800000Y-60600000D03*
X65609727Y-50228174D03*
D12*
X54900002Y-64600000D03*
D13*
X66600000Y-63100000D03*
X67000000Y-61200000D03*
X65000000Y-63800000D03*
X64400000Y-64400000D03*
X63800000Y-63800000D03*
X65900000Y-62400000D03*
X49650000Y-62550000D03*
X72100000Y-56250000D03*
X65800000Y-61200000D03*
X62800000Y-61800000D03*
X65800000Y-66200000D03*
X65200000Y-60600000D03*
X65800000Y-60000000D03*
X65600000Y-64400000D03*
X64000000Y-60600000D03*
X61600000Y-61800000D03*
X66400000Y-65600000D03*
X65000002Y-66950000D03*
%TO.N,Net-(Q2-D)*%
X56850000Y-68050000D03*
D12*
%TO.N,Net-(RF1-DCC_FB)*%
X68720000Y-50390000D03*
X64300000Y-55800000D03*
%TO.N,VCC*%
X51900000Y-55650000D03*
X69350000Y-66700000D03*
%TO.N,/IO3*%
X56050000Y-62850000D03*
X57900000Y-69300000D03*
X70700000Y-62350000D03*
%TO.N,/IO2*%
X56350000Y-63850000D03*
X51586243Y-56374019D03*
%TO.N,/IO0*%
X67500000Y-54700000D03*
X53870000Y-65903824D03*
%TO.N,/SS*%
X56580000Y-62490000D03*
X63200000Y-51350000D03*
%TO.N,/IO1*%
X69600000Y-53800000D03*
X53850000Y-63550000D03*
%TO.N,/MISO*%
X56600000Y-61900000D03*
X65010000Y-50210000D03*
%TO.N,/MOSI*%
X63950000Y-50574997D03*
X57340002Y-60490000D03*
%TO.N,/SCK*%
X56637970Y-60624749D03*
X63950000Y-51150000D03*
D13*
%TO.N,Net-(P3-Pad1)*%
X73650000Y-59600000D03*
%TO.N,Net-(P4-Pad1)*%
X73450000Y-63400000D03*
D12*
%TO.N,/IO20*%
X50300000Y-59480000D03*
X68000000Y-64700000D03*
X53700000Y-67300000D03*
%TO.N,/IO21*%
X68500000Y-63200000D03*
X50307928Y-60080487D03*
X52800000Y-66300000D03*
%TO.N,/CH_4*%
X68200000Y-61950000D03*
X56850000Y-66250000D03*
%TO.N,/USBD-*%
X57950000Y-76000000D03*
X50852615Y-57537934D03*
X64000000Y-70300000D03*
%TO.N,/USBD+*%
X50330580Y-58189420D03*
X64575003Y-70300000D03*
X57567763Y-75499031D03*
%TD*%
%TA.AperFunction,Conductor*%
%TO.N,GND*%
G36*
X62836138Y-49320185D02*
G01*
X62881893Y-49372989D01*
X62891837Y-49442147D01*
X62862812Y-49505703D01*
X62856780Y-49512181D01*
X62792431Y-49576529D01*
X62792428Y-49576533D01*
X62738424Y-49682521D01*
X62738424Y-49682522D01*
X62719819Y-49799996D01*
X62719819Y-49800003D01*
X62738424Y-49917477D01*
X62738424Y-49917478D01*
X62738425Y-49917481D01*
X62738426Y-49917482D01*
X62773610Y-49986535D01*
X62792428Y-50023466D01*
X62792431Y-50023470D01*
X62876529Y-50107568D01*
X62876533Y-50107571D01*
X62876535Y-50107573D01*
X62982518Y-50161574D01*
X62982520Y-50161574D01*
X62982522Y-50161575D01*
X63099997Y-50180181D01*
X63100000Y-50180181D01*
X63100003Y-50180181D01*
X63217477Y-50161575D01*
X63217478Y-50161575D01*
X63217479Y-50161574D01*
X63217482Y-50161574D01*
X63323465Y-50107573D01*
X63407573Y-50023465D01*
X63461574Y-49917482D01*
X63463330Y-49906397D01*
X63480181Y-49800003D01*
X63480181Y-49799996D01*
X63461575Y-49682522D01*
X63461575Y-49682521D01*
X63461574Y-49682519D01*
X63461574Y-49682518D01*
X63407573Y-49576535D01*
X63407571Y-49576533D01*
X63407568Y-49576529D01*
X63343220Y-49512181D01*
X63309735Y-49450858D01*
X63314719Y-49381166D01*
X63356591Y-49325233D01*
X63422055Y-49300816D01*
X63430901Y-49300500D01*
X70952405Y-49300500D01*
X70997575Y-49300500D01*
X71002443Y-49300596D01*
X71022528Y-49301385D01*
X71442304Y-49317878D01*
X71451999Y-49318640D01*
X71886780Y-49370099D01*
X71896376Y-49371620D01*
X72325764Y-49457031D01*
X72335195Y-49459295D01*
X72756553Y-49578130D01*
X72765787Y-49581130D01*
X73176534Y-49732663D01*
X73185528Y-49736389D01*
X73323519Y-49800003D01*
X73578343Y-49917478D01*
X73583092Y-49919667D01*
X73591768Y-49924088D01*
X73973734Y-50138000D01*
X73982036Y-50143087D01*
X74175749Y-50272522D01*
X74293995Y-50351532D01*
X74346031Y-50386301D01*
X74353905Y-50392022D01*
X74697711Y-50663056D01*
X74705102Y-50669369D01*
X75026583Y-50966543D01*
X75033456Y-50973416D01*
X75305288Y-51267482D01*
X75330625Y-51294891D01*
X75336945Y-51302291D01*
X75393055Y-51373466D01*
X75607975Y-51646091D01*
X75613698Y-51653968D01*
X75856912Y-52017963D01*
X75861999Y-52026265D01*
X76075911Y-52408231D01*
X76080332Y-52416907D01*
X76263610Y-52814471D01*
X76267336Y-52823465D01*
X76418865Y-53234199D01*
X76421873Y-53243460D01*
X76540699Y-53664787D01*
X76542972Y-53674254D01*
X76628377Y-54103613D01*
X76629901Y-54113230D01*
X76681358Y-54547995D01*
X76682121Y-54557700D01*
X76699404Y-54997555D01*
X76699500Y-55002424D01*
X76699500Y-70997575D01*
X76699404Y-71002444D01*
X76682121Y-71442299D01*
X76681358Y-71452004D01*
X76629901Y-71886769D01*
X76628377Y-71896386D01*
X76542972Y-72325745D01*
X76540699Y-72335212D01*
X76421873Y-72756539D01*
X76418865Y-72765800D01*
X76267336Y-73176534D01*
X76263610Y-73185528D01*
X76080332Y-73583092D01*
X76075911Y-73591768D01*
X75861999Y-73973734D01*
X75856912Y-73982036D01*
X75613698Y-74346031D01*
X75607975Y-74353908D01*
X75336948Y-74697705D01*
X75330625Y-74705108D01*
X75033462Y-75026577D01*
X75026577Y-75033462D01*
X74705108Y-75330625D01*
X74697705Y-75336948D01*
X74353908Y-75607975D01*
X74346031Y-75613698D01*
X73982036Y-75856912D01*
X73973734Y-75861999D01*
X73591768Y-76075911D01*
X73583092Y-76080332D01*
X73185528Y-76263610D01*
X73176534Y-76267336D01*
X72765800Y-76418865D01*
X72756539Y-76421873D01*
X72335212Y-76540699D01*
X72325745Y-76542972D01*
X71896386Y-76628377D01*
X71886769Y-76629901D01*
X71452004Y-76681358D01*
X71442299Y-76682121D01*
X71030872Y-76698287D01*
X71002442Y-76699404D01*
X70997575Y-76699500D01*
X55002426Y-76699500D01*
X54997557Y-76699404D01*
X54969131Y-76698287D01*
X54902916Y-76675986D01*
X54859270Y-76621426D01*
X54850000Y-76574383D01*
X54850000Y-75499027D01*
X57187582Y-75499027D01*
X57187582Y-75499034D01*
X57206187Y-75616508D01*
X57206187Y-75616509D01*
X57206188Y-75616512D01*
X57206189Y-75616513D01*
X57207873Y-75619819D01*
X57260191Y-75722497D01*
X57260194Y-75722501D01*
X57344292Y-75806599D01*
X57344296Y-75806602D01*
X57344298Y-75806604D01*
X57450281Y-75860605D01*
X57465958Y-75863087D01*
X57529091Y-75893016D01*
X57566023Y-75952326D01*
X57568192Y-75990241D01*
X57569819Y-75990241D01*
X57569819Y-76000003D01*
X57588424Y-76117477D01*
X57588424Y-76117478D01*
X57642428Y-76223466D01*
X57642431Y-76223470D01*
X57726529Y-76307568D01*
X57726533Y-76307571D01*
X57726535Y-76307573D01*
X57832518Y-76361574D01*
X57832520Y-76361574D01*
X57832522Y-76361575D01*
X57949997Y-76380181D01*
X57950000Y-76380181D01*
X57950003Y-76380181D01*
X58067477Y-76361575D01*
X58067478Y-76361575D01*
X58067479Y-76361574D01*
X58067482Y-76361574D01*
X58173465Y-76307573D01*
X58257573Y-76223465D01*
X58311574Y-76117482D01*
X58318158Y-76075911D01*
X58330181Y-76000003D01*
X58330181Y-75999996D01*
X58311575Y-75882522D01*
X58311575Y-75882521D01*
X58311574Y-75882519D01*
X58311574Y-75882518D01*
X58257573Y-75776535D01*
X58257571Y-75776533D01*
X58257568Y-75776529D01*
X58173470Y-75692431D01*
X58173466Y-75692428D01*
X58173465Y-75692427D01*
X58067482Y-75638426D01*
X58067481Y-75638425D01*
X58067478Y-75638424D01*
X58051803Y-75635942D01*
X57988668Y-75606012D01*
X57951738Y-75546700D01*
X57949574Y-75508790D01*
X57947944Y-75508790D01*
X57947944Y-75499027D01*
X57929338Y-75381553D01*
X57929338Y-75381552D01*
X57929337Y-75381550D01*
X57929337Y-75381549D01*
X57875336Y-75275566D01*
X57875334Y-75275564D01*
X57875331Y-75275560D01*
X57791233Y-75191462D01*
X57791229Y-75191459D01*
X57791228Y-75191458D01*
X57729480Y-75159996D01*
X70314508Y-75159996D01*
X70314508Y-75160003D01*
X70334352Y-75285300D01*
X70334352Y-75285301D01*
X70334354Y-75285304D01*
X70391950Y-75398342D01*
X70391952Y-75398344D01*
X70391954Y-75398347D01*
X70481652Y-75488045D01*
X70481654Y-75488046D01*
X70481658Y-75488050D01*
X70594696Y-75545646D01*
X70594697Y-75545646D01*
X70594699Y-75545647D01*
X70719997Y-75565492D01*
X70720000Y-75565492D01*
X70720003Y-75565492D01*
X70845300Y-75545647D01*
X70845301Y-75545647D01*
X70845302Y-75545646D01*
X70845304Y-75545646D01*
X70958342Y-75488050D01*
X71048050Y-75398342D01*
X71105646Y-75285304D01*
X71105646Y-75285302D01*
X71105647Y-75285301D01*
X71105647Y-75285300D01*
X71125492Y-75160003D01*
X71125492Y-75159996D01*
X71105647Y-75034699D01*
X71105647Y-75034698D01*
X71101509Y-75026577D01*
X71048050Y-74921658D01*
X71048046Y-74921654D01*
X71048045Y-74921652D01*
X70958347Y-74831954D01*
X70958344Y-74831952D01*
X70958342Y-74831950D01*
X70845304Y-74774354D01*
X70845303Y-74774353D01*
X70845300Y-74774352D01*
X70720003Y-74754508D01*
X70719997Y-74754508D01*
X70594699Y-74774352D01*
X70594698Y-74774352D01*
X70519337Y-74812751D01*
X70481658Y-74831950D01*
X70481657Y-74831951D01*
X70481652Y-74831954D01*
X70391954Y-74921652D01*
X70391951Y-74921657D01*
X70391950Y-74921658D01*
X70374716Y-74955482D01*
X70334352Y-75034698D01*
X70334352Y-75034699D01*
X70314508Y-75159996D01*
X57729480Y-75159996D01*
X57685245Y-75137457D01*
X57685243Y-75137456D01*
X57685240Y-75137455D01*
X57567766Y-75118850D01*
X57567760Y-75118850D01*
X57450285Y-75137455D01*
X57450284Y-75137455D01*
X57344296Y-75191459D01*
X57344292Y-75191462D01*
X57260194Y-75275560D01*
X57260191Y-75275564D01*
X57206187Y-75381552D01*
X57206187Y-75381553D01*
X57187582Y-75499027D01*
X54850000Y-75499027D01*
X54850000Y-73643730D01*
X54857818Y-73600397D01*
X54876271Y-73550923D01*
X54935578Y-73278294D01*
X54955482Y-73000000D01*
X54955482Y-72999998D01*
X71044518Y-72999998D01*
X71044518Y-73000001D01*
X71064422Y-73278299D01*
X71104288Y-73461556D01*
X71123729Y-73550923D01*
X71142182Y-73600397D01*
X71221231Y-73812338D01*
X71221233Y-73812342D01*
X71354940Y-74057207D01*
X71354945Y-74057215D01*
X71522138Y-74280560D01*
X71522154Y-74280578D01*
X71719421Y-74477845D01*
X71719439Y-74477861D01*
X71942784Y-74645054D01*
X71942792Y-74645059D01*
X72187657Y-74778766D01*
X72187661Y-74778768D01*
X72187663Y-74778769D01*
X72449077Y-74876271D01*
X72585391Y-74905924D01*
X72721700Y-74935577D01*
X72721702Y-74935577D01*
X72721706Y-74935578D01*
X72969014Y-74953265D01*
X72999999Y-74955482D01*
X73000000Y-74955482D01*
X73000001Y-74955482D01*
X73027881Y-74953487D01*
X73278294Y-74935578D01*
X73550923Y-74876271D01*
X73812337Y-74778769D01*
X74057213Y-74645056D01*
X74280568Y-74477855D01*
X74477855Y-74280568D01*
X74645056Y-74057213D01*
X74778769Y-73812337D01*
X74876271Y-73550923D01*
X74935578Y-73278294D01*
X74955482Y-73000000D01*
X74935578Y-72721706D01*
X74876271Y-72449077D01*
X74778769Y-72187663D01*
X74748679Y-72132558D01*
X74645059Y-71942792D01*
X74645054Y-71942784D01*
X74477861Y-71719439D01*
X74477845Y-71719421D01*
X74280578Y-71522154D01*
X74280560Y-71522138D01*
X74057215Y-71354945D01*
X74057207Y-71354940D01*
X73812342Y-71221233D01*
X73812338Y-71221231D01*
X73713230Y-71184266D01*
X73550923Y-71123729D01*
X73550919Y-71123728D01*
X73550916Y-71123727D01*
X73278299Y-71064422D01*
X73000001Y-71044518D01*
X72999999Y-71044518D01*
X72721700Y-71064422D01*
X72449083Y-71123727D01*
X72449078Y-71123728D01*
X72449077Y-71123729D01*
X72385875Y-71147301D01*
X72187661Y-71221231D01*
X72187657Y-71221233D01*
X71942792Y-71354940D01*
X71942784Y-71354945D01*
X71719439Y-71522138D01*
X71719421Y-71522154D01*
X71522154Y-71719421D01*
X71522138Y-71719439D01*
X71354945Y-71942784D01*
X71354940Y-71942792D01*
X71221233Y-72187657D01*
X71221231Y-72187661D01*
X71123727Y-72449083D01*
X71064422Y-72721700D01*
X71044518Y-72999998D01*
X54955482Y-72999998D01*
X54935578Y-72721706D01*
X54876271Y-72449077D01*
X54857818Y-72399601D01*
X54850000Y-72356268D01*
X54850000Y-70649996D01*
X57594508Y-70649996D01*
X57594508Y-70650003D01*
X57614352Y-70775300D01*
X57614352Y-70775301D01*
X57614354Y-70775304D01*
X57671950Y-70888342D01*
X57671952Y-70888344D01*
X57671954Y-70888347D01*
X57761652Y-70978045D01*
X57761654Y-70978046D01*
X57761658Y-70978050D01*
X57874696Y-71035646D01*
X57874697Y-71035646D01*
X57874699Y-71035647D01*
X57999997Y-71055492D01*
X58000000Y-71055492D01*
X58000003Y-71055492D01*
X58125300Y-71035647D01*
X58125301Y-71035647D01*
X58125302Y-71035646D01*
X58125304Y-71035646D01*
X58238342Y-70978050D01*
X58328050Y-70888342D01*
X58385646Y-70775304D01*
X58385646Y-70775302D01*
X58385647Y-70775301D01*
X58385647Y-70775300D01*
X58405492Y-70650003D01*
X58405492Y-70649996D01*
X58385647Y-70524699D01*
X58385647Y-70524698D01*
X58385019Y-70523465D01*
X58342907Y-70440817D01*
X61354500Y-70440817D01*
X61354500Y-70579183D01*
X61376577Y-70661574D01*
X61390312Y-70712835D01*
X61390313Y-70712838D01*
X61459492Y-70832661D01*
X61459494Y-70832664D01*
X61459495Y-70832665D01*
X61557335Y-70930505D01*
X61677164Y-70999688D01*
X61810817Y-71035500D01*
X61810819Y-71035500D01*
X61949181Y-71035500D01*
X61949183Y-71035500D01*
X62082836Y-70999688D01*
X62202665Y-70930505D01*
X62300505Y-70832665D01*
X62369688Y-70712836D01*
X62405500Y-70579183D01*
X62405500Y-70440817D01*
X62369688Y-70307164D01*
X62365550Y-70299996D01*
X63619819Y-70299996D01*
X63619819Y-70300003D01*
X63638424Y-70417477D01*
X63638424Y-70417478D01*
X63692428Y-70523466D01*
X63692431Y-70523470D01*
X63776529Y-70607568D01*
X63776533Y-70607571D01*
X63776535Y-70607573D01*
X63882518Y-70661574D01*
X63882520Y-70661574D01*
X63882522Y-70661575D01*
X63999997Y-70680181D01*
X64000000Y-70680181D01*
X64000003Y-70680181D01*
X64117477Y-70661575D01*
X64117478Y-70661574D01*
X64117482Y-70661574D01*
X64223465Y-70607573D01*
X64223466Y-70607571D01*
X64231206Y-70603628D01*
X64299875Y-70590731D01*
X64343796Y-70603627D01*
X64351535Y-70607570D01*
X64351538Y-70607573D01*
X64457521Y-70661574D01*
X64457523Y-70661574D01*
X64457525Y-70661575D01*
X64575000Y-70680181D01*
X64575003Y-70680181D01*
X64575006Y-70680181D01*
X64692480Y-70661575D01*
X64692481Y-70661575D01*
X64692482Y-70661574D01*
X64692485Y-70661574D01*
X64798468Y-70607573D01*
X64882576Y-70523465D01*
X64924687Y-70440817D01*
X67134500Y-70440817D01*
X67134500Y-70579183D01*
X67156577Y-70661574D01*
X67170312Y-70712835D01*
X67170313Y-70712838D01*
X67239492Y-70832661D01*
X67239494Y-70832664D01*
X67239495Y-70832665D01*
X67337335Y-70930505D01*
X67457164Y-70999688D01*
X67590817Y-71035500D01*
X67590819Y-71035500D01*
X67720508Y-71035500D01*
X67787547Y-71055185D01*
X67833302Y-71107989D01*
X67842535Y-71150432D01*
X67842981Y-71150362D01*
X67844214Y-71158152D01*
X67844508Y-71159500D01*
X67844508Y-71160003D01*
X67864352Y-71285300D01*
X67864352Y-71285301D01*
X67864354Y-71285304D01*
X67921950Y-71398342D01*
X67921952Y-71398344D01*
X67921954Y-71398347D01*
X68011652Y-71488045D01*
X68011654Y-71488046D01*
X68011658Y-71488050D01*
X68124696Y-71545646D01*
X68124697Y-71545646D01*
X68124699Y-71545647D01*
X68249997Y-71565492D01*
X68250000Y-71565492D01*
X68250003Y-71565492D01*
X68375300Y-71545647D01*
X68375301Y-71545647D01*
X68375302Y-71545646D01*
X68375304Y-71545646D01*
X68488342Y-71488050D01*
X68578050Y-71398342D01*
X68635646Y-71285304D01*
X68635646Y-71285302D01*
X68635647Y-71285301D01*
X68635647Y-71285300D01*
X68655492Y-71160003D01*
X68655492Y-71159996D01*
X68635647Y-71034699D01*
X68635647Y-71034698D01*
X68635646Y-71034696D01*
X68578050Y-70921658D01*
X68578046Y-70921654D01*
X68578045Y-70921652D01*
X68488347Y-70831954D01*
X68488344Y-70831952D01*
X68488342Y-70831950D01*
X68390216Y-70781952D01*
X68375301Y-70774352D01*
X68279080Y-70759113D01*
X68215945Y-70729184D01*
X68179014Y-70669872D01*
X68178704Y-70604545D01*
X68178950Y-70603627D01*
X68185500Y-70579183D01*
X68185500Y-70440817D01*
X68149688Y-70307164D01*
X68080505Y-70187335D01*
X67982665Y-70089495D01*
X67982664Y-70089494D01*
X67982661Y-70089492D01*
X67862838Y-70020313D01*
X67862837Y-70020312D01*
X67862836Y-70020312D01*
X67729183Y-69984500D01*
X67590817Y-69984500D01*
X67457164Y-70020312D01*
X67457161Y-70020313D01*
X67337338Y-70089492D01*
X67337333Y-70089496D01*
X67239496Y-70187333D01*
X67239492Y-70187338D01*
X67170313Y-70307161D01*
X67170312Y-70307164D01*
X67134500Y-70440817D01*
X64924687Y-70440817D01*
X64936577Y-70417482D01*
X64936578Y-70417477D01*
X64955184Y-70300003D01*
X64955184Y-70299996D01*
X64936578Y-70182522D01*
X64936578Y-70182521D01*
X64936577Y-70182519D01*
X64936577Y-70182518D01*
X64882576Y-70076535D01*
X64882574Y-70076533D01*
X64882571Y-70076529D01*
X64798473Y-69992431D01*
X64798469Y-69992428D01*
X64798468Y-69992427D01*
X64692485Y-69938426D01*
X64692483Y-69938425D01*
X64692480Y-69938424D01*
X64575006Y-69919819D01*
X64575000Y-69919819D01*
X64457525Y-69938424D01*
X64457521Y-69938425D01*
X64343795Y-69996372D01*
X64275126Y-70009268D01*
X64231206Y-69996372D01*
X64223466Y-69992428D01*
X64223465Y-69992427D01*
X64117482Y-69938426D01*
X64117480Y-69938425D01*
X64117477Y-69938424D01*
X64000003Y-69919819D01*
X63999997Y-69919819D01*
X63882522Y-69938424D01*
X63882521Y-69938424D01*
X63776533Y-69992428D01*
X63776529Y-69992431D01*
X63692431Y-70076529D01*
X63692428Y-70076533D01*
X63638424Y-70182521D01*
X63638424Y-70182522D01*
X63619819Y-70299996D01*
X62365550Y-70299996D01*
X62300505Y-70187335D01*
X62202665Y-70089495D01*
X62202664Y-70089494D01*
X62202661Y-70089492D01*
X62082838Y-70020313D01*
X62082837Y-70020312D01*
X62082836Y-70020312D01*
X61949183Y-69984500D01*
X61810817Y-69984500D01*
X61677164Y-70020312D01*
X61677161Y-70020313D01*
X61557338Y-70089492D01*
X61557333Y-70089496D01*
X61459496Y-70187333D01*
X61459492Y-70187338D01*
X61390313Y-70307161D01*
X61390312Y-70307164D01*
X61354500Y-70440817D01*
X58342907Y-70440817D01*
X58328050Y-70411658D01*
X58328046Y-70411654D01*
X58328045Y-70411652D01*
X58238347Y-70321954D01*
X58238344Y-70321952D01*
X58238342Y-70321950D01*
X58125304Y-70264354D01*
X58125303Y-70264353D01*
X58125300Y-70264352D01*
X58000003Y-70244508D01*
X57999997Y-70244508D01*
X57874699Y-70264352D01*
X57874698Y-70264352D01*
X57804745Y-70299996D01*
X57761658Y-70321950D01*
X57761657Y-70321951D01*
X57761652Y-70321954D01*
X57671954Y-70411652D01*
X57671951Y-70411657D01*
X57614352Y-70524698D01*
X57614352Y-70524699D01*
X57594508Y-70649996D01*
X54850000Y-70649996D01*
X54850000Y-69299996D01*
X57519819Y-69299996D01*
X57519819Y-69300003D01*
X57538424Y-69417477D01*
X57538424Y-69417478D01*
X57592428Y-69523466D01*
X57592431Y-69523470D01*
X57676529Y-69607568D01*
X57676533Y-69607571D01*
X57676535Y-69607573D01*
X57782518Y-69661574D01*
X57782520Y-69661574D01*
X57782522Y-69661575D01*
X57899997Y-69680181D01*
X57900000Y-69680181D01*
X57900003Y-69680181D01*
X58017477Y-69661575D01*
X58017478Y-69661575D01*
X58017479Y-69661574D01*
X58017482Y-69661574D01*
X58123465Y-69607573D01*
X58207573Y-69523465D01*
X58255198Y-69429996D01*
X70844508Y-69429996D01*
X70844508Y-69430003D01*
X70864352Y-69555300D01*
X70864352Y-69555301D01*
X70864354Y-69555304D01*
X70921950Y-69668342D01*
X70921952Y-69668344D01*
X70921954Y-69668347D01*
X71011652Y-69758045D01*
X71011654Y-69758046D01*
X71011658Y-69758050D01*
X71124696Y-69815646D01*
X71124697Y-69815646D01*
X71124699Y-69815647D01*
X71249997Y-69835492D01*
X71250000Y-69835492D01*
X71250003Y-69835492D01*
X71375300Y-69815647D01*
X71375301Y-69815647D01*
X71375302Y-69815646D01*
X71375304Y-69815646D01*
X71488342Y-69758050D01*
X71578050Y-69668342D01*
X71635646Y-69555304D01*
X71635646Y-69555302D01*
X71635647Y-69555301D01*
X71635647Y-69555300D01*
X71655492Y-69430003D01*
X71655492Y-69429996D01*
X71635647Y-69304699D01*
X71635647Y-69304698D01*
X71633251Y-69299996D01*
X71578050Y-69191658D01*
X71578046Y-69191654D01*
X71578045Y-69191652D01*
X71488347Y-69101954D01*
X71488344Y-69101952D01*
X71488342Y-69101950D01*
X71375304Y-69044354D01*
X71375303Y-69044353D01*
X71375300Y-69044352D01*
X71250003Y-69024508D01*
X71249997Y-69024508D01*
X71124699Y-69044352D01*
X71124698Y-69044352D01*
X71049337Y-69082751D01*
X71011658Y-69101950D01*
X71011657Y-69101951D01*
X71011652Y-69101954D01*
X70921954Y-69191652D01*
X70921951Y-69191657D01*
X70864352Y-69304698D01*
X70864352Y-69304699D01*
X70844508Y-69429996D01*
X58255198Y-69429996D01*
X58261574Y-69417482D01*
X58279437Y-69304698D01*
X58280181Y-69300003D01*
X58280181Y-69299996D01*
X58261575Y-69182522D01*
X58261575Y-69182521D01*
X58261574Y-69182519D01*
X58261574Y-69182518D01*
X58207573Y-69076535D01*
X58207571Y-69076533D01*
X58207568Y-69076529D01*
X58123470Y-68992431D01*
X58123466Y-68992428D01*
X58123465Y-68992427D01*
X58017482Y-68938426D01*
X58017480Y-68938425D01*
X58017477Y-68938424D01*
X57900003Y-68919819D01*
X57899997Y-68919819D01*
X57782522Y-68938424D01*
X57782521Y-68938424D01*
X57676533Y-68992428D01*
X57676529Y-68992431D01*
X57592431Y-69076529D01*
X57592428Y-69076533D01*
X57538424Y-69182521D01*
X57538424Y-69182522D01*
X57519819Y-69299996D01*
X54850000Y-69299996D01*
X54850000Y-68049996D01*
X56444508Y-68049996D01*
X56444508Y-68050003D01*
X56464352Y-68175300D01*
X56464352Y-68175301D01*
X56464354Y-68175304D01*
X56521950Y-68288342D01*
X56521952Y-68288344D01*
X56521954Y-68288347D01*
X56611652Y-68378045D01*
X56611654Y-68378046D01*
X56611658Y-68378050D01*
X56724696Y-68435646D01*
X56724697Y-68435646D01*
X56724699Y-68435647D01*
X56849997Y-68455492D01*
X56850000Y-68455492D01*
X56850003Y-68455492D01*
X56975300Y-68435647D01*
X56975301Y-68435647D01*
X56975302Y-68435646D01*
X56975304Y-68435646D01*
X57088342Y-68378050D01*
X57178050Y-68288342D01*
X57235646Y-68175304D01*
X57235646Y-68175302D01*
X57235647Y-68175301D01*
X57235647Y-68175300D01*
X57255492Y-68050003D01*
X57255492Y-68049996D01*
X57235647Y-67924699D01*
X57235647Y-67924698D01*
X57235646Y-67924696D01*
X57178050Y-67811658D01*
X57178046Y-67811654D01*
X57178045Y-67811652D01*
X57088347Y-67721954D01*
X57088344Y-67721952D01*
X57088342Y-67721950D01*
X56975304Y-67664354D01*
X56975303Y-67664353D01*
X56975300Y-67664352D01*
X56850003Y-67644508D01*
X56849997Y-67644508D01*
X56724699Y-67664352D01*
X56724698Y-67664352D01*
X56667745Y-67693372D01*
X56611658Y-67721950D01*
X56611657Y-67721951D01*
X56611652Y-67721954D01*
X56521954Y-67811652D01*
X56521951Y-67811657D01*
X56464352Y-67924698D01*
X56464352Y-67924699D01*
X56444508Y-68049996D01*
X54850000Y-68049996D01*
X54850000Y-67700000D01*
X54119973Y-67700000D01*
X54052934Y-67680315D01*
X54007179Y-67627511D01*
X53997235Y-67558353D01*
X54009486Y-67519709D01*
X54061574Y-67417482D01*
X54071392Y-67355492D01*
X54080181Y-67300003D01*
X54080181Y-67299996D01*
X54061575Y-67182521D01*
X54061574Y-67182519D01*
X54061574Y-67182518D01*
X54007573Y-67076535D01*
X54007571Y-67076533D01*
X54007568Y-67076529D01*
X53923470Y-66992431D01*
X53923466Y-66992428D01*
X53923465Y-66992427D01*
X53840189Y-66949996D01*
X64594510Y-66949996D01*
X64594510Y-66950003D01*
X64614354Y-67075300D01*
X64614354Y-67075301D01*
X64614356Y-67075304D01*
X64671952Y-67188342D01*
X64671954Y-67188344D01*
X64671956Y-67188347D01*
X64761654Y-67278045D01*
X64761656Y-67278046D01*
X64761660Y-67278050D01*
X64874698Y-67335646D01*
X64874699Y-67335646D01*
X64874701Y-67335647D01*
X64999999Y-67355492D01*
X65000002Y-67355492D01*
X65000005Y-67355492D01*
X65125302Y-67335647D01*
X65125303Y-67335647D01*
X65125304Y-67335646D01*
X65125306Y-67335646D01*
X65238344Y-67278050D01*
X65328052Y-67188342D01*
X65385648Y-67075304D01*
X65385648Y-67075302D01*
X65385649Y-67075301D01*
X65385649Y-67075300D01*
X65405494Y-66950003D01*
X65405494Y-66949996D01*
X65385649Y-66824699D01*
X65385649Y-66824698D01*
X65381970Y-66817477D01*
X65328052Y-66711658D01*
X65328048Y-66711654D01*
X65328047Y-66711652D01*
X65316391Y-66699996D01*
X68969819Y-66699996D01*
X68969819Y-66700003D01*
X68988424Y-66817477D01*
X68988424Y-66817478D01*
X68988425Y-66817481D01*
X68988426Y-66817482D01*
X69040569Y-66919819D01*
X69042428Y-66923466D01*
X69042431Y-66923470D01*
X69126529Y-67007568D01*
X69126533Y-67007571D01*
X69126535Y-67007573D01*
X69232518Y-67061574D01*
X69232520Y-67061574D01*
X69232522Y-67061575D01*
X69349997Y-67080181D01*
X69350000Y-67080181D01*
X69350003Y-67080181D01*
X69467477Y-67061575D01*
X69467478Y-67061575D01*
X69467479Y-67061574D01*
X69467482Y-67061574D01*
X69573465Y-67007573D01*
X69657573Y-66923465D01*
X69711574Y-66817482D01*
X69730181Y-66700000D01*
X69730181Y-66699996D01*
X69711575Y-66582522D01*
X69711575Y-66582521D01*
X69711574Y-66582519D01*
X69711574Y-66582518D01*
X69657573Y-66476535D01*
X69657571Y-66476533D01*
X69657568Y-66476529D01*
X69573470Y-66392431D01*
X69573466Y-66392428D01*
X69573465Y-66392427D01*
X69467482Y-66338426D01*
X69467480Y-66338425D01*
X69467477Y-66338424D01*
X69350003Y-66319819D01*
X69349997Y-66319819D01*
X69232522Y-66338424D01*
X69232521Y-66338424D01*
X69126533Y-66392428D01*
X69126529Y-66392431D01*
X69042431Y-66476529D01*
X69042428Y-66476533D01*
X68988424Y-66582521D01*
X68988424Y-66582522D01*
X68969819Y-66699996D01*
X65316391Y-66699996D01*
X65238349Y-66621954D01*
X65238346Y-66621952D01*
X65238344Y-66621950D01*
X65125306Y-66564354D01*
X65125305Y-66564353D01*
X65125302Y-66564352D01*
X65000005Y-66544508D01*
X64999999Y-66544508D01*
X64874701Y-66564352D01*
X64874700Y-66564352D01*
X64799339Y-66602751D01*
X64761660Y-66621950D01*
X64761659Y-66621951D01*
X64761654Y-66621954D01*
X64671956Y-66711652D01*
X64671953Y-66711657D01*
X64614354Y-66824698D01*
X64614354Y-66824699D01*
X64594510Y-66949996D01*
X53840189Y-66949996D01*
X53817482Y-66938426D01*
X53817480Y-66938425D01*
X53817477Y-66938424D01*
X53700003Y-66919819D01*
X53699997Y-66919819D01*
X53582522Y-66938424D01*
X53582521Y-66938424D01*
X53476533Y-66992428D01*
X53476529Y-66992431D01*
X53392431Y-67076529D01*
X53392428Y-67076533D01*
X53392427Y-67076535D01*
X53338426Y-67182518D01*
X53338425Y-67182519D01*
X53338425Y-67182521D01*
X53319819Y-67299996D01*
X53319819Y-67300003D01*
X53338424Y-67417477D01*
X53338424Y-67417478D01*
X53338425Y-67417481D01*
X53338426Y-67417482D01*
X53390512Y-67519707D01*
X53403408Y-67588374D01*
X53377132Y-67653115D01*
X53320025Y-67693372D01*
X53280027Y-67700000D01*
X49424500Y-67700000D01*
X49357461Y-67680315D01*
X49311706Y-67627511D01*
X49300500Y-67576000D01*
X49300500Y-66299996D01*
X52419819Y-66299996D01*
X52419819Y-66300003D01*
X52438424Y-66417477D01*
X52438424Y-66417478D01*
X52438425Y-66417481D01*
X52438426Y-66417482D01*
X52466953Y-66473470D01*
X52492428Y-66523466D01*
X52492431Y-66523470D01*
X52576529Y-66607568D01*
X52576533Y-66607571D01*
X52576535Y-66607573D01*
X52682518Y-66661574D01*
X52682520Y-66661574D01*
X52682522Y-66661575D01*
X52799997Y-66680181D01*
X52800000Y-66680181D01*
X52800003Y-66680181D01*
X52917477Y-66661575D01*
X52917478Y-66661575D01*
X52917479Y-66661574D01*
X52917482Y-66661574D01*
X53023465Y-66607573D01*
X53107573Y-66523465D01*
X53161574Y-66417482D01*
X53165542Y-66392428D01*
X53180181Y-66300003D01*
X53180181Y-66299996D01*
X53161575Y-66182522D01*
X53161575Y-66182521D01*
X53161574Y-66182519D01*
X53161574Y-66182518D01*
X53107573Y-66076535D01*
X53107571Y-66076533D01*
X53107568Y-66076529D01*
X53023470Y-65992431D01*
X53023466Y-65992428D01*
X53023465Y-65992427D01*
X52917482Y-65938426D01*
X52917480Y-65938425D01*
X52917477Y-65938424D01*
X52800003Y-65919819D01*
X52799997Y-65919819D01*
X52682522Y-65938424D01*
X52682521Y-65938424D01*
X52576533Y-65992428D01*
X52576529Y-65992431D01*
X52492431Y-66076529D01*
X52492428Y-66076533D01*
X52438424Y-66182521D01*
X52438424Y-66182522D01*
X52419819Y-66299996D01*
X49300500Y-66299996D01*
X49300500Y-65903820D01*
X53489819Y-65903820D01*
X53489819Y-65903827D01*
X53508424Y-66021301D01*
X53508424Y-66021302D01*
X53508425Y-66021305D01*
X53508426Y-66021306D01*
X53532301Y-66068164D01*
X53562428Y-66127290D01*
X53562431Y-66127294D01*
X53646529Y-66211392D01*
X53646533Y-66211395D01*
X53646535Y-66211397D01*
X53752518Y-66265398D01*
X53752520Y-66265398D01*
X53752522Y-66265399D01*
X53869997Y-66284005D01*
X53870000Y-66284005D01*
X53870003Y-66284005D01*
X53987477Y-66265399D01*
X53987478Y-66265399D01*
X53987479Y-66265398D01*
X53987482Y-66265398D01*
X54017710Y-66249996D01*
X56469819Y-66249996D01*
X56469819Y-66250003D01*
X56488424Y-66367477D01*
X56488424Y-66367478D01*
X56488425Y-66367481D01*
X56488426Y-66367482D01*
X56524533Y-66438347D01*
X56542428Y-66473466D01*
X56542431Y-66473470D01*
X56626529Y-66557568D01*
X56626533Y-66557571D01*
X56626535Y-66557573D01*
X56732518Y-66611574D01*
X56732520Y-66611574D01*
X56732522Y-66611575D01*
X56849997Y-66630181D01*
X56850000Y-66630181D01*
X56850003Y-66630181D01*
X56967477Y-66611575D01*
X56967478Y-66611575D01*
X56967479Y-66611574D01*
X56967482Y-66611574D01*
X57073465Y-66557573D01*
X57157573Y-66473465D01*
X57211574Y-66367482D01*
X57216176Y-66338426D01*
X57230181Y-66250003D01*
X57230181Y-66249996D01*
X57222262Y-66199996D01*
X65394508Y-66199996D01*
X65394508Y-66200003D01*
X65414352Y-66325300D01*
X65414352Y-66325301D01*
X65414354Y-66325304D01*
X65471950Y-66438342D01*
X65471952Y-66438344D01*
X65471954Y-66438347D01*
X65561652Y-66528045D01*
X65561654Y-66528046D01*
X65561658Y-66528050D01*
X65674696Y-66585646D01*
X65674697Y-66585646D01*
X65674699Y-66585647D01*
X65799997Y-66605492D01*
X65800000Y-66605492D01*
X65800003Y-66605492D01*
X65925300Y-66585647D01*
X65925301Y-66585647D01*
X65925302Y-66585646D01*
X65925304Y-66585646D01*
X66038342Y-66528050D01*
X66128050Y-66438342D01*
X66185646Y-66325304D01*
X66185646Y-66325302D01*
X66185647Y-66325301D01*
X66185647Y-66325300D01*
X66205492Y-66200003D01*
X66205492Y-66199999D01*
X66195586Y-66137458D01*
X66204540Y-66068164D01*
X66249536Y-66014712D01*
X66316288Y-65994072D01*
X66337453Y-65995585D01*
X66382935Y-66002789D01*
X66399999Y-66005492D01*
X66400000Y-66005492D01*
X66400003Y-66005492D01*
X66525300Y-65985647D01*
X66525301Y-65985647D01*
X66525302Y-65985646D01*
X66525304Y-65985646D01*
X66638342Y-65928050D01*
X66728050Y-65838342D01*
X66785646Y-65725304D01*
X66785646Y-65725302D01*
X66785647Y-65725301D01*
X66785647Y-65725300D01*
X66805492Y-65600003D01*
X66805492Y-65599996D01*
X66785647Y-65474699D01*
X66785647Y-65474698D01*
X66764810Y-65433804D01*
X66728050Y-65361658D01*
X66728046Y-65361654D01*
X66728045Y-65361652D01*
X66638347Y-65271954D01*
X66638344Y-65271952D01*
X66638342Y-65271950D01*
X66525304Y-65214354D01*
X66525303Y-65214353D01*
X66525300Y-65214352D01*
X66400003Y-65194508D01*
X66399997Y-65194508D01*
X66274699Y-65214352D01*
X66274698Y-65214352D01*
X66227607Y-65238347D01*
X66161658Y-65271950D01*
X66161657Y-65271951D01*
X66161652Y-65271954D01*
X66071954Y-65361652D01*
X66071951Y-65361657D01*
X66071950Y-65361658D01*
X66058033Y-65388971D01*
X66014352Y-65474698D01*
X66014352Y-65474699D01*
X65994508Y-65599996D01*
X65994508Y-65600003D01*
X66004413Y-65662543D01*
X65995458Y-65731836D01*
X65950462Y-65785288D01*
X65883710Y-65805927D01*
X65862543Y-65804413D01*
X65800003Y-65794508D01*
X65799997Y-65794508D01*
X65674699Y-65814352D01*
X65674698Y-65814352D01*
X65627607Y-65838347D01*
X65561658Y-65871950D01*
X65561657Y-65871951D01*
X65561652Y-65871954D01*
X65471954Y-65961652D01*
X65471951Y-65961657D01*
X65471950Y-65961658D01*
X65459727Y-65985647D01*
X65414352Y-66074698D01*
X65414352Y-66074699D01*
X65394508Y-66199996D01*
X57222262Y-66199996D01*
X57211575Y-66132522D01*
X57211575Y-66132521D01*
X57211574Y-66132519D01*
X57211574Y-66132518D01*
X57157573Y-66026535D01*
X57157571Y-66026533D01*
X57157568Y-66026529D01*
X57073470Y-65942431D01*
X57073466Y-65942428D01*
X57073465Y-65942427D01*
X56967482Y-65888426D01*
X56967480Y-65888425D01*
X56967477Y-65888424D01*
X56850003Y-65869819D01*
X56849997Y-65869819D01*
X56732522Y-65888424D01*
X56732521Y-65888424D01*
X56626533Y-65942428D01*
X56626529Y-65942431D01*
X56542431Y-66026529D01*
X56542428Y-66026533D01*
X56488424Y-66132521D01*
X56488424Y-66132522D01*
X56469819Y-66249996D01*
X54017710Y-66249996D01*
X54093465Y-66211397D01*
X54177573Y-66127289D01*
X54231574Y-66021306D01*
X54231575Y-66021301D01*
X54250181Y-65903827D01*
X54250181Y-65903820D01*
X54231575Y-65786346D01*
X54231575Y-65786345D01*
X54231574Y-65786343D01*
X54231574Y-65786342D01*
X54177573Y-65680359D01*
X54177571Y-65680357D01*
X54177568Y-65680353D01*
X54086565Y-65589350D01*
X54088832Y-65587082D01*
X54056340Y-65544946D01*
X54050361Y-65475333D01*
X54082966Y-65413538D01*
X54115592Y-65389476D01*
X54134577Y-65379803D01*
X54218685Y-65295695D01*
X54272686Y-65189712D01*
X54291293Y-65072230D01*
X54291293Y-65072226D01*
X54272687Y-64954752D01*
X54272687Y-64954751D01*
X54272686Y-64954749D01*
X54272686Y-64954748D01*
X54218685Y-64848765D01*
X54218683Y-64848763D01*
X54218680Y-64848759D01*
X54134582Y-64764661D01*
X54134578Y-64764658D01*
X54134577Y-64764657D01*
X54028594Y-64710656D01*
X54028592Y-64710655D01*
X54028589Y-64710654D01*
X53911115Y-64692049D01*
X53911109Y-64692049D01*
X53793634Y-64710654D01*
X53793633Y-64710654D01*
X53687645Y-64764658D01*
X53687641Y-64764661D01*
X53603543Y-64848759D01*
X53603540Y-64848763D01*
X53549536Y-64954751D01*
X53549536Y-64954752D01*
X53530931Y-65072226D01*
X53530931Y-65072233D01*
X53549536Y-65189707D01*
X53549536Y-65189708D01*
X53549537Y-65189711D01*
X53549538Y-65189712D01*
X53591442Y-65271954D01*
X53603540Y-65295696D01*
X53603543Y-65295700D01*
X53694547Y-65386704D01*
X53692279Y-65388971D01*
X53724768Y-65431098D01*
X53730752Y-65500711D01*
X53698151Y-65562508D01*
X53665518Y-65586578D01*
X53646537Y-65596249D01*
X53646529Y-65596255D01*
X53562431Y-65680353D01*
X53562428Y-65680357D01*
X53508424Y-65786345D01*
X53508424Y-65786346D01*
X53489819Y-65903820D01*
X49300500Y-65903820D01*
X49300500Y-64599996D01*
X54519821Y-64599996D01*
X54519821Y-64600003D01*
X54538426Y-64717477D01*
X54538426Y-64717478D01*
X54538427Y-64717481D01*
X54538428Y-64717482D01*
X54589378Y-64817478D01*
X54592430Y-64823466D01*
X54592433Y-64823470D01*
X54676531Y-64907568D01*
X54676535Y-64907571D01*
X54676537Y-64907573D01*
X54782520Y-64961574D01*
X54782522Y-64961574D01*
X54782524Y-64961575D01*
X54899999Y-64980181D01*
X54900002Y-64980181D01*
X54900005Y-64980181D01*
X55017479Y-64961575D01*
X55017480Y-64961575D01*
X55017481Y-64961574D01*
X55017484Y-64961574D01*
X55123467Y-64907573D01*
X55207575Y-64823465D01*
X55261576Y-64717482D01*
X55262657Y-64710656D01*
X55280183Y-64600003D01*
X55280183Y-64599996D01*
X55261577Y-64482522D01*
X55261577Y-64482521D01*
X55261576Y-64482519D01*
X55261576Y-64482518D01*
X55207575Y-64376535D01*
X55207573Y-64376533D01*
X55207570Y-64376529D01*
X55123472Y-64292431D01*
X55123468Y-64292428D01*
X55123467Y-64292427D01*
X55017484Y-64238426D01*
X55017482Y-64238425D01*
X55017479Y-64238424D01*
X54900005Y-64219819D01*
X54899999Y-64219819D01*
X54782524Y-64238424D01*
X54782523Y-64238424D01*
X54676535Y-64292428D01*
X54676531Y-64292431D01*
X54592433Y-64376529D01*
X54592430Y-64376533D01*
X54538426Y-64482521D01*
X54538426Y-64482522D01*
X54519821Y-64599996D01*
X49300500Y-64599996D01*
X49300500Y-63549996D01*
X53469819Y-63549996D01*
X53469819Y-63550003D01*
X53488424Y-63667477D01*
X53488424Y-63667478D01*
X53488425Y-63667481D01*
X53488426Y-63667482D01*
X53521563Y-63732518D01*
X53542428Y-63773466D01*
X53542431Y-63773470D01*
X53626529Y-63857568D01*
X53626533Y-63857571D01*
X53626535Y-63857573D01*
X53732518Y-63911574D01*
X53732520Y-63911574D01*
X53732522Y-63911575D01*
X53849997Y-63930181D01*
X53850000Y-63930181D01*
X53850003Y-63930181D01*
X53967477Y-63911575D01*
X53967478Y-63911575D01*
X53967479Y-63911574D01*
X53967482Y-63911574D01*
X54073465Y-63857573D01*
X54081042Y-63849996D01*
X55969819Y-63849996D01*
X55969819Y-63850003D01*
X55988424Y-63967477D01*
X55988424Y-63967478D01*
X55988425Y-63967481D01*
X55988426Y-63967482D01*
X56041657Y-64071954D01*
X56042428Y-64073466D01*
X56042431Y-64073470D01*
X56126529Y-64157568D01*
X56126533Y-64157571D01*
X56126535Y-64157573D01*
X56232518Y-64211574D01*
X56232520Y-64211574D01*
X56232522Y-64211575D01*
X56349997Y-64230181D01*
X56350000Y-64230181D01*
X56350003Y-64230181D01*
X56467477Y-64211575D01*
X56467478Y-64211575D01*
X56467479Y-64211574D01*
X56467482Y-64211574D01*
X56573465Y-64157573D01*
X56657573Y-64073465D01*
X56711574Y-63967482D01*
X56717482Y-63930181D01*
X56730181Y-63850003D01*
X56730181Y-63849996D01*
X56711575Y-63732522D01*
X56711575Y-63732521D01*
X56711574Y-63732519D01*
X56711574Y-63732518D01*
X56657573Y-63626535D01*
X56657571Y-63626533D01*
X56657568Y-63626529D01*
X56573470Y-63542431D01*
X56573466Y-63542428D01*
X56573465Y-63542427D01*
X56467482Y-63488426D01*
X56467480Y-63488425D01*
X56467477Y-63488424D01*
X56350003Y-63469819D01*
X56349997Y-63469819D01*
X56232522Y-63488424D01*
X56232521Y-63488424D01*
X56126533Y-63542428D01*
X56126529Y-63542431D01*
X56042431Y-63626529D01*
X56042428Y-63626533D01*
X55988424Y-63732521D01*
X55988424Y-63732522D01*
X55969819Y-63849996D01*
X54081042Y-63849996D01*
X54157573Y-63773465D01*
X54211574Y-63667482D01*
X54211575Y-63667477D01*
X54230181Y-63550003D01*
X54230181Y-63549996D01*
X54211575Y-63432522D01*
X54211575Y-63432521D01*
X54211574Y-63432519D01*
X54211574Y-63432518D01*
X54157573Y-63326535D01*
X54157571Y-63326533D01*
X54157568Y-63326529D01*
X54073470Y-63242431D01*
X54073466Y-63242428D01*
X54073465Y-63242427D01*
X53967482Y-63188426D01*
X53967480Y-63188425D01*
X53967477Y-63188424D01*
X53850003Y-63169819D01*
X53849997Y-63169819D01*
X53732522Y-63188424D01*
X53732521Y-63188424D01*
X53626533Y-63242428D01*
X53626529Y-63242431D01*
X53542431Y-63326529D01*
X53542428Y-63326533D01*
X53488424Y-63432521D01*
X53488424Y-63432522D01*
X53469819Y-63549996D01*
X49300500Y-63549996D01*
X49300500Y-63023761D01*
X49320185Y-62956722D01*
X49372989Y-62910967D01*
X49442147Y-62901023D01*
X49480792Y-62913275D01*
X49524696Y-62935646D01*
X49524697Y-62935646D01*
X49524699Y-62935647D01*
X49649997Y-62955492D01*
X49650000Y-62955492D01*
X49650003Y-62955492D01*
X49775300Y-62935647D01*
X49775301Y-62935647D01*
X49775302Y-62935646D01*
X49775304Y-62935646D01*
X49888342Y-62878050D01*
X49978050Y-62788342D01*
X50035646Y-62675304D01*
X50035646Y-62675302D01*
X50035647Y-62675301D01*
X50035647Y-62675300D01*
X50047574Y-62599996D01*
X50794508Y-62599996D01*
X50794508Y-62600003D01*
X50814352Y-62725300D01*
X50814352Y-62725301D01*
X50826740Y-62749613D01*
X50871950Y-62838342D01*
X50871952Y-62838344D01*
X50871954Y-62838347D01*
X50961652Y-62928045D01*
X50961654Y-62928046D01*
X50961658Y-62928050D01*
X51074696Y-62985646D01*
X51074697Y-62985646D01*
X51074699Y-62985647D01*
X51199997Y-63005492D01*
X51200000Y-63005492D01*
X51200003Y-63005492D01*
X51325300Y-62985647D01*
X51325301Y-62985647D01*
X51325302Y-62985646D01*
X51325304Y-62985646D01*
X51438342Y-62928050D01*
X51516396Y-62849996D01*
X55669819Y-62849996D01*
X55669819Y-62850003D01*
X55688424Y-62967477D01*
X55688424Y-62967478D01*
X55688425Y-62967481D01*
X55688426Y-62967482D01*
X55741657Y-63071954D01*
X55742428Y-63073466D01*
X55742431Y-63073470D01*
X55826529Y-63157568D01*
X55826533Y-63157571D01*
X55826535Y-63157573D01*
X55932518Y-63211574D01*
X55932520Y-63211574D01*
X55932522Y-63211575D01*
X56049997Y-63230181D01*
X56050000Y-63230181D01*
X56050003Y-63230181D01*
X56167477Y-63211575D01*
X56167478Y-63211575D01*
X56167479Y-63211574D01*
X56167482Y-63211574D01*
X56190205Y-63199996D01*
X61594508Y-63199996D01*
X61594508Y-63200003D01*
X61614352Y-63325300D01*
X61614352Y-63325301D01*
X61627172Y-63350461D01*
X61671950Y-63438342D01*
X61671952Y-63438344D01*
X61671954Y-63438347D01*
X61761652Y-63528045D01*
X61761654Y-63528046D01*
X61761658Y-63528050D01*
X61874696Y-63585646D01*
X61874697Y-63585646D01*
X61874699Y-63585647D01*
X61999997Y-63605492D01*
X62000000Y-63605492D01*
X62000001Y-63605492D01*
X62013406Y-63603368D01*
X62062543Y-63595586D01*
X62131835Y-63604540D01*
X62185287Y-63649536D01*
X62205927Y-63716287D01*
X62204413Y-63737456D01*
X62194508Y-63799996D01*
X62194508Y-63800003D01*
X62214352Y-63925300D01*
X62214352Y-63925301D01*
X62214354Y-63925304D01*
X62271950Y-64038342D01*
X62271952Y-64038344D01*
X62271954Y-64038347D01*
X62361652Y-64128045D01*
X62361654Y-64128046D01*
X62361658Y-64128050D01*
X62474696Y-64185646D01*
X62474697Y-64185646D01*
X62474699Y-64185647D01*
X62599997Y-64205492D01*
X62600000Y-64205492D01*
X62600001Y-64205492D01*
X62613406Y-64203368D01*
X62662543Y-64195586D01*
X62731835Y-64204540D01*
X62785287Y-64249536D01*
X62805927Y-64316287D01*
X62804413Y-64337456D01*
X62794508Y-64399996D01*
X62794508Y-64400003D01*
X62814352Y-64525300D01*
X62814352Y-64525301D01*
X62814354Y-64525304D01*
X62871950Y-64638342D01*
X62871952Y-64638344D01*
X62871954Y-64638347D01*
X62961652Y-64728045D01*
X62961654Y-64728046D01*
X62961658Y-64728050D01*
X63074696Y-64785646D01*
X63074697Y-64785646D01*
X63074699Y-64785647D01*
X63199997Y-64805492D01*
X63200000Y-64805492D01*
X63200001Y-64805492D01*
X63213406Y-64803368D01*
X63262543Y-64795586D01*
X63331835Y-64804540D01*
X63385287Y-64849536D01*
X63405927Y-64916287D01*
X63404413Y-64937456D01*
X63394508Y-64999996D01*
X63394508Y-65000003D01*
X63414352Y-65125300D01*
X63414352Y-65125301D01*
X63414354Y-65125304D01*
X63471950Y-65238342D01*
X63471952Y-65238344D01*
X63471954Y-65238347D01*
X63561652Y-65328045D01*
X63561654Y-65328046D01*
X63561658Y-65328050D01*
X63674696Y-65385646D01*
X63674697Y-65385646D01*
X63674699Y-65385647D01*
X63799997Y-65405492D01*
X63800000Y-65405492D01*
X63800001Y-65405492D01*
X63813406Y-65403368D01*
X63862543Y-65395586D01*
X63931835Y-65404540D01*
X63985287Y-65449536D01*
X64005927Y-65516287D01*
X64004413Y-65537456D01*
X63994508Y-65599996D01*
X63994508Y-65600003D01*
X64014352Y-65725300D01*
X64014352Y-65725301D01*
X64014354Y-65725304D01*
X64071950Y-65838342D01*
X64071952Y-65838344D01*
X64071954Y-65838347D01*
X64161652Y-65928045D01*
X64161654Y-65928046D01*
X64161658Y-65928050D01*
X64274696Y-65985646D01*
X64274697Y-65985646D01*
X64274699Y-65985647D01*
X64399997Y-66005492D01*
X64400000Y-66005492D01*
X64400003Y-66005492D01*
X64525300Y-65985647D01*
X64525301Y-65985647D01*
X64525302Y-65985646D01*
X64525304Y-65985646D01*
X64638342Y-65928050D01*
X64728050Y-65838342D01*
X64785646Y-65725304D01*
X64785646Y-65725302D01*
X64785647Y-65725301D01*
X64785647Y-65725300D01*
X64805492Y-65600003D01*
X64805492Y-65599999D01*
X64795586Y-65537458D01*
X64804540Y-65468164D01*
X64849536Y-65414712D01*
X64916288Y-65394072D01*
X64937453Y-65395585D01*
X64982935Y-65402789D01*
X64999999Y-65405492D01*
X65000000Y-65405492D01*
X65000003Y-65405492D01*
X65125300Y-65385647D01*
X65125301Y-65385647D01*
X65125302Y-65385646D01*
X65125304Y-65385646D01*
X65238342Y-65328050D01*
X65328050Y-65238342D01*
X65385646Y-65125304D01*
X65385646Y-65125302D01*
X65385647Y-65125301D01*
X65385647Y-65125300D01*
X65405492Y-65000003D01*
X65405492Y-64999999D01*
X65395586Y-64937458D01*
X65404540Y-64868164D01*
X65449536Y-64814712D01*
X65516288Y-64794072D01*
X65537453Y-64795585D01*
X65582935Y-64802789D01*
X65599999Y-64805492D01*
X65600000Y-64805492D01*
X65600003Y-64805492D01*
X65725300Y-64785647D01*
X65725301Y-64785647D01*
X65725302Y-64785646D01*
X65725304Y-64785646D01*
X65838342Y-64728050D01*
X65866396Y-64699996D01*
X67619819Y-64699996D01*
X67619819Y-64700003D01*
X67638424Y-64817477D01*
X67638424Y-64817478D01*
X67638425Y-64817481D01*
X67638426Y-64817482D01*
X67684327Y-64907568D01*
X67692428Y-64923466D01*
X67692431Y-64923470D01*
X67776529Y-65007568D01*
X67776533Y-65007571D01*
X67776535Y-65007573D01*
X67882518Y-65061574D01*
X67882520Y-65061574D01*
X67882522Y-65061575D01*
X67999997Y-65080181D01*
X68000000Y-65080181D01*
X68000003Y-65080181D01*
X68117477Y-65061575D01*
X68117478Y-65061575D01*
X68117479Y-65061574D01*
X68117482Y-65061574D01*
X68223465Y-65007573D01*
X68307573Y-64923465D01*
X68361574Y-64817482D01*
X68366616Y-64785647D01*
X68380181Y-64700003D01*
X68380181Y-64699996D01*
X68361575Y-64582522D01*
X68361575Y-64582521D01*
X68361574Y-64582519D01*
X68361574Y-64582518D01*
X68307573Y-64476535D01*
X68307571Y-64476533D01*
X68307568Y-64476529D01*
X68223470Y-64392431D01*
X68223466Y-64392428D01*
X68223465Y-64392427D01*
X68117482Y-64338426D01*
X68117480Y-64338425D01*
X68117477Y-64338424D01*
X68000003Y-64319819D01*
X67999997Y-64319819D01*
X67882522Y-64338424D01*
X67882521Y-64338424D01*
X67776533Y-64392428D01*
X67776529Y-64392431D01*
X67692431Y-64476529D01*
X67692428Y-64476533D01*
X67638424Y-64582521D01*
X67638424Y-64582522D01*
X67619819Y-64699996D01*
X65866396Y-64699996D01*
X65928050Y-64638342D01*
X65985646Y-64525304D01*
X65985646Y-64525302D01*
X65985647Y-64525301D01*
X65985647Y-64525300D01*
X66005492Y-64400003D01*
X66005492Y-64399996D01*
X65985647Y-64274699D01*
X65985647Y-64274698D01*
X65962964Y-64230181D01*
X65928050Y-64161658D01*
X65928046Y-64161654D01*
X65928045Y-64161652D01*
X65838347Y-64071954D01*
X65838344Y-64071952D01*
X65838342Y-64071950D01*
X65725304Y-64014354D01*
X65725303Y-64014353D01*
X65725300Y-64014352D01*
X65600003Y-63994508D01*
X65599996Y-63994508D01*
X65537456Y-64004413D01*
X65468163Y-63995458D01*
X65414711Y-63950461D01*
X65394072Y-63883710D01*
X65395585Y-63862547D01*
X65405492Y-63800000D01*
X65405492Y-63799996D01*
X65385647Y-63674699D01*
X65385647Y-63674698D01*
X65367125Y-63638347D01*
X65328050Y-63561658D01*
X65328046Y-63561654D01*
X65328045Y-63561652D01*
X65238347Y-63471954D01*
X65238344Y-63471952D01*
X65238342Y-63471950D01*
X65125304Y-63414354D01*
X65125303Y-63414353D01*
X65125300Y-63414352D01*
X65000003Y-63394508D01*
X64999996Y-63394508D01*
X64937456Y-63404413D01*
X64868163Y-63395458D01*
X64814711Y-63350461D01*
X64794072Y-63283710D01*
X64795586Y-63262543D01*
X64805492Y-63200000D01*
X64805492Y-63199996D01*
X64785647Y-63074699D01*
X64785647Y-63074698D01*
X64759693Y-63023761D01*
X64728050Y-62961658D01*
X64728046Y-62961654D01*
X64728045Y-62961652D01*
X64638347Y-62871954D01*
X64638344Y-62871952D01*
X64638342Y-62871950D01*
X64525304Y-62814354D01*
X64525303Y-62814353D01*
X64525300Y-62814352D01*
X64400003Y-62794508D01*
X64399997Y-62794508D01*
X64274699Y-62814352D01*
X64274698Y-62814352D01*
X64204745Y-62849996D01*
X64161658Y-62871950D01*
X64161657Y-62871951D01*
X64161652Y-62871954D01*
X64071954Y-62961652D01*
X64071951Y-62961657D01*
X64071950Y-62961658D01*
X64059727Y-62985647D01*
X64014352Y-63074698D01*
X64014352Y-63074699D01*
X63994508Y-63199996D01*
X63994508Y-63200003D01*
X64004413Y-63262543D01*
X63995458Y-63331836D01*
X63950462Y-63385288D01*
X63883710Y-63405927D01*
X63862543Y-63404413D01*
X63800003Y-63394508D01*
X63799996Y-63394508D01*
X63737456Y-63404413D01*
X63668163Y-63395458D01*
X63614711Y-63350461D01*
X63594072Y-63283710D01*
X63595586Y-63262543D01*
X63605492Y-63200000D01*
X63605492Y-63199996D01*
X63585647Y-63074699D01*
X63585647Y-63074698D01*
X63559693Y-63023761D01*
X63528050Y-62961658D01*
X63528046Y-62961654D01*
X63528045Y-62961652D01*
X63438347Y-62871954D01*
X63438344Y-62871952D01*
X63438342Y-62871950D01*
X63325304Y-62814354D01*
X63325303Y-62814353D01*
X63325300Y-62814352D01*
X63200003Y-62794508D01*
X63199997Y-62794508D01*
X63074699Y-62814352D01*
X63074698Y-62814352D01*
X63004745Y-62849996D01*
X62961658Y-62871950D01*
X62961657Y-62871951D01*
X62961652Y-62871954D01*
X62871954Y-62961652D01*
X62871951Y-62961657D01*
X62871950Y-62961658D01*
X62859727Y-62985647D01*
X62814352Y-63074698D01*
X62814352Y-63074699D01*
X62794508Y-63199996D01*
X62794508Y-63200003D01*
X62804413Y-63262543D01*
X62795458Y-63331836D01*
X62750462Y-63385288D01*
X62683710Y-63405927D01*
X62662543Y-63404413D01*
X62600003Y-63394508D01*
X62599996Y-63394508D01*
X62537456Y-63404413D01*
X62468163Y-63395458D01*
X62414711Y-63350461D01*
X62394072Y-63283710D01*
X62395586Y-63262543D01*
X62405492Y-63200000D01*
X62405492Y-63199996D01*
X62385647Y-63074699D01*
X62385647Y-63074698D01*
X62359693Y-63023761D01*
X62328050Y-62961658D01*
X62328046Y-62961654D01*
X62328045Y-62961652D01*
X62238347Y-62871954D01*
X62238344Y-62871952D01*
X62238342Y-62871950D01*
X62125304Y-62814354D01*
X62125303Y-62814353D01*
X62125300Y-62814352D01*
X62000003Y-62794508D01*
X61999997Y-62794508D01*
X61874699Y-62814352D01*
X61874698Y-62814352D01*
X61804745Y-62849996D01*
X61761658Y-62871950D01*
X61761657Y-62871951D01*
X61761652Y-62871954D01*
X61671954Y-62961652D01*
X61671951Y-62961657D01*
X61671950Y-62961658D01*
X61659727Y-62985647D01*
X61614352Y-63074698D01*
X61614352Y-63074699D01*
X61594508Y-63199996D01*
X56190205Y-63199996D01*
X56273465Y-63157573D01*
X56357573Y-63073465D01*
X56411574Y-62967482D01*
X56411575Y-62967477D01*
X56414591Y-62958197D01*
X56416209Y-62958722D01*
X56441259Y-62905879D01*
X56500570Y-62868947D01*
X56553203Y-62865937D01*
X56579998Y-62870181D01*
X56580000Y-62870181D01*
X56580003Y-62870181D01*
X56697477Y-62851575D01*
X56697478Y-62851575D01*
X56697479Y-62851574D01*
X56697482Y-62851574D01*
X56803465Y-62797573D01*
X56887573Y-62713465D01*
X56941574Y-62607482D01*
X56943203Y-62597197D01*
X56960181Y-62490003D01*
X56960181Y-62489996D01*
X56941575Y-62372522D01*
X56941575Y-62372521D01*
X56941574Y-62372519D01*
X56941574Y-62372518D01*
X56887573Y-62266535D01*
X56887571Y-62266533D01*
X56886932Y-62265278D01*
X56874036Y-62196608D01*
X56900313Y-62131868D01*
X56906539Y-62124886D01*
X56907568Y-62123469D01*
X56907573Y-62123465D01*
X56961574Y-62017482D01*
X56961575Y-62017477D01*
X56980181Y-61900003D01*
X56980181Y-61899996D01*
X56964343Y-61799996D01*
X61194508Y-61799996D01*
X61194508Y-61800003D01*
X61214352Y-61925300D01*
X61214352Y-61925301D01*
X61214354Y-61925304D01*
X61271950Y-62038342D01*
X61271952Y-62038344D01*
X61271954Y-62038347D01*
X61361652Y-62128045D01*
X61361654Y-62128046D01*
X61361658Y-62128050D01*
X61474696Y-62185646D01*
X61474697Y-62185646D01*
X61474699Y-62185647D01*
X61599997Y-62205492D01*
X61600000Y-62205492D01*
X61600003Y-62205492D01*
X61725300Y-62185647D01*
X61725301Y-62185647D01*
X61725302Y-62185646D01*
X61725304Y-62185646D01*
X61838342Y-62128050D01*
X61928050Y-62038342D01*
X61985646Y-61925304D01*
X61985646Y-61925302D01*
X61985647Y-61925301D01*
X61985647Y-61925300D01*
X62005492Y-61800003D01*
X62005492Y-61799999D01*
X61995586Y-61737458D01*
X62004540Y-61668164D01*
X62049536Y-61614712D01*
X62116288Y-61594072D01*
X62137453Y-61595585D01*
X62182935Y-61602789D01*
X62199999Y-61605492D01*
X62200000Y-61605492D01*
X62200001Y-61605492D01*
X62215204Y-61603084D01*
X62262543Y-61595586D01*
X62331835Y-61604540D01*
X62385287Y-61649536D01*
X62405927Y-61716287D01*
X62404413Y-61737456D01*
X62394508Y-61799996D01*
X62394508Y-61800003D01*
X62414352Y-61925300D01*
X62414352Y-61925301D01*
X62414354Y-61925304D01*
X62471950Y-62038342D01*
X62471952Y-62038344D01*
X62471954Y-62038347D01*
X62561652Y-62128045D01*
X62561654Y-62128046D01*
X62561658Y-62128050D01*
X62674696Y-62185646D01*
X62674697Y-62185646D01*
X62674699Y-62185647D01*
X62799997Y-62205492D01*
X62800000Y-62205492D01*
X62800003Y-62205492D01*
X62925300Y-62185647D01*
X62925301Y-62185647D01*
X62925302Y-62185646D01*
X62925304Y-62185646D01*
X63038342Y-62128050D01*
X63128050Y-62038342D01*
X63185646Y-61925304D01*
X63185646Y-61925302D01*
X63185647Y-61925301D01*
X63185647Y-61925300D01*
X63205492Y-61800003D01*
X63205492Y-61799999D01*
X63195586Y-61737458D01*
X63204540Y-61668164D01*
X63249536Y-61614712D01*
X63316288Y-61594072D01*
X63337453Y-61595585D01*
X63382935Y-61602789D01*
X63399999Y-61605492D01*
X63400000Y-61605492D01*
X63400001Y-61605492D01*
X63415204Y-61603084D01*
X63462543Y-61595586D01*
X63531835Y-61604540D01*
X63585287Y-61649536D01*
X63605927Y-61716287D01*
X63604413Y-61737456D01*
X63594508Y-61799996D01*
X63594508Y-61800003D01*
X63614352Y-61925300D01*
X63614352Y-61925301D01*
X63614354Y-61925304D01*
X63671950Y-62038342D01*
X63671952Y-62038344D01*
X63671954Y-62038347D01*
X63761652Y-62128045D01*
X63761654Y-62128046D01*
X63761658Y-62128050D01*
X63874696Y-62185646D01*
X63874697Y-62185646D01*
X63874699Y-62185647D01*
X63999997Y-62205492D01*
X64000000Y-62205492D01*
X64000003Y-62205492D01*
X64125300Y-62185647D01*
X64125301Y-62185647D01*
X64125302Y-62185646D01*
X64125304Y-62185646D01*
X64238342Y-62128050D01*
X64328050Y-62038342D01*
X64385646Y-61925304D01*
X64385646Y-61925302D01*
X64385647Y-61925301D01*
X64385647Y-61925300D01*
X64405492Y-61800003D01*
X64405492Y-61799999D01*
X64395586Y-61737458D01*
X64404540Y-61668164D01*
X64449536Y-61614712D01*
X64516288Y-61594072D01*
X64537453Y-61595585D01*
X64582935Y-61602789D01*
X64599999Y-61605492D01*
X64600000Y-61605492D01*
X64600001Y-61605492D01*
X64615204Y-61603084D01*
X64662543Y-61595586D01*
X64731835Y-61604540D01*
X64785287Y-61649536D01*
X64805927Y-61716287D01*
X64804413Y-61737456D01*
X64794508Y-61799996D01*
X64794508Y-61800003D01*
X64814352Y-61925300D01*
X64814352Y-61925301D01*
X64814354Y-61925304D01*
X64871950Y-62038342D01*
X64871952Y-62038344D01*
X64871954Y-62038347D01*
X64961652Y-62128045D01*
X64961654Y-62128046D01*
X64961658Y-62128050D01*
X65074696Y-62185646D01*
X65074697Y-62185646D01*
X65074699Y-62185647D01*
X65199997Y-62205492D01*
X65200000Y-62205492D01*
X65200003Y-62205492D01*
X65325299Y-62185647D01*
X65325299Y-62185646D01*
X65325304Y-62185646D01*
X65329452Y-62183532D01*
X65398117Y-62170634D01*
X65462859Y-62196908D01*
X65503118Y-62254013D01*
X65508221Y-62313413D01*
X65494508Y-62399996D01*
X65494508Y-62400003D01*
X65514352Y-62525300D01*
X65514352Y-62525301D01*
X65526935Y-62549996D01*
X65571950Y-62638342D01*
X65571952Y-62638344D01*
X65571954Y-62638347D01*
X65661652Y-62728045D01*
X65661654Y-62728046D01*
X65661658Y-62728050D01*
X65774696Y-62785646D01*
X65774697Y-62785646D01*
X65774699Y-62785647D01*
X65899997Y-62805492D01*
X65900000Y-62805492D01*
X65900003Y-62805492D01*
X66025300Y-62785647D01*
X66025301Y-62785646D01*
X66025304Y-62785646D01*
X66070712Y-62762509D01*
X66139377Y-62749613D01*
X66204118Y-62775888D01*
X66244376Y-62832994D01*
X66247370Y-62902799D01*
X66237490Y-62929288D01*
X66214353Y-62974695D01*
X66214352Y-62974699D01*
X66194508Y-63099996D01*
X66194508Y-63100003D01*
X66214352Y-63225300D01*
X66214352Y-63225301D01*
X66232805Y-63261517D01*
X66271950Y-63338342D01*
X66271952Y-63338344D01*
X66271954Y-63338347D01*
X66361652Y-63428045D01*
X66361654Y-63428046D01*
X66361658Y-63428050D01*
X66474696Y-63485646D01*
X66474697Y-63485646D01*
X66474699Y-63485647D01*
X66599997Y-63505492D01*
X66600000Y-63505492D01*
X66600003Y-63505492D01*
X66725300Y-63485647D01*
X66725301Y-63485647D01*
X66725302Y-63485646D01*
X66725304Y-63485646D01*
X66838342Y-63428050D01*
X66928050Y-63338342D01*
X66985646Y-63225304D01*
X66985646Y-63225302D01*
X66985647Y-63225301D01*
X66985647Y-63225300D01*
X66989655Y-63199996D01*
X68119819Y-63199996D01*
X68119819Y-63200003D01*
X68138424Y-63317477D01*
X68138424Y-63317478D01*
X68138425Y-63317481D01*
X68138426Y-63317482D01*
X68142409Y-63325300D01*
X68192428Y-63423466D01*
X68192431Y-63423470D01*
X68276529Y-63507568D01*
X68276533Y-63507571D01*
X68276535Y-63507573D01*
X68382518Y-63561574D01*
X68382520Y-63561574D01*
X68382522Y-63561575D01*
X68499997Y-63580181D01*
X68500000Y-63580181D01*
X68500003Y-63580181D01*
X68617477Y-63561575D01*
X68617478Y-63561575D01*
X68617479Y-63561574D01*
X68617482Y-63561574D01*
X68723465Y-63507573D01*
X68807573Y-63423465D01*
X68819531Y-63399996D01*
X73044508Y-63399996D01*
X73044508Y-63400003D01*
X73064352Y-63525300D01*
X73064352Y-63525301D01*
X73076935Y-63549996D01*
X73121950Y-63638342D01*
X73121952Y-63638344D01*
X73121954Y-63638347D01*
X73211652Y-63728045D01*
X73211654Y-63728046D01*
X73211658Y-63728050D01*
X73324696Y-63785646D01*
X73324697Y-63785646D01*
X73324699Y-63785647D01*
X73449997Y-63805492D01*
X73450000Y-63805492D01*
X73450003Y-63805492D01*
X73575300Y-63785647D01*
X73575301Y-63785647D01*
X73575302Y-63785646D01*
X73575304Y-63785646D01*
X73688342Y-63728050D01*
X73778050Y-63638342D01*
X73835646Y-63525304D01*
X73835646Y-63525302D01*
X73835647Y-63525301D01*
X73835647Y-63525300D01*
X73855492Y-63400003D01*
X73855492Y-63399996D01*
X73835647Y-63274699D01*
X73835647Y-63274698D01*
X73819206Y-63242431D01*
X73778050Y-63161658D01*
X73778046Y-63161654D01*
X73778045Y-63161652D01*
X73688347Y-63071954D01*
X73688344Y-63071952D01*
X73688342Y-63071950D01*
X73575304Y-63014354D01*
X73575303Y-63014353D01*
X73575300Y-63014352D01*
X73450003Y-62994508D01*
X73449997Y-62994508D01*
X73324699Y-63014352D01*
X73324698Y-63014352D01*
X73249337Y-63052751D01*
X73211658Y-63071950D01*
X73211657Y-63071951D01*
X73211652Y-63071954D01*
X73121954Y-63161652D01*
X73121951Y-63161657D01*
X73064352Y-63274698D01*
X73064352Y-63274699D01*
X73044508Y-63399996D01*
X68819531Y-63399996D01*
X68861574Y-63317482D01*
X68868350Y-63274699D01*
X68880181Y-63200003D01*
X68880181Y-63199996D01*
X68861575Y-63082522D01*
X68861575Y-63082521D01*
X68861574Y-63082519D01*
X68861574Y-63082518D01*
X68807573Y-62976535D01*
X68807571Y-62976533D01*
X68807568Y-62976529D01*
X68723470Y-62892431D01*
X68723466Y-62892428D01*
X68723465Y-62892427D01*
X68617482Y-62838426D01*
X68617480Y-62838425D01*
X68617477Y-62838424D01*
X68500003Y-62819819D01*
X68499997Y-62819819D01*
X68382522Y-62838424D01*
X68382521Y-62838424D01*
X68276533Y-62892428D01*
X68276529Y-62892431D01*
X68192431Y-62976529D01*
X68192428Y-62976533D01*
X68138424Y-63082521D01*
X68138424Y-63082522D01*
X68119819Y-63199996D01*
X66989655Y-63199996D01*
X67005492Y-63100003D01*
X67005492Y-63099996D01*
X66985647Y-62974699D01*
X66985646Y-62974697D01*
X66985646Y-62974696D01*
X66984425Y-62972299D01*
X66983819Y-62969074D01*
X66982631Y-62965417D01*
X66983103Y-62965263D01*
X66971529Y-62903629D01*
X66997806Y-62838889D01*
X67054913Y-62798633D01*
X67075504Y-62793533D01*
X67125304Y-62785646D01*
X67238342Y-62728050D01*
X67328050Y-62638342D01*
X67385646Y-62525304D01*
X67385646Y-62525302D01*
X67385647Y-62525301D01*
X67385647Y-62525300D01*
X67405492Y-62400003D01*
X67405492Y-62399996D01*
X67397573Y-62349996D01*
X70319819Y-62349996D01*
X70319819Y-62350003D01*
X70338424Y-62467477D01*
X70338424Y-62467478D01*
X70338425Y-62467481D01*
X70338426Y-62467482D01*
X70391022Y-62570708D01*
X70392428Y-62573466D01*
X70392431Y-62573470D01*
X70476529Y-62657568D01*
X70476533Y-62657571D01*
X70476535Y-62657573D01*
X70582518Y-62711574D01*
X70582520Y-62711574D01*
X70582522Y-62711575D01*
X70699997Y-62730181D01*
X70700000Y-62730181D01*
X70700003Y-62730181D01*
X70817477Y-62711575D01*
X70817478Y-62711575D01*
X70817479Y-62711574D01*
X70817482Y-62711574D01*
X70923465Y-62657573D01*
X71007573Y-62573465D01*
X71061574Y-62467482D01*
X71068350Y-62424699D01*
X71080181Y-62350003D01*
X71080181Y-62349996D01*
X71061575Y-62232522D01*
X71061575Y-62232521D01*
X71061574Y-62232519D01*
X71061574Y-62232518D01*
X71007573Y-62126535D01*
X71007571Y-62126533D01*
X71007568Y-62126529D01*
X70923470Y-62042431D01*
X70923466Y-62042428D01*
X70923465Y-62042427D01*
X70817482Y-61988426D01*
X70817480Y-61988425D01*
X70817477Y-61988424D01*
X70700003Y-61969819D01*
X70699997Y-61969819D01*
X70582522Y-61988424D01*
X70582521Y-61988424D01*
X70476533Y-62042428D01*
X70476529Y-62042431D01*
X70392431Y-62126529D01*
X70392428Y-62126533D01*
X70338424Y-62232521D01*
X70338424Y-62232522D01*
X70319819Y-62349996D01*
X67397573Y-62349996D01*
X67385647Y-62274699D01*
X67385647Y-62274698D01*
X67380761Y-62265109D01*
X67328050Y-62161658D01*
X67328046Y-62161654D01*
X67328045Y-62161652D01*
X67238347Y-62071954D01*
X67238344Y-62071952D01*
X67238342Y-62071950D01*
X67125304Y-62014354D01*
X67125303Y-62014353D01*
X67125300Y-62014352D01*
X67000003Y-61994508D01*
X66999996Y-61994508D01*
X66937456Y-62004413D01*
X66868163Y-61995458D01*
X66814711Y-61950461D01*
X66814567Y-61949996D01*
X67819819Y-61949996D01*
X67819819Y-61950003D01*
X67838424Y-62067477D01*
X67838424Y-62067478D01*
X67838425Y-62067481D01*
X67838426Y-62067482D01*
X67886562Y-62161955D01*
X67892428Y-62173466D01*
X67892431Y-62173470D01*
X67976529Y-62257568D01*
X67976533Y-62257571D01*
X67976535Y-62257573D01*
X68082518Y-62311574D01*
X68082520Y-62311574D01*
X68082522Y-62311575D01*
X68199997Y-62330181D01*
X68200000Y-62330181D01*
X68200003Y-62330181D01*
X68317477Y-62311575D01*
X68317478Y-62311575D01*
X68317479Y-62311574D01*
X68317482Y-62311574D01*
X68423465Y-62257573D01*
X68507573Y-62173465D01*
X68561574Y-62067482D01*
X68565542Y-62042428D01*
X68580181Y-61950003D01*
X68580181Y-61949996D01*
X68561575Y-61832522D01*
X68561575Y-61832521D01*
X68561574Y-61832519D01*
X68561574Y-61832518D01*
X68507573Y-61726535D01*
X68507571Y-61726533D01*
X68507568Y-61726529D01*
X68423470Y-61642431D01*
X68423466Y-61642428D01*
X68423465Y-61642427D01*
X68317482Y-61588426D01*
X68317480Y-61588425D01*
X68317477Y-61588424D01*
X68200003Y-61569819D01*
X68199997Y-61569819D01*
X68082522Y-61588424D01*
X68082521Y-61588424D01*
X67976533Y-61642428D01*
X67976529Y-61642431D01*
X67892431Y-61726529D01*
X67892428Y-61726533D01*
X67838424Y-61832521D01*
X67838424Y-61832522D01*
X67819819Y-61949996D01*
X66814567Y-61949996D01*
X66794072Y-61883710D01*
X66795585Y-61862547D01*
X66805492Y-61800000D01*
X66805491Y-61799996D01*
X66795586Y-61737458D01*
X66804540Y-61668164D01*
X66849536Y-61614712D01*
X66916288Y-61594072D01*
X66937453Y-61595585D01*
X66982935Y-61602789D01*
X66999999Y-61605492D01*
X67000000Y-61605492D01*
X67000003Y-61605492D01*
X67125300Y-61585647D01*
X67125301Y-61585647D01*
X67125302Y-61585646D01*
X67125304Y-61585646D01*
X67238342Y-61528050D01*
X67328050Y-61438342D01*
X67385646Y-61325304D01*
X67385646Y-61325302D01*
X67385647Y-61325301D01*
X67385647Y-61325300D01*
X67405492Y-61200003D01*
X67405492Y-61199996D01*
X67385647Y-61074699D01*
X67385647Y-61074698D01*
X67362747Y-61029755D01*
X67328050Y-60961658D01*
X67328046Y-60961654D01*
X67328045Y-60961652D01*
X67238347Y-60871954D01*
X67238344Y-60871952D01*
X67238342Y-60871950D01*
X67125304Y-60814354D01*
X67125303Y-60814353D01*
X67125300Y-60814352D01*
X67000003Y-60794508D01*
X66999996Y-60794508D01*
X66937456Y-60804413D01*
X66868163Y-60795458D01*
X66814711Y-60750461D01*
X66794072Y-60683710D01*
X66795586Y-60662543D01*
X66805492Y-60600000D01*
X66805492Y-60599996D01*
X66785647Y-60474699D01*
X66785647Y-60474698D01*
X66778498Y-60460668D01*
X66728050Y-60361658D01*
X66728046Y-60361654D01*
X66728045Y-60361652D01*
X66638347Y-60271954D01*
X66638344Y-60271952D01*
X66638342Y-60271950D01*
X66525304Y-60214354D01*
X66525303Y-60214353D01*
X66525300Y-60214352D01*
X66400003Y-60194508D01*
X66399996Y-60194508D01*
X66337456Y-60204413D01*
X66268163Y-60195458D01*
X66214711Y-60150461D01*
X66194072Y-60083710D01*
X66195586Y-60062543D01*
X66205492Y-60000000D01*
X66205492Y-59999996D01*
X66185647Y-59874699D01*
X66185647Y-59874698D01*
X66185646Y-59874696D01*
X66128050Y-59761658D01*
X66128046Y-59761654D01*
X66128045Y-59761652D01*
X66038347Y-59671954D01*
X66038344Y-59671952D01*
X66038342Y-59671950D01*
X65925304Y-59614354D01*
X65925303Y-59614353D01*
X65925300Y-59614352D01*
X65834655Y-59599996D01*
X73244508Y-59599996D01*
X73244508Y-59600003D01*
X73264352Y-59725300D01*
X73264352Y-59725301D01*
X73264354Y-59725304D01*
X73321950Y-59838342D01*
X73321952Y-59838344D01*
X73321954Y-59838347D01*
X73411652Y-59928045D01*
X73411654Y-59928046D01*
X73411658Y-59928050D01*
X73524696Y-59985646D01*
X73524697Y-59985646D01*
X73524699Y-59985647D01*
X73649997Y-60005492D01*
X73650000Y-60005492D01*
X73650003Y-60005492D01*
X73775300Y-59985647D01*
X73775301Y-59985647D01*
X73775302Y-59985646D01*
X73775304Y-59985646D01*
X73888342Y-59928050D01*
X73978050Y-59838342D01*
X74035646Y-59725304D01*
X74035646Y-59725302D01*
X74035647Y-59725301D01*
X74035647Y-59725300D01*
X74055492Y-59600003D01*
X74055492Y-59599996D01*
X74035647Y-59474699D01*
X74035647Y-59474698D01*
X74031968Y-59467477D01*
X73978050Y-59361658D01*
X73978046Y-59361654D01*
X73978045Y-59361652D01*
X73888347Y-59271954D01*
X73888344Y-59271952D01*
X73888342Y-59271950D01*
X73775304Y-59214354D01*
X73775303Y-59214353D01*
X73775300Y-59214352D01*
X73650003Y-59194508D01*
X73649997Y-59194508D01*
X73524699Y-59214352D01*
X73524698Y-59214352D01*
X73449337Y-59252751D01*
X73411658Y-59271950D01*
X73411657Y-59271951D01*
X73411652Y-59271954D01*
X73321954Y-59361652D01*
X73321951Y-59361657D01*
X73321950Y-59361658D01*
X73321510Y-59362522D01*
X73264352Y-59474698D01*
X73264352Y-59474699D01*
X73244508Y-59599996D01*
X65834655Y-59599996D01*
X65800003Y-59594508D01*
X65799997Y-59594508D01*
X65674699Y-59614352D01*
X65674698Y-59614352D01*
X65599337Y-59652751D01*
X65561658Y-59671950D01*
X65561657Y-59671951D01*
X65561652Y-59671954D01*
X65471954Y-59761652D01*
X65471951Y-59761657D01*
X65414352Y-59874698D01*
X65414352Y-59874699D01*
X65394508Y-59999996D01*
X65394508Y-60000003D01*
X65404413Y-60062543D01*
X65395458Y-60131836D01*
X65350462Y-60185288D01*
X65283710Y-60205927D01*
X65262543Y-60204413D01*
X65200003Y-60194508D01*
X65199996Y-60194508D01*
X65137456Y-60204413D01*
X65068163Y-60195458D01*
X65014711Y-60150461D01*
X64994072Y-60083710D01*
X64995586Y-60062543D01*
X65005492Y-60000000D01*
X65005492Y-59999996D01*
X64985647Y-59874699D01*
X64985647Y-59874698D01*
X64985646Y-59874696D01*
X64928050Y-59761658D01*
X64928046Y-59761654D01*
X64928045Y-59761652D01*
X64838347Y-59671954D01*
X64838344Y-59671952D01*
X64838342Y-59671950D01*
X64725304Y-59614354D01*
X64725303Y-59614353D01*
X64725300Y-59614352D01*
X64600003Y-59594508D01*
X64599997Y-59594508D01*
X64474699Y-59614352D01*
X64474698Y-59614352D01*
X64399337Y-59652751D01*
X64361658Y-59671950D01*
X64361657Y-59671951D01*
X64361652Y-59671954D01*
X64271954Y-59761652D01*
X64271951Y-59761657D01*
X64214352Y-59874698D01*
X64214352Y-59874699D01*
X64194508Y-59999996D01*
X64194508Y-60000003D01*
X64204413Y-60062543D01*
X64195458Y-60131836D01*
X64150462Y-60185288D01*
X64083710Y-60205927D01*
X64062543Y-60204413D01*
X64000003Y-60194508D01*
X63999996Y-60194508D01*
X63937456Y-60204413D01*
X63868163Y-60195458D01*
X63814711Y-60150461D01*
X63794072Y-60083710D01*
X63795586Y-60062543D01*
X63805492Y-60000000D01*
X63805492Y-59999996D01*
X63785647Y-59874699D01*
X63785647Y-59874698D01*
X63785646Y-59874696D01*
X63728050Y-59761658D01*
X63728046Y-59761654D01*
X63728045Y-59761652D01*
X63638347Y-59671954D01*
X63638344Y-59671952D01*
X63638342Y-59671950D01*
X63525304Y-59614354D01*
X63525303Y-59614353D01*
X63525300Y-59614352D01*
X63400003Y-59594508D01*
X63399997Y-59594508D01*
X63274699Y-59614352D01*
X63274698Y-59614352D01*
X63199337Y-59652751D01*
X63161658Y-59671950D01*
X63161657Y-59671951D01*
X63161652Y-59671954D01*
X63071954Y-59761652D01*
X63071951Y-59761657D01*
X63014352Y-59874698D01*
X63014352Y-59874699D01*
X62994508Y-59999996D01*
X62994508Y-60000003D01*
X63004413Y-60062543D01*
X62995458Y-60131836D01*
X62950462Y-60185288D01*
X62883710Y-60205927D01*
X62862543Y-60204413D01*
X62800003Y-60194508D01*
X62799997Y-60194508D01*
X62674699Y-60214352D01*
X62674698Y-60214352D01*
X62627452Y-60238426D01*
X62561658Y-60271950D01*
X62561657Y-60271951D01*
X62561652Y-60271954D01*
X62471954Y-60361652D01*
X62471951Y-60361657D01*
X62471950Y-60361658D01*
X62452751Y-60399337D01*
X62414352Y-60474698D01*
X62414352Y-60474699D01*
X62394508Y-60599996D01*
X62394508Y-60600003D01*
X62404413Y-60662543D01*
X62395458Y-60731836D01*
X62350462Y-60785288D01*
X62283710Y-60805927D01*
X62262543Y-60804413D01*
X62200003Y-60794508D01*
X62199997Y-60794508D01*
X62074699Y-60814352D01*
X62074698Y-60814352D01*
X62008242Y-60848214D01*
X61961658Y-60871950D01*
X61961657Y-60871951D01*
X61961652Y-60871954D01*
X61871954Y-60961652D01*
X61871951Y-60961657D01*
X61871950Y-60961658D01*
X61852751Y-60999337D01*
X61814352Y-61074698D01*
X61814352Y-61074699D01*
X61794508Y-61199996D01*
X61794508Y-61200003D01*
X61804413Y-61262543D01*
X61795458Y-61331836D01*
X61750462Y-61385288D01*
X61683710Y-61405927D01*
X61662543Y-61404413D01*
X61600003Y-61394508D01*
X61599997Y-61394508D01*
X61474699Y-61414352D01*
X61474698Y-61414352D01*
X61427607Y-61438347D01*
X61361658Y-61471950D01*
X61361657Y-61471951D01*
X61361652Y-61471954D01*
X61271954Y-61561652D01*
X61271951Y-61561657D01*
X61271950Y-61561658D01*
X61259727Y-61585647D01*
X61214352Y-61674698D01*
X61214352Y-61674699D01*
X61194508Y-61799996D01*
X56964343Y-61799996D01*
X56961575Y-61782522D01*
X56961575Y-61782521D01*
X56961574Y-61782519D01*
X56961574Y-61782518D01*
X56913675Y-61688512D01*
X56900780Y-61619844D01*
X56927057Y-61555104D01*
X56936471Y-61544546D01*
X57007553Y-61473465D01*
X57061554Y-61367482D01*
X57067200Y-61331836D01*
X57080161Y-61250003D01*
X57080161Y-61249996D01*
X57061555Y-61132522D01*
X57061555Y-61132521D01*
X57061554Y-61132519D01*
X57061554Y-61132518D01*
X57007553Y-61026535D01*
X57007551Y-61026533D01*
X57007548Y-61026529D01*
X56981116Y-61000097D01*
X56947631Y-60938774D01*
X56952615Y-60869082D01*
X56994487Y-60813149D01*
X57059951Y-60788732D01*
X57125088Y-60801930D01*
X57222520Y-60851574D01*
X57222522Y-60851574D01*
X57222524Y-60851575D01*
X57339999Y-60870181D01*
X57340002Y-60870181D01*
X57340005Y-60870181D01*
X57457479Y-60851575D01*
X57457480Y-60851575D01*
X57457481Y-60851574D01*
X57457484Y-60851574D01*
X57563467Y-60797573D01*
X57647575Y-60713465D01*
X57701576Y-60607482D01*
X57702762Y-60599996D01*
X60519819Y-60599996D01*
X60519819Y-60600003D01*
X60538424Y-60717477D01*
X60538424Y-60717478D01*
X60538425Y-60717481D01*
X60538426Y-60717482D01*
X60579234Y-60797573D01*
X60592428Y-60823466D01*
X60592431Y-60823470D01*
X60676529Y-60907568D01*
X60676533Y-60907571D01*
X60676535Y-60907573D01*
X60782518Y-60961574D01*
X60782520Y-60961574D01*
X60782522Y-60961575D01*
X60899997Y-60980181D01*
X60900000Y-60980181D01*
X60900003Y-60980181D01*
X61017477Y-60961575D01*
X61017478Y-60961575D01*
X61017479Y-60961574D01*
X61017482Y-60961574D01*
X61123465Y-60907573D01*
X61207573Y-60823465D01*
X61261574Y-60717482D01*
X61261575Y-60717477D01*
X61280181Y-60600003D01*
X61280181Y-60599996D01*
X61261575Y-60482522D01*
X61261575Y-60482521D01*
X61261574Y-60482519D01*
X61261574Y-60482518D01*
X61207573Y-60376535D01*
X61207571Y-60376533D01*
X61207568Y-60376529D01*
X61123470Y-60292431D01*
X61123466Y-60292428D01*
X61123465Y-60292427D01*
X61017482Y-60238426D01*
X61017480Y-60238425D01*
X61017477Y-60238424D01*
X60900003Y-60219819D01*
X60899997Y-60219819D01*
X60782522Y-60238424D01*
X60782521Y-60238424D01*
X60676533Y-60292428D01*
X60676529Y-60292431D01*
X60592431Y-60376529D01*
X60592428Y-60376533D01*
X60538424Y-60482521D01*
X60538424Y-60482522D01*
X60519819Y-60599996D01*
X57702762Y-60599996D01*
X57706964Y-60573464D01*
X57720183Y-60490003D01*
X57720183Y-60489996D01*
X57701577Y-60372522D01*
X57701577Y-60372521D01*
X57701576Y-60372519D01*
X57701576Y-60372518D01*
X57647575Y-60266535D01*
X57647573Y-60266533D01*
X57647570Y-60266529D01*
X57563472Y-60182431D01*
X57563468Y-60182428D01*
X57563467Y-60182427D01*
X57457484Y-60128426D01*
X57457482Y-60128425D01*
X57457479Y-60128424D01*
X57340005Y-60109819D01*
X57339999Y-60109819D01*
X57222524Y-60128424D01*
X57222523Y-60128424D01*
X57116535Y-60182428D01*
X57116531Y-60182431D01*
X57032433Y-60266529D01*
X57026696Y-60274427D01*
X57025389Y-60273478D01*
X56985013Y-60316223D01*
X56917190Y-60333013D01*
X56866217Y-60319612D01*
X56755451Y-60263174D01*
X56755447Y-60263173D01*
X56637973Y-60244568D01*
X56637967Y-60244568D01*
X56520492Y-60263173D01*
X56520491Y-60263173D01*
X56414503Y-60317177D01*
X56414499Y-60317180D01*
X56330401Y-60401278D01*
X56330398Y-60401282D01*
X56276394Y-60507270D01*
X56276394Y-60507271D01*
X56257789Y-60624745D01*
X56257789Y-60624752D01*
X56276394Y-60742226D01*
X56276394Y-60742227D01*
X56276395Y-60742230D01*
X56276396Y-60742231D01*
X56317789Y-60823470D01*
X56330398Y-60848215D01*
X56330401Y-60848219D01*
X56367962Y-60885780D01*
X56401447Y-60947103D01*
X56396463Y-61016795D01*
X56390766Y-61029755D01*
X56338405Y-61132518D01*
X56338404Y-61132522D01*
X56319799Y-61249996D01*
X56319799Y-61250003D01*
X56338404Y-61367477D01*
X56338405Y-61367481D01*
X56386303Y-61461486D01*
X56399199Y-61530155D01*
X56372922Y-61594895D01*
X56363500Y-61605461D01*
X56292428Y-61676533D01*
X56238424Y-61782521D01*
X56238424Y-61782522D01*
X56219819Y-61899996D01*
X56219819Y-61900003D01*
X56238424Y-62017477D01*
X56238425Y-62017481D01*
X56293067Y-62124722D01*
X56305963Y-62193391D01*
X56279686Y-62258131D01*
X56273463Y-62265109D01*
X56272428Y-62266533D01*
X56218424Y-62372521D01*
X56215409Y-62381803D01*
X56213791Y-62381277D01*
X56188728Y-62434133D01*
X56129412Y-62471057D01*
X56076799Y-62474063D01*
X56050000Y-62469819D01*
X56049997Y-62469819D01*
X55932522Y-62488424D01*
X55932521Y-62488424D01*
X55826533Y-62542428D01*
X55826529Y-62542431D01*
X55742431Y-62626529D01*
X55742428Y-62626533D01*
X55688424Y-62732521D01*
X55688424Y-62732522D01*
X55669819Y-62849996D01*
X51516396Y-62849996D01*
X51528050Y-62838342D01*
X51585646Y-62725304D01*
X51585646Y-62725302D01*
X51585647Y-62725301D01*
X51585647Y-62725300D01*
X51605492Y-62600003D01*
X51605492Y-62599996D01*
X51585647Y-62474699D01*
X51585647Y-62474698D01*
X51581968Y-62467477D01*
X51528050Y-62361658D01*
X51528046Y-62361654D01*
X51528045Y-62361652D01*
X51438347Y-62271954D01*
X51438344Y-62271952D01*
X51438342Y-62271950D01*
X51325304Y-62214354D01*
X51325303Y-62214353D01*
X51325300Y-62214352D01*
X51200003Y-62194508D01*
X51199997Y-62194508D01*
X51074699Y-62214352D01*
X51074698Y-62214352D01*
X51005646Y-62249537D01*
X50961658Y-62271950D01*
X50961657Y-62271951D01*
X50961652Y-62271954D01*
X50871954Y-62361652D01*
X50871951Y-62361657D01*
X50871950Y-62361658D01*
X50861954Y-62381277D01*
X50814352Y-62474698D01*
X50814352Y-62474699D01*
X50794508Y-62599996D01*
X50047574Y-62599996D01*
X50055492Y-62550003D01*
X50055492Y-62549996D01*
X50035647Y-62424699D01*
X50035647Y-62424698D01*
X50023064Y-62400003D01*
X49978050Y-62311658D01*
X49978046Y-62311654D01*
X49978045Y-62311652D01*
X49888347Y-62221954D01*
X49888344Y-62221952D01*
X49888342Y-62221950D01*
X49775304Y-62164354D01*
X49775303Y-62164353D01*
X49775300Y-62164352D01*
X49650003Y-62144508D01*
X49649997Y-62144508D01*
X49524699Y-62164352D01*
X49524698Y-62164352D01*
X49488879Y-62182603D01*
X49482907Y-62185647D01*
X49480795Y-62186723D01*
X49412126Y-62199619D01*
X49347385Y-62173343D01*
X49307128Y-62116236D01*
X49300500Y-62076238D01*
X49300500Y-60680901D01*
X49320185Y-60613862D01*
X49372989Y-60568107D01*
X49442147Y-60558163D01*
X49505703Y-60587188D01*
X49512181Y-60593220D01*
X49576529Y-60657568D01*
X49576533Y-60657571D01*
X49576535Y-60657573D01*
X49682518Y-60711574D01*
X49682520Y-60711574D01*
X49682522Y-60711575D01*
X49799997Y-60730181D01*
X49800000Y-60730181D01*
X49800003Y-60730181D01*
X49917477Y-60711575D01*
X49917478Y-60711575D01*
X49917479Y-60711574D01*
X49917482Y-60711574D01*
X50023465Y-60657573D01*
X50107573Y-60573465D01*
X50134815Y-60519998D01*
X50182788Y-60469204D01*
X50250609Y-60452408D01*
X50264697Y-60453821D01*
X50307926Y-60460668D01*
X50307928Y-60460668D01*
X50307931Y-60460668D01*
X50425405Y-60442062D01*
X50425406Y-60442062D01*
X50425407Y-60442061D01*
X50425410Y-60442061D01*
X50531393Y-60388060D01*
X50615501Y-60303952D01*
X50669502Y-60197969D01*
X50670050Y-60194508D01*
X50688109Y-60080490D01*
X50688109Y-60080483D01*
X50669503Y-59963009D01*
X50669503Y-59963008D01*
X50669502Y-59963006D01*
X50669502Y-59963005D01*
X50615501Y-59857022D01*
X50615499Y-59857020D01*
X50609762Y-59849123D01*
X50612628Y-59847040D01*
X50587693Y-59801375D01*
X50592677Y-59731683D01*
X50603154Y-59712166D01*
X50603142Y-59712160D01*
X50607571Y-59703466D01*
X50607573Y-59703465D01*
X50661574Y-59597482D01*
X50680181Y-59480000D01*
X50680181Y-59479996D01*
X50661575Y-59362522D01*
X50661575Y-59362521D01*
X50661574Y-59362519D01*
X50661574Y-59362518D01*
X50655194Y-59349996D01*
X57469819Y-59349996D01*
X57469819Y-59350003D01*
X57488424Y-59467477D01*
X57488424Y-59467478D01*
X57542428Y-59573466D01*
X57542431Y-59573470D01*
X57626529Y-59657568D01*
X57626533Y-59657571D01*
X57626535Y-59657573D01*
X57732518Y-59711574D01*
X57732520Y-59711574D01*
X57732522Y-59711575D01*
X57849997Y-59730181D01*
X57850000Y-59730181D01*
X57850003Y-59730181D01*
X57967477Y-59711575D01*
X57967478Y-59711575D01*
X57967479Y-59711574D01*
X57967482Y-59711574D01*
X58073465Y-59657573D01*
X58157573Y-59573465D01*
X58211574Y-59467482D01*
X58228198Y-59362521D01*
X58230181Y-59350003D01*
X58230181Y-59349996D01*
X58211575Y-59232522D01*
X58211575Y-59232521D01*
X58211574Y-59232519D01*
X58211574Y-59232518D01*
X58157573Y-59126535D01*
X58157571Y-59126533D01*
X58157568Y-59126529D01*
X58073470Y-59042431D01*
X58073466Y-59042428D01*
X58073465Y-59042427D01*
X57967482Y-58988426D01*
X57967480Y-58988425D01*
X57967477Y-58988424D01*
X57850003Y-58969819D01*
X57849997Y-58969819D01*
X57732522Y-58988424D01*
X57732521Y-58988424D01*
X57626533Y-59042428D01*
X57626529Y-59042431D01*
X57542431Y-59126529D01*
X57542428Y-59126533D01*
X57488424Y-59232521D01*
X57488424Y-59232522D01*
X57469819Y-59349996D01*
X50655194Y-59349996D01*
X50607573Y-59256535D01*
X50607571Y-59256533D01*
X50607568Y-59256529D01*
X50523470Y-59172431D01*
X50523466Y-59172428D01*
X50523465Y-59172427D01*
X50417482Y-59118426D01*
X50417480Y-59118425D01*
X50417477Y-59118424D01*
X50300003Y-59099819D01*
X50299997Y-59099819D01*
X50182522Y-59118424D01*
X50182521Y-59118424D01*
X50076533Y-59172428D01*
X50076529Y-59172431D01*
X49992431Y-59256529D01*
X49992428Y-59256533D01*
X49938424Y-59362521D01*
X49938424Y-59362522D01*
X49919819Y-59479996D01*
X49919819Y-59480003D01*
X49938424Y-59597477D01*
X49938424Y-59597478D01*
X49938425Y-59597481D01*
X49938426Y-59597482D01*
X49976371Y-59671954D01*
X49992428Y-59703466D01*
X49998166Y-59711364D01*
X49995299Y-59713446D01*
X50020234Y-59759111D01*
X50015250Y-59828803D01*
X50004773Y-59848322D01*
X50004785Y-59848328D01*
X49973112Y-59910488D01*
X49925137Y-59961284D01*
X49857316Y-59978078D01*
X49843232Y-59976666D01*
X49821637Y-59973245D01*
X49800000Y-59969819D01*
X49799999Y-59969819D01*
X49799997Y-59969819D01*
X49682522Y-59988424D01*
X49682521Y-59988424D01*
X49576533Y-60042428D01*
X49576529Y-60042431D01*
X49512181Y-60106780D01*
X49450858Y-60140265D01*
X49381166Y-60135281D01*
X49325233Y-60093409D01*
X49300816Y-60027945D01*
X49300500Y-60019099D01*
X49300500Y-57599996D01*
X49619819Y-57599996D01*
X49619819Y-57600003D01*
X49638424Y-57717477D01*
X49638424Y-57717478D01*
X49638425Y-57717481D01*
X49638426Y-57717482D01*
X49686561Y-57811953D01*
X49692428Y-57823466D01*
X49692431Y-57823470D01*
X49776529Y-57907568D01*
X49776533Y-57907571D01*
X49776535Y-57907573D01*
X49882518Y-57961574D01*
X49882520Y-57961574D01*
X49891214Y-57966004D01*
X49890390Y-57967619D01*
X49938345Y-58000406D01*
X49965547Y-58064764D01*
X49964830Y-58098301D01*
X49950399Y-58189421D01*
X49950399Y-58189423D01*
X49969004Y-58306897D01*
X49969004Y-58306898D01*
X50023008Y-58412886D01*
X50023011Y-58412890D01*
X50107109Y-58496988D01*
X50107113Y-58496991D01*
X50107115Y-58496993D01*
X50213098Y-58550994D01*
X50213100Y-58550994D01*
X50213102Y-58550995D01*
X50330577Y-58569601D01*
X50330580Y-58569601D01*
X50330583Y-58569601D01*
X50448057Y-58550995D01*
X50448058Y-58550995D01*
X50448059Y-58550994D01*
X50448062Y-58550994D01*
X50554045Y-58496993D01*
X50638153Y-58412885D01*
X50692154Y-58306902D01*
X50692155Y-58306897D01*
X50710761Y-58189423D01*
X50710761Y-58189416D01*
X50690628Y-58062299D01*
X50692902Y-58061938D01*
X50691286Y-58005595D01*
X50727359Y-57945757D01*
X50790056Y-57914922D01*
X50830611Y-57914630D01*
X50852615Y-57918115D01*
X50852616Y-57918114D01*
X50852617Y-57918115D01*
X50852618Y-57918115D01*
X50970092Y-57899509D01*
X50970093Y-57899509D01*
X50970094Y-57899508D01*
X50970097Y-57899508D01*
X51067270Y-57849996D01*
X55644508Y-57849996D01*
X55644508Y-57850003D01*
X55664352Y-57975300D01*
X55664352Y-57975301D01*
X55666839Y-57980181D01*
X55721950Y-58088342D01*
X55721952Y-58088344D01*
X55721954Y-58088347D01*
X55811652Y-58178045D01*
X55811654Y-58178046D01*
X55811658Y-58178050D01*
X55924696Y-58235646D01*
X55924697Y-58235646D01*
X55924699Y-58235647D01*
X56049997Y-58255492D01*
X56050000Y-58255492D01*
X56050003Y-58255492D01*
X56175300Y-58235647D01*
X56175301Y-58235647D01*
X56175302Y-58235646D01*
X56175304Y-58235646D01*
X56288342Y-58178050D01*
X56378050Y-58088342D01*
X56435646Y-57975304D01*
X56435646Y-57975302D01*
X56435647Y-57975301D01*
X56435647Y-57975300D01*
X56455492Y-57850003D01*
X56455492Y-57849996D01*
X56435647Y-57724699D01*
X56435647Y-57724698D01*
X56431968Y-57717477D01*
X56397584Y-57649996D01*
X59669819Y-57649996D01*
X59669819Y-57650003D01*
X59688424Y-57767477D01*
X59688424Y-57767478D01*
X59688425Y-57767481D01*
X59688426Y-57767482D01*
X59728179Y-57845502D01*
X59742428Y-57873466D01*
X59742431Y-57873470D01*
X59826529Y-57957568D01*
X59826533Y-57957571D01*
X59826535Y-57957573D01*
X59932518Y-58011574D01*
X59932520Y-58011574D01*
X59932522Y-58011575D01*
X60049997Y-58030181D01*
X60050000Y-58030181D01*
X60050003Y-58030181D01*
X60167477Y-58011575D01*
X60167478Y-58011575D01*
X60167479Y-58011574D01*
X60167482Y-58011574D01*
X60273465Y-57957573D01*
X60357573Y-57873465D01*
X60411574Y-57767482D01*
X60412537Y-57761400D01*
X60430181Y-57650003D01*
X60430181Y-57649996D01*
X60411575Y-57532522D01*
X60411575Y-57532521D01*
X60411574Y-57532519D01*
X60411574Y-57532518D01*
X60357573Y-57426535D01*
X60357571Y-57426533D01*
X60357568Y-57426529D01*
X60273470Y-57342431D01*
X60273466Y-57342428D01*
X60273465Y-57342427D01*
X60167482Y-57288426D01*
X60167480Y-57288425D01*
X60167477Y-57288424D01*
X60050003Y-57269819D01*
X60049997Y-57269819D01*
X59932522Y-57288424D01*
X59932521Y-57288424D01*
X59826533Y-57342428D01*
X59826529Y-57342431D01*
X59742431Y-57426529D01*
X59742428Y-57426533D01*
X59688424Y-57532521D01*
X59688424Y-57532522D01*
X59669819Y-57649996D01*
X56397584Y-57649996D01*
X56378050Y-57611658D01*
X56378046Y-57611654D01*
X56378045Y-57611652D01*
X56288347Y-57521954D01*
X56288344Y-57521952D01*
X56288342Y-57521950D01*
X56175304Y-57464354D01*
X56175303Y-57464353D01*
X56175300Y-57464352D01*
X56050003Y-57444508D01*
X56049997Y-57444508D01*
X55924699Y-57464352D01*
X55924698Y-57464352D01*
X55849337Y-57502751D01*
X55811658Y-57521950D01*
X55811657Y-57521951D01*
X55811652Y-57521954D01*
X55721954Y-57611652D01*
X55721951Y-57611657D01*
X55664352Y-57724698D01*
X55664352Y-57724699D01*
X55644508Y-57849996D01*
X51067270Y-57849996D01*
X51076080Y-57845507D01*
X51160188Y-57761399D01*
X51214189Y-57655416D01*
X51214190Y-57655411D01*
X51232796Y-57537937D01*
X51232796Y-57537930D01*
X51214190Y-57420456D01*
X51214190Y-57420455D01*
X51214189Y-57420453D01*
X51214189Y-57420452D01*
X51160188Y-57314469D01*
X51160186Y-57314467D01*
X51160183Y-57314463D01*
X51076085Y-57230365D01*
X51076081Y-57230362D01*
X51076080Y-57230361D01*
X50970097Y-57176360D01*
X50970095Y-57176359D01*
X50970092Y-57176358D01*
X50852618Y-57157753D01*
X50852612Y-57157753D01*
X50735137Y-57176358D01*
X50735136Y-57176358D01*
X50629148Y-57230362D01*
X50629144Y-57230365D01*
X50545046Y-57314463D01*
X50545041Y-57314471D01*
X50520429Y-57362773D01*
X50472454Y-57413569D01*
X50404633Y-57430363D01*
X50338498Y-57407825D01*
X50309624Y-57379358D01*
X50307570Y-57376531D01*
X50223470Y-57292431D01*
X50223466Y-57292428D01*
X50223465Y-57292427D01*
X50117482Y-57238426D01*
X50117480Y-57238425D01*
X50117477Y-57238424D01*
X50000003Y-57219819D01*
X49999997Y-57219819D01*
X49882522Y-57238424D01*
X49882521Y-57238424D01*
X49776533Y-57292428D01*
X49776529Y-57292431D01*
X49692431Y-57376529D01*
X49692428Y-57376533D01*
X49638424Y-57482521D01*
X49638424Y-57482522D01*
X49619819Y-57599996D01*
X49300500Y-57599996D01*
X49300500Y-56799996D01*
X56369819Y-56799996D01*
X56369819Y-56800003D01*
X56388424Y-56917477D01*
X56388424Y-56917478D01*
X56442428Y-57023466D01*
X56442431Y-57023470D01*
X56526529Y-57107568D01*
X56526533Y-57107571D01*
X56526535Y-57107573D01*
X56632518Y-57161574D01*
X56632520Y-57161574D01*
X56632522Y-57161575D01*
X56749997Y-57180181D01*
X56750000Y-57180181D01*
X56750003Y-57180181D01*
X56867477Y-57161575D01*
X56867478Y-57161575D01*
X56867479Y-57161574D01*
X56867482Y-57161574D01*
X56973465Y-57107573D01*
X57057573Y-57023465D01*
X57111574Y-56917482D01*
X57130181Y-56800000D01*
X57130181Y-56799996D01*
X57111575Y-56682522D01*
X57111575Y-56682521D01*
X57111574Y-56682519D01*
X57111574Y-56682518D01*
X57057573Y-56576535D01*
X57057571Y-56576533D01*
X57057568Y-56576529D01*
X56973470Y-56492431D01*
X56973466Y-56492428D01*
X56973465Y-56492427D01*
X56867482Y-56438426D01*
X56867480Y-56438425D01*
X56867477Y-56438424D01*
X56750003Y-56419819D01*
X56749997Y-56419819D01*
X56632522Y-56438424D01*
X56632521Y-56438424D01*
X56526533Y-56492428D01*
X56526529Y-56492431D01*
X56442431Y-56576529D01*
X56442428Y-56576533D01*
X56388424Y-56682521D01*
X56388424Y-56682522D01*
X56369819Y-56799996D01*
X49300500Y-56799996D01*
X49300500Y-56374015D01*
X51206062Y-56374015D01*
X51206062Y-56374022D01*
X51224667Y-56491496D01*
X51224667Y-56491497D01*
X51224668Y-56491500D01*
X51224669Y-56491501D01*
X51268765Y-56578045D01*
X51278671Y-56597485D01*
X51278674Y-56597489D01*
X51362772Y-56681587D01*
X51362776Y-56681590D01*
X51362778Y-56681592D01*
X51468761Y-56735593D01*
X51468763Y-56735593D01*
X51468765Y-56735594D01*
X51586240Y-56754200D01*
X51586243Y-56754200D01*
X51586246Y-56754200D01*
X51703720Y-56735594D01*
X51703721Y-56735594D01*
X51703722Y-56735593D01*
X51703725Y-56735593D01*
X51809708Y-56681592D01*
X51893816Y-56597484D01*
X51947817Y-56491501D01*
X51948317Y-56488347D01*
X51966424Y-56374022D01*
X51966424Y-56374015D01*
X51947818Y-56256541D01*
X51947818Y-56256540D01*
X51947817Y-56256538D01*
X51947817Y-56256537D01*
X51944484Y-56249996D01*
X71694508Y-56249996D01*
X71694508Y-56250003D01*
X71714352Y-56375300D01*
X71714352Y-56375301D01*
X71714354Y-56375304D01*
X71771950Y-56488342D01*
X71771952Y-56488344D01*
X71771954Y-56488347D01*
X71861652Y-56578045D01*
X71861654Y-56578046D01*
X71861658Y-56578050D01*
X71974696Y-56635646D01*
X71974697Y-56635646D01*
X71974699Y-56635647D01*
X72099997Y-56655492D01*
X72100000Y-56655492D01*
X72100003Y-56655492D01*
X72225300Y-56635647D01*
X72225301Y-56635647D01*
X72225302Y-56635646D01*
X72225304Y-56635646D01*
X72338342Y-56578050D01*
X72428050Y-56488342D01*
X72485646Y-56375304D01*
X72485646Y-56375302D01*
X72485647Y-56375301D01*
X72485647Y-56375300D01*
X72505492Y-56250003D01*
X72505492Y-56249996D01*
X72485647Y-56124699D01*
X72485647Y-56124698D01*
X72476919Y-56107568D01*
X72428050Y-56011658D01*
X72428046Y-56011654D01*
X72428045Y-56011652D01*
X72338347Y-55921954D01*
X72338344Y-55921952D01*
X72338342Y-55921950D01*
X72225304Y-55864354D01*
X72225303Y-55864353D01*
X72225300Y-55864352D01*
X72100003Y-55844508D01*
X72099997Y-55844508D01*
X71974699Y-55864352D01*
X71974698Y-55864352D01*
X71903673Y-55900542D01*
X71861658Y-55921950D01*
X71861657Y-55921951D01*
X71861652Y-55921954D01*
X71771954Y-56011652D01*
X71771951Y-56011657D01*
X71771950Y-56011658D01*
X71762512Y-56030181D01*
X71714352Y-56124698D01*
X71714352Y-56124699D01*
X71694508Y-56249996D01*
X51944484Y-56249996D01*
X51915006Y-56192142D01*
X51902111Y-56123477D01*
X51928387Y-56058737D01*
X51985493Y-56018479D01*
X52006089Y-56013378D01*
X52017482Y-56011574D01*
X52123465Y-55957573D01*
X52207573Y-55873465D01*
X52245007Y-55799996D01*
X63919819Y-55799996D01*
X63919819Y-55800003D01*
X63938424Y-55917477D01*
X63938424Y-55917478D01*
X63938425Y-55917481D01*
X63938426Y-55917482D01*
X63986368Y-56011574D01*
X63992428Y-56023466D01*
X63992431Y-56023470D01*
X64076529Y-56107568D01*
X64076533Y-56107571D01*
X64076535Y-56107573D01*
X64182518Y-56161574D01*
X64182520Y-56161574D01*
X64182522Y-56161575D01*
X64299997Y-56180181D01*
X64300000Y-56180181D01*
X64300003Y-56180181D01*
X64417477Y-56161575D01*
X64417478Y-56161575D01*
X64417479Y-56161574D01*
X64417482Y-56161574D01*
X64523465Y-56107573D01*
X64607573Y-56023465D01*
X64661574Y-55917482D01*
X64668545Y-55873470D01*
X64680181Y-55800003D01*
X64680181Y-55799996D01*
X64661575Y-55682522D01*
X64661575Y-55682521D01*
X64661574Y-55682519D01*
X64661574Y-55682518D01*
X64607573Y-55576535D01*
X64607571Y-55576533D01*
X64607568Y-55576529D01*
X64523470Y-55492431D01*
X64523466Y-55492428D01*
X64523465Y-55492427D01*
X64417482Y-55438426D01*
X64417480Y-55438425D01*
X64417477Y-55438424D01*
X64300003Y-55419819D01*
X64299997Y-55419819D01*
X64182522Y-55438424D01*
X64182521Y-55438424D01*
X64076533Y-55492428D01*
X64076529Y-55492431D01*
X63992431Y-55576529D01*
X63992428Y-55576533D01*
X63938424Y-55682521D01*
X63938424Y-55682522D01*
X63919819Y-55799996D01*
X52245007Y-55799996D01*
X52261574Y-55767482D01*
X52261575Y-55767477D01*
X52280181Y-55650003D01*
X52280181Y-55649996D01*
X52261575Y-55532522D01*
X52261575Y-55532521D01*
X52261574Y-55532519D01*
X52261574Y-55532518D01*
X52207573Y-55426535D01*
X52207571Y-55426533D01*
X52207568Y-55426529D01*
X52123470Y-55342431D01*
X52123466Y-55342428D01*
X52123465Y-55342427D01*
X52017482Y-55288426D01*
X52017480Y-55288425D01*
X52017477Y-55288424D01*
X51900003Y-55269819D01*
X51899997Y-55269819D01*
X51782522Y-55288424D01*
X51782521Y-55288424D01*
X51676533Y-55342428D01*
X51676529Y-55342431D01*
X51592431Y-55426529D01*
X51592428Y-55426533D01*
X51538424Y-55532521D01*
X51538424Y-55532522D01*
X51519819Y-55649996D01*
X51519819Y-55650003D01*
X51538424Y-55767477D01*
X51538424Y-55767478D01*
X51538425Y-55767481D01*
X51538426Y-55767482D01*
X51571235Y-55831874D01*
X51584131Y-55900542D01*
X51557854Y-55965282D01*
X51500748Y-56005539D01*
X51480153Y-56010639D01*
X51468768Y-56012442D01*
X51468764Y-56012443D01*
X51362776Y-56066447D01*
X51362772Y-56066450D01*
X51278674Y-56150548D01*
X51278671Y-56150552D01*
X51224667Y-56256540D01*
X51224667Y-56256541D01*
X51206062Y-56374015D01*
X49300500Y-56374015D01*
X49300500Y-55002424D01*
X49300596Y-54997556D01*
X49317878Y-54557701D01*
X49318641Y-54547995D01*
X49326942Y-54477861D01*
X49370100Y-54113215D01*
X49371619Y-54103627D01*
X49457032Y-53674230D01*
X49459294Y-53664810D01*
X49578132Y-53243438D01*
X49581127Y-53234219D01*
X49667536Y-52999998D01*
X51044518Y-52999998D01*
X51044518Y-53000001D01*
X51064422Y-53278299D01*
X51123727Y-53550916D01*
X51123729Y-53550923D01*
X51133282Y-53576535D01*
X51221231Y-53812338D01*
X51221233Y-53812342D01*
X51354940Y-54057207D01*
X51354945Y-54057215D01*
X51522138Y-54280560D01*
X51522154Y-54280578D01*
X51719421Y-54477845D01*
X51719439Y-54477861D01*
X51942784Y-54645054D01*
X51942792Y-54645059D01*
X52187657Y-54778766D01*
X52187661Y-54778768D01*
X52187663Y-54778769D01*
X52449077Y-54876271D01*
X52585391Y-54905924D01*
X52721700Y-54935577D01*
X52721702Y-54935577D01*
X52721706Y-54935578D01*
X52969014Y-54953265D01*
X52999999Y-54955482D01*
X53000000Y-54955482D01*
X53000001Y-54955482D01*
X53027881Y-54953487D01*
X53278294Y-54935578D01*
X53550923Y-54876271D01*
X53812337Y-54778769D01*
X53956598Y-54699996D01*
X67119819Y-54699996D01*
X67119819Y-54700003D01*
X67138424Y-54817477D01*
X67138424Y-54817478D01*
X67138425Y-54817481D01*
X67138426Y-54817482D01*
X67168380Y-54876271D01*
X67192428Y-54923466D01*
X67192431Y-54923470D01*
X67276529Y-55007568D01*
X67276533Y-55007571D01*
X67276535Y-55007573D01*
X67382518Y-55061574D01*
X67382520Y-55061574D01*
X67382522Y-55061575D01*
X67499997Y-55080181D01*
X67500000Y-55080181D01*
X67500003Y-55080181D01*
X67617477Y-55061575D01*
X67617478Y-55061575D01*
X67617479Y-55061574D01*
X67617482Y-55061574D01*
X67723465Y-55007573D01*
X67807573Y-54923465D01*
X67861574Y-54817482D01*
X67861575Y-54817477D01*
X67880181Y-54700003D01*
X67880181Y-54699996D01*
X67861575Y-54582522D01*
X67861575Y-54582521D01*
X67861574Y-54582519D01*
X67861574Y-54582518D01*
X67807573Y-54476535D01*
X67807571Y-54476533D01*
X67807568Y-54476529D01*
X67723470Y-54392431D01*
X67723466Y-54392428D01*
X67723465Y-54392427D01*
X67617482Y-54338426D01*
X67617480Y-54338425D01*
X67617477Y-54338424D01*
X67500003Y-54319819D01*
X67499997Y-54319819D01*
X67382522Y-54338424D01*
X67382521Y-54338424D01*
X67276533Y-54392428D01*
X67276529Y-54392431D01*
X67192431Y-54476529D01*
X67192428Y-54476533D01*
X67138424Y-54582521D01*
X67138424Y-54582522D01*
X67119819Y-54699996D01*
X53956598Y-54699996D01*
X54057213Y-54645056D01*
X54280568Y-54477855D01*
X54477855Y-54280568D01*
X54645056Y-54057213D01*
X54778769Y-53812337D01*
X54876271Y-53550923D01*
X54935578Y-53278294D01*
X54955482Y-53000000D01*
X54955482Y-52999996D01*
X68894508Y-52999996D01*
X68894508Y-53000003D01*
X68914352Y-53125300D01*
X68914352Y-53125301D01*
X68914354Y-53125304D01*
X68971950Y-53238342D01*
X68971952Y-53238344D01*
X68971954Y-53238347D01*
X69061652Y-53328045D01*
X69061654Y-53328046D01*
X69061658Y-53328050D01*
X69174696Y-53385646D01*
X69205064Y-53390455D01*
X69268198Y-53420384D01*
X69305130Y-53479695D01*
X69304134Y-53549557D01*
X69296152Y-53569223D01*
X69238425Y-53682518D01*
X69238424Y-53682522D01*
X69219819Y-53799996D01*
X69219819Y-53800003D01*
X69238424Y-53917477D01*
X69238424Y-53917478D01*
X69292428Y-54023466D01*
X69292431Y-54023470D01*
X69376529Y-54107568D01*
X69376533Y-54107571D01*
X69376535Y-54107573D01*
X69482518Y-54161574D01*
X69482520Y-54161574D01*
X69482522Y-54161575D01*
X69599997Y-54180181D01*
X69600000Y-54180181D01*
X69600003Y-54180181D01*
X69717477Y-54161575D01*
X69717478Y-54161575D01*
X69717479Y-54161574D01*
X69717482Y-54161574D01*
X69823465Y-54107573D01*
X69907573Y-54023465D01*
X69961574Y-53917482D01*
X69961575Y-53917477D01*
X69980181Y-53800003D01*
X69980181Y-53799996D01*
X69961575Y-53682522D01*
X69961575Y-53682521D01*
X69961574Y-53682519D01*
X69961574Y-53682518D01*
X69907573Y-53576535D01*
X69907571Y-53576533D01*
X69907568Y-53576529D01*
X69823470Y-53492431D01*
X69823466Y-53492428D01*
X69823465Y-53492427D01*
X69717482Y-53438426D01*
X69717480Y-53438425D01*
X69717479Y-53438425D01*
X69706765Y-53436728D01*
X69643631Y-53406796D01*
X69606702Y-53347483D01*
X69607702Y-53277621D01*
X69625853Y-53241364D01*
X69628042Y-53238349D01*
X69628050Y-53238342D01*
X69685646Y-53125304D01*
X69685646Y-53125302D01*
X69685647Y-53125301D01*
X69685647Y-53125300D01*
X69705492Y-53000003D01*
X69705492Y-52999998D01*
X71044518Y-52999998D01*
X71044518Y-53000001D01*
X71064422Y-53278299D01*
X71123727Y-53550916D01*
X71123729Y-53550923D01*
X71133282Y-53576535D01*
X71221231Y-53812338D01*
X71221233Y-53812342D01*
X71354940Y-54057207D01*
X71354945Y-54057215D01*
X71522138Y-54280560D01*
X71522154Y-54280578D01*
X71719421Y-54477845D01*
X71719439Y-54477861D01*
X71942784Y-54645054D01*
X71942792Y-54645059D01*
X72187657Y-54778766D01*
X72187661Y-54778768D01*
X72187663Y-54778769D01*
X72449077Y-54876271D01*
X72585391Y-54905924D01*
X72721700Y-54935577D01*
X72721702Y-54935577D01*
X72721706Y-54935578D01*
X72969014Y-54953265D01*
X72999999Y-54955482D01*
X73000000Y-54955482D01*
X73000001Y-54955482D01*
X73027881Y-54953487D01*
X73278294Y-54935578D01*
X73550923Y-54876271D01*
X73812337Y-54778769D01*
X74057213Y-54645056D01*
X74280568Y-54477855D01*
X74477855Y-54280568D01*
X74645056Y-54057213D01*
X74778769Y-53812337D01*
X74876271Y-53550923D01*
X74935578Y-53278294D01*
X74955482Y-53000000D01*
X74935578Y-52721706D01*
X74924754Y-52671951D01*
X74876272Y-52449083D01*
X74876271Y-52449077D01*
X74778769Y-52187663D01*
X74748679Y-52132558D01*
X74645059Y-51942792D01*
X74645054Y-51942784D01*
X74477861Y-51719439D01*
X74477845Y-51719421D01*
X74280578Y-51522154D01*
X74280560Y-51522138D01*
X74057215Y-51354945D01*
X74057207Y-51354940D01*
X73812342Y-51221233D01*
X73812338Y-51221231D01*
X73713230Y-51184266D01*
X73550923Y-51123729D01*
X73550919Y-51123728D01*
X73550916Y-51123727D01*
X73278299Y-51064422D01*
X73000001Y-51044518D01*
X72999999Y-51044518D01*
X72721700Y-51064422D01*
X72449083Y-51123727D01*
X72449078Y-51123728D01*
X72449077Y-51123729D01*
X72441554Y-51126535D01*
X72187661Y-51221231D01*
X72187657Y-51221233D01*
X71942792Y-51354940D01*
X71942784Y-51354945D01*
X71719439Y-51522138D01*
X71719421Y-51522154D01*
X71522154Y-51719421D01*
X71522138Y-51719439D01*
X71354945Y-51942784D01*
X71354940Y-51942792D01*
X71221233Y-52187657D01*
X71221231Y-52187661D01*
X71123727Y-52449083D01*
X71064422Y-52721700D01*
X71044518Y-52999998D01*
X69705492Y-52999998D01*
X69705492Y-52999996D01*
X69685647Y-52874699D01*
X69685647Y-52874698D01*
X69657214Y-52818896D01*
X69628050Y-52761658D01*
X69628046Y-52761654D01*
X69628045Y-52761652D01*
X69538347Y-52671954D01*
X69538344Y-52671952D01*
X69538342Y-52671950D01*
X69425304Y-52614354D01*
X69425303Y-52614353D01*
X69425300Y-52614352D01*
X69300003Y-52594508D01*
X69299997Y-52594508D01*
X69174699Y-52614352D01*
X69174698Y-52614352D01*
X69099337Y-52652751D01*
X69061658Y-52671950D01*
X69061657Y-52671951D01*
X69061652Y-52671954D01*
X68971954Y-52761652D01*
X68971951Y-52761657D01*
X68914352Y-52874698D01*
X68914352Y-52874699D01*
X68894508Y-52999996D01*
X54955482Y-52999996D01*
X54935578Y-52721706D01*
X54924754Y-52671951D01*
X54876272Y-52449083D01*
X54876271Y-52449077D01*
X54778769Y-52187663D01*
X54748679Y-52132558D01*
X54645059Y-51942792D01*
X54645054Y-51942784D01*
X54477861Y-51719439D01*
X54477845Y-51719421D01*
X54280578Y-51522154D01*
X54280560Y-51522138D01*
X54057215Y-51354945D01*
X54057207Y-51354940D01*
X54048153Y-51349996D01*
X62819819Y-51349996D01*
X62819819Y-51350003D01*
X62838424Y-51467477D01*
X62838424Y-51467478D01*
X62838425Y-51467481D01*
X62838426Y-51467482D01*
X62860892Y-51511575D01*
X62892428Y-51573466D01*
X62892431Y-51573470D01*
X62976529Y-51657568D01*
X62976533Y-51657571D01*
X62976535Y-51657573D01*
X63082518Y-51711574D01*
X63082520Y-51711574D01*
X63082522Y-51711575D01*
X63199997Y-51730181D01*
X63200000Y-51730181D01*
X63200003Y-51730181D01*
X63317477Y-51711575D01*
X63317478Y-51711575D01*
X63317479Y-51711574D01*
X63317482Y-51711574D01*
X63423465Y-51657573D01*
X63507573Y-51573465D01*
X63543914Y-51502140D01*
X63591886Y-51451345D01*
X63659707Y-51434549D01*
X63717311Y-51454178D01*
X63717840Y-51453142D01*
X63725046Y-51456814D01*
X63725842Y-51457085D01*
X63726492Y-51457550D01*
X63726532Y-51457570D01*
X63726535Y-51457573D01*
X63832518Y-51511574D01*
X63832520Y-51511574D01*
X63832522Y-51511575D01*
X63949997Y-51530181D01*
X63950000Y-51530181D01*
X63950003Y-51530181D01*
X64067477Y-51511575D01*
X64067478Y-51511575D01*
X64067479Y-51511574D01*
X64067482Y-51511574D01*
X64173465Y-51457573D01*
X64257573Y-51373465D01*
X64311574Y-51267482D01*
X64318899Y-51221233D01*
X64330181Y-51150003D01*
X64330181Y-51149996D01*
X64311575Y-51032522D01*
X64311575Y-51032521D01*
X64311574Y-51032519D01*
X64311574Y-51032518D01*
X64257573Y-50926535D01*
X64257570Y-50926532D01*
X64253627Y-50918793D01*
X64240731Y-50850124D01*
X64253628Y-50806203D01*
X64257571Y-50798463D01*
X64257573Y-50798462D01*
X64311574Y-50692479D01*
X64311575Y-50692474D01*
X64330181Y-50575000D01*
X64330181Y-50574993D01*
X64311575Y-50457519D01*
X64311575Y-50457518D01*
X64311574Y-50457516D01*
X64311574Y-50457515D01*
X64257573Y-50351532D01*
X64257571Y-50351530D01*
X64257568Y-50351526D01*
X64173470Y-50267428D01*
X64173466Y-50267425D01*
X64173465Y-50267424D01*
X64067482Y-50213423D01*
X64067480Y-50213422D01*
X64067477Y-50213421D01*
X64045851Y-50209996D01*
X64629819Y-50209996D01*
X64629819Y-50210003D01*
X64648424Y-50327477D01*
X64648424Y-50327478D01*
X64648425Y-50327481D01*
X64648426Y-50327482D01*
X64680280Y-50390000D01*
X64702428Y-50433466D01*
X64702431Y-50433470D01*
X64786529Y-50517568D01*
X64786533Y-50517571D01*
X64786535Y-50517573D01*
X64892518Y-50571574D01*
X64892520Y-50571574D01*
X64892522Y-50571575D01*
X65009997Y-50590181D01*
X65010000Y-50590181D01*
X65010003Y-50590181D01*
X65127477Y-50571575D01*
X65127478Y-50571574D01*
X65127482Y-50571574D01*
X65218956Y-50524965D01*
X65287623Y-50512069D01*
X65352363Y-50538345D01*
X65362933Y-50547772D01*
X65371385Y-50556224D01*
X65484423Y-50613820D01*
X65484424Y-50613820D01*
X65484426Y-50613821D01*
X65609724Y-50633666D01*
X65609727Y-50633666D01*
X65609730Y-50633666D01*
X65735027Y-50613821D01*
X65735028Y-50613821D01*
X65735029Y-50613820D01*
X65735031Y-50613820D01*
X65848069Y-50556224D01*
X65937777Y-50466516D01*
X65976766Y-50389996D01*
X68339819Y-50389996D01*
X68339819Y-50390003D01*
X68358424Y-50507477D01*
X68358424Y-50507478D01*
X68358425Y-50507481D01*
X68358426Y-50507482D01*
X68400563Y-50590181D01*
X68412428Y-50613466D01*
X68412431Y-50613470D01*
X68496529Y-50697568D01*
X68496533Y-50697571D01*
X68496535Y-50697573D01*
X68602518Y-50751574D01*
X68602520Y-50751574D01*
X68602522Y-50751575D01*
X68719997Y-50770181D01*
X68720000Y-50770181D01*
X68720003Y-50770181D01*
X68837477Y-50751575D01*
X68837478Y-50751575D01*
X68837479Y-50751574D01*
X68837482Y-50751574D01*
X68943465Y-50697573D01*
X69027573Y-50613465D01*
X69081574Y-50507482D01*
X69087837Y-50467938D01*
X69100181Y-50390003D01*
X69100181Y-50389996D01*
X69081575Y-50272522D01*
X69081575Y-50272521D01*
X69081574Y-50272519D01*
X69081574Y-50272518D01*
X69027573Y-50166535D01*
X69027571Y-50166533D01*
X69027568Y-50166529D01*
X68943470Y-50082431D01*
X68943466Y-50082428D01*
X68943465Y-50082427D01*
X68837482Y-50028426D01*
X68837480Y-50028425D01*
X68837477Y-50028424D01*
X68720003Y-50009819D01*
X68719997Y-50009819D01*
X68602522Y-50028424D01*
X68602521Y-50028424D01*
X68496533Y-50082428D01*
X68496529Y-50082431D01*
X68412431Y-50166529D01*
X68412428Y-50166533D01*
X68358424Y-50272521D01*
X68358424Y-50272522D01*
X68339819Y-50389996D01*
X65976766Y-50389996D01*
X65995373Y-50353478D01*
X65995373Y-50353476D01*
X65995374Y-50353475D01*
X65995374Y-50353474D01*
X66015219Y-50228177D01*
X66015219Y-50228170D01*
X65995374Y-50102873D01*
X65995374Y-50102872D01*
X65990098Y-50092518D01*
X65937777Y-49989832D01*
X65937773Y-49989828D01*
X65937772Y-49989826D01*
X65848074Y-49900128D01*
X65848071Y-49900126D01*
X65848069Y-49900124D01*
X65735031Y-49842528D01*
X65735030Y-49842527D01*
X65735027Y-49842526D01*
X65609730Y-49822682D01*
X65609724Y-49822682D01*
X65484426Y-49842526D01*
X65484425Y-49842526D01*
X65411476Y-49879696D01*
X65371385Y-49900124D01*
X65371383Y-49900125D01*
X65362690Y-49904555D01*
X65361744Y-49902700D01*
X65307905Y-49921904D01*
X65242273Y-49906634D01*
X65242160Y-49906858D01*
X65241256Y-49906397D01*
X65239853Y-49906071D01*
X65236934Y-49904195D01*
X65233465Y-49902427D01*
X65127482Y-49848426D01*
X65127480Y-49848425D01*
X65127477Y-49848424D01*
X65010003Y-49829819D01*
X65009997Y-49829819D01*
X64892522Y-49848424D01*
X64892521Y-49848424D01*
X64786533Y-49902428D01*
X64786529Y-49902431D01*
X64702431Y-49986529D01*
X64702428Y-49986533D01*
X64648424Y-50092521D01*
X64648424Y-50092522D01*
X64629819Y-50209996D01*
X64045851Y-50209996D01*
X63950003Y-50194816D01*
X63949997Y-50194816D01*
X63832522Y-50213421D01*
X63832521Y-50213421D01*
X63726533Y-50267425D01*
X63726529Y-50267428D01*
X63642431Y-50351526D01*
X63642428Y-50351530D01*
X63588424Y-50457518D01*
X63588424Y-50457519D01*
X63569819Y-50574993D01*
X63569819Y-50575000D01*
X63588424Y-50692474D01*
X63588424Y-50692475D01*
X63588425Y-50692478D01*
X63588426Y-50692479D01*
X63642427Y-50798462D01*
X63642428Y-50798463D01*
X63646372Y-50806203D01*
X63659268Y-50874872D01*
X63646372Y-50918793D01*
X63642427Y-50926534D01*
X63642427Y-50926535D01*
X63620360Y-50969845D01*
X63606086Y-50997859D01*
X63558112Y-51048655D01*
X63490291Y-51065450D01*
X63432688Y-51045820D01*
X63432160Y-51046858D01*
X63424945Y-51043182D01*
X63424156Y-51042913D01*
X63423510Y-51042450D01*
X63404017Y-51032518D01*
X63317482Y-50988426D01*
X63317480Y-50988425D01*
X63317477Y-50988424D01*
X63200003Y-50969819D01*
X63199997Y-50969819D01*
X63082522Y-50988424D01*
X63082521Y-50988424D01*
X62976533Y-51042428D01*
X62976529Y-51042431D01*
X62892431Y-51126529D01*
X62892428Y-51126533D01*
X62838424Y-51232521D01*
X62838424Y-51232522D01*
X62819819Y-51349996D01*
X54048153Y-51349996D01*
X53812342Y-51221233D01*
X53812338Y-51221231D01*
X53713230Y-51184266D01*
X53550923Y-51123729D01*
X53550919Y-51123728D01*
X53550916Y-51123727D01*
X53278299Y-51064422D01*
X53000001Y-51044518D01*
X52999999Y-51044518D01*
X52721700Y-51064422D01*
X52449083Y-51123727D01*
X52449078Y-51123728D01*
X52449077Y-51123729D01*
X52441554Y-51126535D01*
X52187661Y-51221231D01*
X52187657Y-51221233D01*
X51942792Y-51354940D01*
X51942784Y-51354945D01*
X51719439Y-51522138D01*
X51719421Y-51522154D01*
X51522154Y-51719421D01*
X51522138Y-51719439D01*
X51354945Y-51942784D01*
X51354940Y-51942792D01*
X51221233Y-52187657D01*
X51221231Y-52187661D01*
X51123727Y-52449083D01*
X51064422Y-52721700D01*
X51044518Y-52999998D01*
X49667536Y-52999998D01*
X49732666Y-52823456D01*
X49736389Y-52814471D01*
X49802092Y-52671950D01*
X49919673Y-52416894D01*
X49924088Y-52408231D01*
X50138000Y-52026265D01*
X50143087Y-52017963D01*
X50193320Y-51942784D01*
X50386311Y-51653953D01*
X50392012Y-51646106D01*
X50663066Y-51302275D01*
X50669357Y-51294909D01*
X50966556Y-50973402D01*
X50973402Y-50966556D01*
X51294909Y-50669357D01*
X51302275Y-50663066D01*
X51646106Y-50392012D01*
X51653953Y-50386311D01*
X52017965Y-50143085D01*
X52026265Y-50138000D01*
X52408231Y-49924088D01*
X52416894Y-49919673D01*
X52814471Y-49736389D01*
X52823456Y-49732666D01*
X53234219Y-49581127D01*
X53243438Y-49578132D01*
X53664810Y-49459294D01*
X53674230Y-49457032D01*
X54103627Y-49371619D01*
X54113215Y-49370100D01*
X54548002Y-49318640D01*
X54557693Y-49317878D01*
X54979997Y-49301285D01*
X54997557Y-49300596D01*
X55002425Y-49300500D01*
X55047595Y-49300500D01*
X62769099Y-49300500D01*
X62836138Y-49320185D01*
G37*
%TD.AperFunction*%
%TD*%
M02*
